<?xml version="1.0" encoding="UTF-8"?>
<svg xmlns="http://www.w3.org/2000/svg" xmlns:xlink="http://www.w3.org/1999/xlink" width="19pt" height="15pt" viewBox="0 0 19 15" version="1.1">
<g id="surface1">
<path style=" stroke:none;fill-rule:nonzero;fill:rgb(0%,0%,0%);fill-opacity:1;" d="M 5.628906 14.480469 L 5.628906 13.515625 C 5.636719 13.433594 5.625 13.355469 5.597656 13.277344 C 5.570312 13.203125 5.523438 13.132812 5.46875 13.074219 C 5.410156 13.019531 5.34375 12.972656 5.269531 12.945312 C 5.191406 12.914062 5.113281 12.902344 5.03125 12.90625 C 4.925781 12.902344 4.820312 12.921875 4.726562 12.972656 C 4.632812 13.019531 4.550781 13.09375 4.496094 13.179688 C 4.441406 13.09375 4.367188 13.023438 4.28125 12.976562 C 4.191406 12.925781 4.089844 12.902344 3.988281 12.910156 C 3.902344 12.902344 3.816406 12.921875 3.734375 12.964844 C 3.65625 13.003906 3.589844 13.0625 3.542969 13.136719 L 3.542969 12.949219 L 3.210938 12.949219 L 3.210938 14.480469 L 3.546875 14.480469 L 3.546875 13.632812 C 3.539062 13.578125 3.542969 13.527344 3.558594 13.472656 C 3.574219 13.421875 3.601562 13.375 3.636719 13.335938 C 3.671875 13.296875 3.714844 13.269531 3.765625 13.25 C 3.816406 13.230469 3.867188 13.21875 3.917969 13.222656 C 4.140625 13.222656 4.253906 13.367188 4.253906 13.628906 L 4.253906 14.480469 L 4.589844 14.480469 L 4.589844 13.632812 C 4.582031 13.578125 4.585938 13.527344 4.601562 13.476562 C 4.617188 13.425781 4.644531 13.378906 4.679688 13.339844 C 4.714844 13.300781 4.757812 13.269531 4.808594 13.25 C 4.855469 13.230469 4.910156 13.222656 4.960938 13.222656 C 5.1875 13.222656 5.296875 13.367188 5.296875 13.628906 L 5.296875 14.480469 Z M 7.5 13.714844 L 7.5 12.949219 L 7.164062 12.949219 L 7.164062 13.132812 C 7.109375 13.0625 7.035156 13 6.953125 12.960938 C 6.867188 12.921875 6.777344 12.90625 6.6875 12.910156 C 6.472656 12.910156 6.269531 12.992188 6.121094 13.144531 C 5.96875 13.292969 5.886719 13.5 5.886719 13.710938 C 5.886719 13.925781 5.96875 14.128906 6.121094 14.277344 C 6.269531 14.429688 6.472656 14.515625 6.6875 14.515625 C 6.777344 14.519531 6.867188 14.5 6.953125 14.460938 C 7.035156 14.421875 7.109375 14.363281 7.164062 14.289062 L 7.164062 14.476562 L 7.496094 14.476562 Z M 6.265625 13.714844 C 6.269531 13.621094 6.300781 13.535156 6.355469 13.464844 C 6.410156 13.390625 6.484375 13.335938 6.566406 13.304688 C 6.652344 13.273438 6.746094 13.269531 6.832031 13.289062 C 6.921875 13.308594 7 13.355469 7.0625 13.421875 C 7.125 13.488281 7.164062 13.570312 7.179688 13.65625 C 7.195312 13.746094 7.1875 13.839844 7.152344 13.921875 C 7.113281 14.003906 7.058594 14.078125 6.980469 14.125 C 6.90625 14.175781 6.816406 14.203125 6.726562 14.203125 C 6.664062 14.207031 6.601562 14.195312 6.542969 14.167969 C 6.484375 14.144531 6.429688 14.109375 6.386719 14.0625 C 6.34375 14.015625 6.308594 13.960938 6.289062 13.902344 C 6.265625 13.839844 6.257812 13.777344 6.261719 13.714844 Z M 14.601562 12.910156 C 14.710938 12.910156 14.816406 12.929688 14.917969 12.972656 C 15.015625 13.011719 15.105469 13.066406 15.179688 13.140625 C 15.253906 13.214844 15.3125 13.300781 15.351562 13.398438 C 15.4375 13.601562 15.4375 13.832031 15.351562 14.039062 C 15.3125 14.136719 15.253906 14.222656 15.179688 14.296875 C 15.105469 14.367188 15.015625 14.425781 14.917969 14.464844 C 14.707031 14.546875 14.476562 14.546875 14.265625 14.464844 C 14.167969 14.425781 14.082031 14.367188 14.003906 14.296875 C 13.933594 14.222656 13.875 14.132812 13.835938 14.039062 C 13.75 13.832031 13.75 13.601562 13.835938 13.398438 C 13.875 13.300781 13.933594 13.214844 14.003906 13.140625 C 14.082031 13.066406 14.167969 13.011719 14.265625 12.972656 C 14.371094 12.925781 14.484375 12.90625 14.597656 12.90625 Z M 14.601562 13.230469 C 14.535156 13.230469 14.46875 13.242188 14.410156 13.265625 C 14.351562 13.289062 14.300781 13.324219 14.257812 13.367188 C 14.214844 13.414062 14.179688 13.46875 14.15625 13.527344 C 14.109375 13.65625 14.109375 13.800781 14.15625 13.925781 C 14.179688 13.988281 14.214844 14.042969 14.257812 14.085938 C 14.300781 14.132812 14.351562 14.167969 14.410156 14.191406 C 14.53125 14.238281 14.667969 14.238281 14.789062 14.191406 C 14.847656 14.167969 14.902344 14.132812 14.949219 14.085938 C 14.992188 14.042969 15.027344 13.988281 15.050781 13.925781 C 15.097656 13.800781 15.097656 13.65625 15.050781 13.527344 C 15.027344 13.46875 14.992188 13.414062 14.949219 13.367188 C 14.902344 13.324219 14.847656 13.289062 14.789062 13.265625 C 14.730469 13.238281 14.664062 13.222656 14.597656 13.222656 Z M 9.304688 13.714844 C 9.304688 13.230469 9.007812 12.910156 8.582031 12.910156 C 8.371094 12.914062 8.167969 13 8.019531 13.152344 C 7.871094 13.304688 7.792969 13.511719 7.792969 13.722656 C 7.796875 13.9375 7.882812 14.140625 8.035156 14.289062 C 8.1875 14.4375 8.390625 14.519531 8.605469 14.515625 C 8.832031 14.523438 9.054688 14.449219 9.230469 14.300781 L 9.070312 14.054688 C 8.941406 14.15625 8.785156 14.210938 8.625 14.214844 C 8.515625 14.222656 8.40625 14.191406 8.320312 14.121094 C 8.234375 14.050781 8.179688 13.949219 8.167969 13.839844 L 9.300781 13.839844 C 9.304688 13.796875 9.304688 13.757812 9.304688 13.714844 Z M 8.167969 13.578125 C 8.175781 13.476562 8.222656 13.382812 8.296875 13.3125 C 8.371094 13.242188 8.46875 13.207031 8.570312 13.207031 C 8.621094 13.207031 8.667969 13.214844 8.714844 13.234375 C 8.761719 13.25 8.804688 13.277344 8.839844 13.3125 C 8.875 13.347656 8.90625 13.390625 8.925781 13.433594 C 8.945312 13.480469 8.957031 13.53125 8.957031 13.578125 Z M 10.703125 13.335938 C 10.558594 13.253906 10.390625 13.207031 10.222656 13.207031 C 10.042969 13.207031 9.933594 13.273438 9.933594 13.386719 C 9.933594 13.5 10.046875 13.515625 10.191406 13.535156 L 10.351562 13.558594 C 10.683594 13.605469 10.882812 13.75 10.882812 14.019531 C 10.882812 14.289062 10.628906 14.519531 10.191406 14.519531 C 9.953125 14.527344 9.722656 14.457031 9.53125 14.320312 L 9.691406 14.058594 C 9.835938 14.171875 10.015625 14.226562 10.199219 14.222656 C 10.425781 14.222656 10.546875 14.152344 10.546875 14.035156 C 10.546875 13.949219 10.460938 13.898438 10.277344 13.875 L 10.117188 13.851562 C 9.777344 13.804688 9.589844 13.648438 9.589844 13.398438 C 9.589844 13.09375 9.839844 12.90625 10.230469 12.90625 C 10.449219 12.902344 10.664062 12.957031 10.851562 13.070312 Z M 12.300781 13.25 L 11.757812 13.25 L 11.757812 13.941406 C 11.757812 14.105469 11.8125 14.199219 11.980469 14.199219 C 12.082031 14.195312 12.183594 14.164062 12.273438 14.113281 L 12.371094 14.398438 C 12.246094 14.476562 12.101562 14.519531 11.953125 14.515625 C 11.5625 14.515625 11.425781 14.304688 11.425781 13.949219 L 11.425781 13.25 L 11.113281 13.25 L 11.113281 12.945312 L 11.425781 12.945312 L 11.425781 12.480469 L 11.757812 12.480469 L 11.757812 12.945312 L 12.300781 12.945312 Z M 13.449219 12.90625 C 13.53125 12.90625 13.609375 12.921875 13.6875 12.949219 L 13.582031 13.269531 C 13.519531 13.242188 13.445312 13.230469 13.375 13.230469 C 13.160156 13.230469 13.054688 13.375 13.054688 13.625 L 13.054688 14.484375 L 12.722656 14.484375 L 12.722656 12.953125 L 13.054688 12.953125 L 13.054688 13.136719 C 13.09375 13.066406 13.152344 13.011719 13.222656 12.972656 C 13.296875 12.929688 13.375 12.910156 13.457031 12.914062 Z M 15.746094 14.257812 C 15.769531 14.253906 15.789062 14.257812 15.808594 14.265625 C 15.828125 14.273438 15.84375 14.285156 15.859375 14.300781 C 15.871094 14.3125 15.882812 14.328125 15.890625 14.347656 C 15.898438 14.367188 15.902344 14.386719 15.902344 14.40625 C 15.902344 14.425781 15.898438 14.449219 15.890625 14.464844 C 15.882812 14.484375 15.871094 14.5 15.859375 14.511719 C 15.84375 14.527344 15.828125 14.539062 15.808594 14.546875 C 15.789062 14.554688 15.769531 14.558594 15.746094 14.558594 C 15.71875 14.558594 15.6875 14.550781 15.664062 14.53125 C 15.636719 14.515625 15.617188 14.492188 15.605469 14.464844 C 15.597656 14.445312 15.59375 14.425781 15.59375 14.40625 C 15.59375 14.386719 15.597656 14.363281 15.605469 14.347656 C 15.613281 14.328125 15.621094 14.3125 15.636719 14.296875 C 15.652344 14.285156 15.667969 14.273438 15.6875 14.265625 C 15.703125 14.257812 15.722656 14.257812 15.738281 14.253906 L 15.746094 14.253906 Z M 15.746094 14.527344 C 15.761719 14.527344 15.777344 14.523438 15.792969 14.515625 C 15.808594 14.511719 15.820312 14.503906 15.832031 14.492188 C 15.84375 14.476562 15.855469 14.460938 15.859375 14.441406 C 15.867188 14.425781 15.867188 14.40625 15.863281 14.386719 C 15.859375 14.367188 15.851562 14.347656 15.839844 14.335938 C 15.828125 14.320312 15.8125 14.308594 15.792969 14.300781 C 15.777344 14.292969 15.761719 14.289062 15.746094 14.289062 C 15.730469 14.289062 15.714844 14.292969 15.699219 14.300781 C 15.6875 14.304688 15.671875 14.3125 15.664062 14.324219 C 15.640625 14.347656 15.632812 14.375 15.632812 14.40625 C 15.632812 14.433594 15.640625 14.464844 15.664062 14.484375 C 15.671875 14.496094 15.6875 14.507812 15.703125 14.511719 C 15.714844 14.519531 15.730469 14.523438 15.746094 14.523438 Z M 15.757812 14.335938 C 15.773438 14.335938 15.785156 14.339844 15.796875 14.347656 C 15.804688 14.351562 15.808594 14.359375 15.808594 14.363281 C 15.8125 14.371094 15.8125 14.375 15.8125 14.382812 C 15.8125 14.386719 15.8125 14.394531 15.808594 14.398438 C 15.808594 14.402344 15.804688 14.40625 15.800781 14.410156 C 15.792969 14.421875 15.78125 14.425781 15.769531 14.425781 L 15.8125 14.476562 L 15.777344 14.476562 L 15.734375 14.425781 L 15.71875 14.425781 L 15.71875 14.476562 L 15.691406 14.476562 L 15.691406 14.332031 Z M 15.722656 14.363281 L 15.722656 14.402344 L 15.757812 14.402344 C 15.761719 14.402344 15.769531 14.402344 15.777344 14.402344 C 15.777344 14.398438 15.777344 14.398438 15.777344 14.394531 C 15.777344 14.390625 15.777344 14.390625 15.777344 14.386719 C 15.777344 14.386719 15.777344 14.382812 15.777344 14.378906 C 15.777344 14.378906 15.777344 14.375 15.777344 14.371094 C 15.769531 14.371094 15.761719 14.371094 15.757812 14.371094 Z M 15.722656 14.363281 "/>
<path style=" stroke:none;fill-rule:nonzero;fill:rgb(46.27451%,45.098039%,75.294118%);fill-opacity:1;" d="M 11.820312 1.25 L 6.789062 1.25 L 6.789062 10.339844 L 11.820312 10.339844 Z M 11.820312 1.25 "/>
<path style=" stroke:none;fill-rule:nonzero;fill:rgb(92.156863%,0%,10.588235%);fill-opacity:1;" d="M 7.109375 5.792969 C 7.109375 4.917969 7.304688 4.054688 7.683594 3.269531 C 8.066406 2.480469 8.621094 1.789062 9.304688 1.25 C 8.457031 0.578125 7.4375 0.164062 6.363281 0.046875 C 5.292969 -0.0664062 4.207031 0.121094 3.238281 0.597656 C 2.265625 1.070312 1.449219 1.808594 0.875 2.726562 C 0.304688 3.648438 0 4.710938 0 5.792969 C 0 6.878906 0.304688 7.941406 0.875 8.859375 C 1.449219 9.777344 2.265625 10.519531 3.238281 10.992188 C 4.207031 11.464844 5.292969 11.65625 6.367188 11.539062 C 7.4375 11.425781 8.457031 11.007812 9.304688 10.335938 C 8.621094 9.796875 8.066406 9.105469 7.6875 8.320312 C 7.304688 7.53125 7.109375 6.667969 7.109375 5.792969 Z M 7.109375 5.792969 "/>
<path style=" stroke:none;fill-rule:nonzero;fill:rgb(0%,63.137255%,87.45098%);fill-opacity:1;" d="M 18.0625 9.375 L 18.0625 9.195312 L 18.136719 9.195312 L 18.136719 9.15625 L 17.949219 9.15625 L 17.949219 9.195312 L 18.023438 9.195312 L 18.023438 9.378906 Z M 18.429688 9.375 L 18.429688 9.148438 L 18.375 9.148438 L 18.308594 9.308594 L 18.238281 9.148438 L 18.179688 9.148438 L 18.179688 9.375 L 18.222656 9.375 L 18.222656 9.207031 L 18.285156 9.351562 L 18.328125 9.351562 L 18.390625 9.207031 L 18.390625 9.375 Z M 18.429688 9.375 "/>
<path style=" stroke:none;fill-rule:nonzero;fill:rgb(0%,63.137255%,87.45098%);fill-opacity:1;" d="M 18.609375 5.792969 C 18.609375 6.878906 18.304688 7.941406 17.734375 8.859375 C 17.160156 9.777344 16.34375 10.519531 15.371094 10.992188 C 14.402344 11.464844 13.320312 11.65625 12.246094 11.539062 C 11.171875 11.421875 10.152344 11.007812 9.304688 10.335938 C 9.988281 9.796875 10.542969 9.105469 10.925781 8.320312 C 11.304688 7.53125 11.503906 6.667969 11.503906 5.792969 C 11.503906 4.917969 11.304688 4.054688 10.925781 3.269531 C 10.542969 2.480469 9.992188 1.789062 9.304688 1.25 C 10.152344 0.578125 11.171875 0.164062 12.246094 0.046875 C 13.320312 -0.0703125 14.402344 0.121094 15.375 0.59375 C 16.34375 1.070312 17.164062 1.808594 17.734375 2.726562 C 18.308594 3.644531 18.613281 4.707031 18.613281 5.792969 Z M 18.609375 5.792969 "/>
</g>
</svg>
