<?xml version="1.0" encoding="UTF-8"?>
<svg xmlns="http://www.w3.org/2000/svg" xmlns:xlink="http://www.w3.org/1999/xlink" width="21pt" height="7pt" viewBox="0 0 21 7" version="1.1">
<defs>
<linearGradient id="linear0" gradientUnits="userSpaceOnUse" x1="0.0058" y1="15.6349" x2="95.976" y2="15.6349" gradientTransform="matrix(0.21875,0,0,0.21875,0,0)">
<stop offset="0" style="stop-color:rgb(13.72549%,11.764706%,36.470588%);stop-opacity:1;"/>
<stop offset="1" style="stop-color:rgb(2.745098%,30.588235%,63.529412%);stop-opacity:1;"/>
</linearGradient>
</defs>
<g id="surface1">
<path style=" stroke:none;fill-rule:nonzero;fill:url(#linear0);" d="M 10.398438 0.121094 L 8.996094 6.734375 L 7.296875 6.734375 L 8.703125 0.121094 Z M 17.539062 4.390625 L 18.429688 1.90625 L 18.945312 4.390625 Z M 19.429688 6.734375 L 21 6.734375 L 19.628906 0.121094 L 18.179688 0.121094 C 17.855469 0.121094 17.582031 0.3125 17.460938 0.605469 L 14.914062 6.734375 L 16.695312 6.734375 L 17.046875 5.746094 L 19.226562 5.746094 Z M 15 4.574219 C 15.007812 2.828125 12.609375 2.734375 12.625 1.953125 C 12.628906 1.714844 12.851562 1.464844 13.34375 1.398438 C 13.585938 1.367188 14.257812 1.34375 15.015625 1.695312 L 15.316406 0.292969 C 14.90625 0.144531 14.382812 0 13.726562 0 C 12.050781 0 10.871094 0.898438 10.859375 2.1875 C 10.847656 3.136719 11.703125 3.667969 12.347656 3.984375 C 13.007812 4.308594 13.226562 4.519531 13.226562 4.808594 C 13.222656 5.25 12.699219 5.449219 12.210938 5.457031 C 11.355469 5.46875 10.863281 5.222656 10.46875 5.039062 L 10.160156 6.488281 C 10.554688 6.671875 11.289062 6.832031 12.046875 6.835938 C 13.828125 6.835938 14.996094 5.949219 15 4.574219 Z M 7.972656 0.121094 L 5.222656 6.734375 L 3.429688 6.734375 L 2.078125 1.457031 C 1.996094 1.132812 1.921875 1.011719 1.675781 0.875 C 1.265625 0.652344 0.59375 0.441406 0 0.3125 L 0.0390625 0.121094 L 2.925781 0.121094 C 3.296875 0.121094 3.625 0.367188 3.710938 0.796875 L 4.425781 4.621094 L 6.191406 0.121094 Z M 7.972656 0.121094 "/>
</g>
</svg>
