<?xml version="1.0" encoding="UTF-8"?>
<svg xmlns="http://www.w3.org/2000/svg" xmlns:xlink="http://www.w3.org/1999/xlink" width="19pt" height="15pt" viewBox="0 0 19 15" version="1.1">
<defs>
<linearGradient id="linear0" gradientUnits="userSpaceOnUse" x1="27.7371" y1="15.9551" x2="39.0834" y2="15.9551" gradientTransform="matrix(0.452381,0,0,0.46875,0,0)">
<stop offset="0" style="stop-color:rgb(0%,48.235294%,25.098039%);stop-opacity:1;"/>
<stop offset="1" style="stop-color:rgb(33.333333%,70.196078%,18.823529%);stop-opacity:1;"/>
</linearGradient>
<linearGradient id="linear1" gradientUnits="userSpaceOnUse" x1="2.2853" y1="15.9551" x2="13.6305" y2="15.9551" gradientTransform="matrix(0.452381,0,0,0.46875,0,0)">
<stop offset="0" style="stop-color:rgb(11.372549%,16.078431%,43.921569%);stop-opacity:1;"/>
<stop offset="1" style="stop-color:rgb(0%,42.745098%,72.941176%);stop-opacity:1;"/>
</linearGradient>
<linearGradient id="linear2" gradientUnits="userSpaceOnUse" x1="15.0118" y1="15.957" x2="26.3476" y2="15.957" gradientTransform="matrix(0.452381,0,0,0.46875,0,0)">
<stop offset="0" style="stop-color:rgb(43.137255%,16.862745%,18.431373%);stop-opacity:1;"/>
<stop offset="1" style="stop-color:rgb(89.019608%,0.392157%,21.960784%);stop-opacity:1;"/>
</linearGradient>
</defs>
<g id="surface1">
<path style=" stroke:none;fill-rule:nonzero;fill:url(#linear0);" d="M 13.5625 7.761719 L 14.78125 7.761719 C 14.785156 7.761719 14.792969 7.761719 14.800781 7.761719 C 14.808594 7.765625 14.8125 7.765625 14.820312 7.765625 C 14.828125 7.765625 14.832031 7.765625 14.839844 7.765625 C 14.847656 7.769531 14.851562 7.769531 14.859375 7.769531 C 14.867188 7.769531 14.875 7.769531 14.878906 7.773438 C 14.886719 7.773438 14.894531 7.773438 14.902344 7.773438 C 14.90625 7.777344 14.910156 7.777344 14.914062 7.777344 L 14.921875 7.78125 C 14.925781 7.78125 14.933594 7.78125 14.941406 7.785156 C 14.949219 7.785156 14.953125 7.789062 14.960938 7.792969 C 14.96875 7.792969 14.972656 7.796875 14.980469 7.796875 C 14.988281 7.800781 14.996094 7.804688 15 7.804688 C 15.007812 7.808594 15.015625 7.8125 15.019531 7.816406 C 15.027344 7.820312 15.035156 7.824219 15.042969 7.824219 C 15.046875 7.828125 15.054688 7.832031 15.0625 7.835938 C 15.066406 7.839844 15.074219 7.84375 15.082031 7.847656 C 15.089844 7.851562 15.09375 7.859375 15.101562 7.863281 C 15.109375 7.867188 15.113281 7.871094 15.121094 7.878906 C 15.128906 7.882812 15.136719 7.886719 15.140625 7.894531 C 15.148438 7.898438 15.15625 7.90625 15.160156 7.910156 C 15.167969 7.917969 15.175781 7.925781 15.183594 7.933594 C 15.1875 7.941406 15.195312 7.945312 15.203125 7.953125 C 15.210938 7.964844 15.214844 7.972656 15.222656 7.980469 C 15.230469 7.988281 15.234375 8 15.242188 8.007812 C 15.25 8.019531 15.253906 8.03125 15.261719 8.042969 C 15.269531 8.054688 15.277344 8.066406 15.28125 8.082031 C 15.289062 8.097656 15.296875 8.113281 15.300781 8.128906 C 15.3125 8.152344 15.316406 8.175781 15.324219 8.199219 C 15.332031 8.242188 15.335938 8.289062 15.335938 8.332031 C 15.335938 8.378906 15.332031 8.425781 15.324219 8.46875 C 15.316406 8.492188 15.3125 8.515625 15.300781 8.539062 C 15.296875 8.554688 15.289062 8.570312 15.28125 8.585938 C 15.277344 8.601562 15.269531 8.613281 15.261719 8.625 C 15.253906 8.636719 15.25 8.648438 15.242188 8.660156 C 15.234375 8.667969 15.230469 8.679688 15.222656 8.6875 C 15.214844 8.695312 15.210938 8.707031 15.203125 8.714844 C 15.195312 8.722656 15.1875 8.726562 15.183594 8.734375 C 15.175781 8.742188 15.167969 8.75 15.160156 8.753906 C 15.15625 8.761719 15.148438 8.769531 15.140625 8.773438 C 15.136719 8.78125 15.128906 8.785156 15.121094 8.789062 C 15.113281 8.796875 15.109375 8.800781 15.101562 8.804688 C 15.09375 8.808594 15.089844 8.816406 15.082031 8.820312 C 15.074219 8.824219 15.066406 8.828125 15.0625 8.832031 C 15.054688 8.835938 15.046875 8.839844 15.042969 8.84375 C 15.035156 8.847656 15.027344 8.847656 15.019531 8.851562 C 15.015625 8.855469 15.007812 8.859375 15 8.859375 C 14.996094 8.863281 14.988281 8.867188 14.980469 8.871094 C 14.972656 8.871094 14.96875 8.875 14.960938 8.875 C 14.953125 8.878906 14.949219 8.878906 14.941406 8.882812 C 14.933594 8.882812 14.925781 8.886719 14.921875 8.886719 L 14.910156 8.890625 C 14.90625 8.890625 14.902344 8.890625 14.898438 8.894531 C 14.894531 8.894531 14.886719 8.894531 14.878906 8.894531 C 14.871094 8.898438 14.867188 8.898438 14.859375 8.898438 C 14.851562 8.898438 14.847656 8.898438 14.839844 8.902344 C 14.832031 8.902344 14.824219 8.902344 14.820312 8.902344 C 14.8125 8.902344 14.804688 8.902344 14.796875 8.902344 C 14.792969 8.90625 14.785156 8.90625 14.777344 8.90625 L 13.5625 8.90625 Z M 15.179688 6.472656 C 15.1875 6.511719 15.191406 6.550781 15.191406 6.59375 C 15.191406 6.636719 15.1875 6.675781 15.179688 6.714844 C 15.175781 6.738281 15.167969 6.761719 15.160156 6.785156 C 15.152344 6.800781 15.148438 6.816406 15.140625 6.832031 C 15.132812 6.847656 15.125 6.859375 15.121094 6.871094 C 15.113281 6.882812 15.105469 6.890625 15.097656 6.902344 C 15.09375 6.914062 15.085938 6.921875 15.078125 6.929688 C 15.074219 6.9375 15.066406 6.945312 15.058594 6.953125 C 15.050781 6.960938 15.046875 6.96875 15.039062 6.972656 C 15.03125 6.980469 15.027344 6.988281 15.019531 6.992188 C 15.011719 7 15.007812 7.003906 15 7.007812 C 14.992188 7.015625 14.984375 7.019531 14.980469 7.023438 C 14.972656 7.03125 14.964844 7.035156 14.957031 7.039062 C 14.953125 7.042969 14.945312 7.046875 14.9375 7.050781 C 14.933594 7.054688 14.925781 7.058594 14.917969 7.0625 C 14.910156 7.066406 14.90625 7.066406 14.898438 7.070312 C 14.890625 7.074219 14.886719 7.078125 14.878906 7.078125 C 14.871094 7.082031 14.867188 7.085938 14.859375 7.089844 C 14.851562 7.089844 14.84375 7.09375 14.839844 7.09375 C 14.832031 7.097656 14.824219 7.097656 14.816406 7.101562 C 14.8125 7.101562 14.804688 7.105469 14.796875 7.105469 C 14.792969 7.105469 14.785156 7.109375 14.777344 7.109375 L 14.773438 7.109375 C 14.769531 7.113281 14.761719 7.113281 14.757812 7.113281 C 14.75 7.113281 14.746094 7.113281 14.738281 7.117188 C 14.730469 7.117188 14.722656 7.117188 14.71875 7.117188 C 14.710938 7.117188 14.703125 7.117188 14.699219 7.117188 C 14.691406 7.117188 14.683594 7.121094 14.675781 7.121094 C 14.671875 7.121094 14.664062 7.121094 14.65625 7.121094 L 13.5625 7.121094 L 13.5625 6.066406 L 14.679688 6.066406 C 14.6875 6.066406 14.691406 6.066406 14.699219 6.070312 C 14.707031 6.070312 14.714844 6.070312 14.71875 6.070312 C 14.726562 6.070312 14.734375 6.070312 14.738281 6.070312 C 14.746094 6.070312 14.753906 6.074219 14.761719 6.074219 C 14.765625 6.074219 14.769531 6.074219 14.773438 6.074219 L 14.78125 6.078125 C 14.785156 6.078125 14.792969 6.078125 14.800781 6.082031 C 14.808594 6.082031 14.8125 6.082031 14.820312 6.085938 C 14.828125 6.085938 14.832031 6.089844 14.839844 6.09375 C 14.847656 6.09375 14.851562 6.097656 14.859375 6.097656 C 14.867188 6.101562 14.875 6.105469 14.878906 6.105469 C 14.886719 6.109375 14.894531 6.113281 14.902344 6.117188 C 14.90625 6.117188 14.914062 6.121094 14.921875 6.125 C 14.925781 6.128906 14.933594 6.132812 14.941406 6.136719 C 14.949219 6.140625 14.953125 6.144531 14.960938 6.148438 C 14.96875 6.152344 14.972656 6.15625 14.980469 6.164062 C 14.988281 6.167969 14.996094 6.171875 15 6.175781 C 15.007812 6.183594 15.015625 6.1875 15.019531 6.195312 C 15.027344 6.199219 15.035156 6.207031 15.042969 6.210938 C 15.046875 6.21875 15.054688 6.226562 15.0625 6.234375 C 15.066406 6.242188 15.074219 6.25 15.082031 6.257812 C 15.089844 6.265625 15.09375 6.273438 15.101562 6.285156 C 15.109375 6.292969 15.117188 6.304688 15.121094 6.316406 C 15.128906 6.328125 15.136719 6.339844 15.140625 6.351562 C 15.148438 6.367188 15.15625 6.386719 15.160156 6.402344 C 15.167969 6.421875 15.175781 6.445312 15.179688 6.472656 Z M 17.667969 1.007812 L 17.675781 1.007812 L 17.675781 11.828125 C 17.675781 11.890625 17.675781 11.953125 17.667969 12.019531 C 17.664062 12.074219 17.65625 12.128906 17.648438 12.183594 C 17.644531 12.21875 17.636719 12.257812 17.628906 12.292969 C 17.621094 12.320312 17.617188 12.351562 17.609375 12.378906 C 17.601562 12.402344 17.597656 12.429688 17.589844 12.453125 C 17.582031 12.476562 17.574219 12.496094 17.566406 12.519531 C 17.5625 12.539062 17.554688 12.558594 17.546875 12.578125 C 17.542969 12.597656 17.535156 12.613281 17.527344 12.632812 C 17.523438 12.648438 17.515625 12.664062 17.507812 12.679688 C 17.5 12.695312 17.496094 12.714844 17.488281 12.730469 C 17.480469 12.742188 17.476562 12.757812 17.46875 12.773438 C 17.460938 12.785156 17.453125 12.800781 17.449219 12.816406 C 17.441406 12.828125 17.433594 12.84375 17.425781 12.855469 C 17.421875 12.867188 17.414062 12.878906 17.40625 12.890625 C 17.402344 12.902344 17.394531 12.917969 17.386719 12.929688 C 17.378906 12.9375 17.375 12.949219 17.367188 12.960938 C 17.359375 12.972656 17.355469 12.984375 17.347656 12.996094 C 17.339844 13.007812 17.332031 13.015625 17.328125 13.027344 C 17.320312 13.039062 17.3125 13.046875 17.308594 13.058594 C 17.300781 13.066406 17.292969 13.078125 17.285156 13.085938 C 17.28125 13.097656 17.273438 13.105469 17.265625 13.117188 C 17.261719 13.125 17.253906 13.132812 17.246094 13.144531 C 17.238281 13.152344 17.234375 13.160156 17.226562 13.171875 C 17.21875 13.179688 17.214844 13.1875 17.207031 13.195312 C 17.199219 13.207031 17.191406 13.214844 17.1875 13.222656 C 17.179688 13.230469 17.171875 13.238281 17.167969 13.246094 C 17.160156 13.253906 17.152344 13.261719 17.144531 13.269531 C 17.140625 13.277344 17.132812 13.285156 17.125 13.292969 C 17.121094 13.300781 17.113281 13.308594 17.105469 13.316406 C 17.097656 13.324219 17.09375 13.328125 17.085938 13.335938 C 17.078125 13.34375 17.074219 13.351562 17.066406 13.359375 C 17.058594 13.367188 17.050781 13.371094 17.046875 13.378906 C 17.039062 13.386719 17.03125 13.390625 17.023438 13.398438 C 17.019531 13.40625 17.011719 13.410156 17.003906 13.417969 C 17 13.425781 16.992188 13.429688 16.984375 13.4375 C 16.976562 13.445312 16.972656 13.449219 16.964844 13.457031 C 16.957031 13.460938 16.953125 13.46875 16.945312 13.472656 C 16.9375 13.480469 16.933594 13.484375 16.925781 13.492188 C 16.917969 13.496094 16.910156 13.503906 16.90625 13.507812 C 16.898438 13.515625 16.890625 13.519531 16.882812 13.523438 C 16.878906 13.53125 16.871094 13.535156 16.863281 13.542969 C 16.859375 13.546875 16.851562 13.550781 16.84375 13.558594 C 16.839844 13.5625 16.832031 13.566406 16.824219 13.574219 C 16.816406 13.578125 16.8125 13.582031 16.804688 13.589844 C 16.796875 13.59375 16.792969 13.597656 16.785156 13.601562 C 16.777344 13.605469 16.769531 13.613281 16.765625 13.617188 C 16.757812 13.621094 16.75 13.625 16.746094 13.628906 C 16.738281 13.636719 16.730469 13.640625 16.722656 13.644531 C 16.71875 13.648438 16.710938 13.652344 16.703125 13.65625 C 16.695312 13.660156 16.691406 13.664062 16.683594 13.671875 C 16.675781 13.675781 16.671875 13.679688 16.664062 13.683594 L 16.644531 13.695312 C 16.636719 13.699219 16.628906 13.703125 16.625 13.707031 C 16.617188 13.710938 16.609375 13.714844 16.601562 13.71875 C 16.597656 13.722656 16.589844 13.726562 16.582031 13.730469 C 16.578125 13.734375 16.570312 13.738281 16.5625 13.742188 C 16.554688 13.742188 16.550781 13.746094 16.542969 13.75 C 16.535156 13.753906 16.53125 13.757812 16.523438 13.761719 C 16.515625 13.765625 16.507812 13.769531 16.503906 13.769531 C 16.496094 13.773438 16.488281 13.777344 16.484375 13.78125 L 16.460938 13.792969 L 16.441406 13.800781 C 16.4375 13.804688 16.429688 13.808594 16.421875 13.808594 C 16.414062 13.8125 16.410156 13.816406 16.402344 13.820312 C 16.394531 13.820312 16.390625 13.824219 16.382812 13.828125 C 16.375 13.832031 16.367188 13.832031 16.363281 13.835938 C 16.355469 13.839844 16.347656 13.84375 16.34375 13.84375 C 16.335938 13.847656 16.328125 13.851562 16.320312 13.851562 L 16.300781 13.859375 C 16.292969 13.863281 16.289062 13.867188 16.28125 13.867188 C 16.273438 13.871094 16.269531 13.875 16.261719 13.875 C 16.253906 13.878906 16.25 13.878906 16.242188 13.882812 L 16.222656 13.890625 C 16.214844 13.890625 16.207031 13.894531 16.199219 13.898438 L 16.179688 13.902344 C 16.175781 13.90625 16.167969 13.90625 16.160156 13.910156 C 16.15625 13.910156 16.148438 13.914062 16.140625 13.914062 C 16.132812 13.917969 16.128906 13.917969 16.121094 13.921875 L 16.082031 13.929688 L 16.0625 13.9375 C 16.054688 13.9375 16.046875 13.9375 16.039062 13.941406 C 16.035156 13.941406 16.027344 13.945312 16.019531 13.945312 L 16 13.949219 L 15.984375 13.953125 C 15.976562 13.953125 15.96875 13.957031 15.960938 13.957031 C 15.957031 13.957031 15.949219 13.960938 15.941406 13.960938 L 15.902344 13.96875 L 15.882812 13.96875 C 15.875 13.972656 15.867188 13.972656 15.863281 13.972656 C 15.855469 13.972656 15.847656 13.976562 15.84375 13.976562 C 15.835938 13.976562 15.828125 13.976562 15.820312 13.976562 C 15.816406 13.980469 15.808594 13.980469 15.800781 13.980469 C 15.796875 13.980469 15.789062 13.980469 15.78125 13.980469 C 15.773438 13.984375 15.769531 13.984375 15.761719 13.984375 C 15.753906 13.984375 15.75 13.984375 15.742188 13.984375 L 15.722656 13.988281 C 15.714844 13.988281 15.707031 13.988281 15.703125 13.988281 C 15.695312 13.988281 15.6875 13.988281 15.679688 13.988281 L 15.660156 13.988281 L 15.640625 13.992188 C 15.632812 13.992188 15.628906 13.992188 15.621094 13.992188 L 12.546875 13.992188 L 12.546875 9.582031 L 15.804688 9.582031 L 15.824219 9.578125 C 15.832031 9.578125 15.839844 9.578125 15.84375 9.578125 C 15.851562 9.578125 15.859375 9.578125 15.867188 9.578125 L 15.886719 9.578125 L 15.90625 9.574219 L 15.945312 9.574219 L 15.964844 9.570312 C 15.972656 9.570312 15.980469 9.570312 15.984375 9.570312 C 15.992188 9.566406 16 9.566406 16.007812 9.566406 L 16.027344 9.5625 C 16.035156 9.5625 16.039062 9.5625 16.046875 9.5625 C 16.054688 9.558594 16.058594 9.558594 16.066406 9.558594 C 16.074219 9.558594 16.082031 9.554688 16.085938 9.554688 L 16.105469 9.550781 L 16.128906 9.546875 C 16.132812 9.546875 16.140625 9.542969 16.148438 9.542969 C 16.152344 9.542969 16.160156 9.539062 16.167969 9.539062 L 16.1875 9.535156 C 16.195312 9.53125 16.199219 9.53125 16.207031 9.527344 C 16.214844 9.527344 16.222656 9.527344 16.226562 9.523438 C 16.234375 9.523438 16.242188 9.519531 16.246094 9.519531 C 16.253906 9.515625 16.261719 9.515625 16.269531 9.511719 C 16.273438 9.511719 16.28125 9.507812 16.289062 9.507812 C 16.292969 9.503906 16.300781 9.503906 16.308594 9.5 L 16.328125 9.492188 C 16.335938 9.492188 16.339844 9.488281 16.347656 9.488281 C 16.355469 9.484375 16.363281 9.480469 16.367188 9.480469 C 16.375 9.476562 16.382812 9.472656 16.386719 9.472656 C 16.394531 9.46875 16.402344 9.464844 16.410156 9.464844 C 16.414062 9.460938 16.421875 9.457031 16.429688 9.457031 C 16.4375 9.453125 16.441406 9.449219 16.449219 9.445312 C 16.457031 9.445312 16.460938 9.441406 16.46875 9.4375 C 16.476562 9.433594 16.484375 9.429688 16.488281 9.425781 C 16.496094 9.425781 16.503906 9.421875 16.507812 9.417969 C 16.515625 9.414062 16.523438 9.410156 16.527344 9.40625 C 16.535156 9.402344 16.542969 9.398438 16.550781 9.398438 C 16.554688 9.394531 16.5625 9.390625 16.570312 9.386719 C 16.574219 9.382812 16.582031 9.378906 16.589844 9.375 C 16.597656 9.371094 16.601562 9.367188 16.609375 9.363281 C 16.617188 9.359375 16.625 9.355469 16.628906 9.351562 C 16.636719 9.347656 16.644531 9.339844 16.648438 9.335938 C 16.65625 9.332031 16.664062 9.328125 16.667969 9.324219 C 16.675781 9.320312 16.683594 9.3125 16.691406 9.308594 C 16.695312 9.304688 16.703125 9.300781 16.710938 9.292969 C 16.71875 9.289062 16.722656 9.285156 16.730469 9.277344 C 16.738281 9.273438 16.742188 9.269531 16.75 9.261719 C 16.757812 9.253906 16.765625 9.25 16.769531 9.246094 C 16.777344 9.238281 16.785156 9.230469 16.789062 9.226562 C 16.796875 9.21875 16.804688 9.214844 16.8125 9.207031 C 16.816406 9.199219 16.824219 9.191406 16.832031 9.1875 C 16.839844 9.179688 16.84375 9.171875 16.851562 9.164062 C 16.859375 9.15625 16.863281 9.148438 16.871094 9.140625 C 16.878906 9.132812 16.882812 9.125 16.890625 9.117188 C 16.898438 9.105469 16.90625 9.097656 16.910156 9.089844 C 16.917969 9.082031 16.925781 9.070312 16.929688 9.0625 C 16.9375 9.050781 16.945312 9.042969 16.953125 9.03125 C 16.957031 9.019531 16.964844 9.007812 16.972656 8.996094 C 16.980469 8.984375 16.984375 8.972656 16.992188 8.960938 C 17 8.949219 17.003906 8.933594 17.011719 8.921875 C 17.019531 8.90625 17.023438 8.890625 17.03125 8.871094 C 17.039062 8.855469 17.046875 8.835938 17.050781 8.816406 C 17.058594 8.792969 17.066406 8.769531 17.070312 8.746094 C 17.082031 8.710938 17.085938 8.671875 17.09375 8.636719 C 17.097656 8.589844 17.101562 8.546875 17.101562 8.496094 C 17.101562 8.449219 17.097656 8.40625 17.09375 8.363281 C 17.085938 8.328125 17.082031 8.292969 17.070312 8.257812 C 17.066406 8.234375 17.058594 8.210938 17.050781 8.1875 C 17.046875 8.171875 17.039062 8.152344 17.03125 8.132812 C 17.023438 8.121094 17.019531 8.105469 17.011719 8.089844 C 17.003906 8.074219 17 8.0625 16.992188 8.050781 C 16.984375 8.039062 16.980469 8.023438 16.972656 8.011719 C 16.964844 8.003906 16.957031 7.992188 16.953125 7.980469 C 16.945312 7.972656 16.9375 7.960938 16.929688 7.953125 C 16.925781 7.941406 16.917969 7.933594 16.910156 7.925781 C 16.90625 7.917969 16.898438 7.910156 16.890625 7.898438 C 16.882812 7.890625 16.878906 7.882812 16.871094 7.875 C 16.863281 7.867188 16.859375 7.859375 16.851562 7.851562 C 16.84375 7.847656 16.839844 7.839844 16.832031 7.832031 C 16.824219 7.824219 16.816406 7.820312 16.8125 7.8125 C 16.804688 7.804688 16.796875 7.800781 16.789062 7.792969 C 16.785156 7.789062 16.777344 7.78125 16.769531 7.777344 C 16.765625 7.769531 16.757812 7.765625 16.75 7.757812 C 16.742188 7.753906 16.738281 7.75 16.730469 7.742188 C 16.722656 7.738281 16.71875 7.734375 16.710938 7.726562 C 16.703125 7.722656 16.695312 7.71875 16.691406 7.714844 C 16.683594 7.707031 16.675781 7.703125 16.667969 7.699219 C 16.664062 7.695312 16.65625 7.691406 16.648438 7.6875 C 16.644531 7.683594 16.636719 7.675781 16.628906 7.671875 C 16.625 7.667969 16.617188 7.664062 16.609375 7.660156 C 16.601562 7.65625 16.597656 7.652344 16.589844 7.648438 C 16.582031 7.648438 16.574219 7.640625 16.570312 7.640625 C 16.5625 7.636719 16.554688 7.632812 16.550781 7.628906 C 16.542969 7.625 16.535156 7.621094 16.527344 7.617188 C 16.523438 7.613281 16.515625 7.613281 16.507812 7.609375 C 16.503906 7.605469 16.496094 7.601562 16.488281 7.597656 C 16.484375 7.597656 16.476562 7.59375 16.46875 7.589844 C 16.460938 7.585938 16.457031 7.582031 16.449219 7.582031 C 16.441406 7.578125 16.4375 7.574219 16.429688 7.570312 C 16.421875 7.570312 16.414062 7.566406 16.410156 7.5625 C 16.402344 7.5625 16.394531 7.558594 16.386719 7.554688 C 16.382812 7.554688 16.375 7.550781 16.367188 7.546875 C 16.363281 7.546875 16.355469 7.542969 16.347656 7.542969 C 16.339844 7.539062 16.335938 7.535156 16.328125 7.535156 C 16.320312 7.53125 16.316406 7.53125 16.308594 7.527344 L 16.289062 7.523438 C 16.28125 7.519531 16.273438 7.519531 16.269531 7.515625 C 16.261719 7.515625 16.253906 7.511719 16.246094 7.511719 C 16.242188 7.507812 16.234375 7.507812 16.226562 7.503906 C 16.222656 7.503906 16.214844 7.503906 16.207031 7.5 C 16.199219 7.5 16.195312 7.496094 16.1875 7.496094 C 16.179688 7.496094 16.175781 7.492188 16.167969 7.492188 C 16.160156 7.488281 16.152344 7.488281 16.148438 7.488281 L 16.128906 7.484375 L 16.105469 7.480469 C 16.101562 7.480469 16.09375 7.476562 16.085938 7.476562 L 16.066406 7.472656 C 16.058594 7.472656 16.054688 7.472656 16.046875 7.46875 L 16.027344 7.46875 L 16.007812 7.464844 L 15.984375 7.460938 L 15.964844 7.460938 L 15.945312 7.457031 L 15.90625 7.457031 L 15.90625 7.429688 L 15.925781 7.429688 L 15.945312 7.425781 C 15.953125 7.421875 15.960938 7.421875 15.964844 7.421875 L 15.984375 7.417969 C 15.992188 7.414062 16 7.414062 16.007812 7.414062 L 16.027344 7.40625 C 16.035156 7.40625 16.039062 7.40625 16.046875 7.402344 C 16.054688 7.402344 16.058594 7.398438 16.066406 7.398438 C 16.074219 7.394531 16.082031 7.394531 16.085938 7.390625 C 16.09375 7.390625 16.101562 7.386719 16.105469 7.386719 C 16.113281 7.382812 16.121094 7.382812 16.128906 7.378906 C 16.132812 7.378906 16.140625 7.375 16.148438 7.375 C 16.152344 7.371094 16.160156 7.371094 16.167969 7.367188 C 16.175781 7.363281 16.179688 7.363281 16.1875 7.359375 C 16.195312 7.355469 16.199219 7.355469 16.207031 7.351562 C 16.214844 7.347656 16.222656 7.347656 16.226562 7.34375 C 16.234375 7.339844 16.242188 7.335938 16.246094 7.335938 C 16.253906 7.332031 16.261719 7.328125 16.269531 7.324219 C 16.273438 7.324219 16.28125 7.320312 16.289062 7.316406 C 16.292969 7.3125 16.300781 7.308594 16.308594 7.308594 C 16.316406 7.304688 16.320312 7.300781 16.328125 7.296875 C 16.335938 7.292969 16.339844 7.289062 16.347656 7.285156 C 16.355469 7.28125 16.363281 7.277344 16.367188 7.273438 C 16.375 7.269531 16.382812 7.265625 16.386719 7.261719 C 16.394531 7.257812 16.402344 7.253906 16.410156 7.25 C 16.414062 7.246094 16.421875 7.242188 16.429688 7.238281 C 16.4375 7.230469 16.441406 7.226562 16.449219 7.222656 C 16.457031 7.21875 16.460938 7.214844 16.46875 7.207031 C 16.476562 7.203125 16.484375 7.199219 16.488281 7.195312 C 16.496094 7.1875 16.503906 7.183594 16.507812 7.179688 C 16.515625 7.171875 16.523438 7.167969 16.527344 7.160156 C 16.535156 7.15625 16.542969 7.148438 16.550781 7.144531 C 16.554688 7.136719 16.5625 7.128906 16.570312 7.125 C 16.578125 7.117188 16.582031 7.109375 16.589844 7.105469 C 16.597656 7.097656 16.601562 7.089844 16.609375 7.082031 C 16.617188 7.074219 16.625 7.066406 16.628906 7.058594 C 16.636719 7.050781 16.644531 7.042969 16.648438 7.035156 C 16.65625 7.027344 16.664062 7.019531 16.667969 7.011719 C 16.675781 7 16.683594 6.992188 16.691406 6.984375 C 16.695312 6.972656 16.703125 6.960938 16.710938 6.953125 C 16.71875 6.941406 16.722656 6.929688 16.730469 6.917969 C 16.738281 6.90625 16.742188 6.894531 16.75 6.882812 C 16.757812 6.867188 16.765625 6.855469 16.769531 6.839844 C 16.777344 6.824219 16.785156 6.808594 16.789062 6.792969 C 16.796875 6.773438 16.804688 6.753906 16.8125 6.734375 C 16.820312 6.710938 16.824219 6.6875 16.832031 6.660156 C 16.839844 6.621094 16.847656 6.582031 16.851562 6.539062 C 16.855469 6.503906 16.855469 6.472656 16.855469 6.4375 C 16.855469 6.402344 16.855469 6.367188 16.851562 6.332031 C 16.847656 6.289062 16.839844 6.246094 16.832031 6.207031 C 16.824219 6.179688 16.820312 6.15625 16.8125 6.132812 C 16.804688 6.113281 16.796875 6.09375 16.789062 6.074219 C 16.785156 6.058594 16.777344 6.042969 16.769531 6.027344 C 16.765625 6.015625 16.757812 6 16.75 5.988281 C 16.742188 5.976562 16.738281 5.964844 16.730469 5.953125 C 16.722656 5.941406 16.71875 5.929688 16.710938 5.917969 C 16.703125 5.910156 16.695312 5.898438 16.691406 5.890625 C 16.683594 5.878906 16.675781 5.871094 16.667969 5.863281 C 16.664062 5.855469 16.65625 5.84375 16.648438 5.835938 C 16.644531 5.828125 16.636719 5.820312 16.628906 5.8125 C 16.625 5.804688 16.617188 5.800781 16.609375 5.792969 C 16.601562 5.785156 16.597656 5.777344 16.589844 5.769531 C 16.582031 5.765625 16.578125 5.757812 16.570312 5.753906 C 16.5625 5.746094 16.554688 5.738281 16.550781 5.734375 C 16.542969 5.726562 16.535156 5.722656 16.527344 5.714844 C 16.523438 5.710938 16.515625 5.707031 16.507812 5.699219 C 16.503906 5.695312 16.496094 5.691406 16.488281 5.683594 C 16.484375 5.679688 16.476562 5.675781 16.46875 5.671875 C 16.460938 5.664062 16.457031 5.660156 16.449219 5.65625 C 16.441406 5.652344 16.4375 5.648438 16.429688 5.644531 C 16.421875 5.636719 16.414062 5.632812 16.410156 5.628906 C 16.402344 5.625 16.394531 5.621094 16.386719 5.617188 C 16.382812 5.613281 16.375 5.609375 16.367188 5.605469 C 16.363281 5.601562 16.355469 5.601562 16.347656 5.597656 C 16.339844 5.59375 16.335938 5.589844 16.328125 5.585938 C 16.320312 5.582031 16.316406 5.578125 16.308594 5.578125 C 16.300781 5.574219 16.292969 5.570312 16.289062 5.566406 C 16.28125 5.5625 16.273438 5.558594 16.269531 5.558594 C 16.261719 5.554688 16.253906 5.550781 16.246094 5.546875 C 16.242188 5.546875 16.234375 5.542969 16.226562 5.539062 C 16.222656 5.539062 16.214844 5.535156 16.207031 5.53125 C 16.199219 5.53125 16.195312 5.527344 16.1875 5.523438 C 16.179688 5.523438 16.175781 5.519531 16.167969 5.515625 C 16.160156 5.515625 16.152344 5.511719 16.148438 5.511719 C 16.140625 5.507812 16.132812 5.507812 16.128906 5.503906 C 16.121094 5.503906 16.113281 5.5 16.105469 5.496094 C 16.101562 5.496094 16.09375 5.496094 16.085938 5.492188 C 16.082031 5.492188 16.074219 5.488281 16.066406 5.488281 L 16.046875 5.480469 C 16.039062 5.480469 16.035156 5.476562 16.027344 5.476562 C 16.019531 5.472656 16.011719 5.472656 16.007812 5.472656 L 15.984375 5.46875 C 15.980469 5.464844 15.972656 5.464844 15.964844 5.460938 C 15.960938 5.460938 15.953125 5.460938 15.945312 5.460938 L 15.925781 5.457031 C 15.917969 5.453125 15.914062 5.453125 15.90625 5.453125 L 15.867188 5.445312 L 15.84375 5.441406 L 15.824219 5.441406 L 15.804688 5.4375 L 15.785156 5.4375 L 15.765625 5.433594 L 15.726562 5.433594 L 15.707031 5.429688 L 15.664062 5.429688 L 15.644531 5.425781 L 15.585938 5.425781 L 15.5625 5.421875 L 12.546875 5.421875 L 12.546875 3.175781 C 12.546875 3.023438 12.5625 2.875 12.589844 2.734375 C 12.597656 2.703125 12.601562 2.671875 12.609375 2.640625 C 12.617188 2.617188 12.621094 2.589844 12.628906 2.566406 C 12.636719 2.542969 12.644531 2.519531 12.648438 2.5 C 12.65625 2.476562 12.664062 2.457031 12.671875 2.4375 C 12.675781 2.417969 12.683594 2.402344 12.691406 2.382812 C 12.695312 2.363281 12.703125 2.347656 12.710938 2.332031 C 12.71875 2.316406 12.722656 2.300781 12.730469 2.285156 C 12.738281 2.269531 12.742188 2.253906 12.75 2.238281 C 12.757812 2.226562 12.765625 2.210938 12.769531 2.195312 C 12.777344 2.183594 12.785156 2.167969 12.792969 2.15625 C 12.796875 2.144531 12.804688 2.132812 12.8125 2.117188 C 12.816406 2.105469 12.824219 2.09375 12.832031 2.082031 C 12.835938 2.070312 12.84375 2.058594 12.851562 2.046875 C 12.859375 2.035156 12.863281 2.023438 12.871094 2.015625 C 12.878906 2.003906 12.882812 1.992188 12.890625 1.980469 C 12.898438 1.972656 12.90625 1.960938 12.910156 1.949219 C 12.917969 1.941406 12.925781 1.929688 12.933594 1.921875 C 12.9375 1.910156 12.945312 1.902344 12.953125 1.890625 C 12.957031 1.882812 12.964844 1.875 12.972656 1.863281 C 12.980469 1.855469 12.984375 1.847656 12.992188 1.835938 C 13 1.828125 13.003906 1.820312 13.011719 1.8125 C 13.019531 1.804688 13.027344 1.792969 13.03125 1.785156 C 13.039062 1.777344 13.046875 1.769531 13.050781 1.761719 C 13.058594 1.753906 13.066406 1.746094 13.074219 1.738281 C 13.078125 1.730469 13.085938 1.722656 13.09375 1.714844 C 13.097656 1.707031 13.105469 1.699219 13.113281 1.691406 C 13.121094 1.683594 13.125 1.675781 13.132812 1.671875 C 13.140625 1.664062 13.144531 1.65625 13.152344 1.648438 C 13.160156 1.640625 13.167969 1.636719 13.171875 1.628906 C 13.179688 1.621094 13.1875 1.613281 13.191406 1.609375 C 13.199219 1.601562 13.207031 1.59375 13.214844 1.589844 C 13.21875 1.582031 13.226562 1.574219 13.234375 1.570312 C 13.238281 1.5625 13.246094 1.558594 13.253906 1.550781 C 13.261719 1.542969 13.265625 1.539062 13.273438 1.53125 C 13.28125 1.527344 13.285156 1.519531 13.292969 1.515625 C 13.300781 1.507812 13.308594 1.503906 13.3125 1.496094 C 13.320312 1.492188 13.328125 1.484375 13.332031 1.480469 L 13.355469 1.464844 L 13.375 1.449219 C 13.382812 1.441406 13.386719 1.4375 13.394531 1.433594 C 13.402344 1.425781 13.40625 1.421875 13.414062 1.417969 L 13.433594 1.402344 C 13.441406 1.398438 13.449219 1.390625 13.453125 1.386719 L 13.476562 1.375 L 13.492188 1.359375 C 13.5 1.355469 13.507812 1.351562 13.511719 1.347656 L 13.535156 1.332031 C 13.539062 1.328125 13.546875 1.324219 13.554688 1.320312 C 13.5625 1.316406 13.566406 1.3125 13.574219 1.308594 C 13.582031 1.304688 13.585938 1.300781 13.59375 1.296875 C 13.601562 1.292969 13.605469 1.289062 13.613281 1.285156 C 13.621094 1.28125 13.628906 1.277344 13.632812 1.273438 C 13.640625 1.269531 13.648438 1.265625 13.65625 1.261719 C 13.660156 1.257812 13.667969 1.253906 13.675781 1.25 C 13.679688 1.246094 13.6875 1.242188 13.695312 1.238281 C 13.703125 1.234375 13.707031 1.234375 13.714844 1.230469 L 13.734375 1.21875 C 13.742188 1.214844 13.75 1.214844 13.753906 1.210938 C 13.761719 1.207031 13.769531 1.203125 13.773438 1.199219 C 13.78125 1.195312 13.789062 1.195312 13.796875 1.191406 C 13.800781 1.1875 13.808594 1.183594 13.816406 1.179688 C 13.820312 1.179688 13.828125 1.175781 13.835938 1.171875 C 13.84375 1.171875 13.847656 1.167969 13.855469 1.164062 L 13.894531 1.148438 C 13.902344 1.144531 13.910156 1.144531 13.914062 1.140625 C 13.921875 1.136719 13.929688 1.136719 13.9375 1.132812 C 13.941406 1.128906 13.949219 1.128906 13.957031 1.125 C 13.964844 1.121094 13.96875 1.121094 13.976562 1.117188 L 13.996094 1.113281 C 14.003906 1.109375 14.011719 1.105469 14.015625 1.105469 C 14.023438 1.101562 14.03125 1.101562 14.035156 1.097656 C 14.042969 1.097656 14.050781 1.09375 14.058594 1.09375 C 14.0625 1.089844 14.070312 1.089844 14.078125 1.085938 C 14.082031 1.085938 14.089844 1.082031 14.097656 1.082031 L 14.117188 1.074219 C 14.125 1.074219 14.128906 1.074219 14.136719 1.070312 C 14.144531 1.070312 14.148438 1.066406 14.15625 1.066406 C 14.164062 1.0625 14.171875 1.0625 14.175781 1.0625 L 14.195312 1.054688 L 14.21875 1.050781 C 14.222656 1.050781 14.230469 1.050781 14.238281 1.046875 C 14.242188 1.046875 14.25 1.046875 14.257812 1.042969 C 14.265625 1.042969 14.269531 1.042969 14.277344 1.039062 L 14.296875 1.035156 C 14.304688 1.035156 14.3125 1.035156 14.316406 1.035156 C 14.324219 1.03125 14.332031 1.03125 14.339844 1.03125 C 14.34375 1.03125 14.351562 1.027344 14.359375 1.027344 C 14.363281 1.027344 14.371094 1.027344 14.378906 1.027344 L 14.398438 1.023438 C 14.40625 1.023438 14.410156 1.023438 14.417969 1.019531 C 14.425781 1.019531 14.433594 1.019531 14.4375 1.019531 L 14.457031 1.015625 L 14.480469 1.015625 C 14.484375 1.015625 14.492188 1.015625 14.5 1.015625 C 14.503906 1.015625 14.511719 1.015625 14.519531 1.011719 C 14.527344 1.011719 14.53125 1.011719 14.539062 1.011719 L 14.558594 1.011719 C 14.566406 1.011719 14.574219 1.011719 14.578125 1.011719 C 14.585938 1.011719 14.59375 1.011719 14.597656 1.011719 C 14.605469 1.011719 14.613281 1.011719 14.621094 1.011719 L 17.667969 1.011719 Z M 17.667969 1.007812 "/>
<path style=" stroke:none;fill-rule:nonzero;fill:url(#linear1);" d="M 1.082031 8.539062 C 1.066406 8.53125 1.054688 8.523438 1.039062 8.515625 L 1.039062 3.171875 C 1.039062 3.023438 1.054688 2.875 1.082031 2.734375 C 1.089844 2.703125 1.09375 2.671875 1.101562 2.644531 C 1.109375 2.617188 1.113281 2.59375 1.121094 2.566406 C 1.128906 2.542969 1.136719 2.519531 1.140625 2.5 C 1.148438 2.480469 1.15625 2.457031 1.164062 2.4375 C 1.167969 2.417969 1.175781 2.402344 1.183594 2.382812 C 1.1875 2.367188 1.195312 2.347656 1.203125 2.332031 C 1.207031 2.316406 1.214844 2.300781 1.222656 2.285156 C 1.226562 2.269531 1.234375 2.253906 1.242188 2.238281 C 1.25 2.226562 1.253906 2.210938 1.261719 2.195312 C 1.269531 2.183594 1.273438 2.171875 1.28125 2.15625 C 1.289062 2.144531 1.292969 2.132812 1.300781 2.121094 C 1.308594 2.105469 1.316406 2.09375 1.320312 2.082031 C 1.328125 2.070312 1.335938 2.058594 1.339844 2.046875 C 1.347656 2.035156 1.355469 2.023438 1.363281 2.015625 C 1.367188 2.003906 1.375 1.992188 1.382812 1.980469 C 1.386719 1.972656 1.394531 1.960938 1.402344 1.953125 C 1.410156 1.941406 1.414062 1.929688 1.421875 1.921875 C 1.429688 1.910156 1.433594 1.902344 1.441406 1.894531 C 1.449219 1.882812 1.453125 1.875 1.460938 1.863281 C 1.46875 1.855469 1.472656 1.847656 1.480469 1.835938 C 1.488281 1.828125 1.496094 1.820312 1.5 1.8125 C 1.507812 1.804688 1.515625 1.792969 1.519531 1.785156 C 1.527344 1.777344 1.535156 1.769531 1.539062 1.761719 C 1.546875 1.753906 1.554688 1.746094 1.5625 1.738281 C 1.566406 1.730469 1.574219 1.722656 1.582031 1.714844 C 1.585938 1.707031 1.59375 1.699219 1.601562 1.691406 C 1.605469 1.683594 1.613281 1.675781 1.621094 1.671875 C 1.628906 1.664062 1.632812 1.65625 1.640625 1.648438 C 1.648438 1.640625 1.652344 1.636719 1.660156 1.628906 C 1.667969 1.621094 1.671875 1.617188 1.679688 1.609375 C 1.6875 1.601562 1.691406 1.59375 1.699219 1.589844 C 1.707031 1.582031 1.714844 1.574219 1.71875 1.570312 C 1.726562 1.5625 1.734375 1.558594 1.738281 1.550781 C 1.746094 1.546875 1.753906 1.539062 1.761719 1.53125 C 1.765625 1.527344 1.773438 1.519531 1.78125 1.515625 C 1.785156 1.507812 1.792969 1.503906 1.800781 1.496094 C 1.804688 1.492188 1.8125 1.488281 1.820312 1.480469 C 1.828125 1.476562 1.832031 1.46875 1.839844 1.464844 C 1.847656 1.460938 1.851562 1.453125 1.859375 1.449219 C 1.867188 1.441406 1.871094 1.4375 1.878906 1.433594 L 1.898438 1.417969 C 1.90625 1.414062 1.914062 1.40625 1.917969 1.402344 C 1.925781 1.398438 1.933594 1.394531 1.9375 1.386719 C 1.945312 1.382812 1.953125 1.378906 1.957031 1.375 C 1.964844 1.371094 1.972656 1.363281 1.980469 1.359375 C 1.984375 1.355469 1.992188 1.351562 2 1.347656 C 2.003906 1.34375 2.011719 1.339844 2.019531 1.335938 C 2.023438 1.328125 2.03125 1.324219 2.039062 1.320312 C 2.046875 1.316406 2.050781 1.3125 2.058594 1.308594 C 2.066406 1.304688 2.070312 1.300781 2.078125 1.296875 C 2.085938 1.292969 2.09375 1.289062 2.097656 1.285156 C 2.105469 1.28125 2.109375 1.277344 2.117188 1.273438 C 2.125 1.269531 2.132812 1.265625 2.136719 1.261719 C 2.144531 1.257812 2.152344 1.253906 2.15625 1.25 C 2.164062 1.246094 2.171875 1.242188 2.179688 1.242188 L 2.199219 1.230469 C 2.203125 1.226562 2.210938 1.222656 2.21875 1.21875 C 2.222656 1.21875 2.230469 1.214844 2.238281 1.210938 C 2.246094 1.207031 2.25 1.203125 2.257812 1.199219 C 2.265625 1.199219 2.269531 1.195312 2.277344 1.191406 C 2.285156 1.1875 2.289062 1.183594 2.296875 1.183594 C 2.304688 1.179688 2.3125 1.175781 2.316406 1.171875 L 2.355469 1.15625 L 2.378906 1.148438 C 2.382812 1.144531 2.390625 1.144531 2.398438 1.140625 C 2.402344 1.136719 2.410156 1.136719 2.417969 1.132812 C 2.425781 1.132812 2.429688 1.128906 2.4375 1.125 L 2.457031 1.117188 L 2.476562 1.113281 C 2.484375 1.109375 2.488281 1.109375 2.496094 1.105469 C 2.503906 1.101562 2.511719 1.101562 2.515625 1.097656 C 2.523438 1.097656 2.53125 1.09375 2.535156 1.09375 C 2.542969 1.089844 2.550781 1.089844 2.554688 1.085938 L 2.578125 1.082031 C 2.582031 1.078125 2.589844 1.078125 2.597656 1.078125 C 2.601562 1.074219 2.609375 1.074219 2.617188 1.070312 C 2.621094 1.070312 2.628906 1.066406 2.636719 1.066406 C 2.640625 1.0625 2.648438 1.0625 2.65625 1.0625 L 2.675781 1.054688 C 2.683594 1.054688 2.6875 1.054688 2.695312 1.050781 C 2.703125 1.050781 2.707031 1.050781 2.714844 1.046875 C 2.722656 1.046875 2.730469 1.046875 2.734375 1.042969 C 2.742188 1.042969 2.75 1.042969 2.757812 1.039062 L 2.777344 1.039062 C 2.78125 1.035156 2.789062 1.035156 2.796875 1.035156 C 2.800781 1.03125 2.808594 1.03125 2.816406 1.03125 C 2.824219 1.03125 2.828125 1.03125 2.835938 1.027344 L 2.855469 1.027344 L 2.875 1.023438 C 2.882812 1.023438 2.886719 1.019531 2.894531 1.019531 C 2.902344 1.019531 2.910156 1.019531 2.914062 1.019531 L 2.933594 1.015625 C 2.941406 1.015625 2.949219 1.015625 2.953125 1.015625 C 2.960938 1.015625 2.96875 1.015625 2.976562 1.015625 C 2.980469 1.015625 2.988281 1.011719 2.996094 1.011719 C 3 1.011719 3.007812 1.011719 3.015625 1.011719 L 3.035156 1.011719 C 3.042969 1.011719 3.046875 1.011719 3.054688 1.011719 C 3.0625 1.011719 3.066406 1.011719 3.074219 1.011719 C 3.082031 1.011719 3.085938 1.011719 3.09375 1.011719 L 6.164062 1.011719 L 6.164062 11.828125 C 6.164062 11.921875 6.160156 12.015625 6.148438 12.105469 C 6.144531 12.148438 6.136719 12.191406 6.128906 12.234375 C 6.121094 12.269531 6.117188 12.300781 6.109375 12.332031 C 6.101562 12.359375 6.09375 12.386719 6.089844 12.414062 C 6.082031 12.4375 6.074219 12.460938 6.070312 12.480469 C 6.0625 12.503906 6.054688 12.523438 6.046875 12.546875 C 6.042969 12.5625 6.035156 12.582031 6.027344 12.601562 C 6.023438 12.621094 6.015625 12.636719 6.007812 12.652344 C 6.003906 12.671875 5.996094 12.6875 5.988281 12.703125 C 5.980469 12.71875 5.976562 12.734375 5.96875 12.75 C 5.960938 12.761719 5.957031 12.777344 5.949219 12.792969 C 5.941406 12.804688 5.933594 12.820312 5.929688 12.832031 C 5.921875 12.84375 5.914062 12.859375 5.910156 12.871094 C 5.902344 12.882812 5.894531 12.894531 5.886719 12.90625 C 5.882812 12.917969 5.875 12.929688 5.867188 12.941406 C 5.863281 12.953125 5.855469 12.964844 5.847656 12.976562 C 5.84375 12.988281 5.835938 13 5.828125 13.007812 C 5.820312 13.019531 5.816406 13.03125 5.808594 13.039062 C 5.800781 13.050781 5.796875 13.058594 5.789062 13.070312 C 5.78125 13.078125 5.777344 13.089844 5.769531 13.097656 C 5.761719 13.109375 5.757812 13.117188 5.75 13.128906 C 5.742188 13.136719 5.734375 13.144531 5.730469 13.15625 C 5.722656 13.164062 5.714844 13.171875 5.710938 13.183594 C 5.703125 13.191406 5.695312 13.199219 5.691406 13.207031 C 5.683594 13.214844 5.675781 13.222656 5.667969 13.230469 C 5.664062 13.242188 5.65625 13.25 5.648438 13.257812 C 5.644531 13.265625 5.636719 13.273438 5.628906 13.28125 C 5.625 13.289062 5.617188 13.292969 5.609375 13.300781 C 5.601562 13.308594 5.597656 13.316406 5.589844 13.324219 C 5.582031 13.332031 5.578125 13.339844 5.570312 13.347656 C 5.5625 13.351562 5.558594 13.359375 5.550781 13.367188 C 5.542969 13.375 5.539062 13.378906 5.53125 13.386719 C 5.523438 13.394531 5.515625 13.402344 5.511719 13.40625 C 5.503906 13.414062 5.496094 13.417969 5.492188 13.425781 C 5.484375 13.433594 5.476562 13.4375 5.46875 13.445312 C 5.464844 13.453125 5.457031 13.457031 5.449219 13.464844 C 5.445312 13.46875 5.4375 13.476562 5.429688 13.480469 C 5.425781 13.488281 5.417969 13.492188 5.410156 13.5 C 5.402344 13.503906 5.398438 13.511719 5.390625 13.515625 C 5.382812 13.523438 5.378906 13.527344 5.371094 13.53125 C 5.363281 13.539062 5.359375 13.542969 5.351562 13.546875 C 5.34375 13.554688 5.335938 13.558594 5.332031 13.5625 C 5.324219 13.570312 5.316406 13.574219 5.3125 13.578125 C 5.304688 13.582031 5.296875 13.589844 5.292969 13.59375 C 5.285156 13.597656 5.277344 13.605469 5.269531 13.609375 C 5.265625 13.613281 5.257812 13.617188 5.25 13.621094 C 5.246094 13.628906 5.238281 13.632812 5.230469 13.636719 C 5.222656 13.640625 5.21875 13.644531 5.210938 13.648438 C 5.203125 13.652344 5.199219 13.660156 5.191406 13.664062 C 5.183594 13.667969 5.179688 13.671875 5.171875 13.675781 C 5.164062 13.679688 5.160156 13.683594 5.152344 13.6875 C 5.144531 13.691406 5.136719 13.695312 5.132812 13.699219 C 5.125 13.703125 5.117188 13.707031 5.113281 13.710938 C 5.105469 13.714844 5.097656 13.71875 5.09375 13.722656 C 5.085938 13.726562 5.078125 13.730469 5.070312 13.734375 L 5.050781 13.746094 C 5.046875 13.75 5.039062 13.753906 5.03125 13.753906 C 5.027344 13.757812 5.019531 13.761719 5.011719 13.765625 C 5.003906 13.769531 5 13.773438 4.992188 13.777344 C 4.984375 13.777344 4.980469 13.78125 4.972656 13.785156 C 4.964844 13.789062 4.960938 13.792969 4.953125 13.792969 C 4.945312 13.796875 4.941406 13.800781 4.933594 13.804688 L 4.914062 13.8125 L 4.894531 13.824219 C 4.886719 13.824219 4.878906 13.828125 4.875 13.832031 C 4.867188 13.835938 4.859375 13.835938 4.851562 13.839844 C 4.847656 13.84375 4.839844 13.847656 4.832031 13.847656 C 4.828125 13.851562 4.820312 13.855469 4.8125 13.855469 C 4.804688 13.859375 4.800781 13.863281 4.792969 13.863281 L 4.753906 13.878906 C 4.746094 13.882812 4.738281 13.882812 4.734375 13.886719 C 4.726562 13.886719 4.71875 13.890625 4.714844 13.894531 C 4.707031 13.894531 4.699219 13.898438 4.695312 13.898438 L 4.675781 13.90625 L 4.652344 13.910156 C 4.648438 13.914062 4.640625 13.914062 4.632812 13.917969 C 4.628906 13.917969 4.621094 13.921875 4.613281 13.921875 C 4.609375 13.925781 4.601562 13.925781 4.59375 13.929688 C 4.585938 13.929688 4.582031 13.933594 4.574219 13.933594 L 4.554688 13.9375 L 4.535156 13.945312 C 4.527344 13.945312 4.523438 13.945312 4.515625 13.949219 C 4.507812 13.949219 4.5 13.949219 4.496094 13.953125 C 4.488281 13.953125 4.480469 13.953125 4.476562 13.957031 L 4.453125 13.960938 C 4.449219 13.960938 4.441406 13.960938 4.433594 13.964844 C 4.429688 13.964844 4.421875 13.964844 4.414062 13.96875 C 4.410156 13.96875 4.402344 13.96875 4.394531 13.96875 L 4.375 13.972656 C 4.367188 13.972656 4.363281 13.976562 4.355469 13.976562 C 4.347656 13.976562 4.34375 13.976562 4.335938 13.980469 C 4.328125 13.980469 4.320312 13.980469 4.316406 13.980469 C 4.308594 13.980469 4.300781 13.980469 4.296875 13.984375 L 4.277344 13.984375 C 4.269531 13.984375 4.261719 13.984375 4.253906 13.988281 C 4.25 13.988281 4.242188 13.988281 4.234375 13.988281 L 4.214844 13.988281 L 4.195312 13.992188 C 4.1875 13.992188 4.183594 13.992188 4.175781 13.992188 C 4.167969 13.992188 4.164062 13.992188 4.15625 13.992188 C 4.148438 13.992188 4.140625 13.992188 4.136719 13.992188 L 4.117188 13.992188 C 4.109375 13.992188 4.105469 13.992188 4.097656 13.992188 L 1.039062 13.992188 L 1.039062 9.433594 C 1.039062 9.433594 1.054688 9.4375 1.082031 9.445312 L 1.101562 9.449219 L 1.121094 9.457031 L 1.140625 9.460938 L 1.164062 9.464844 L 1.183594 9.46875 L 1.203125 9.476562 L 1.28125 9.492188 L 1.300781 9.5 L 1.324219 9.5 L 1.421875 9.519531 L 1.441406 9.527344 L 1.460938 9.527344 L 1.484375 9.535156 L 1.621094 9.5625 L 1.640625 9.5625 L 1.679688 9.570312 L 1.703125 9.574219 L 1.78125 9.589844 L 1.800781 9.589844 L 1.878906 9.605469 L 1.902344 9.609375 L 1.921875 9.609375 L 1.960938 9.617188 L 1.980469 9.617188 L 2.039062 9.628906 L 2.058594 9.628906 L 2.078125 9.632812 L 2.097656 9.632812 L 2.121094 9.636719 L 2.160156 9.644531 L 2.179688 9.644531 L 2.199219 9.648438 L 2.21875 9.648438 L 2.238281 9.652344 L 2.257812 9.652344 L 2.277344 9.65625 L 2.296875 9.65625 L 2.320312 9.660156 L 2.339844 9.664062 L 2.359375 9.664062 L 2.378906 9.667969 L 2.417969 9.667969 L 2.4375 9.671875 L 2.457031 9.671875 L 2.476562 9.675781 L 2.5 9.675781 L 2.519531 9.679688 L 2.558594 9.679688 L 2.578125 9.683594 L 2.597656 9.683594 L 2.617188 9.6875 L 2.65625 9.6875 L 2.675781 9.691406 L 2.738281 9.691406 L 2.757812 9.695312 L 2.816406 9.695312 L 2.835938 9.699219 L 2.917969 9.699219 L 2.9375 9.703125 L 3.355469 9.703125 L 3.375 9.699219 L 3.457031 9.699219 L 3.476562 9.695312 L 3.535156 9.695312 L 3.554688 9.691406 L 3.59375 9.691406 L 3.613281 9.6875 L 3.65625 9.6875 L 3.675781 9.683594 L 3.695312 9.683594 L 3.714844 9.679688 L 3.734375 9.679688 L 3.753906 9.675781 L 3.773438 9.675781 L 3.792969 9.671875 L 3.8125 9.671875 L 3.832031 9.667969 L 3.851562 9.667969 L 3.875 9.664062 L 3.894531 9.660156 L 3.914062 9.660156 L 3.972656 9.648438 L 3.992188 9.648438 C 4 9.644531 4.007812 9.644531 4.011719 9.644531 L 4.03125 9.640625 L 4.054688 9.636719 L 4.074219 9.632812 C 4.078125 9.632812 4.085938 9.632812 4.09375 9.628906 L 4.113281 9.628906 C 4.121094 9.625 4.125 9.625 4.132812 9.625 C 4.140625 9.621094 4.144531 9.621094 4.152344 9.621094 L 4.210938 9.609375 C 4.21875 9.605469 4.226562 9.605469 4.230469 9.601562 L 4.25 9.597656 L 4.273438 9.59375 C 4.277344 9.59375 4.285156 9.589844 4.292969 9.589844 L 4.3125 9.585938 C 4.320312 9.582031 4.324219 9.582031 4.332031 9.578125 C 4.339844 9.578125 4.34375 9.574219 4.351562 9.574219 L 4.371094 9.570312 C 4.378906 9.566406 4.386719 9.566406 4.390625 9.5625 C 4.398438 9.5625 4.40625 9.558594 4.410156 9.558594 L 4.429688 9.550781 C 4.4375 9.550781 4.445312 9.550781 4.453125 9.546875 C 4.457031 9.546875 4.464844 9.542969 4.472656 9.539062 L 4.492188 9.535156 C 4.496094 9.53125 4.503906 9.53125 4.511719 9.527344 L 4.53125 9.523438 L 4.550781 9.515625 C 4.558594 9.511719 4.566406 9.511719 4.570312 9.507812 L 4.609375 9.492188 C 4.617188 9.492188 4.625 9.488281 4.628906 9.488281 C 4.636719 9.484375 4.644531 9.480469 4.652344 9.480469 L 4.671875 9.472656 C 4.675781 9.46875 4.683594 9.464844 4.691406 9.464844 C 4.695312 9.460938 4.703125 9.457031 4.710938 9.457031 C 4.71875 9.453125 4.722656 9.449219 4.730469 9.445312 L 4.769531 9.429688 C 4.777344 9.425781 4.78125 9.421875 4.789062 9.421875 C 4.796875 9.417969 4.804688 9.414062 4.808594 9.410156 L 4.828125 9.402344 L 4.847656 9.390625 C 4.855469 9.386719 4.863281 9.386719 4.871094 9.382812 C 4.875 9.378906 4.882812 9.375 4.890625 9.371094 C 4.894531 9.367188 4.902344 9.363281 4.910156 9.363281 C 4.917969 9.359375 4.921875 9.355469 4.929688 9.351562 C 4.9375 9.347656 4.941406 9.34375 4.949219 9.339844 C 4.957031 9.335938 4.960938 9.332031 4.96875 9.328125 C 4.976562 9.324219 4.984375 9.320312 4.988281 9.316406 C 4.996094 9.3125 5.003906 9.308594 5.007812 9.304688 C 5.015625 9.300781 5.023438 9.296875 5.027344 9.292969 C 5.035156 9.289062 5.042969 9.285156 5.046875 9.28125 C 5.054688 9.273438 5.0625 9.269531 5.070312 9.265625 C 5.074219 9.261719 5.082031 9.257812 5.089844 9.253906 C 5.09375 9.246094 5.101562 9.242188 5.109375 9.238281 C 5.113281 9.234375 5.121094 9.230469 5.128906 9.222656 C 5.136719 9.21875 5.140625 9.214844 5.148438 9.210938 C 5.15625 9.203125 5.160156 9.199219 5.167969 9.195312 C 5.175781 9.1875 5.179688 9.183594 5.1875 9.175781 C 5.195312 9.171875 5.203125 9.167969 5.207031 9.160156 C 5.214844 9.15625 5.222656 9.148438 5.226562 9.144531 C 5.234375 9.136719 5.242188 9.132812 5.246094 9.125 C 5.253906 9.117188 5.261719 9.113281 5.265625 9.105469 C 5.273438 9.101562 5.28125 9.09375 5.289062 9.085938 C 5.292969 9.082031 5.300781 9.074219 5.308594 9.066406 C 5.3125 9.058594 5.320312 9.054688 5.328125 9.046875 C 5.332031 9.039062 5.339844 9.03125 5.347656 9.023438 C 5.355469 9.015625 5.359375 9.007812 5.367188 9 C 5.375 8.992188 5.378906 8.984375 5.386719 8.976562 C 5.394531 8.96875 5.402344 8.960938 5.40625 8.953125 C 5.414062 8.941406 5.421875 8.933594 5.425781 8.925781 C 5.433594 8.914062 5.441406 8.90625 5.445312 8.894531 C 5.453125 8.886719 5.460938 8.875 5.46875 8.867188 C 5.472656 8.855469 5.480469 8.847656 5.488281 8.835938 C 5.492188 8.824219 5.5 8.8125 5.507812 8.800781 C 5.511719 8.789062 5.519531 8.777344 5.527344 8.765625 C 5.535156 8.753906 5.539062 8.742188 5.546875 8.730469 C 5.554688 8.714844 5.558594 8.699219 5.566406 8.6875 C 5.574219 8.671875 5.582031 8.65625 5.585938 8.640625 C 5.59375 8.625 5.601562 8.609375 5.605469 8.589844 C 5.613281 8.574219 5.621094 8.554688 5.625 8.535156 C 5.632812 8.515625 5.640625 8.492188 5.644531 8.46875 C 5.652344 8.445312 5.660156 8.417969 5.667969 8.394531 C 5.671875 8.359375 5.679688 8.328125 5.6875 8.296875 C 5.695312 8.246094 5.703125 8.195312 5.707031 8.144531 C 5.710938 8.074219 5.714844 8.003906 5.714844 7.929688 L 5.714844 5.421875 L 5.625 5.421875 L 5.632812 5.421875 L 3.953125 5.421875 L 3.953125 7.929688 C 3.953125 7.96875 3.949219 8.007812 3.949219 8.046875 C 3.945312 8.09375 3.9375 8.140625 3.929688 8.1875 C 3.921875 8.214844 3.914062 8.242188 3.90625 8.269531 C 3.902344 8.292969 3.894531 8.3125 3.886719 8.335938 C 3.882812 8.351562 3.875 8.371094 3.867188 8.386719 C 3.863281 8.402344 3.855469 8.417969 3.847656 8.433594 C 3.84375 8.445312 3.835938 8.460938 3.828125 8.472656 C 3.820312 8.484375 3.816406 8.5 3.808594 8.511719 C 3.800781 8.519531 3.796875 8.53125 3.789062 8.542969 C 3.78125 8.554688 3.777344 8.5625 3.769531 8.574219 C 3.761719 8.582031 3.753906 8.589844 3.75 8.601562 C 3.742188 8.609375 3.734375 8.617188 3.730469 8.625 C 3.722656 8.636719 3.714844 8.644531 3.710938 8.652344 C 3.703125 8.660156 3.695312 8.667969 3.6875 8.671875 C 3.683594 8.679688 3.675781 8.6875 3.667969 8.695312 C 3.664062 8.703125 3.65625 8.707031 3.648438 8.714844 C 3.640625 8.722656 3.636719 8.726562 3.628906 8.734375 C 3.621094 8.738281 3.617188 8.746094 3.609375 8.75 C 3.601562 8.757812 3.597656 8.761719 3.589844 8.765625 C 3.582031 8.773438 3.578125 8.777344 3.570312 8.78125 C 3.5625 8.789062 3.554688 8.792969 3.550781 8.796875 C 3.542969 8.800781 3.535156 8.808594 3.53125 8.8125 C 3.523438 8.816406 3.515625 8.820312 3.511719 8.824219 C 3.503906 8.828125 3.496094 8.832031 3.488281 8.835938 C 3.484375 8.839844 3.476562 8.84375 3.46875 8.847656 C 3.464844 8.851562 3.457031 8.855469 3.449219 8.859375 C 3.445312 8.863281 3.4375 8.867188 3.429688 8.871094 C 3.421875 8.875 3.417969 8.878906 3.410156 8.878906 C 3.402344 8.882812 3.398438 8.886719 3.390625 8.890625 C 3.382812 8.894531 3.378906 8.894531 3.371094 8.898438 C 3.363281 8.902344 3.355469 8.90625 3.351562 8.90625 C 3.34375 8.910156 3.335938 8.914062 3.332031 8.917969 C 3.324219 8.917969 3.316406 8.921875 3.308594 8.921875 C 3.304688 8.925781 3.296875 8.929688 3.289062 8.929688 C 3.285156 8.933594 3.277344 8.9375 3.269531 8.9375 C 3.261719 8.941406 3.257812 8.941406 3.25 8.945312 C 3.242188 8.945312 3.238281 8.949219 3.230469 8.949219 C 3.222656 8.953125 3.21875 8.953125 3.210938 8.957031 C 3.203125 8.957031 3.199219 8.960938 3.191406 8.960938 C 3.183594 8.964844 3.175781 8.964844 3.171875 8.964844 C 3.164062 8.96875 3.15625 8.96875 3.152344 8.972656 C 3.144531 8.972656 3.136719 8.972656 3.132812 8.976562 C 3.125 8.976562 3.117188 8.976562 3.109375 8.980469 C 3.105469 8.980469 3.097656 8.980469 3.089844 8.984375 L 3.070312 8.988281 C 3.0625 8.988281 3.058594 8.988281 3.050781 8.988281 C 3.046875 8.988281 3.039062 8.992188 3.03125 8.992188 L 3.011719 8.992188 C 3.003906 8.996094 2.996094 8.996094 2.992188 8.996094 C 2.984375 8.996094 2.976562 8.996094 2.972656 8.996094 C 2.964844 9 2.957031 9 2.953125 9 C 2.945312 9 2.9375 9 2.933594 9 C 2.925781 9 2.917969 9 2.910156 9 C 2.90625 9.003906 2.898438 9.003906 2.890625 9.003906 L 2.871094 9.003906 C 2.867188 9.003906 2.859375 9.003906 2.851562 9.003906 L 2.765625 9.003906 L 2.746094 9 L 2.664062 9 L 2.644531 8.996094 L 2.625 8.996094 L 2.605469 8.992188 L 2.585938 8.992188 L 2.566406 8.988281 L 2.527344 8.988281 L 2.488281 8.980469 L 2.46875 8.980469 L 2.445312 8.976562 L 2.425781 8.972656 L 2.40625 8.972656 L 2.386719 8.96875 L 2.363281 8.964844 L 2.304688 8.953125 L 2.285156 8.953125 L 2.207031 8.9375 L 2.183594 8.929688 L 2.085938 8.910156 L 2.066406 8.902344 L 2.027344 8.894531 L 2.007812 8.886719 L 1.988281 8.882812 L 1.964844 8.878906 L 1.945312 8.871094 L 1.925781 8.867188 L 1.90625 8.859375 L 1.886719 8.855469 L 1.867188 8.847656 L 1.847656 8.84375 L 1.808594 8.828125 L 1.789062 8.824219 L 1.765625 8.816406 L 1.726562 8.800781 L 1.707031 8.796875 L 1.570312 8.742188 L 1.546875 8.734375 L 1.410156 8.679688 L 1.390625 8.667969 L 1.371094 8.660156 L 1.347656 8.652344 L 1.328125 8.644531 L 1.308594 8.632812 L 1.289062 8.625 L 1.269531 8.613281 L 1.230469 8.597656 L 1.210938 8.585938 L 1.191406 8.578125 L 1.167969 8.566406 L 1.148438 8.558594 L 1.128906 8.546875 L 1.109375 8.539062 Z M 1.082031 8.539062 "/>
<path style=" stroke:none;fill-rule:nonzero;fill:url(#linear2);" d="M 6.835938 5.96875 C 6.820312 5.980469 6.808594 5.992188 6.792969 6.007812 L 6.792969 3.175781 C 6.792969 3.023438 6.808594 2.875 6.835938 2.734375 C 6.84375 2.703125 6.847656 2.671875 6.855469 2.644531 C 6.863281 2.617188 6.871094 2.59375 6.875 2.566406 C 6.882812 2.542969 6.890625 2.523438 6.894531 2.5 C 6.902344 2.480469 6.910156 2.460938 6.914062 2.4375 C 6.921875 2.421875 6.929688 2.402344 6.9375 2.382812 C 6.941406 2.367188 6.949219 2.347656 6.957031 2.332031 C 6.960938 2.316406 6.96875 2.300781 6.976562 2.285156 C 6.984375 2.269531 6.988281 2.253906 6.996094 2.238281 C 7 2.226562 7.007812 2.210938 7.015625 2.199219 C 7.023438 2.183594 7.027344 2.171875 7.035156 2.15625 C 7.042969 2.144531 7.046875 2.132812 7.054688 2.121094 C 7.0625 2.105469 7.070312 2.09375 7.074219 2.082031 C 7.082031 2.070312 7.089844 2.058594 7.09375 2.046875 C 7.101562 2.035156 7.109375 2.027344 7.117188 2.015625 C 7.121094 2.003906 7.128906 1.992188 7.136719 1.980469 C 7.140625 1.972656 7.148438 1.960938 7.15625 1.953125 C 7.160156 1.941406 7.167969 1.929688 7.175781 1.921875 C 7.183594 1.910156 7.1875 1.902344 7.195312 1.894531 C 7.203125 1.882812 7.207031 1.875 7.214844 1.863281 C 7.222656 1.855469 7.226562 1.847656 7.234375 1.839844 C 7.242188 1.828125 7.25 1.820312 7.253906 1.8125 C 7.261719 1.804688 7.269531 1.796875 7.273438 1.785156 C 7.28125 1.777344 7.289062 1.769531 7.292969 1.761719 C 7.300781 1.753906 7.308594 1.746094 7.316406 1.738281 C 7.320312 1.730469 7.328125 1.722656 7.335938 1.714844 C 7.339844 1.707031 7.347656 1.699219 7.355469 1.691406 C 7.359375 1.6875 7.367188 1.679688 7.375 1.671875 C 7.382812 1.664062 7.386719 1.65625 7.394531 1.648438 C 7.402344 1.640625 7.40625 1.636719 7.414062 1.628906 C 7.421875 1.621094 7.425781 1.617188 7.433594 1.609375 C 7.441406 1.601562 7.445312 1.597656 7.453125 1.589844 C 7.460938 1.582031 7.46875 1.578125 7.472656 1.570312 C 7.480469 1.5625 7.488281 1.558594 7.492188 1.550781 C 7.5 1.546875 7.507812 1.539062 7.511719 1.535156 C 7.519531 1.527344 7.527344 1.523438 7.535156 1.515625 C 7.539062 1.507812 7.546875 1.503906 7.554688 1.5 C 7.558594 1.492188 7.566406 1.488281 7.574219 1.480469 C 7.578125 1.476562 7.585938 1.46875 7.59375 1.464844 C 7.601562 1.460938 7.605469 1.453125 7.613281 1.449219 C 7.621094 1.445312 7.625 1.4375 7.632812 1.433594 C 7.640625 1.429688 7.648438 1.421875 7.652344 1.417969 C 7.660156 1.414062 7.667969 1.410156 7.671875 1.402344 C 7.679688 1.398438 7.6875 1.394531 7.691406 1.390625 C 7.699219 1.382812 7.707031 1.378906 7.710938 1.375 C 7.71875 1.371094 7.726562 1.367188 7.734375 1.359375 C 7.738281 1.355469 7.746094 1.351562 7.753906 1.347656 C 7.757812 1.34375 7.765625 1.339844 7.773438 1.335938 C 7.78125 1.332031 7.785156 1.324219 7.792969 1.320312 C 7.800781 1.316406 7.804688 1.3125 7.8125 1.308594 C 7.820312 1.304688 7.828125 1.300781 7.832031 1.296875 C 7.839844 1.292969 7.847656 1.289062 7.851562 1.285156 C 7.859375 1.28125 7.867188 1.277344 7.871094 1.273438 C 7.878906 1.269531 7.886719 1.265625 7.890625 1.261719 C 7.898438 1.257812 7.90625 1.253906 7.914062 1.253906 L 7.953125 1.230469 C 7.957031 1.230469 7.964844 1.226562 7.972656 1.222656 C 7.980469 1.21875 7.984375 1.214844 7.992188 1.210938 C 8 1.207031 8.003906 1.207031 8.011719 1.203125 C 8.019531 1.199219 8.023438 1.195312 8.03125 1.191406 C 8.039062 1.191406 8.046875 1.1875 8.050781 1.183594 C 8.058594 1.179688 8.066406 1.179688 8.070312 1.175781 L 8.089844 1.167969 C 8.097656 1.164062 8.105469 1.160156 8.109375 1.15625 C 8.117188 1.15625 8.125 1.152344 8.132812 1.148438 C 8.136719 1.148438 8.144531 1.144531 8.152344 1.140625 C 8.15625 1.140625 8.164062 1.136719 8.171875 1.132812 C 8.175781 1.132812 8.183594 1.128906 8.191406 1.125 C 8.199219 1.125 8.203125 1.121094 8.210938 1.121094 L 8.230469 1.113281 C 8.238281 1.109375 8.242188 1.109375 8.25 1.105469 C 8.257812 1.105469 8.265625 1.101562 8.269531 1.101562 C 8.277344 1.097656 8.285156 1.097656 8.289062 1.09375 C 8.296875 1.089844 8.304688 1.089844 8.308594 1.089844 L 8.332031 1.082031 C 8.335938 1.082031 8.34375 1.078125 8.351562 1.078125 C 8.355469 1.074219 8.363281 1.074219 8.371094 1.070312 C 8.375 1.070312 8.382812 1.066406 8.390625 1.066406 C 8.398438 1.066406 8.402344 1.0625 8.410156 1.0625 L 8.429688 1.058594 C 8.4375 1.054688 8.441406 1.054688 8.449219 1.054688 C 8.457031 1.050781 8.464844 1.050781 8.46875 1.046875 C 8.476562 1.046875 8.484375 1.046875 8.488281 1.042969 L 8.507812 1.042969 L 8.53125 1.039062 C 8.535156 1.035156 8.542969 1.035156 8.550781 1.035156 C 8.554688 1.035156 8.5625 1.03125 8.570312 1.03125 C 8.574219 1.03125 8.582031 1.03125 8.589844 1.027344 L 8.609375 1.027344 L 8.628906 1.023438 C 8.636719 1.023438 8.644531 1.023438 8.648438 1.019531 C 8.65625 1.019531 8.664062 1.019531 8.667969 1.019531 L 8.6875 1.019531 C 8.695312 1.015625 8.703125 1.015625 8.710938 1.015625 C 8.714844 1.015625 8.722656 1.015625 8.730469 1.015625 C 8.734375 1.015625 8.742188 1.015625 8.75 1.011719 C 8.753906 1.011719 8.761719 1.011719 8.769531 1.011719 L 8.789062 1.011719 C 8.796875 1.011719 8.800781 1.011719 8.808594 1.011719 C 8.816406 1.011719 8.820312 1.011719 8.828125 1.011719 C 8.835938 1.011719 8.84375 1.011719 8.847656 1.011719 L 11.925781 1.011719 L 11.925781 11.828125 C 11.925781 11.921875 11.917969 12.015625 11.90625 12.105469 C 11.902344 12.148438 11.894531 12.191406 11.886719 12.234375 C 11.882812 12.269531 11.875 12.300781 11.867188 12.332031 C 11.863281 12.359375 11.855469 12.386719 11.847656 12.414062 C 11.839844 12.4375 11.835938 12.460938 11.828125 12.484375 C 11.820312 12.503906 11.816406 12.523438 11.808594 12.546875 C 11.800781 12.5625 11.796875 12.582031 11.789062 12.601562 C 11.78125 12.621094 11.773438 12.636719 11.769531 12.65625 C 11.761719 12.671875 11.753906 12.6875 11.746094 12.703125 C 11.742188 12.71875 11.734375 12.734375 11.726562 12.75 C 11.722656 12.761719 11.714844 12.777344 11.707031 12.792969 C 11.699219 12.804688 11.695312 12.820312 11.6875 12.832031 C 11.679688 12.84375 11.675781 12.859375 11.667969 12.871094 C 11.660156 12.882812 11.652344 12.894531 11.648438 12.90625 C 11.640625 12.917969 11.632812 12.933594 11.628906 12.945312 C 11.621094 12.953125 11.613281 12.964844 11.605469 12.976562 C 11.601562 12.988281 11.59375 13 11.585938 13.007812 C 11.578125 13.019531 11.574219 13.03125 11.566406 13.039062 C 11.558594 13.050781 11.554688 13.0625 11.546875 13.070312 C 11.539062 13.082031 11.535156 13.089844 11.527344 13.101562 C 11.519531 13.109375 11.511719 13.117188 11.507812 13.128906 C 11.5 13.136719 11.492188 13.148438 11.488281 13.15625 C 11.480469 13.164062 11.472656 13.171875 11.464844 13.183594 C 11.460938 13.191406 11.453125 13.199219 11.445312 13.207031 C 11.441406 13.214844 11.433594 13.222656 11.425781 13.234375 C 11.417969 13.242188 11.414062 13.25 11.40625 13.257812 C 11.398438 13.265625 11.394531 13.273438 11.386719 13.28125 C 11.378906 13.289062 11.375 13.296875 11.367188 13.304688 C 11.359375 13.3125 11.351562 13.316406 11.347656 13.324219 C 11.339844 13.332031 11.332031 13.339844 11.328125 13.347656 C 11.320312 13.355469 11.3125 13.359375 11.304688 13.367188 C 11.300781 13.375 11.292969 13.382812 11.285156 13.386719 C 11.277344 13.394531 11.273438 13.402344 11.265625 13.40625 C 11.257812 13.414062 11.253906 13.421875 11.246094 13.425781 C 11.238281 13.433594 11.234375 13.441406 11.226562 13.445312 C 11.21875 13.453125 11.210938 13.457031 11.207031 13.464844 C 11.199219 13.46875 11.191406 13.476562 11.1875 13.480469 C 11.179688 13.488281 11.171875 13.492188 11.164062 13.5 C 11.160156 13.503906 11.152344 13.511719 11.144531 13.515625 C 11.136719 13.523438 11.132812 13.527344 11.125 13.53125 C 11.117188 13.539062 11.113281 13.542969 11.105469 13.546875 C 11.097656 13.554688 11.09375 13.558594 11.085938 13.5625 C 11.078125 13.570312 11.070312 13.574219 11.066406 13.578125 C 11.058594 13.585938 11.050781 13.589844 11.046875 13.59375 C 11.039062 13.597656 11.03125 13.605469 11.023438 13.609375 C 11.019531 13.613281 11.011719 13.617188 11.003906 13.625 C 11 13.628906 10.992188 13.632812 10.984375 13.636719 C 10.976562 13.640625 10.972656 13.644531 10.964844 13.652344 C 10.957031 13.65625 10.953125 13.660156 10.945312 13.664062 C 10.9375 13.667969 10.933594 13.671875 10.925781 13.675781 C 10.917969 13.679688 10.910156 13.683594 10.90625 13.6875 C 10.898438 13.691406 10.890625 13.695312 10.882812 13.699219 C 10.878906 13.703125 10.871094 13.707031 10.863281 13.710938 L 10.804688 13.746094 C 10.796875 13.75 10.792969 13.753906 10.785156 13.757812 C 10.777344 13.757812 10.769531 13.761719 10.765625 13.765625 C 10.757812 13.769531 10.75 13.773438 10.746094 13.777344 C 10.738281 13.777344 10.730469 13.78125 10.722656 13.785156 C 10.71875 13.789062 10.710938 13.792969 10.703125 13.796875 C 10.695312 13.800781 10.691406 13.800781 10.683594 13.804688 L 10.664062 13.816406 L 10.625 13.832031 C 10.617188 13.835938 10.609375 13.839844 10.605469 13.839844 C 10.597656 13.84375 10.589844 13.847656 10.582031 13.851562 C 10.578125 13.851562 10.570312 13.855469 10.5625 13.859375 C 10.558594 13.859375 10.550781 13.863281 10.542969 13.867188 L 10.523438 13.875 L 10.503906 13.878906 C 10.496094 13.882812 10.492188 13.886719 10.484375 13.886719 C 10.476562 13.890625 10.46875 13.890625 10.464844 13.894531 C 10.457031 13.898438 10.449219 13.898438 10.441406 13.902344 L 10.421875 13.90625 L 10.402344 13.914062 C 10.394531 13.914062 10.390625 13.917969 10.382812 13.917969 C 10.375 13.921875 10.371094 13.921875 10.363281 13.925781 C 10.355469 13.925781 10.351562 13.929688 10.34375 13.929688 C 10.335938 13.933594 10.328125 13.933594 10.324219 13.933594 L 10.300781 13.941406 L 10.28125 13.945312 C 10.277344 13.945312 10.269531 13.949219 10.261719 13.949219 C 10.253906 13.949219 10.25 13.953125 10.242188 13.953125 L 10.203125 13.960938 C 10.195312 13.960938 10.1875 13.964844 10.183594 13.964844 C 10.175781 13.964844 10.167969 13.96875 10.164062 13.96875 C 10.15625 13.96875 10.148438 13.96875 10.140625 13.972656 L 10.121094 13.972656 C 10.117188 13.976562 10.109375 13.976562 10.101562 13.976562 C 10.09375 13.976562 10.089844 13.980469 10.082031 13.980469 C 10.074219 13.980469 10.070312 13.980469 10.0625 13.980469 C 10.054688 13.984375 10.046875 13.984375 10.042969 13.984375 L 10.023438 13.984375 C 10.015625 13.988281 10.007812 13.988281 10 13.988281 C 9.996094 13.988281 9.988281 13.988281 9.980469 13.988281 L 9.960938 13.992188 L 9.941406 13.992188 C 9.933594 13.992188 9.929688 13.992188 9.921875 13.992188 C 9.914062 13.992188 9.910156 13.992188 9.902344 13.992188 C 9.894531 13.992188 9.886719 13.992188 9.882812 13.992188 L 9.859375 13.992188 C 9.855469 13.996094 9.847656 13.996094 9.84375 13.996094 L 6.792969 13.996094 L 6.792969 8.996094 C 6.808594 9.007812 6.824219 9.019531 6.835938 9.03125 C 6.84375 9.039062 6.851562 9.042969 6.855469 9.046875 C 6.863281 9.054688 6.871094 9.058594 6.878906 9.066406 C 6.882812 9.070312 6.890625 9.074219 6.898438 9.082031 C 6.902344 9.085938 6.910156 9.089844 6.917969 9.097656 C 6.921875 9.101562 6.929688 9.105469 6.9375 9.109375 C 6.941406 9.117188 6.949219 9.121094 6.957031 9.125 L 6.976562 9.140625 C 6.984375 9.144531 6.988281 9.148438 6.996094 9.152344 L 7.015625 9.167969 C 7.023438 9.171875 7.03125 9.175781 7.035156 9.179688 C 7.042969 9.183594 7.050781 9.1875 7.054688 9.191406 L 7.074219 9.207031 C 7.082031 9.210938 7.089844 9.214844 7.097656 9.21875 C 7.101562 9.222656 7.109375 9.226562 7.117188 9.230469 L 7.15625 9.253906 L 7.175781 9.261719 C 7.183594 9.265625 7.191406 9.269531 7.195312 9.273438 C 7.203125 9.277344 7.210938 9.28125 7.214844 9.285156 L 7.234375 9.296875 L 7.253906 9.304688 L 7.277344 9.316406 C 7.28125 9.320312 7.289062 9.320312 7.296875 9.324219 L 7.316406 9.335938 L 7.335938 9.34375 L 7.355469 9.355469 L 7.394531 9.371094 L 7.414062 9.382812 L 7.453125 9.398438 L 7.476562 9.40625 L 7.496094 9.414062 C 7.5 9.417969 7.507812 9.421875 7.515625 9.421875 L 7.535156 9.429688 C 7.542969 9.433594 7.546875 9.4375 7.554688 9.4375 C 7.5625 9.441406 7.566406 9.445312 7.574219 9.445312 L 7.613281 9.460938 C 7.621094 9.464844 7.628906 9.464844 7.632812 9.46875 C 7.640625 9.46875 7.648438 9.472656 7.652344 9.476562 L 7.671875 9.480469 L 7.695312 9.488281 L 7.714844 9.496094 L 7.734375 9.5 L 7.753906 9.507812 L 7.773438 9.511719 L 7.792969 9.519531 L 7.8125 9.523438 L 7.832031 9.53125 L 7.851562 9.535156 L 7.875 9.542969 L 7.914062 9.550781 L 7.933594 9.558594 L 7.992188 9.570312 L 8.011719 9.578125 L 8.050781 9.585938 L 8.074219 9.589844 L 8.269531 9.628906 L 8.292969 9.632812 L 8.3125 9.632812 L 8.390625 9.648438 L 8.410156 9.648438 L 8.449219 9.65625 L 8.472656 9.65625 L 8.511719 9.664062 L 8.53125 9.664062 L 8.550781 9.667969 L 8.570312 9.667969 L 8.589844 9.671875 L 8.609375 9.671875 L 8.628906 9.675781 L 8.652344 9.675781 L 8.671875 9.679688 L 8.691406 9.679688 L 8.710938 9.683594 L 8.730469 9.683594 L 8.75 9.6875 L 8.789062 9.6875 L 8.808594 9.691406 L 8.847656 9.691406 L 8.871094 9.695312 L 8.929688 9.695312 L 8.949219 9.699219 L 9.027344 9.699219 L 9.046875 9.703125 L 9.527344 9.703125 L 9.546875 9.699219 L 9.628906 9.699219 L 9.648438 9.695312 L 9.707031 9.695312 L 9.726562 9.691406 L 9.789062 9.691406 L 9.808594 9.6875 L 9.828125 9.6875 L 9.847656 9.683594 L 9.886719 9.683594 L 9.90625 9.679688 L 9.929688 9.679688 L 9.949219 9.675781 L 9.96875 9.675781 L 9.988281 9.671875 L 10.007812 9.671875 L 10.027344 9.667969 L 10.046875 9.667969 L 10.066406 9.664062 L 10.089844 9.664062 L 10.128906 9.65625 L 10.148438 9.65625 L 10.167969 9.652344 L 10.1875 9.652344 L 10.207031 9.648438 L 10.230469 9.644531 L 10.25 9.640625 L 10.269531 9.640625 L 10.308594 9.632812 L 10.328125 9.632812 L 10.347656 9.628906 L 10.371094 9.625 L 10.390625 9.621094 L 10.410156 9.621094 L 10.488281 9.605469 L 10.511719 9.601562 L 10.53125 9.601562 L 10.628906 9.582031 L 10.652344 9.578125 L 10.769531 9.554688 L 10.792969 9.550781 L 10.929688 9.523438 L 10.953125 9.519531 L 11.03125 9.503906 L 11.050781 9.496094 L 11.070312 9.492188 L 11.09375 9.488281 L 11.152344 9.476562 L 11.171875 9.46875 L 11.210938 9.460938 L 11.234375 9.457031 L 11.253906 9.449219 L 11.292969 9.441406 L 11.3125 9.433594 L 11.332031 9.429688 L 11.332031 8.515625 L 11.3125 8.523438 L 11.273438 8.546875 L 11.253906 8.554688 L 11.246094 8.566406 L 11.226562 8.578125 L 11.203125 8.585938 L 11.183594 8.597656 L 11.164062 8.605469 L 11.144531 8.617188 L 11.125 8.625 L 11.105469 8.636719 L 11.085938 8.644531 L 11.0625 8.652344 L 11.042969 8.664062 L 11.003906 8.679688 L 10.984375 8.691406 L 10.925781 8.714844 L 10.902344 8.722656 L 10.882812 8.730469 L 10.863281 8.742188 L 10.785156 8.773438 L 10.761719 8.78125 L 10.742188 8.785156 L 10.722656 8.792969 L 10.703125 8.796875 L 10.664062 8.8125 L 10.644531 8.816406 L 10.605469 8.832031 L 10.582031 8.835938 L 10.5625 8.84375 L 10.542969 8.847656 L 10.523438 8.855469 L 10.503906 8.859375 L 10.484375 8.867188 L 10.464844 8.871094 L 10.441406 8.878906 L 10.421875 8.882812 L 10.402344 8.890625 L 10.363281 8.898438 L 10.34375 8.90625 L 10.324219 8.910156 L 10.300781 8.914062 L 10.261719 8.921875 L 10.242188 8.929688 L 10.164062 8.945312 L 10.140625 8.949219 L 10.101562 8.957031 L 10.082031 8.957031 L 10.023438 8.96875 L 10 8.972656 L 9.980469 8.972656 L 9.941406 8.980469 L 9.921875 8.980469 L 9.882812 8.988281 L 9.859375 8.988281 L 9.839844 8.992188 L 9.820312 8.992188 L 9.800781 8.996094 L 9.78125 8.996094 L 9.769531 9 L 9.722656 9 L 9.699219 9.003906 L 9.640625 9.003906 L 9.621094 9.007812 L 9.558594 9.007812 C 9.554688 9.007812 9.546875 9.007812 9.539062 9.007812 L 9.480469 9.007812 L 9.460938 9.003906 C 9.453125 9.003906 9.445312 9.003906 9.441406 9.003906 C 9.433594 9.003906 9.425781 9.003906 9.421875 9.003906 L 9.402344 9.003906 L 9.378906 9 L 9.339844 9 C 9.332031 8.996094 9.328125 8.996094 9.320312 8.996094 C 9.3125 8.996094 9.308594 8.996094 9.300781 8.996094 L 9.261719 8.988281 L 9.242188 8.988281 L 9.222656 8.984375 L 9.199219 8.980469 C 9.195312 8.980469 9.1875 8.980469 9.179688 8.976562 C 9.175781 8.976562 9.167969 8.976562 9.160156 8.976562 C 9.15625 8.972656 9.148438 8.972656 9.140625 8.972656 C 9.132812 8.96875 9.128906 8.96875 9.121094 8.96875 C 9.113281 8.964844 9.109375 8.964844 9.101562 8.964844 C 9.09375 8.960938 9.085938 8.960938 9.082031 8.957031 C 9.074219 8.957031 9.066406 8.957031 9.0625 8.953125 C 9.054688 8.953125 9.046875 8.949219 9.042969 8.949219 L 9.023438 8.945312 C 9.015625 8.941406 9.007812 8.941406 9 8.9375 C 8.996094 8.9375 8.988281 8.933594 8.980469 8.933594 C 8.976562 8.929688 8.96875 8.929688 8.960938 8.925781 C 8.957031 8.925781 8.949219 8.921875 8.941406 8.921875 C 8.933594 8.917969 8.929688 8.917969 8.921875 8.914062 C 8.914062 8.914062 8.910156 8.910156 8.902344 8.90625 C 8.894531 8.90625 8.890625 8.902344 8.882812 8.902344 C 8.875 8.898438 8.867188 8.894531 8.863281 8.894531 C 8.855469 8.890625 8.847656 8.890625 8.84375 8.886719 C 8.835938 8.882812 8.828125 8.882812 8.824219 8.878906 C 8.816406 8.875 8.808594 8.871094 8.804688 8.871094 C 8.796875 8.867188 8.789062 8.863281 8.78125 8.859375 C 8.777344 8.859375 8.769531 8.855469 8.761719 8.851562 C 8.757812 8.847656 8.75 8.847656 8.742188 8.84375 C 8.738281 8.839844 8.730469 8.835938 8.722656 8.832031 C 8.714844 8.828125 8.710938 8.828125 8.703125 8.824219 C 8.695312 8.820312 8.691406 8.816406 8.683594 8.8125 C 8.675781 8.808594 8.671875 8.804688 8.664062 8.800781 C 8.65625 8.800781 8.648438 8.796875 8.644531 8.792969 C 8.636719 8.789062 8.628906 8.785156 8.625 8.78125 C 8.617188 8.777344 8.609375 8.773438 8.601562 8.769531 C 8.597656 8.765625 8.589844 8.757812 8.582031 8.753906 C 8.578125 8.75 8.570312 8.746094 8.5625 8.742188 C 8.558594 8.738281 8.550781 8.734375 8.542969 8.730469 C 8.535156 8.726562 8.53125 8.71875 8.523438 8.714844 C 8.515625 8.710938 8.511719 8.707031 8.503906 8.699219 C 8.496094 8.695312 8.492188 8.691406 8.484375 8.683594 C 8.476562 8.679688 8.472656 8.675781 8.464844 8.671875 C 8.457031 8.664062 8.449219 8.660156 8.445312 8.652344 C 8.4375 8.648438 8.429688 8.640625 8.425781 8.636719 C 8.417969 8.628906 8.410156 8.625 8.40625 8.617188 C 8.398438 8.613281 8.390625 8.605469 8.382812 8.597656 C 8.378906 8.589844 8.371094 8.585938 8.363281 8.578125 C 8.355469 8.570312 8.351562 8.566406 8.34375 8.558594 C 8.335938 8.550781 8.332031 8.542969 8.324219 8.535156 C 8.316406 8.527344 8.3125 8.519531 8.304688 8.511719 C 8.296875 8.503906 8.289062 8.496094 8.285156 8.488281 C 8.277344 8.480469 8.269531 8.472656 8.265625 8.460938 C 8.257812 8.453125 8.25 8.445312 8.246094 8.4375 C 8.238281 8.425781 8.230469 8.417969 8.226562 8.40625 C 8.21875 8.398438 8.210938 8.386719 8.203125 8.375 C 8.199219 8.367188 8.191406 8.355469 8.183594 8.34375 C 8.175781 8.332031 8.171875 8.320312 8.164062 8.308594 C 8.160156 8.296875 8.152344 8.285156 8.144531 8.273438 C 8.136719 8.257812 8.132812 8.246094 8.125 8.230469 C 8.117188 8.214844 8.113281 8.203125 8.105469 8.1875 C 8.097656 8.167969 8.089844 8.152344 8.085938 8.136719 C 8.078125 8.117188 8.070312 8.101562 8.066406 8.082031 C 8.058594 8.058594 8.050781 8.039062 8.046875 8.015625 C 8.039062 7.992188 8.03125 7.96875 8.027344 7.941406 C 8.019531 7.910156 8.011719 7.875 8.003906 7.84375 C 7.996094 7.792969 7.992188 7.742188 7.984375 7.6875 C 7.980469 7.628906 7.976562 7.566406 7.976562 7.503906 C 7.976562 7.4375 7.980469 7.375 7.984375 7.316406 C 7.992188 7.261719 7.996094 7.210938 8.003906 7.160156 C 8.011719 7.128906 8.019531 7.09375 8.027344 7.0625 C 8.03125 7.039062 8.039062 7.011719 8.046875 6.988281 C 8.050781 6.964844 8.058594 6.945312 8.066406 6.921875 C 8.070312 6.902344 8.078125 6.886719 8.085938 6.867188 C 8.089844 6.851562 8.097656 6.832031 8.105469 6.816406 C 8.113281 6.800781 8.117188 6.789062 8.125 6.773438 C 8.132812 6.757812 8.136719 6.746094 8.144531 6.730469 C 8.152344 6.71875 8.160156 6.707031 8.164062 6.695312 C 8.171875 6.683594 8.179688 6.671875 8.183594 6.660156 C 8.191406 6.648438 8.199219 6.636719 8.203125 6.628906 C 8.210938 6.617188 8.21875 6.605469 8.226562 6.597656 C 8.230469 6.585938 8.238281 6.578125 8.246094 6.570312 C 8.25 6.558594 8.257812 6.550781 8.265625 6.542969 C 8.269531 6.53125 8.277344 6.523438 8.285156 6.515625 C 8.292969 6.507812 8.296875 6.5 8.304688 6.492188 C 8.3125 6.484375 8.316406 6.476562 8.324219 6.46875 C 8.332031 6.460938 8.335938 6.453125 8.34375 6.445312 C 8.351562 6.4375 8.355469 6.433594 8.363281 6.425781 C 8.371094 6.417969 8.378906 6.414062 8.382812 6.40625 C 8.390625 6.398438 8.398438 6.394531 8.40625 6.386719 C 8.410156 6.378906 8.417969 6.375 8.425781 6.367188 C 8.429688 6.363281 8.4375 6.355469 8.445312 6.351562 C 8.449219 6.34375 8.457031 6.339844 8.464844 6.335938 C 8.472656 6.328125 8.476562 6.324219 8.484375 6.316406 C 8.492188 6.3125 8.496094 6.308594 8.503906 6.304688 C 8.511719 6.296875 8.515625 6.292969 8.523438 6.289062 C 8.53125 6.28125 8.535156 6.277344 8.542969 6.273438 C 8.550781 6.269531 8.558594 6.265625 8.5625 6.261719 C 8.570312 6.257812 8.578125 6.25 8.582031 6.246094 C 8.589844 6.242188 8.597656 6.238281 8.601562 6.234375 C 8.609375 6.230469 8.617188 6.226562 8.625 6.222656 C 8.628906 6.21875 8.636719 6.214844 8.644531 6.210938 C 8.652344 6.207031 8.65625 6.203125 8.664062 6.199219 C 8.671875 6.195312 8.675781 6.191406 8.683594 6.1875 C 8.691406 6.1875 8.695312 6.183594 8.703125 6.179688 C 8.710938 6.175781 8.714844 6.171875 8.722656 6.167969 C 8.730469 6.164062 8.738281 6.164062 8.742188 6.160156 C 8.75 6.15625 8.757812 6.152344 8.761719 6.152344 C 8.769531 6.148438 8.777344 6.144531 8.78125 6.140625 C 8.789062 6.140625 8.796875 6.136719 8.804688 6.132812 C 8.808594 6.128906 8.816406 6.128906 8.824219 6.125 C 8.828125 6.121094 8.835938 6.121094 8.84375 6.117188 C 8.847656 6.113281 8.855469 6.113281 8.863281 6.109375 C 8.871094 6.105469 8.875 6.105469 8.882812 6.101562 C 8.890625 6.101562 8.894531 6.097656 8.902344 6.09375 C 8.910156 6.09375 8.914062 6.089844 8.921875 6.089844 C 8.929688 6.085938 8.9375 6.085938 8.941406 6.082031 L 8.960938 6.074219 C 8.96875 6.074219 8.976562 6.070312 8.980469 6.070312 C 8.988281 6.070312 8.996094 6.066406 9 6.066406 C 9.007812 6.0625 9.015625 6.0625 9.023438 6.058594 L 9.042969 6.054688 C 9.046875 6.054688 9.054688 6.050781 9.0625 6.050781 C 9.070312 6.046875 9.074219 6.046875 9.082031 6.046875 C 9.085938 6.042969 9.09375 6.042969 9.101562 6.042969 C 9.109375 6.039062 9.113281 6.039062 9.121094 6.039062 C 9.128906 6.035156 9.132812 6.035156 9.140625 6.035156 C 9.148438 6.035156 9.15625 6.03125 9.160156 6.03125 C 9.167969 6.03125 9.175781 6.027344 9.179688 6.027344 L 9.199219 6.023438 L 9.222656 6.023438 L 9.261719 6.015625 L 9.28125 6.015625 L 9.300781 6.011719 C 9.308594 6.011719 9.3125 6.011719 9.320312 6.011719 C 9.328125 6.011719 9.335938 6.007812 9.339844 6.007812 L 9.378906 6.007812 L 9.402344 6.003906 L 9.421875 6.003906 C 9.425781 6.003906 9.433594 6.003906 9.441406 6.003906 C 9.445312 6.003906 9.453125 6.003906 9.460938 6.003906 L 9.480469 6 L 9.539062 6 C 9.546875 6 9.554688 6 9.558594 6 L 9.621094 6 L 9.640625 6.003906 L 9.722656 6.003906 L 9.742188 6.007812 L 9.769531 6.007812 L 9.78125 6.011719 L 9.820312 6.011719 L 9.839844 6.015625 L 9.859375 6.015625 L 9.882812 6.019531 L 9.902344 6.019531 L 9.921875 6.023438 L 9.941406 6.023438 L 10 6.035156 L 10.023438 6.035156 L 10.082031 6.046875 L 10.101562 6.046875 L 10.140625 6.054688 L 10.164062 6.058594 L 10.300781 6.085938 L 10.324219 6.09375 L 10.382812 6.105469 L 10.402344 6.113281 L 10.441406 6.121094 L 10.464844 6.128906 L 10.484375 6.132812 L 10.503906 6.140625 L 10.523438 6.144531 L 10.542969 6.152344 L 10.5625 6.15625 L 10.582031 6.164062 L 10.605469 6.167969 L 10.644531 6.183594 L 10.664062 6.1875 L 10.722656 6.210938 L 10.746094 6.21875 L 10.785156 6.234375 L 10.804688 6.238281 L 10.882812 6.269531 L 10.90625 6.28125 L 10.984375 6.3125 L 11.003906 6.324219 L 11.023438 6.332031 L 11.046875 6.339844 L 11.066406 6.351562 L 11.105469 6.367188 L 11.125 6.378906 L 11.144531 6.386719 L 11.164062 6.398438 L 11.1875 6.40625 L 11.207031 6.417969 L 11.226562 6.425781 L 11.246094 6.4375 L 11.265625 6.445312 L 11.285156 6.457031 L 11.304688 6.464844 L 11.328125 6.476562 L 11.347656 6.488281 L 11.347656 5.570312 L 11.328125 5.566406 L 11.304688 5.5625 L 11.285156 5.554688 L 11.226562 5.542969 L 11.207031 5.535156 L 11.1875 5.53125 L 11.164062 5.527344 L 11.105469 5.515625 L 11.085938 5.507812 L 11.046875 5.5 L 11.023438 5.496094 L 10.90625 5.472656 L 10.882812 5.46875 L 10.746094 5.441406 L 10.722656 5.4375 L 10.664062 5.425781 L 10.644531 5.417969 L 10.625 5.417969 L 10.605469 5.414062 L 10.582031 5.410156 L 10.523438 5.398438 L 10.503906 5.398438 L 10.464844 5.390625 L 10.441406 5.386719 L 10.421875 5.382812 L 10.402344 5.382812 L 10.34375 5.371094 L 10.324219 5.371094 L 10.300781 5.367188 L 10.28125 5.363281 L 10.261719 5.363281 L 10.222656 5.355469 L 10.203125 5.355469 L 10.183594 5.351562 L 10.164062 5.351562 L 10.140625 5.347656 L 10.121094 5.34375 L 10.101562 5.34375 L 10.082031 5.339844 L 10.0625 5.339844 L 10.042969 5.335938 L 10.023438 5.335938 L 10 5.332031 L 9.980469 5.332031 L 9.960938 5.328125 L 9.941406 5.328125 L 9.921875 5.324219 L 9.882812 5.324219 L 9.859375 5.320312 L 9.820312 5.320312 L 9.800781 5.316406 L 9.761719 5.316406 L 9.742188 5.3125 L 9.660156 5.3125 L 9.640625 5.308594 L 9.5 5.308594 L 9.480469 5.304688 L 9.101562 5.304688 L 9.082031 5.308594 L 8.960938 5.308594 L 8.941406 5.3125 L 8.882812 5.3125 L 8.863281 5.316406 L 8.824219 5.316406 L 8.804688 5.320312 L 8.742188 5.320312 L 8.722656 5.324219 L 8.703125 5.324219 L 8.683594 5.328125 L 8.640625 5.328125 L 8.621094 5.332031 L 8.601562 5.332031 L 8.578125 5.335938 L 8.558594 5.335938 L 8.519531 5.34375 L 8.5 5.34375 L 8.480469 5.347656 L 8.460938 5.347656 L 8.421875 5.355469 L 8.402344 5.355469 L 8.378906 5.359375 L 8.339844 5.367188 L 8.320312 5.367188 L 8.203125 5.390625 L 8.179688 5.390625 L 8.0625 5.414062 L 8.039062 5.421875 L 8 5.429688 L 7.980469 5.4375 L 7.960938 5.441406 L 7.9375 5.445312 L 7.917969 5.449219 L 7.898438 5.457031 L 7.859375 5.464844 L 7.839844 5.472656 L 7.820312 5.476562 L 7.796875 5.484375 L 7.777344 5.488281 L 7.757812 5.496094 L 7.738281 5.5 L 7.71875 5.507812 L 7.699219 5.511719 L 7.679688 5.519531 L 7.65625 5.527344 C 7.652344 5.527344 7.644531 5.53125 7.636719 5.53125 L 7.617188 5.539062 C 7.609375 5.542969 7.605469 5.542969 7.597656 5.546875 L 7.558594 5.5625 C 7.550781 5.5625 7.546875 5.566406 7.539062 5.570312 C 7.53125 5.570312 7.523438 5.574219 7.519531 5.578125 L 7.5 5.585938 C 7.492188 5.585938 7.484375 5.589844 7.480469 5.59375 L 7.457031 5.601562 L 7.398438 5.625 L 7.378906 5.636719 L 7.339844 5.652344 L 7.320312 5.664062 L 7.300781 5.671875 C 7.292969 5.675781 7.285156 5.679688 7.28125 5.683594 L 7.261719 5.695312 L 7.238281 5.703125 L 7.21875 5.714844 C 7.214844 5.71875 7.207031 5.722656 7.199219 5.726562 C 7.195312 5.730469 7.1875 5.734375 7.179688 5.738281 L 7.160156 5.746094 L 7.140625 5.757812 C 7.132812 5.761719 7.128906 5.765625 7.121094 5.769531 C 7.113281 5.777344 7.105469 5.777344 7.101562 5.785156 C 7.09375 5.789062 7.085938 5.792969 7.082031 5.796875 C 7.074219 5.800781 7.066406 5.804688 7.058594 5.808594 C 7.054688 5.8125 7.046875 5.816406 7.039062 5.820312 C 7.035156 5.824219 7.027344 5.828125 7.019531 5.835938 L 7 5.847656 C 6.992188 5.851562 6.988281 5.855469 6.980469 5.859375 L 6.960938 5.875 C 6.953125 5.878906 6.945312 5.886719 6.941406 5.890625 C 6.933594 5.894531 6.925781 5.898438 6.921875 5.90625 C 6.914062 5.910156 6.90625 5.914062 6.902344 5.921875 C 6.894531 5.925781 6.886719 5.929688 6.882812 5.9375 C 6.875 5.941406 6.867188 5.949219 6.859375 5.953125 C 6.855469 5.957031 6.84375 5.964844 6.835938 5.96875 Z M 6.835938 5.96875 "/>
</g>
</svg>
