<?xml version="1.0" encoding="UTF-8"?>
<svg xmlns="http://www.w3.org/2000/svg" xmlns:xlink="http://www.w3.org/1999/xlink" width="19pt" height="15pt" viewBox="0 0 19 15" version="1.1">
<g id="surface1">
<path style=" stroke:none;fill-rule:nonzero;fill:rgb(0%,0%,0%);fill-opacity:1;" d="M 3.386719 14.496094 L 3.386719 13.53125 C 3.390625 13.453125 3.378906 13.371094 3.351562 13.292969 C 3.324219 13.21875 3.28125 13.148438 3.222656 13.089844 C 3.167969 13.03125 3.097656 12.988281 3.023438 12.960938 C 2.945312 12.929688 2.867188 12.917969 2.785156 12.921875 C 2.679688 12.914062 2.574219 12.9375 2.480469 12.984375 C 2.386719 13.03125 2.304688 13.105469 2.25 13.195312 C 2.195312 13.109375 2.121094 13.039062 2.035156 12.988281 C 1.945312 12.941406 1.84375 12.917969 1.742188 12.921875 C 1.65625 12.917969 1.570312 12.9375 1.488281 12.976562 C 1.410156 13.015625 1.34375 13.078125 1.296875 13.152344 L 1.296875 12.960938 L 0.964844 12.960938 L 0.964844 14.496094 L 1.300781 14.496094 L 1.300781 13.652344 C 1.292969 13.597656 1.296875 13.546875 1.3125 13.496094 C 1.328125 13.445312 1.355469 13.398438 1.390625 13.359375 C 1.425781 13.320312 1.46875 13.289062 1.519531 13.269531 C 1.566406 13.25 1.621094 13.242188 1.671875 13.242188 C 1.894531 13.242188 2.003906 13.386719 2.003906 13.648438 L 2.003906 14.503906 L 2.339844 14.503906 L 2.339844 13.652344 C 2.335938 13.597656 2.339844 13.546875 2.355469 13.496094 C 2.371094 13.445312 2.398438 13.398438 2.433594 13.359375 C 2.46875 13.320312 2.511719 13.289062 2.5625 13.269531 C 2.609375 13.25 2.664062 13.242188 2.714844 13.242188 C 2.941406 13.242188 3.050781 13.386719 3.050781 13.648438 L 3.050781 14.503906 Z M 8.351562 12.960938 L 7.804688 12.960938 L 7.804688 12.496094 L 7.46875 12.496094 L 7.46875 12.960938 L 7.164062 12.960938 L 7.164062 13.265625 L 7.472656 13.265625 L 7.472656 13.972656 C 7.472656 14.328125 7.613281 14.542969 8.003906 14.542969 C 8.152344 14.542969 8.296875 14.5 8.417969 14.421875 L 8.324219 14.136719 C 8.234375 14.191406 8.132812 14.21875 8.03125 14.222656 C 7.871094 14.222656 7.808594 14.121094 7.808594 13.964844 L 7.808594 13.265625 L 8.355469 13.265625 Z M 11.183594 12.921875 C 11.101562 12.921875 11.023438 12.941406 10.953125 12.980469 C 10.882812 13.019531 10.824219 13.078125 10.78125 13.148438 L 10.78125 12.960938 L 10.453125 12.960938 L 10.453125 14.496094 L 10.785156 14.496094 L 10.785156 13.632812 C 10.785156 13.382812 10.894531 13.238281 11.105469 13.238281 C 11.175781 13.238281 11.246094 13.253906 11.3125 13.277344 L 11.414062 12.957031 C 11.339844 12.929688 11.257812 12.917969 11.179688 12.917969 Z M 6.898438 13.082031 C 6.710938 12.96875 6.496094 12.914062 6.277344 12.921875 C 5.890625 12.921875 5.636719 13.109375 5.636719 13.414062 C 5.636719 13.664062 5.824219 13.816406 6.164062 13.867188 L 6.324219 13.886719 C 6.507812 13.914062 6.59375 13.960938 6.59375 14.046875 C 6.59375 14.167969 6.472656 14.234375 6.246094 14.234375 C 6.0625 14.242188 5.882812 14.183594 5.734375 14.074219 L 5.578125 14.335938 C 5.769531 14.46875 6 14.539062 6.238281 14.535156 C 6.679688 14.535156 6.933594 14.324219 6.933594 14.03125 C 6.933594 13.742188 6.734375 13.621094 6.402344 13.574219 L 6.242188 13.550781 C 6.097656 13.53125 5.980469 13.503906 5.980469 13.398438 C 5.980469 13.296875 6.089844 13.21875 6.273438 13.21875 C 6.441406 13.222656 6.605469 13.265625 6.753906 13.351562 Z M 15.800781 12.921875 C 15.71875 12.921875 15.640625 12.941406 15.566406 12.980469 C 15.496094 13.019531 15.4375 13.078125 15.398438 13.148438 L 15.398438 12.960938 L 15.066406 12.960938 L 15.066406 14.496094 L 15.398438 14.496094 L 15.398438 13.632812 C 15.398438 13.382812 15.507812 13.238281 15.71875 13.238281 C 15.789062 13.238281 15.863281 13.253906 15.925781 13.277344 L 16.03125 12.957031 C 15.953125 12.929688 15.875 12.917969 15.792969 12.917969 Z M 11.519531 13.726562 C 11.515625 13.832031 11.53125 13.941406 11.574219 14.039062 C 11.613281 14.140625 11.671875 14.230469 11.75 14.308594 C 11.828125 14.382812 11.917969 14.441406 12.019531 14.480469 C 12.121094 14.515625 12.226562 14.535156 12.332031 14.527344 C 12.53125 14.539062 12.730469 14.472656 12.882812 14.34375 L 12.722656 14.074219 C 12.609375 14.164062 12.46875 14.210938 12.324219 14.210938 C 12.203125 14.203125 12.085938 14.144531 12.003906 14.054688 C 11.917969 13.964844 11.875 13.84375 11.875 13.722656 C 11.875 13.597656 11.917969 13.476562 12.003906 13.386719 C 12.085938 13.296875 12.199219 13.242188 12.324219 13.230469 C 12.46875 13.230469 12.609375 13.28125 12.722656 13.367188 L 12.882812 13.097656 C 12.730469 12.96875 12.535156 12.90625 12.332031 12.917969 C 12.226562 12.910156 12.117188 12.925781 12.019531 12.964844 C 11.917969 13.003906 11.828125 13.058594 11.75 13.136719 C 11.671875 13.210938 11.613281 13.300781 11.574219 13.402344 C 11.53125 13.503906 11.515625 13.609375 11.519531 13.71875 Z M 14.628906 13.726562 L 14.628906 12.960938 L 14.296875 12.960938 L 14.296875 13.144531 C 14.242188 13.074219 14.167969 13.015625 14.085938 12.976562 C 14.003906 12.9375 13.910156 12.917969 13.820312 12.921875 C 13.605469 12.921875 13.402344 13.007812 13.253906 13.15625 C 13.105469 13.308594 13.019531 13.511719 13.019531 13.726562 C 13.019531 13.9375 13.105469 14.140625 13.253906 14.292969 C 13.402344 14.441406 13.605469 14.527344 13.820312 14.527344 C 13.910156 14.53125 14.003906 14.511719 14.085938 14.472656 C 14.167969 14.433594 14.242188 14.375 14.296875 14.300781 L 14.296875 14.488281 L 14.628906 14.488281 Z M 13.394531 13.726562 C 13.398438 13.632812 13.429688 13.546875 13.484375 13.476562 C 13.539062 13.402344 13.613281 13.347656 13.695312 13.316406 C 13.78125 13.285156 13.875 13.277344 13.960938 13.300781 C 14.046875 13.320312 14.128906 13.367188 14.191406 13.433594 C 14.253906 13.5 14.292969 13.582031 14.308594 13.667969 C 14.324219 13.757812 14.316406 13.851562 14.28125 13.933594 C 14.242188 14.015625 14.1875 14.089844 14.109375 14.136719 C 14.035156 14.1875 13.949219 14.214844 13.859375 14.214844 C 13.792969 14.214844 13.730469 14.203125 13.671875 14.179688 C 13.613281 14.152344 13.5625 14.117188 13.519531 14.070312 C 13.476562 14.027344 13.441406 13.972656 13.421875 13.910156 C 13.398438 13.851562 13.390625 13.789062 13.394531 13.726562 Z M 9.382812 12.921875 C 9.171875 12.925781 8.96875 13.011719 8.824219 13.164062 C 8.675781 13.316406 8.59375 13.523438 8.597656 13.738281 C 8.597656 13.949219 8.6875 14.152344 8.839844 14.300781 C 8.988281 14.449219 9.195312 14.53125 9.40625 14.527344 C 9.636719 14.539062 9.863281 14.464844 10.039062 14.320312 L 9.878906 14.070312 C 9.753906 14.171875 9.597656 14.230469 9.4375 14.234375 C 9.328125 14.242188 9.21875 14.207031 9.132812 14.136719 C 9.046875 14.066406 8.992188 13.964844 8.980469 13.855469 L 10.113281 13.855469 C 10.113281 13.816406 10.113281 13.773438 10.113281 13.726562 C 10.113281 13.246094 9.816406 12.925781 9.390625 12.925781 Z M 9.382812 13.222656 C 9.433594 13.21875 9.484375 13.230469 9.53125 13.246094 C 9.574219 13.265625 9.617188 13.292969 9.652344 13.328125 C 9.691406 13.363281 9.71875 13.402344 9.738281 13.449219 C 9.757812 13.496094 9.769531 13.542969 9.769531 13.59375 L 8.972656 13.59375 C 8.976562 13.492188 9.023438 13.394531 9.097656 13.324219 C 9.175781 13.253906 9.273438 13.21875 9.375 13.222656 Z M 17.707031 13.726562 L 17.707031 12.34375 L 17.390625 12.34375 L 17.390625 13.148438 C 17.332031 13.074219 17.261719 13.015625 17.175781 12.976562 C 17.09375 12.9375 17 12.917969 16.910156 12.921875 C 16.699219 12.921875 16.496094 13.007812 16.34375 13.15625 C 16.195312 13.308594 16.109375 13.511719 16.109375 13.726562 C 16.109375 13.9375 16.195312 14.140625 16.34375 14.292969 C 16.496094 14.441406 16.699219 14.527344 16.910156 14.527344 C 17 14.53125 17.09375 14.511719 17.175781 14.472656 C 17.261719 14.433594 17.332031 14.375 17.390625 14.304688 L 17.390625 14.488281 L 17.707031 14.488281 Z M 18.261719 14.273438 C 18.285156 14.273438 18.304688 14.277344 18.324219 14.28125 C 18.34375 14.289062 18.359375 14.300781 18.375 14.316406 C 18.386719 14.328125 18.398438 14.34375 18.40625 14.363281 C 18.414062 14.382812 18.417969 14.402344 18.417969 14.421875 C 18.417969 14.445312 18.414062 14.464844 18.40625 14.480469 C 18.398438 14.5 18.386719 14.515625 18.375 14.53125 C 18.359375 14.542969 18.34375 14.554688 18.324219 14.5625 C 18.304688 14.570312 18.285156 14.574219 18.261719 14.574219 C 18.234375 14.574219 18.203125 14.566406 18.179688 14.550781 C 18.152344 14.53125 18.132812 14.507812 18.121094 14.480469 C 18.109375 14.464844 18.109375 14.441406 18.109375 14.421875 C 18.109375 14.402344 18.113281 14.382812 18.121094 14.363281 C 18.128906 14.34375 18.140625 14.328125 18.152344 14.316406 C 18.167969 14.300781 18.183594 14.289062 18.203125 14.28125 C 18.222656 14.273438 18.246094 14.269531 18.269531 14.273438 Z M 18.261719 14.542969 C 18.28125 14.542969 18.296875 14.539062 18.308594 14.535156 C 18.324219 14.527344 18.335938 14.519531 18.347656 14.507812 C 18.367188 14.488281 18.378906 14.457031 18.378906 14.429688 C 18.378906 14.398438 18.367188 14.371094 18.347656 14.347656 C 18.335938 14.335938 18.324219 14.328125 18.308594 14.320312 C 18.296875 14.316406 18.28125 14.3125 18.261719 14.3125 C 18.25 14.3125 18.230469 14.316406 18.21875 14.320312 C 18.203125 14.328125 18.191406 14.335938 18.179688 14.347656 C 18.160156 14.371094 18.148438 14.398438 18.148438 14.429688 C 18.148438 14.457031 18.160156 14.488281 18.179688 14.507812 C 18.191406 14.519531 18.203125 14.527344 18.21875 14.535156 C 18.234375 14.542969 18.25 14.542969 18.269531 14.542969 Z M 18.273438 14.351562 C 18.289062 14.351562 18.304688 14.355469 18.316406 14.363281 C 18.320312 14.371094 18.324219 14.375 18.324219 14.378906 C 18.328125 14.386719 18.332031 14.390625 18.328125 14.398438 C 18.328125 14.40625 18.328125 14.410156 18.328125 14.414062 C 18.324219 14.417969 18.320312 14.421875 18.316406 14.425781 C 18.308594 14.4375 18.296875 14.441406 18.285156 14.441406 L 18.332031 14.496094 L 18.292969 14.496094 L 18.25 14.441406 L 18.238281 14.441406 L 18.238281 14.496094 L 18.207031 14.496094 L 18.207031 14.355469 Z M 18.238281 14.378906 L 18.238281 14.417969 L 18.273438 14.417969 C 18.28125 14.421875 18.285156 14.421875 18.292969 14.417969 C 18.292969 14.417969 18.292969 14.414062 18.292969 14.410156 C 18.292969 14.410156 18.292969 14.40625 18.292969 14.402344 C 18.292969 14.402344 18.292969 14.398438 18.292969 14.394531 C 18.292969 14.394531 18.292969 14.390625 18.292969 14.390625 C 18.285156 14.386719 18.28125 14.386719 18.273438 14.390625 Z M 16.480469 13.726562 C 16.488281 13.636719 16.515625 13.550781 16.570312 13.476562 C 16.625 13.40625 16.699219 13.351562 16.785156 13.320312 C 16.867188 13.289062 16.960938 13.28125 17.046875 13.304688 C 17.136719 13.324219 17.214844 13.371094 17.277344 13.4375 C 17.339844 13.5 17.378906 13.582031 17.394531 13.671875 C 17.414062 13.761719 17.402344 13.855469 17.367188 13.9375 C 17.332031 14.019531 17.273438 14.089844 17.199219 14.140625 C 17.121094 14.191406 17.035156 14.21875 16.945312 14.21875 C 16.882812 14.21875 16.816406 14.207031 16.761719 14.183594 C 16.703125 14.15625 16.648438 14.121094 16.605469 14.074219 C 16.5625 14.027344 16.527344 13.972656 16.507812 13.914062 C 16.484375 13.855469 16.476562 13.792969 16.480469 13.726562 Z M 5.261719 13.726562 L 5.261719 12.960938 L 4.929688 12.960938 L 4.929688 13.144531 C 4.871094 13.074219 4.800781 13.015625 4.714844 12.976562 C 4.632812 12.9375 4.539062 12.917969 4.449219 12.921875 C 4.238281 12.921875 4.035156 13.007812 3.882812 13.15625 C 3.734375 13.308594 3.648438 13.511719 3.648438 13.726562 C 3.648438 13.9375 3.734375 14.140625 3.882812 14.292969 C 4.035156 14.441406 4.238281 14.527344 4.449219 14.527344 C 4.539062 14.53125 4.632812 14.511719 4.714844 14.472656 C 4.800781 14.433594 4.871094 14.375 4.929688 14.300781 L 4.929688 14.488281 L 5.261719 14.488281 Z M 4.023438 13.726562 C 4.03125 13.636719 4.0625 13.550781 4.113281 13.476562 C 4.167969 13.40625 4.242188 13.351562 4.328125 13.320312 C 4.410156 13.289062 4.503906 13.28125 4.589844 13.304688 C 4.679688 13.324219 4.757812 13.371094 4.820312 13.4375 C 4.882812 13.5 4.921875 13.582031 4.9375 13.671875 C 4.953125 13.761719 4.945312 13.855469 4.910156 13.9375 C 4.875 14.019531 4.816406 14.089844 4.738281 14.140625 C 4.664062 14.191406 4.578125 14.21875 4.488281 14.21875 C 4.425781 14.21875 4.359375 14.207031 4.300781 14.183594 C 4.242188 14.160156 4.191406 14.121094 4.144531 14.078125 C 4.101562 14.03125 4.070312 13.976562 4.046875 13.914062 C 4.023438 13.855469 4.015625 13.792969 4.019531 13.726562 Z M 4.023438 13.726562 "/>
<path style=" stroke:none;fill-rule:nonzero;fill:rgb(100%,37.254902%,0%);fill-opacity:1;" d="M 11.820312 1.265625 L 6.789062 1.265625 L 6.789062 10.355469 L 11.820312 10.355469 Z M 11.820312 1.265625 "/>
<path style=" stroke:none;fill-rule:nonzero;fill:rgb(92.156863%,0%,10.588235%);fill-opacity:1;" d="M 7.109375 5.8125 C 7.109375 4.933594 7.304688 4.070312 7.683594 3.285156 C 8.066406 2.496094 8.621094 1.808594 9.304688 1.265625 C 8.457031 0.597656 7.4375 0.179688 6.363281 0.0625 C 5.292969 -0.0507812 4.207031 0.136719 3.238281 0.613281 C 2.265625 1.085938 1.449219 1.824219 0.875 2.742188 C 0.304688 3.664062 0 4.726562 0 5.808594 C 0 6.894531 0.304688 7.957031 0.875 8.875 C 1.449219 9.796875 2.265625 10.535156 3.238281 11.007812 C 4.207031 11.480469 5.292969 11.671875 6.363281 11.554688 C 7.4375 11.441406 8.457031 11.023438 9.304688 10.355469 C 8.621094 9.8125 8.066406 9.125 7.6875 8.335938 C 7.304688 7.550781 7.109375 6.6875 7.109375 5.8125 Z M 7.109375 5.8125 "/>
<path style=" stroke:none;fill-rule:nonzero;fill:rgb(96.862745%,61.960784%,10.588235%);fill-opacity:1;" d="M 18.613281 5.8125 C 18.613281 6.894531 18.308594 7.957031 17.734375 8.878906 C 17.164062 9.796875 16.34375 10.535156 15.375 11.007812 C 14.402344 11.484375 13.320312 11.671875 12.246094 11.558594 C 11.171875 11.441406 10.152344 11.023438 9.304688 10.355469 C 9.988281 9.8125 10.542969 9.125 10.925781 8.335938 C 11.304688 7.550781 11.503906 6.6875 11.503906 5.808594 C 11.503906 4.933594 11.304688 4.070312 10.925781 3.285156 C 10.542969 2.496094 9.988281 1.808594 9.304688 1.265625 C 10.152344 0.597656 11.171875 0.179688 12.246094 0.0625 C 13.320312 -0.0507812 14.402344 0.136719 15.375 0.613281 C 16.34375 1.085938 17.164062 1.824219 17.734375 2.742188 C 18.308594 3.664062 18.613281 4.726562 18.613281 5.808594 Z M 18.613281 5.8125 "/>
<path style=" stroke:none;fill-rule:nonzero;fill:rgb(96.862745%,61.960784%,10.588235%);fill-opacity:1;" d="M 18.0625 9.390625 L 18.0625 9.203125 L 18.136719 9.203125 L 18.136719 9.164062 L 17.949219 9.164062 L 17.949219 9.203125 L 18.027344 9.203125 L 18.027344 9.390625 Z M 18.429688 9.390625 L 18.429688 9.164062 L 18.375 9.164062 L 18.304688 9.328125 L 18.238281 9.164062 L 18.1875 9.164062 L 18.1875 9.390625 L 18.230469 9.390625 L 18.230469 9.222656 L 18.292969 9.367188 L 18.335938 9.367188 L 18.398438 9.222656 L 18.398438 9.390625 Z M 18.429688 9.390625 "/>
</g>
</svg>
