<?xml version="1.0" standalone="no"?>
<!DOCTYPE svg PUBLIC "-//W3C//DTD SVG 1.1//EN" "http://www.w3.org/Graphics/SVG/1.1/DTD/svg11.dtd" >
<svg xmlns="http://www.w3.org/2000/svg" xmlns:xlink="http://www.w3.org/1999/xlink" version="1.1">
<metadata>
Created by FontForge 20190801 at Tue Aug 27 09:53:26 2019
 By Unknown
Copyright 2016 by Playtype. All rights reserved.
</metadata>
<defs>
<font id="ItalianPlateNo2PJ-Bold" horiz-adv-x="460" >
  <font-face 
    font-family="Italian Plate No2 PJ"
    font-weight="700"
    font-stretch="normal"
    units-per-em="1000"
    panose-1="0 0 8 0 0 0 0 0 0 0"
    ascent="750"
    descent="-250"
    x-height="500"
    cap-height="680"
    bbox="-315 -190 1053 877"
    underline-thickness="50"
    underline-position="-75"
    unicode-range="U+0020-FB02"
  />
<missing-glyph horiz-adv-x="507" 
d="M0 680h507v-680h-507v680zM124 294v140h30q40 0 67 26.5t27 68.5q0 41 -26.5 66t-66.5 25h-85v-326h54zM399 294v275h65v51h-185v-51h65v-275h55zM124 569h28q19 0 30.5 -10.5t11.5 -29.5q0 -20 -12 -32.5t-30 -12.5h-28v85z" />
    <glyph glyph-name="f_b" unicode="fb" horiz-adv-x="743" 
d="M77 387h-69v113h69v31q0 83 42 116t134 33h37v-107h-30q-28 0 -41 -12.5t-13 -38.5v-22h84v-113h-84v-387h-129v387zM484 6q-25 14 -38 34v-40h-121v680h127v-212q14 16 39.5 28t59.5 12q74 0 113.5 -47t39.5 -131v-158q0 -80 -43 -130t-117 -50q-35 0 -60 14zM558 125
q17 18 17 49v141q0 78 -60 78q-31 0 -47 -20t-16 -58v-134q0 -35 15 -54.5t46 -19.5q28 0 45 18z" />
    <glyph glyph-name="f_f" unicode="ff" horiz-adv-x="569" 
d="M77 387h-69v113h69v31q0 81 40 115t126 34h49v-107h-32q-28 0 -41 -12.5t-13 -38.5v-22h119v31q0 83 42 116t134 33h60v-107h-53q-28 0 -41 -12.5t-13 -38.5v-22h102v-113h-102v-387h-129v387h-119v-387h-129v387z" />
    <glyph glyph-name="f_f_b" unicode="ffb" horiz-adv-x="991" 
d="M77 387h-69v113h69v31q0 81 40 115t126 34h49v-107h-32q-28 0 -41 -12.5t-13 -38.5v-22h119v31q0 81 40 115t126 34h47v-107h-30q-28 0 -41 -12.5t-13 -38.5v-22h84v-113h-84v-387h-129v387h-119v-387h-129v387zM732 6q-25 14 -38 34v-40h-121v680h127v-212
q14 16 39.5 28t59.5 12q74 0 113.5 -47t39.5 -131v-158q0 -80 -43 -130t-117 -50q-35 0 -60 14zM806 125q17 18 17 49v141q0 78 -60 78q-31 0 -47 -20t-16 -58v-134q0 -35 15 -54.5t46 -19.5q28 0 45 18z" />
    <glyph glyph-name="f_f_h" unicode="ffh" horiz-adv-x="999" 
d="M77 387h-69v113h69v31q0 81 40 115t126 34h49v-107h-32q-28 0 -41 -12.5t-13 -38.5v-22h119v31q0 81 40 115t126 34h47v-107h-30q-28 0 -41 -12.5t-13 -38.5v-22h84v-113h-84v-387h-129v387h-119v-387h-129v387zM573 680h127v-214q37 42 99 42q71 0 109 -48.5t38 -127.5
v-332h-130v326q0 67 -54 67q-28 0 -44 -17.5t-16 -44.5v-331h-129v680z" />
    <glyph glyph-name="f_f_i" unicode="ffi" horiz-adv-x="757" 
d="M77 387h-69v113h69v31q0 81 40 115t126 34h49v-107h-32q-28 0 -41 -12.5t-13 -38.5v-22h119v31q0 58 21 92t68 49.5t126 15.5q42 0 101 -10v-109l-34 4q-40 6 -61 6q-49 0 -70.5 -11.5t-21.5 -45.5v-22h249v-500h-130v387h-119v-387h-129v387h-119v-387h-129v387z" />
    <glyph glyph-name="f_f_j" unicode="ffj" horiz-adv-x="757" 
d="M508 -66h21q25 0 34.5 10.5t9.5 33.5v409h-119v-387h-129v387h-119v-387h-129v387h-69v113h69v31q0 83 42.5 116t134.5 33h38v-107h-32q-28 0 -41 -12.5t-13 -38.5v-22h119v31q0 58 21 92t68 49.5t126 15.5q42 0 101 -10v-109l-34 4q-40 6 -61 6q-49 0 -70.5 -11.5
t-21.5 -45.5v-22h249v-532q0 -77 -36.5 -114.5t-113.5 -37.5h-45v118z" />
    <glyph glyph-name="f_f_k" unicode="ffk" horiz-adv-x="970" 
d="M77 387h-69v113h69v31q0 81 40 115t126 34h49v-107h-32q-28 0 -41 -12.5t-13 -38.5v-22h119v31q0 81 40 115t126 34h47v-107h-30q-28 0 -41 -12.5t-13 -38.5v-22h84v-113h-84v-387h-129v387h-119v-387h-129v387zM573 680h127v-383h3l122 203h137l-130 -190l150 -310h-145
l-94 212l-43 -62v-150h-127v680z" />
    <glyph glyph-name="f_f_l" unicode="ffl" horiz-adv-x="757" 
d="M77 387h-69v113h69v31q0 81 40 115t126 34h49v-107h-32q-28 0 -41 -12.5t-13 -38.5v-22h119v31q0 81 40 115t126 34h47v-107h-30q-28 0 -41 -12.5t-13 -38.5v-22h84v-113h-84v-387h-129v387h-119v-387h-129v387zM573 680h130v-680h-130v680z" />
    <glyph glyph-name="f_h" unicode="fh" horiz-adv-x="751" 
d="M77 387h-69v113h69v31q0 83 42 116t134 33h37v-107h-30q-28 0 -41 -12.5t-13 -38.5v-22h84v-113h-84v-387h-129v387zM325 680h127v-214q37 42 99 42q71 0 109 -48.5t38 -127.5v-332h-130v326q0 67 -54 67q-28 0 -44 -17.5t-16 -44.5v-331h-129v680z" />
    <glyph glyph-name="f_j" unicode="fj" horiz-adv-x="508" 
d="M260 -66h20q25 0 35 10.5t10 33.5v409h-119v-387h-129v387h-69v113h69v31q0 58 21 92t67.5 49.5t126.5 15.5q42 0 101 -10v-109q-72 10 -106 10q-44 0 -62.5 -12t-18.5 -45v-22h248v-532q0 -77 -36.5 -114.5t-113.5 -37.5h-44v118z" />
    <glyph glyph-name="f_k" unicode="fk" horiz-adv-x="722" 
d="M77 387h-69v113h69v31q0 83 42 116t134 33h37v-107h-30q-28 0 -41 -12.5t-13 -38.5v-22h84v-113h-84v-387h-129v387zM325 680h127v-383h3l122 203h137l-130 -190l150 -310h-145l-94 212l-43 -62v-150h-127v680z" />
    <glyph glyph-name="fi" unicode="fi" horiz-adv-x="508" 
d="M77 387h-69v113h69v31q0 61 24 95.5t70.5 48t120.5 13.5q42 0 101 -10v-109q-72 10 -106 10q-44 0 -62.5 -12t-18.5 -45v-22h248v-500h-129v387h-119v-387h-129v387z" />
    <glyph glyph-name="fl" unicode="fl" horiz-adv-x="508" 
d="M77 387h-69v113h69v31q0 83 42 116t134 33h37v-107h-30q-28 0 -41 -12.5t-13 -38.5v-22h84v-113h-84v-387h-129v387zM325 680h129v-680h-129v680z" />
    <glyph glyph-name="u1F355.01" unicode="[&#x3c;&#x33;]" horiz-adv-x="768" 
d="M748 551.5q10 -14.5 10 -37.5q0 -16 -15.5 -33.5t-39.5 -27.5q-20 -33 -39 -57q-6 -8 -34 -36q-26 -26 -31 -33q-9 -12 -17.5 -26t-11.5 -20q-7 -15 -14 -23q-22 -28 -45 -51l-18 -19q-12 -13 -27 -43l-13 -23q-8 -12 -18 -32l-18 -33q-1 -5 -4 -21t-3 -29
q0 -29 -12 -41.5t-29 -12.5q-26 0 -42 40q-10 25 -25 75q-1 1 -1 2.5t-1 2.5q-15 15 -19 33q-3 13 -2 24l-16 33q-25 37 -27 41l-39 -44l5 -71q0 -4 -4 -10l-92 -109q-4 -4 -7 -3t-3 6l-2 82l-77 -3q-11 0 -4 9l103 110q4 4 10 4l60 -4l42 47q-10 20 -36 87q-26 70 -44 96
q-7 10 -15.5 40t-13.5 57q-40 17 -40 55q0 39 45 65q29 17 51 27t59 16q16 3 34.5 8t25.5 7q32 10 58.5 15.5t60.5 5.5q104 0 197 -45l52 60l-37 16q-4 2 -4 5.5t4 5.5l111 59l4 1q7 0 4 -8l-35 -119q-2 -5 -5 -5.5t-6 3.5l-23 32l-51 -57q40 -21 84 -55q30 -24 40 -38.5z
M650 735l16 -7q9 -4 13 -7t9 -10l11 -15l23 76zM739 538q-4 12 -41 40q-136 103 -285 103q-34 0 -60 -5.5t-57 -15.5q-6 -2 -23.5 -7t-34.5 -8q-32 -6 -52.5 -14.5t-34 -16t-18.5 -9.5q-21 -11 -29.5 -23.5t-8.5 -28.5q0 -28 31 -40q39 45 103.5 69t134.5 24
q100 0 176.5 -26.5t140.5 -80.5q4 18 16 29.5t26 11.5q10 0 16 -2zM400 51q1 4 5 28q3 23 14 45.5t27 40.5q9 10 19 30l14 28q4 7 11.5 14t16.5 13q31 20 46 48q8 16 19 32t15 23q18 25 27 42q9 15 21 29.5t15 17.5q22 24 28 36q-67 56 -141.5 84t-172.5 28
q-68 0 -127.5 -22t-100.5 -66h-1q4 -27 12.5 -54.5t14.5 -36.5q11 -16 21 -39.5t25 -63.5q22 -58 31 -77l45 51q-3 1 -8 2t-7 2.5t-2 5.5q0 8 10 8q11 0 21 -7q14 -10 19 -24q3 -7 -3 -11l-4 -2q-4 0 -7 5l-7 11l-49 -56q8 -15 16 -24q10 -14 14 -21q8 -16 10 -19
q8 15 26 19q8 2 12 2q21 0 36 -18t15 -44q0 -18 -9 -32t-24 -18q-4 -1 -10 -1q-9 0 -13 2l7 -21q5 -18 14 -42q12 -30 28 -30q9 0 16.5 8.5t8.5 29.5q1 25 6 44zM372.5 449.5q-14.5 18.5 -14.5 43.5q0 22 13 37t34 15t35 -16t14 -40q0 -23 -13 -40.5t-33 -17.5
q-21 0 -35.5 18.5zM286 470.5q13 -14.5 13 -37.5q0 -25 -14 -43.5t-35 -18.5q-20 0 -33.5 17t-13.5 40q0 24 14 40.5t34 16.5q22 0 35 -14.5zM486 353q-12 15 -12 37q0 26 14.5 43.5t35.5 17.5q5 0 13 -2q16 -4 25 -17t9 -31q0 -25 -16 -44t-37 -19q-20 0 -32 15z
M413.5 257.5q-16.5 -19.5 -37.5 -19.5q-20 0 -31.5 15t-11.5 36q0 26 15.5 43.5t36.5 17.5q20 0 32.5 -14t12.5 -34q0 -25 -16.5 -44.5zM41 69l57 2l75 85l-47 3zM182 143l-72 -82l2 -59l74 87z" />
    <glyph glyph-name="u1F355.02" unicode="[&#x2d;&#x3e;]" horiz-adv-x="835" 
d="M621.5 618.5q97.5 -54.5 140.5 -130t43 -140.5q0 -47 -22.5 -66.5t-66.5 -20.5q-39 -14 -115 -36l-92 -28q-95 -32 -163 -69q-24 -13 -54 -32q-7 -4 -37.5 -22t-55.5 -27q-22 -9 -38 -16.5t-27 -16.5q-2 -3 -8.5 -19t-18.5 -25.5t-28 -9.5q-49 0 -49 94q0 12 2 38
q4 50 5 63q5 64 10 104t17 85q14 53 21 89t7 65q0 14 -1 20q-20 18 -20 46q0 16 7.5 29t26.5 24q42 26 113.5 41t154.5 15q151 0 248.5 -54.5zM781 381q-4 48 -47 112.5t-133.5 114t-227.5 49.5q-78 0 -149 -14.5t-109 -37.5q-13 -8 -20.5 -19t-7.5 -22q0 -18 12 -30
q121 50 256 50q138 0 228.5 -62t117.5 -179q2 22 17.5 33.5t33.5 11.5q22 0 29 -7zM101.5 -15q7.5 9 13 23t9.5 22q13 24 36 38q29 17 63 29q16 7 33.5 14.5t32.5 17.5q19 12 42 32q29 23 48.5 37t42.5 22q29 10 84 21q73 15 117 30q45 17 70 32q-54 265 -338 265
q-128 0 -248 -48q1 -7 1 -20q0 -57 -28 -160q-12 -44 -17.5 -85.5t-9.5 -102.5q-1 -14 -5 -61q-2 -30 -2 -41q0 -74 33 -74q15 0 22.5 9zM174 357q-7 0 -7 12l2 82q1 32 11 49.5t35 17.5q26 0 31 -33q17 19 39 19q15 0 23 -9.5t8 -22.5q0 -25 -40 -51l-93 -61q-6 -3 -9 -3z
M364 339q-10 0 -10 7q0 4 3 8l46 75q15 23 27.5 34t28.5 11q17 0 27 -10t10 -26q0 -5 -4 -19q16 4 24 4q14 0 25.5 -9.5t11.5 -24.5q0 -22 -18.5 -32t-50.5 -12l-118 -6h-2zM148 225q-6 17 -6 32q0 21 11.5 34.5t30.5 13.5q24 0 36 -31q8 14 17 20t22 6q18 0 26.5 -11
t8.5 -23q0 -10 -7.5 -21.5t-24.5 -31.5l-68 -79q-6 -6 -8 -6q-5 0 -8 12z" />
    <glyph glyph-name=".notdef" horiz-adv-x="507" 
d="M0 680h507v-680h-507v680zM124 294v140h30q40 0 67 26.5t27 68.5q0 41 -26.5 66t-66.5 25h-85v-326h54zM399 294v275h65v51h-185v-51h65v-275h55zM124 569h28q19 0 30.5 -10.5t11.5 -29.5q0 -20 -12 -32.5t-30 -12.5h-28v85z" />
    <glyph glyph-name=".null" horiz-adv-x="0" 
 />
    <glyph glyph-name="space" unicode=" " horiz-adv-x="180" 
 />
    <glyph glyph-name="A" unicode="A" horiz-adv-x="435" 
d="M154 680h135l142 -680h-140l-14 83h-125l-14 -83h-134zM261 192l-41 264h-2l-47 -264h90z" />
    <glyph glyph-name="Aacute" unicode="&#xc1;" horiz-adv-x="435" 
d="M154 680h135l142 -680h-140l-14 83h-125l-14 -83h-134zM261 192l-41 264h-2l-47 -264h90zM203 838h136l-63 -128h-114z" />
    <glyph glyph-name="Abreve" unicode="&#x102;" horiz-adv-x="435" 
d="M154 680h135l142 -680h-140l-14 83h-125l-14 -83h-134zM261 192l-41 264h-2l-47 -264h90zM132 742.5q-30 33.5 -30 95.5h71q0 -55 48 -55q22 0 35.5 13.5t13.5 41.5h70q0 -63 -30 -96t-89 -33t-89 33.5z" />
    <glyph glyph-name="Acircumflex" unicode="&#xc2;" horiz-adv-x="435" 
d="M154 680h135l142 -680h-140l-14 83h-125l-14 -83h-134zM261 192l-41 264h-2l-47 -264h90zM157 838h128l55 -128h-74l-45 60l-44 -60h-75z" />
    <glyph glyph-name="Adieresis" unicode="&#xc4;" horiz-adv-x="435" 
d="M154 680h135l142 -680h-140l-14 83h-125l-14 -83h-134zM261 192l-41 264h-2l-47 -264h90zM108 732q-18 18 -18 43t18 43t43 18t43 -18t18 -43t-18 -43t-43 -18t-43 18zM247 732q-18 18 -18 43t18 43t43 18t43.5 -18t18.5 -43t-18.5 -43t-43.5 -18t-43 18z" />
    <glyph glyph-name="Agrave" unicode="&#xc0;" horiz-adv-x="435" 
d="M154 680h135l142 -680h-140l-14 83h-125l-14 -83h-134zM261 192l-41 264h-2l-47 -264h90zM101 838h137l41 -128h-115z" />
    <glyph glyph-name="Amacron" unicode="&#x100;" horiz-adv-x="435" 
d="M154 680h135l142 -680h-140l-14 83h-125l-14 -83h-134zM261 192l-41 264h-2l-47 -264h90zM102 815h238v-84h-238v84z" />
    <glyph glyph-name="Aogonek" unicode="&#x104;" horiz-adv-x="435" 
d="M154 680h135l142 -680h-140l-14 83h-125l-14 -83h-134zM261 192l-41 264h-2l-47 -264h90zM290 -166.5q-22 17.5 -22 43.5q0 23 16 48t44 47h98q-26 -17 -38.5 -36t-12.5 -32q0 -17 24 -17q3 0 27 2v-64q-36 -9 -63 -9q-51 0 -73 17.5z" />
    <glyph glyph-name="Aring" unicode="&#xc5;" horiz-adv-x="435" 
d="M154 680h135l142 -680h-140l-14 83h-125l-14 -83h-134zM261 192l-41 264h-2l-47 -264h90zM159.5 731q-24.5 25 -24.5 60q0 36 24.5 61t60.5 25t61 -25t25 -61q0 -35 -25 -60t-61 -25t-60.5 25zM243.5 767.5q9.5 9.5 9.5 23.5q0 13 -9.5 22.5t-23.5 9.5t-23 -9t-9 -23
t9 -23.5t23 -9.5t23.5 9.5z" />
    <glyph glyph-name="Atilde" unicode="&#xc3;" horiz-adv-x="435" 
d="M154 680h135l142 -680h-140l-14 83h-125l-14 -83h-134zM261 192l-41 264h-2l-47 -264h90zM102 761q12 27 33 46t45 19q12 0 28 -6t30 -12q24 -11 32 -11q14 0 35 31l35 -42q-13 -28 -33.5 -47.5t-44.5 -19.5q-19 0 -55 17q-26 12 -35 12q-18 0 -35 -29z" />
    <glyph glyph-name="AE" unicode="&#xc6;" horiz-adv-x="645" 
d="M154 680h475v-121h-214v-155h109v-121h-109v-162h214v-121h-349v146h-117l-27 -146h-132zM280 255v304h-40l-57 -304h97z" />
    <glyph glyph-name="B" unicode="B" horiz-adv-x="476" 
d="M59 680h181q57 0 102.5 -24.5t71 -67.5t25.5 -97q0 -46 -19.5 -81.5t-50.5 -59.5q34 -23 56 -61.5t22 -88.5q0 -54 -26.5 -100t-74 -73t-108.5 -27h-179v680zM236 402q33 0 54.5 23t21.5 59q0 37 -21.5 57.5t-57.5 20.5h-42v-160h45zM236 119q35 0 59 25t24 59
q0 35 -23.5 59t-59.5 24h-45v-167h45z" />
    <glyph glyph-name="C" unicode="C" horiz-adv-x="458" 
d="M142.5 16.5q-44.5 24.5 -70 68t-25.5 96.5v318q0 54 26 97t72 67.5t103 24.5q55 0 98.5 -23t68 -66t24.5 -100v-30h-132v32q0 30 -17.5 48t-44.5 18t-45 -19t-18 -47v-323q0 -27 18.5 -46t44.5 -19q27 0 44.5 19.5t17.5 49.5v30h132v-23q0 -59 -25 -104t-70 -69t-101 -24
t-100.5 24.5z" />
    <glyph glyph-name="Cacute" unicode="&#x106;" horiz-adv-x="458" 
d="M142.5 16.5q-44.5 24.5 -70 68t-25.5 96.5v318q0 54 26 97t72 67.5t103 24.5q55 0 98.5 -23t68 -66t24.5 -100v-30h-132v32q0 30 -17.5 48t-44.5 18t-45 -19t-18 -47v-323q0 -27 18.5 -46t44.5 -19q27 0 44.5 19.5t17.5 49.5v30h132v-23q0 -59 -25 -104t-70 -69t-101 -24
t-100.5 24.5zM230 838h136l-63 -128h-114z" />
    <glyph glyph-name="Ccaron" unicode="&#x10c;" horiz-adv-x="458" 
d="M142.5 16.5q-44.5 24.5 -70 68t-25.5 96.5v318q0 54 26 97t72 67.5t103 24.5q55 0 98.5 -23t68 -66t24.5 -100v-30h-132v32q0 30 -17.5 48t-44.5 18t-45 -19t-18 -47v-323q0 -27 18.5 -46t44.5 -19q27 0 44.5 19.5t17.5 49.5v30h132v-23q0 -59 -25 -104t-70 -69t-101 -24
t-100.5 24.5zM129 838h75l44 -60l45 60h74l-55 -128h-128z" />
    <glyph glyph-name="Ccedilla" unicode="&#xc7;" horiz-adv-x="458" 
d="M142.5 16.5q-44.5 24.5 -70 68t-25.5 96.5v318q0 54 26 97t72 67.5t103 24.5q55 0 98.5 -23t68 -66t24.5 -100v-30h-132v32q0 30 -17.5 48t-44.5 18t-45 -19t-18 -47v-323q0 -27 18.5 -46t44.5 -19q27 0 44.5 19.5t17.5 49.5v30h132v-23q0 -59 -25 -104t-70 -69t-101 -24
t-100.5 24.5zM173 -175v64q22 -2 27 -2q24 0 24 17q0 13 -13 32t-38 36h98q28 -22 44 -47t16 -48q0 -26 -22 -43.5t-73 -17.5q-31 0 -63 9z" />
    <glyph glyph-name="Ccircumflex" unicode="&#x108;" horiz-adv-x="458" 
d="M142.5 16.5q-44.5 24.5 -70 68t-25.5 96.5v318q0 54 26 97t72 67.5t103 24.5q55 0 98.5 -23t68 -66t24.5 -100v-30h-132v32q0 30 -17.5 48t-44.5 18t-45 -19t-18 -47v-323q0 -27 18.5 -46t44.5 -19q27 0 44.5 19.5t17.5 49.5v30h132v-23q0 -59 -25 -104t-70 -69t-101 -24
t-100.5 24.5zM184 838h128l55 -128h-74l-45 60l-44 -60h-75z" />
    <glyph glyph-name="Cdotaccent" unicode="&#x10a;" horiz-adv-x="458" 
d="M142.5 16.5q-44.5 24.5 -70 68t-25.5 96.5v318q0 54 26 97t72 67.5t103 24.5q55 0 98.5 -23t68 -66t24.5 -100v-30h-132v32q0 30 -17.5 48t-44.5 18t-45 -19t-18 -47v-323q0 -27 18.5 -46t44.5 -19q27 0 44.5 19.5t17.5 49.5v30h132v-23q0 -59 -25 -104t-70 -69t-101 -24
t-100.5 24.5zM200 727q-20 20 -20 48t20 48t48 20t48 -20t20 -48t-20 -48t-48 -20t-48 20z" />
    <glyph glyph-name="D" unicode="D" horiz-adv-x="498" 
d="M59 680h205q52 0 94.5 -22t67.5 -63t25 -96v-319q0 -56 -25 -96.5t-67.5 -62t-94.5 -21.5h-205v680zM252 120q29 0 46.5 20t17.5 49v301q0 30 -17.5 50t-46.5 20h-58v-440h58z" />
    <glyph glyph-name="Eth" unicode="&#xd0;" horiz-adv-x="498" 
d="M59 291h-44v107h44v282h205q52 0 94.5 -22t67.5 -63t25 -96v-319q0 -56 -25 -96.5t-67.5 -62t-94.5 -21.5h-205v291zM252 120q29 0 46.5 20t17.5 49v301q0 30 -17.5 50t-46.5 20h-58v-162h74v-107h-74v-171h58z" />
    <glyph glyph-name="Dcaron" unicode="&#x10e;" horiz-adv-x="498" 
d="M59 680h205q52 0 94.5 -22t67.5 -63t25 -96v-319q0 -56 -25 -96.5t-67.5 -62t-94.5 -21.5h-205v680zM252 120q29 0 46.5 20t17.5 49v301q0 30 -17.5 50t-46.5 20h-58v-440h58zM130 838h75l44 -60l45 60h74l-55 -128h-128z" />
    <glyph glyph-name="Dcroat" unicode="&#x110;" horiz-adv-x="498" 
d="M59 291h-44v107h44v282h205q52 0 94.5 -22t67.5 -63t25 -96v-319q0 -56 -25 -96.5t-67.5 -62t-94.5 -21.5h-205v291zM252 120q29 0 46.5 20t17.5 49v301q0 30 -17.5 50t-46.5 20h-58v-162h74v-107h-74v-171h58z" />
    <glyph glyph-name="E" unicode="E" horiz-adv-x="424" 
d="M59 680h349v-121h-214v-155h109v-121h-109v-162h214v-121h-349v680z" />
    <glyph glyph-name="Eacute" unicode="&#xc9;" horiz-adv-x="424" 
d="M59 680h349v-121h-214v-155h109v-121h-109v-162h214v-121h-349v680zM218 838h136l-63 -128h-114z" />
    <glyph glyph-name="Ebreve" unicode="&#x114;" horiz-adv-x="424" 
d="M59 680h349v-121h-214v-155h109v-121h-109v-162h214v-121h-349v680zM147 742.5q-30 33.5 -30 95.5h71q0 -55 48 -55q22 0 35.5 13.5t13.5 41.5h70q0 -63 -30 -96t-89 -33t-89 33.5z" />
    <glyph glyph-name="Ecaron" unicode="&#x11a;" horiz-adv-x="424" 
d="M59 680h349v-121h-214v-155h109v-121h-109v-162h214v-121h-349v680zM117 838h75l44 -60l45 60h74l-55 -128h-128z" />
    <glyph glyph-name="Ecircumflex" unicode="&#xca;" horiz-adv-x="424" 
d="M59 680h349v-121h-214v-155h109v-121h-109v-162h214v-121h-349v680zM172 838h128l55 -128h-74l-45 60l-44 -60h-75z" />
    <glyph glyph-name="Edieresis" unicode="&#xcb;" horiz-adv-x="424" 
d="M59 680h349v-121h-214v-155h109v-121h-109v-162h214v-121h-349v680zM123 732q-18 18 -18 43t18 43t43 18t43 -18t18 -43t-18 -43t-43 -18t-43 18zM262 732q-18 18 -18 43t18 43t43 18t43.5 -18t18.5 -43t-18.5 -43t-43.5 -18t-43 18z" />
    <glyph glyph-name="Edotaccent" unicode="&#x116;" horiz-adv-x="424" 
d="M59 680h349v-121h-214v-155h109v-121h-109v-162h214v-121h-349v680zM188 727q-20 20 -20 48t20 48t48 20t48 -20t20 -48t-20 -48t-48 -20t-48 20z" />
    <glyph glyph-name="Egrave" unicode="&#xc8;" horiz-adv-x="424" 
d="M59 680h349v-121h-214v-155h109v-121h-109v-162h214v-121h-349v680zM116 838h137l41 -128h-115z" />
    <glyph glyph-name="Emacron" unicode="&#x112;" horiz-adv-x="424" 
d="M59 680h349v-121h-214v-155h109v-121h-109v-162h214v-121h-349v680zM117 815h238v-84h-238v84z" />
    <glyph glyph-name="Eogonek" unicode="&#x118;" horiz-adv-x="424" 
d="M59 680h349v-121h-214v-155h109v-121h-109v-162h214v-121h-349v680zM267 -166.5q-22 17.5 -22 43.5q0 23 16 48t44 47h98q-26 -17 -38.5 -36t-12.5 -32q0 -17 24 -17q3 0 27 2v-64q-36 -9 -63 -9q-51 0 -73 17.5z" />
    <glyph glyph-name="F" unicode="F" horiz-adv-x="425" 
d="M59 680h355v-121h-220v-155h150v-121h-150v-283h-135v680z" />
    <glyph glyph-name="G" unicode="G" horiz-adv-x="491" 
d="M145.5 15.5q-45.5 23.5 -72 66.5t-26.5 99v318q0 54 27 97.5t73.5 67.5t101.5 24q90 0 143.5 -53.5t53.5 -143.5v-24h-131v26q0 35 -19 54.5t-48 19.5q-27 0 -46.5 -18.5t-19.5 -48.5v-320q0 -28 19 -47.5t47 -19.5q27 0 47 19.5t20 47.5v62h-63v113h194v-174
q0 -57 -26.5 -99.5t-72 -66t-101.5 -23.5q-55 0 -100.5 23.5z" />
    <glyph glyph-name="Gbreve" unicode="&#x11e;" horiz-adv-x="491" 
d="M145.5 15.5q-45.5 23.5 -72 66.5t-26.5 99v318q0 54 27 97.5t73.5 67.5t101.5 24q90 0 143.5 -53.5t53.5 -143.5v-24h-131v26q0 35 -19 54.5t-48 19.5q-27 0 -46.5 -18.5t-19.5 -48.5v-320q0 -28 19 -47.5t47 -19.5q27 0 47 19.5t20 47.5v62h-63v113h194v-174
q0 -57 -26.5 -99.5t-72 -66t-101.5 -23.5q-55 0 -100.5 23.5zM160 742.5q-30 33.5 -30 95.5h71q0 -55 48 -55q22 0 35.5 13.5t13.5 41.5h70q0 -63 -30 -96t-89 -33t-89 33.5z" />
    <glyph glyph-name="Gcircumflex" unicode="&#x11c;" horiz-adv-x="491" 
d="M145.5 15.5q-45.5 23.5 -72 66.5t-26.5 99v318q0 54 27 97.5t73.5 67.5t101.5 24q90 0 143.5 -53.5t53.5 -143.5v-24h-131v26q0 35 -19 54.5t-48 19.5q-27 0 -46.5 -18.5t-19.5 -48.5v-320q0 -28 19 -47.5t47 -19.5q27 0 47 19.5t20 47.5v62h-63v113h194v-174
q0 -57 -26.5 -99.5t-72 -66t-101.5 -23.5q-55 0 -100.5 23.5zM185 838h128l55 -128h-74l-45 60l-44 -60h-75z" />
    <glyph glyph-name="uni0122" unicode="&#x122;" horiz-adv-x="491" 
d="M145.5 15.5q-45.5 23.5 -72 66.5t-26.5 99v318q0 54 27 97.5t73.5 67.5t101.5 24q90 0 143.5 -53.5t53.5 -143.5v-24h-131v26q0 35 -19 54.5t-48 19.5q-27 0 -46.5 -18.5t-19.5 -48.5v-320q0 -28 19 -47.5t47 -19.5q27 0 47 19.5t20 47.5v62h-63v113h194v-174
q0 -57 -26.5 -99.5t-72 -66t-101.5 -23.5q-55 0 -100.5 23.5zM184 -28h136l-63 -130h-114z" />
    <glyph glyph-name="Gdotaccent" unicode="&#x120;" horiz-adv-x="491" 
d="M145.5 15.5q-45.5 23.5 -72 66.5t-26.5 99v318q0 54 27 97.5t73.5 67.5t101.5 24q90 0 143.5 -53.5t53.5 -143.5v-24h-131v26q0 35 -19 54.5t-48 19.5q-27 0 -46.5 -18.5t-19.5 -48.5v-320q0 -28 19 -47.5t47 -19.5q27 0 47 19.5t20 47.5v62h-63v113h194v-174
q0 -57 -26.5 -99.5t-72 -66t-101.5 -23.5q-55 0 -100.5 23.5zM201 727q-20 20 -20 48t20 48t48 20t48 -20t20 -48t-20 -48t-48 -20t-48 20z" />
    <glyph glyph-name="H" unicode="H" horiz-adv-x="515" 
d="M59 680h135v-276h126v276h136v-680h-136v283h-126v-283h-135v680z" />
    <glyph glyph-name="Hbar" unicode="&#x126;" horiz-adv-x="515" 
d="M59 496h-44v96h44v88h135v-88h126v88h136v-88h44v-96h-44v-496h-136v283h-126v-283h-135v496zM320 404v92h-126v-92h126z" />
    <glyph glyph-name="Hcircumflex" unicode="&#x124;" horiz-adv-x="515" 
d="M59 680h135v-276h126v276h136v-680h-136v283h-126v-283h-135v680zM194 838h128l55 -128h-74l-45 60l-44 -60h-75z" />
    <glyph glyph-name="I" unicode="I" horiz-adv-x="260" 
d="M63 680h134v-680h-134v680z" />
    <glyph glyph-name="IJ" unicode="&#x132;" horiz-adv-x="705" 
d="M63 680h134v-680h-134v680zM323.5 42q-49.5 49 -49.5 136v35h127v-37q0 -29 15 -46t42 -17q26 0 41 17.5t15 46.5v503h135v-502q0 -54 -24.5 -96t-67.5 -65.5t-97 -23.5q-87 0 -136.5 49z" />
    <glyph glyph-name="Iacute" unicode="&#xcd;" horiz-adv-x="260" 
d="M63 680h134v-680h-134v680zM112 838h136l-63 -128h-114z" />
    <glyph glyph-name="Ibreve" unicode="&#x12c;" horiz-adv-x="260" 
d="M63 680h134v-680h-134v680zM41 742.5q-30 33.5 -30 95.5h71q0 -55 48 -55q22 0 35.5 13.5t13.5 41.5h70q0 -63 -30 -96t-89 -33t-89 33.5z" />
    <glyph glyph-name="Icircumflex" unicode="&#xce;" horiz-adv-x="260" 
d="M63 680h134v-680h-134v680zM66 838h128l55 -128h-74l-45 60l-44 -60h-75z" />
    <glyph glyph-name="Idieresis" unicode="&#xcf;" horiz-adv-x="260" 
d="M63 680h134v-680h-134v680zM17 732q-18 18 -18 43t18 43t43 18t43 -18t18 -43t-18 -43t-43 -18t-43 18zM156 732q-18 18 -18 43t18 43t43 18t43.5 -18t18.5 -43t-18.5 -43t-43.5 -18t-43 18z" />
    <glyph glyph-name="Idotaccent" unicode="&#x130;" horiz-adv-x="260" 
d="M63 680h134v-680h-134v680zM82 727q-20 20 -20 48t20 48t48 20t48 -20t20 -48t-20 -48t-48 -20t-48 20z" />
    <glyph glyph-name="Igrave" unicode="&#xcc;" horiz-adv-x="260" 
d="M63 680h134v-680h-134v680zM10 838h137l41 -128h-115z" />
    <glyph glyph-name="Imacron" unicode="&#x12a;" horiz-adv-x="260" 
d="M63 680h134v-680h-134v680zM11 815h238v-84h-238v84z" />
    <glyph glyph-name="Iogonek" unicode="&#x12e;" horiz-adv-x="260" 
d="M63 680h134v-680h-134v680zM56 -166.5q-22 17.5 -22 43.5q0 23 16 48t44 47h98q-26 -17 -38.5 -36t-12.5 -32q0 -17 24 -17q3 0 27 2v-64q-36 -9 -63 -9q-51 0 -73 17.5z" />
    <glyph glyph-name="Itilde" unicode="&#x128;" horiz-adv-x="260" 
d="M63 680h134v-680h-134v680zM11 761q12 27 33 46t45 19q12 0 28 -6t30 -12q24 -11 32 -11q14 0 35 31l35 -42q-13 -28 -33.5 -47.5t-44.5 -19.5q-19 0 -55 17q-26 12 -35 12q-18 0 -35 -29z" />
    <glyph glyph-name="J" unicode="J" horiz-adv-x="445" 
d="M63.5 42q-49.5 49 -49.5 136v35h127v-37q0 -29 15 -46t42 -17q26 0 41 17.5t15 46.5v503h135v-502q0 -54 -24.5 -96t-67.5 -65.5t-97 -23.5q-87 0 -136.5 49z" />
    <glyph glyph-name="Jcircumflex" unicode="&#x134;" horiz-adv-x="445" 
d="M63.5 42q-49.5 49 -49.5 136v35h127v-37q0 -29 15 -46t42 -17q26 0 41 17.5t15 46.5v503h135v-502q0 -54 -24.5 -96t-67.5 -65.5t-97 -23.5q-87 0 -136.5 49zM259 838h128l55 -128h-74l-45 60l-44 -60h-75z" />
    <glyph glyph-name="K" unicode="K" horiz-adv-x="475" 
d="M59 680h134v-274h4l138 274h139l-173 -321l192 -359h-153l-143 287h-4v-287h-134v680z" />
    <glyph glyph-name="uni0136" unicode="&#x136;" horiz-adv-x="475" 
d="M59 680h134v-274h4l138 274h139l-173 -321l192 -359h-153l-143 287h-4v-287h-134v680zM203 -28h136l-63 -130h-114z" />
    <glyph glyph-name="L" unicode="L" horiz-adv-x="417" 
d="M59 680h135v-559h212v-121h-347v680z" />
    <glyph glyph-name="Lacute" unicode="&#x139;" horiz-adv-x="417" 
d="M59 680h135v-559h212v-121h-347v680zM111 838h136l-63 -128h-114z" />
    <glyph glyph-name="Lcaron" unicode="&#x13d;" horiz-adv-x="417" 
d="M59 680h135v-559h212v-121h-347v680zM224 680h135l-33 -142h-102v142z" />
    <glyph glyph-name="uni013B" unicode="&#x13b;" horiz-adv-x="417" 
d="M59 680h135v-559h212v-121h-347v680zM170 -28h136l-63 -130h-114z" />
    <glyph glyph-name="Ldot" unicode="&#x13f;" horiz-adv-x="417" 
d="M59 680h135v-559h212v-121h-347v680zM270.5 294.5q-22.5 22.5 -22.5 54.5q0 33 22.5 56.5t54.5 23.5q33 0 56.5 -23.5t23.5 -56.5q0 -32 -23.5 -54.5t-56.5 -22.5q-32 0 -54.5 22.5z" />
    <glyph glyph-name="Lslash" unicode="&#x141;" horiz-adv-x="417" 
d="M59 233l-43 -13v104l43 14v342h135v-300l138 44v-104l-138 -44v-155h212v-121h-347v233z" />
    <glyph glyph-name="M" unicode="M" horiz-adv-x="557" 
d="M59 680h129l90 -188l91 188h129v-680h-131v440h-2l-87 -161l-86 161h-2v-440h-131v680z" />
    <glyph glyph-name="N" unicode="N" horiz-adv-x="518" 
d="M59 680h126l152 -409h2l-3 409h123v-680h-128l-150 411h-3l3 -411h-122v680z" />
    <glyph glyph-name="Nacute" unicode="&#x143;" horiz-adv-x="518" 
d="M59 680h126l152 -409h2l-3 409h123v-680h-128l-150 411h-3l3 -411h-122v680zM241 838h136l-63 -128h-114z" />
    <glyph glyph-name="Ncaron" unicode="&#x147;" horiz-adv-x="518" 
d="M59 680h126l152 -409h2l-3 409h123v-680h-128l-150 411h-3l3 -411h-122v680zM140 838h75l44 -60l45 60h74l-55 -128h-128z" />
    <glyph glyph-name="uni0145" unicode="&#x145;" horiz-adv-x="518" 
d="M59 680h126l152 -409h2l-3 409h123v-680h-128l-150 411h-3l3 -411h-122v680zM197 -28h136l-63 -130h-114z" />
    <glyph glyph-name="Eng" unicode="&#x14a;" horiz-adv-x="518" 
d="M270 -66h20q25 0 35 10.5t10 33.5v13l-154 420h-3l3 -411h-122v680h126l152 -409h2l-3 409h123v-712q0 -77 -36.5 -114.5t-113.5 -37.5h-39v118z" />
    <glyph glyph-name="Ntilde" unicode="&#xd1;" horiz-adv-x="518" 
d="M59 680h126l152 -409h2l-3 409h123v-680h-128l-150 411h-3l3 -411h-122v680zM140 761q12 27 33 46t45 19q12 0 28 -6t30 -12q24 -11 32 -11q14 0 35 31l35 -42q-13 -28 -33.5 -47.5t-44.5 -19.5q-19 0 -55 17q-26 12 -35 12q-18 0 -35 -29z" />
    <glyph glyph-name="O" unicode="O" horiz-adv-x="497" 
d="M146 15.5q-46 23.5 -72.5 67.5t-26.5 102v311q0 57 27 100.5t73 67.5t102 24t102 -23.5t72.5 -67t26.5 -101.5v-311q0 -57 -27 -101t-73 -68t-102 -24t-102 23.5zM296 132q19 20 19 53v298q0 41 -17.5 63t-48.5 22t-49 -22.5t-18 -62.5v-285q0 -41 17.5 -63.5t49.5 -22.5
q28 0 47 20z" />
    <glyph glyph-name="Oacute" unicode="&#xd3;" horiz-adv-x="497" 
d="M146 15.5q-46 23.5 -72.5 67.5t-26.5 102v311q0 57 27 100.5t73 67.5t102 24t102 -23.5t72.5 -67t26.5 -101.5v-311q0 -57 -27 -101t-73 -68t-102 -24t-102 23.5zM296 132q19 20 19 53v298q0 41 -17.5 63t-48.5 22t-49 -22.5t-18 -62.5v-285q0 -41 17.5 -63.5t49.5 -22.5
q28 0 47 20zM231 838h136l-63 -128h-114z" />
    <glyph glyph-name="Obreve" unicode="&#x14e;" horiz-adv-x="497" 
d="M146 15.5q-46 23.5 -72.5 67.5t-26.5 102v311q0 57 27 100.5t73 67.5t102 24t102 -23.5t72.5 -67t26.5 -101.5v-311q0 -57 -27 -101t-73 -68t-102 -24t-102 23.5zM296 132q19 20 19 53v298q0 41 -17.5 63t-48.5 22t-49 -22.5t-18 -62.5v-285q0 -41 17.5 -63.5t49.5 -22.5
q28 0 47 20zM160 742.5q-30 33.5 -30 95.5h71q0 -55 48 -55q22 0 35.5 13.5t13.5 41.5h70q0 -63 -30 -96t-89 -33t-89 33.5z" />
    <glyph glyph-name="Ocircumflex" unicode="&#xd4;" horiz-adv-x="497" 
d="M146 15.5q-46 23.5 -72.5 67.5t-26.5 102v311q0 57 27 100.5t73 67.5t102 24t102 -23.5t72.5 -67t26.5 -101.5v-311q0 -57 -27 -101t-73 -68t-102 -24t-102 23.5zM296 132q19 20 19 53v298q0 41 -17.5 63t-48.5 22t-49 -22.5t-18 -62.5v-285q0 -41 17.5 -63.5t49.5 -22.5
q28 0 47 20zM185 838h128l55 -128h-74l-45 60l-44 -60h-75z" />
    <glyph glyph-name="Odieresis" unicode="&#xd6;" horiz-adv-x="497" 
d="M146 15.5q-46 23.5 -72.5 67.5t-26.5 102v311q0 57 27 100.5t73 67.5t102 24t102 -23.5t72.5 -67t26.5 -101.5v-311q0 -57 -27 -101t-73 -68t-102 -24t-102 23.5zM296 132q19 20 19 53v298q0 41 -17.5 63t-48.5 22t-49 -22.5t-18 -62.5v-285q0 -41 17.5 -63.5t49.5 -22.5
q28 0 47 20zM136 732q-18 18 -18 43t18 43t43 18t43 -18t18 -43t-18 -43t-43 -18t-43 18zM275 732q-18 18 -18 43t18 43t43 18t43.5 -18t18.5 -43t-18.5 -43t-43.5 -18t-43 18z" />
    <glyph glyph-name="Ograve" unicode="&#xd2;" horiz-adv-x="497" 
d="M146 15.5q-46 23.5 -72.5 67.5t-26.5 102v311q0 57 27 100.5t73 67.5t102 24t102 -23.5t72.5 -67t26.5 -101.5v-311q0 -57 -27 -101t-73 -68t-102 -24t-102 23.5zM296 132q19 20 19 53v298q0 41 -17.5 63t-48.5 22t-49 -22.5t-18 -62.5v-285q0 -41 17.5 -63.5t49.5 -22.5
q28 0 47 20zM129 838h137l41 -128h-115z" />
    <glyph glyph-name="Ohungarumlaut" unicode="&#x150;" horiz-adv-x="497" 
d="M146 15.5q-46 23.5 -72.5 67.5t-26.5 102v311q0 57 27 100.5t73 67.5t102 24t102 -23.5t72.5 -67t26.5 -101.5v-311q0 -57 -27 -101t-73 -68t-102 -24t-102 23.5zM296 132q19 20 19 53v298q0 41 -17.5 63t-48.5 22t-49 -22.5t-18 -62.5v-285q0 -41 17.5 -63.5t49.5 -22.5
q28 0 47 20zM186 838h98l-59 -128h-80zM312 838h98l-59 -128h-80z" />
    <glyph glyph-name="Omacron" unicode="&#x14c;" horiz-adv-x="497" 
d="M146 15.5q-46 23.5 -72.5 67.5t-26.5 102v311q0 57 27 100.5t73 67.5t102 24t102 -23.5t72.5 -67t26.5 -101.5v-311q0 -57 -27 -101t-73 -68t-102 -24t-102 23.5zM296 132q19 20 19 53v298q0 41 -17.5 63t-48.5 22t-49 -22.5t-18 -62.5v-285q0 -41 17.5 -63.5t49.5 -22.5
q28 0 47 20zM130 815h238v-84h-238v84z" />
    <glyph glyph-name="Oslash" unicode="&#xd8;" horiz-adv-x="497" 
d="M415 611q35 -49 35 -115v-311q0 -57 -27 -101t-73 -68t-102 -24q-64 0 -111 29l-26 -55h-77l49 103q-36 49 -36 116v311q0 57 27 100.5t73 67.5t102 24q64 0 111 -29l26 55h77zM182 281l121 257q-16 30 -54 30q-31 0 -49 -22.5t-18 -62.5v-202zM315 400l-121 -257
q17 -31 55 -31q30 0 48 23t18 62v203z" />
    <glyph glyph-name="Otilde" unicode="&#xd5;" horiz-adv-x="497" 
d="M146 15.5q-46 23.5 -72.5 67.5t-26.5 102v311q0 57 27 100.5t73 67.5t102 24t102 -23.5t72.5 -67t26.5 -101.5v-311q0 -57 -27 -101t-73 -68t-102 -24t-102 23.5zM296 132q19 20 19 53v298q0 41 -17.5 63t-48.5 22t-49 -22.5t-18 -62.5v-285q0 -41 17.5 -63.5t49.5 -22.5
q28 0 47 20zM130 761q12 27 33 46t45 19q12 0 28 -6t30 -12q24 -11 32 -11q14 0 35 31l35 -42q-13 -28 -33.5 -47.5t-44.5 -19.5q-19 0 -55 17q-26 12 -35 12q-18 0 -35 -29z" />
    <glyph glyph-name="OE" unicode="&#x152;" horiz-adv-x="669" 
d="M140 20.5q-43 20.5 -68 61t-25 96.5v319q0 55 25 96.5t68 64t95 22.5h418v-121h-208v-155h109v-121h-109v-162h208v-121h-418q-52 0 -95 20.5zM310 120v440h-64q-28 0 -45.5 -20t-17.5 -50v-301q0 -29 17.5 -49t45.5 -20h64z" />
    <glyph glyph-name="P" unicode="P" horiz-adv-x="468" 
d="M59 680h183q95 0 153 -52.5t58 -146.5q0 -63 -27 -110t-75 -72t-110 -25h-48v-274h-134v680zM241 392q35 0 57 25t22 65q0 38 -21.5 58.5t-57.5 20.5h-48v-169h48z" />
    <glyph glyph-name="Thorn" unicode="&#xde;" horiz-adv-x="468" 
d="M59 680h135v-120h48q95 0 153 -52.5t58 -146.5q0 -63 -27 -110t-75 -72t-110 -25h-47v-154h-135v680zM241 272q35 0 57 25t22 65q0 38 -21.5 58.5t-57.5 20.5h-47v-169h47z" />
    <glyph glyph-name="Q" unicode="Q" horiz-adv-x="497" 
d="M200 -7q-70 19 -111.5 68.5t-41.5 123.5v311q0 57 27 100.5t73 67.5t102 24t102 -23.5t72.5 -67t26.5 -101.5v-308q0 -37 -18.5 -74t-47.5 -57l97 -25v-114zM296 132q19 20 19 53v298q0 41 -17.5 63t-48.5 22t-49 -22.5t-18 -62.5v-285q0 -41 17.5 -63.5t49.5 -22.5
q28 0 47 20z" />
    <glyph glyph-name="R" unicode="R" horiz-adv-x="477" 
d="M59 680h185q93 0 149 -53t56 -145q0 -57 -25 -103t-75 -72l121 -307h-147l-100 277h-29v-277h-135v680zM235 389q35 0 57 25.5t22 62.5t-22 60.5t-57 23.5h-41v-172h41z" />
    <glyph glyph-name="Racute" unicode="&#x154;" horiz-adv-x="477" 
d="M59 680h185q93 0 149 -53t56 -145q0 -57 -25 -103t-75 -72l121 -307h-147l-100 277h-29v-277h-135v680zM235 389q35 0 57 25.5t22 62.5t-22 60.5t-57 23.5h-41v-172h41zM228 838h136l-63 -128h-114z" />
    <glyph glyph-name="Rcaron" unicode="&#x158;" horiz-adv-x="477" 
d="M59 680h185q93 0 149 -53t56 -145q0 -57 -25 -103t-75 -72l121 -307h-147l-100 277h-29v-277h-135v680zM235 389q35 0 57 25.5t22 62.5t-22 60.5t-57 23.5h-41v-172h41zM127 838h75l44 -60l45 60h74l-55 -128h-128z" />
    <glyph glyph-name="uni0156" unicode="&#x156;" horiz-adv-x="477" 
d="M59 680h185q93 0 149 -53t56 -145q0 -57 -25 -103t-75 -72l121 -307h-147l-100 277h-29v-277h-135v680zM235 389q35 0 57 25.5t22 62.5t-22 60.5t-57 23.5h-41v-172h41zM195 -28h136l-63 -130h-114z" />
    <glyph glyph-name="S" unicode="S" horiz-adv-x="432" 
d="M115.5 15.5q-43.5 23.5 -69 65.5t-25.5 95v36h127v-27q0 -31 18.5 -51.5t48.5 -20.5q24 0 41 19t17 47q0 32 -24 56t-75 58q-47 31 -77.5 56.5t-52 64t-21.5 89.5q0 58 27 100t71.5 63.5t95.5 21.5q88 0 137 -53t49 -142v-24h-127v28q0 30 -17 50.5t-45 20.5
q-25 0 -40.5 -16t-15.5 -42q0 -31 25 -56.5t78 -63.5q49 -35 78.5 -60.5t50.5 -62t21 -81.5q0 -59 -26.5 -103t-72 -67.5t-99.5 -23.5t-97.5 23.5z" />
    <glyph glyph-name="Sacute" unicode="&#x15a;" horiz-adv-x="432" 
d="M115.5 15.5q-43.5 23.5 -69 65.5t-25.5 95v36h127v-27q0 -31 18.5 -51.5t48.5 -20.5q24 0 41 19t17 47q0 32 -24 56t-75 58q-47 31 -77.5 56.5t-52 64t-21.5 89.5q0 58 27 100t71.5 63.5t95.5 21.5q88 0 137 -53t49 -142v-24h-127v28q0 30 -17 50.5t-45 20.5
q-25 0 -40.5 -16t-15.5 -42q0 -31 25 -56.5t78 -63.5q49 -35 78.5 -60.5t50.5 -62t21 -81.5q0 -59 -26.5 -103t-72 -67.5t-99.5 -23.5t-97.5 23.5zM200 838h136l-63 -128h-114z" />
    <glyph glyph-name="Scaron" unicode="&#x160;" horiz-adv-x="432" 
d="M115.5 15.5q-43.5 23.5 -69 65.5t-25.5 95v36h127v-27q0 -31 18.5 -51.5t48.5 -20.5q24 0 41 19t17 47q0 32 -24 56t-75 58q-47 31 -77.5 56.5t-52 64t-21.5 89.5q0 58 27 100t71.5 63.5t95.5 21.5q88 0 137 -53t49 -142v-24h-127v28q0 30 -17 50.5t-45 20.5
q-25 0 -40.5 -16t-15.5 -42q0 -31 25 -56.5t78 -63.5q49 -35 78.5 -60.5t50.5 -62t21 -81.5q0 -59 -26.5 -103t-72 -67.5t-99.5 -23.5t-97.5 23.5zM99 838h75l44 -60l45 60h74l-55 -128h-128z" />
    <glyph glyph-name="Scedilla" unicode="&#x15e;" horiz-adv-x="432" 
d="M115.5 15.5q-43.5 23.5 -69 65.5t-25.5 95v36h127v-27q0 -31 18.5 -51.5t48.5 -20.5q24 0 41 19t17 47q0 32 -24 56t-75 58q-47 31 -77.5 56.5t-52 64t-21.5 89.5q0 58 27 100t71.5 63.5t95.5 21.5q88 0 137 -53t49 -142v-24h-127v28q0 30 -17 50.5t-45 20.5
q-25 0 -40.5 -16t-15.5 -42q0 -31 25 -56.5t78 -63.5q49 -35 78.5 -60.5t50.5 -62t21 -81.5q0 -59 -26.5 -103t-72 -67.5t-99.5 -23.5t-97.5 23.5zM150 -175v64q22 -2 27 -2q24 0 24 17q0 13 -13 32t-38 36h98q28 -22 44 -47t16 -48q0 -26 -22 -43.5t-73 -17.5q-31 0 -63 9z
" />
    <glyph glyph-name="Scircumflex" unicode="&#x15c;" horiz-adv-x="432" 
d="M115.5 15.5q-43.5 23.5 -69 65.5t-25.5 95v36h127v-27q0 -31 18.5 -51.5t48.5 -20.5q24 0 41 19t17 47q0 32 -24 56t-75 58q-47 31 -77.5 56.5t-52 64t-21.5 89.5q0 58 27 100t71.5 63.5t95.5 21.5q88 0 137 -53t49 -142v-24h-127v28q0 30 -17 50.5t-45 20.5
q-25 0 -40.5 -16t-15.5 -42q0 -31 25 -56.5t78 -63.5q49 -35 78.5 -60.5t50.5 -62t21 -81.5q0 -59 -26.5 -103t-72 -67.5t-99.5 -23.5t-97.5 23.5zM154 838h128l55 -128h-74l-45 60l-44 -60h-75z" />
    <glyph glyph-name="uni0218" unicode="&#x218;" horiz-adv-x="432" 
d="M115.5 15.5q-43.5 23.5 -69 65.5t-25.5 95v36h127v-27q0 -31 18.5 -51.5t48.5 -20.5q24 0 41 19t17 47q0 32 -24 56t-75 58q-47 31 -77.5 56.5t-52 64t-21.5 89.5q0 58 27 100t71.5 63.5t95.5 21.5q88 0 137 -53t49 -142v-24h-127v28q0 30 -17 50.5t-45 20.5
q-25 0 -40.5 -16t-15.5 -42q0 -31 25 -56.5t78 -63.5q49 -35 78.5 -60.5t50.5 -62t21 -81.5q0 -59 -26.5 -103t-72 -67.5t-99.5 -23.5t-97.5 23.5zM157 -28h136l-63 -130h-114z" />
    <glyph glyph-name="uni018F" unicode="&#x18f;" horiz-adv-x="493" 
d="M347.5 664.5q45.5 -23.5 72 -66.5t26.5 -99v-318q0 -54 -26.5 -97.5t-72.5 -67.5t-101 -24q-90 0 -144.5 53.5t-54.5 143.5v166h264v145q0 28 -19 47.5t-47 19.5q-27 0 -47 -19.5t-20 -47.5v-31h-131v30q0 57 26.5 99.5t72 66t101.5 23.5q55 0 100.5 -23.5zM291.5 131.5
q19.5 18.5 19.5 48.5v62h-133v-55q0 -35 19 -54.5t48 -19.5q27 0 46.5 18.5z" />
    <glyph glyph-name="T" unicode="T" horiz-adv-x="435" 
d="M150 559h-136v121h407v-121h-136v-559h-135v559z" />
    <glyph glyph-name="Tbar" unicode="&#x166;" horiz-adv-x="435" 
d="M150 291h-66v107h66v161h-136v121h407v-121h-136v-161h66v-107h-66v-291h-135v291z" />
    <glyph glyph-name="Tcaron" unicode="&#x164;" horiz-adv-x="435" 
d="M150 559h-136v121h407v-121h-136v-559h-135v559zM99 838h75l44 -60l45 60h74l-55 -128h-128z" />
    <glyph glyph-name="uni0162" unicode="&#x162;" horiz-adv-x="435" 
d="M150 559h-136v121h407v-121h-136v-559h-135v559zM156 -28h136l-63 -130h-114z" />
    <glyph glyph-name="uni021A" unicode="&#x21a;" horiz-adv-x="435" 
d="M150 559h-136v121h407v-121h-136v-559h-135v559zM156 -28h136l-63 -130h-114z" />
    <glyph glyph-name="U" unicode="U" horiz-adv-x="505" 
d="M152.5 15.5q-44.5 23.5 -70 66t-25.5 96.5v502h134v-494q0 -32 16.5 -52.5t44.5 -20.5t44.5 20.5t16.5 52.5v494h136v-502q0 -55 -25.5 -97t-70 -65.5t-101.5 -23.5q-55 0 -99.5 23.5z" />
    <glyph glyph-name="Uacute" unicode="&#xda;" horiz-adv-x="505" 
d="M152.5 15.5q-44.5 23.5 -70 66t-25.5 96.5v502h134v-494q0 -32 16.5 -52.5t44.5 -20.5t44.5 20.5t16.5 52.5v494h136v-502q0 -55 -25.5 -97t-70 -65.5t-101.5 -23.5q-55 0 -99.5 23.5zM235 838h136l-63 -128h-114z" />
    <glyph glyph-name="Ubreve" unicode="&#x16c;" horiz-adv-x="505" 
d="M152.5 15.5q-44.5 23.5 -70 66t-25.5 96.5v502h134v-494q0 -32 16.5 -52.5t44.5 -20.5t44.5 20.5t16.5 52.5v494h136v-502q0 -55 -25.5 -97t-70 -65.5t-101.5 -23.5q-55 0 -99.5 23.5zM164 742.5q-30 33.5 -30 95.5h71q0 -55 48 -55q22 0 35.5 13.5t13.5 41.5h70
q0 -63 -30 -96t-89 -33t-89 33.5z" />
    <glyph glyph-name="Ucircumflex" unicode="&#xdb;" horiz-adv-x="505" 
d="M152.5 15.5q-44.5 23.5 -70 66t-25.5 96.5v502h134v-494q0 -32 16.5 -52.5t44.5 -20.5t44.5 20.5t16.5 52.5v494h136v-502q0 -55 -25.5 -97t-70 -65.5t-101.5 -23.5q-55 0 -99.5 23.5zM189 838h128l55 -128h-74l-45 60l-44 -60h-75z" />
    <glyph glyph-name="Udieresis" unicode="&#xdc;" horiz-adv-x="505" 
d="M152.5 15.5q-44.5 23.5 -70 66t-25.5 96.5v502h134v-494q0 -32 16.5 -52.5t44.5 -20.5t44.5 20.5t16.5 52.5v494h136v-502q0 -55 -25.5 -97t-70 -65.5t-101.5 -23.5q-55 0 -99.5 23.5zM140 732q-18 18 -18 43t18 43t43 18t43 -18t18 -43t-18 -43t-43 -18t-43 18zM279 732
q-18 18 -18 43t18 43t43 18t43.5 -18t18.5 -43t-18.5 -43t-43.5 -18t-43 18z" />
    <glyph glyph-name="Ugrave" unicode="&#xd9;" horiz-adv-x="505" 
d="M152.5 15.5q-44.5 23.5 -70 66t-25.5 96.5v502h134v-494q0 -32 16.5 -52.5t44.5 -20.5t44.5 20.5t16.5 52.5v494h136v-502q0 -55 -25.5 -97t-70 -65.5t-101.5 -23.5q-55 0 -99.5 23.5zM133 838h137l41 -128h-115z" />
    <glyph glyph-name="Uhungarumlaut" unicode="&#x170;" horiz-adv-x="505" 
d="M152.5 15.5q-44.5 23.5 -70 66t-25.5 96.5v502h134v-494q0 -32 16.5 -52.5t44.5 -20.5t44.5 20.5t16.5 52.5v494h136v-502q0 -55 -25.5 -97t-70 -65.5t-101.5 -23.5q-55 0 -99.5 23.5zM190 838h98l-59 -128h-80zM316 838h98l-59 -128h-80z" />
    <glyph glyph-name="Umacron" unicode="&#x16a;" horiz-adv-x="505" 
d="M152.5 15.5q-44.5 23.5 -70 66t-25.5 96.5v502h134v-494q0 -32 16.5 -52.5t44.5 -20.5t44.5 20.5t16.5 52.5v494h136v-502q0 -55 -25.5 -97t-70 -65.5t-101.5 -23.5q-55 0 -99.5 23.5zM134 815h238v-84h-238v84z" />
    <glyph glyph-name="Uogonek" unicode="&#x172;" horiz-adv-x="505" 
d="M152.5 15.5q-44.5 23.5 -70 66t-25.5 96.5v502h134v-494q0 -32 16.5 -52.5t44.5 -20.5t44.5 20.5t16.5 52.5v494h136v-502q0 -55 -25.5 -97t-70 -65.5t-101.5 -23.5q-55 0 -99.5 23.5zM177 -166.5q-22 17.5 -22 43.5q0 23 16 48t44 47h98q-26 -17 -38.5 -36t-12.5 -32
q0 -17 24 -17q3 0 27 2v-64q-36 -9 -63 -9q-51 0 -73 17.5z" />
    <glyph glyph-name="Uring" unicode="&#x16e;" horiz-adv-x="505" 
d="M152.5 15.5q-44.5 23.5 -70 66t-25.5 96.5v502h134v-494q0 -32 16.5 -52.5t44.5 -20.5t44.5 20.5t16.5 52.5v494h136v-502q0 -55 -25.5 -97t-70 -65.5t-101.5 -23.5q-55 0 -99.5 23.5zM191.5 731q-24.5 25 -24.5 60q0 36 24.5 61t60.5 25t61 -25t25 -61q0 -35 -25 -60
t-61 -25t-60.5 25zM275.5 767.5q9.5 9.5 9.5 23.5q0 13 -9.5 22.5t-23.5 9.5t-23 -9t-9 -23t9 -23.5t23 -9.5t23.5 9.5z" />
    <glyph glyph-name="Utilde" unicode="&#x168;" horiz-adv-x="505" 
d="M152.5 15.5q-44.5 23.5 -70 66t-25.5 96.5v502h134v-494q0 -32 16.5 -52.5t44.5 -20.5t44.5 20.5t16.5 52.5v494h136v-502q0 -55 -25.5 -97t-70 -65.5t-101.5 -23.5q-55 0 -99.5 23.5zM134 761q12 27 33 46t45 19q12 0 28 -6t30 -12q24 -11 32 -11q14 0 35 31l35 -42
q-13 -28 -33.5 -47.5t-44.5 -19.5q-19 0 -55 17q-26 12 -35 12q-18 0 -35 -29z" />
    <glyph glyph-name="V" unicode="V" horiz-adv-x="441" 
d="M8 680h138l73 -408h2l81 408h131l-157 -680h-119z" />
    <glyph glyph-name="W" unicode="W" horiz-adv-x="661" 
d="M12 680h136l59 -400h1l78 400h94l72 -401h2l66 401h129l-130 -680h-112l-78 404h-2l-82 -404h-111z" />
    <glyph glyph-name="Wacute" unicode="&#x1e82;" horiz-adv-x="661" 
d="M12 680h136l59 -400h1l78 400h94l72 -401h2l66 401h129l-130 -680h-112l-78 404h-2l-82 -404h-111zM314 838h136l-63 -128h-114z" />
    <glyph glyph-name="Wcircumflex" unicode="&#x174;" horiz-adv-x="661" 
d="M12 680h136l59 -400h1l78 400h94l72 -401h2l66 401h129l-130 -680h-112l-78 404h-2l-82 -404h-111zM268 838h128l55 -128h-74l-45 60l-44 -60h-75z" />
    <glyph glyph-name="Wdieresis" unicode="&#x1e84;" horiz-adv-x="661" 
d="M12 680h136l59 -400h1l78 400h94l72 -401h2l66 401h129l-130 -680h-112l-78 404h-2l-82 -404h-111zM219 732q-18 18 -18 43t18 43t43 18t43 -18t18 -43t-18 -43t-43 -18t-43 18zM358 732q-18 18 -18 43t18 43t43 18t43.5 -18t18.5 -43t-18.5 -43t-43.5 -18t-43 18z" />
    <glyph glyph-name="Wgrave" unicode="&#x1e80;" horiz-adv-x="661" 
d="M12 680h136l59 -400h1l78 400h94l72 -401h2l66 401h129l-130 -680h-112l-78 404h-2l-82 -404h-111zM212 838h137l41 -128h-115z" />
    <glyph glyph-name="X" unicode="X" horiz-adv-x="437" 
d="M146 347l-142 333h140l80 -207l76 207h132l-141 -341l144 -339h-137l-82 215l-80 -215h-135z" />
    <glyph glyph-name="Y" unicode="Y" horiz-adv-x="442" 
d="M153 264l-148 416h141l75 -255l81 255h136l-150 -411v-269h-135v264z" />
    <glyph glyph-name="Yacute" unicode="&#xdd;" horiz-adv-x="442" 
d="M153 264l-148 416h141l75 -255l81 255h136l-150 -411v-269h-135v264zM203 838h136l-63 -128h-114z" />
    <glyph glyph-name="Ycircumflex" unicode="&#x176;" horiz-adv-x="442" 
d="M153 264l-148 416h141l75 -255l81 255h136l-150 -411v-269h-135v264zM157 838h128l55 -128h-74l-45 60l-44 -60h-75z" />
    <glyph glyph-name="Ydieresis" unicode="&#x178;" horiz-adv-x="442" 
d="M153 264l-148 416h141l75 -255l81 255h136l-150 -411v-269h-135v264zM108 732q-18 18 -18 43t18 43t43 18t43 -18t18 -43t-18 -43t-43 -18t-43 18zM247 732q-18 18 -18 43t18 43t43 18t43.5 -18t18.5 -43t-18.5 -43t-43.5 -18t-43 18z" />
    <glyph glyph-name="Ygrave" unicode="&#x1ef2;" horiz-adv-x="442" 
d="M153 264l-148 416h141l75 -255l81 255h136l-150 -411v-269h-135v264zM101 838h137l41 -128h-115z" />
    <glyph glyph-name="Z" unicode="Z" horiz-adv-x="425" 
d="M18 101l227 458h-219v121h375v-93l-230 -466h236v-121h-389v101z" />
    <glyph glyph-name="Zacute" unicode="&#x179;" horiz-adv-x="425" 
d="M18 101l227 458h-219v121h375v-93l-230 -466h236v-121h-389v101zM195 838h136l-63 -128h-114z" />
    <glyph glyph-name="Zcaron" unicode="&#x17d;" horiz-adv-x="425" 
d="M18 101l227 458h-219v121h375v-93l-230 -466h236v-121h-389v101zM94 838h75l44 -60l45 60h74l-55 -128h-128z" />
    <glyph glyph-name="Zdotaccent" unicode="&#x17b;" horiz-adv-x="425" 
d="M18 101l227 458h-219v121h375v-93l-230 -466h236v-121h-389v101zM165 727q-20 20 -20 48t20 48t48 20t48 -20t20 -48t-20 -48t-48 -20t-48 20z" />
    <glyph glyph-name="a" unicode="a" horiz-adv-x="474" 
d="M78.5 39.5q-39.5 47.5 -39.5 133.5v153q0 81 42 131.5t118 50.5q36 0 60 -12.5t38 -30.5v35h124v-500h-122v41q-16 -21 -42.5 -35t-63.5 -14q-75 0 -114.5 47.5zM273.5 124.5q17.5 17.5 17.5 46.5v151q0 35 -16.5 53t-45.5 18q-28 0 -44.5 -19t-16.5 -54v-141
q0 -34 16.5 -53t45.5 -19q26 0 43.5 17.5z" />
    <glyph glyph-name="aacute" unicode="&#xe1;" horiz-adv-x="474" 
d="M78.5 39.5q-39.5 47.5 -39.5 133.5v153q0 81 42 131.5t118 50.5q36 0 60 -12.5t38 -30.5v35h124v-500h-122v41q-16 -21 -42.5 -35t-63.5 -14q-75 0 -114.5 47.5zM273.5 124.5q17.5 17.5 17.5 46.5v151q0 35 -16.5 53t-45.5 18q-28 0 -44.5 -19t-16.5 -54v-141
q0 -34 16.5 -53t45.5 -19q26 0 43.5 17.5zM219 680h136l-63 -128h-114z" />
    <glyph glyph-name="abreve" unicode="&#x103;" horiz-adv-x="474" 
d="M78.5 39.5q-39.5 47.5 -39.5 133.5v153q0 81 42 131.5t118 50.5q36 0 60 -12.5t38 -30.5v35h124v-500h-122v41q-16 -21 -42.5 -35t-63.5 -14q-75 0 -114.5 47.5zM273.5 124.5q17.5 17.5 17.5 46.5v151q0 35 -16.5 53t-45.5 18q-28 0 -44.5 -19t-16.5 -54v-141
q0 -34 16.5 -53t45.5 -19q26 0 43.5 17.5zM148 584.5q-30 33.5 -30 95.5h71q0 -55 48 -55q22 0 35.5 13.5t13.5 41.5h70q0 -63 -30 -96t-89 -33t-89 33.5z" />
    <glyph glyph-name="acircumflex" unicode="&#xe2;" horiz-adv-x="474" 
d="M78.5 39.5q-39.5 47.5 -39.5 133.5v153q0 81 42 131.5t118 50.5q36 0 60 -12.5t38 -30.5v35h124v-500h-122v41q-16 -21 -42.5 -35t-63.5 -14q-75 0 -114.5 47.5zM273.5 124.5q17.5 17.5 17.5 46.5v151q0 35 -16.5 53t-45.5 18q-28 0 -44.5 -19t-16.5 -54v-141
q0 -34 16.5 -53t45.5 -19q26 0 43.5 17.5zM173 680h128l55 -128h-74l-45 60l-44 -60h-75z" />
    <glyph glyph-name="adieresis" unicode="&#xe4;" horiz-adv-x="474" 
d="M78.5 39.5q-39.5 47.5 -39.5 133.5v153q0 81 42 131.5t118 50.5q36 0 60 -12.5t38 -30.5v35h124v-500h-122v41q-16 -21 -42.5 -35t-63.5 -14q-75 0 -114.5 47.5zM273.5 124.5q17.5 17.5 17.5 46.5v151q0 35 -16.5 53t-45.5 18q-28 0 -44.5 -19t-16.5 -54v-141
q0 -34 16.5 -53t45.5 -19q26 0 43.5 17.5zM124 574q-18 18 -18 43t18 43t43 18t43 -18t18 -43t-18 -43t-43 -18t-43 18zM263 574q-18 18 -18 43t18 43t43 18t43.5 -18t18.5 -43t-18.5 -43t-43.5 -18t-43 18z" />
    <glyph glyph-name="agrave" unicode="&#xe0;" horiz-adv-x="474" 
d="M78.5 39.5q-39.5 47.5 -39.5 133.5v153q0 81 42 131.5t118 50.5q36 0 60 -12.5t38 -30.5v35h124v-500h-122v41q-16 -21 -42.5 -35t-63.5 -14q-75 0 -114.5 47.5zM273.5 124.5q17.5 17.5 17.5 46.5v151q0 35 -16.5 53t-45.5 18q-28 0 -44.5 -19t-16.5 -54v-141
q0 -34 16.5 -53t45.5 -19q26 0 43.5 17.5zM117 680h137l41 -128h-115z" />
    <glyph glyph-name="amacron" unicode="&#x101;" horiz-adv-x="474" 
d="M78.5 39.5q-39.5 47.5 -39.5 133.5v153q0 81 42 131.5t118 50.5q36 0 60 -12.5t38 -30.5v35h124v-500h-122v41q-16 -21 -42.5 -35t-63.5 -14q-75 0 -114.5 47.5zM273.5 124.5q17.5 17.5 17.5 46.5v151q0 35 -16.5 53t-45.5 18q-28 0 -44.5 -19t-16.5 -54v-141
q0 -34 16.5 -53t45.5 -19q26 0 43.5 17.5zM118 657h238v-84h-238v84z" />
    <glyph glyph-name="aogonek" unicode="&#x105;" horiz-adv-x="474" 
d="M78.5 39.5q-39.5 47.5 -39.5 133.5v153q0 81 42 131.5t118 50.5q36 0 60 -12.5t38 -30.5v35h124v-500h-122v41q-16 -21 -42.5 -35t-63.5 -14q-75 0 -114.5 47.5zM273.5 124.5q17.5 17.5 17.5 46.5v151q0 35 -16.5 53t-45.5 18q-28 0 -44.5 -19t-16.5 -54v-141
q0 -34 16.5 -53t45.5 -19q26 0 43.5 17.5zM280 -166.5q-22 17.5 -22 43.5q0 23 16 48t44 47h98q-26 -17 -38.5 -36t-12.5 -32q0 -17 24 -17q3 0 27 2v-64q-36 -9 -63 -9q-51 0 -73 17.5z" />
    <glyph glyph-name="aring" unicode="&#xe5;" horiz-adv-x="474" 
d="M78.5 39.5q-39.5 47.5 -39.5 133.5v153q0 81 42 131.5t118 50.5q36 0 60 -12.5t38 -30.5v35h124v-500h-122v41q-16 -21 -42.5 -35t-63.5 -14q-75 0 -114.5 47.5zM273.5 124.5q17.5 17.5 17.5 46.5v151q0 35 -16.5 53t-45.5 18q-28 0 -44.5 -19t-16.5 -54v-141
q0 -34 16.5 -53t45.5 -19q26 0 43.5 17.5zM175.5 573q-24.5 25 -24.5 60q0 36 24.5 61t60.5 25t61 -25t25 -61q0 -35 -25 -60t-61 -25t-60.5 25zM259.5 609.5q9.5 9.5 9.5 23.5q0 13 -9.5 22.5t-23.5 9.5t-23 -9t-9 -23t9 -23.5t23 -9.5t23.5 9.5z" />
    <glyph glyph-name="atilde" unicode="&#xe3;" horiz-adv-x="474" 
d="M78.5 39.5q-39.5 47.5 -39.5 133.5v153q0 81 42 131.5t118 50.5q36 0 60 -12.5t38 -30.5v35h124v-500h-122v41q-16 -21 -42.5 -35t-63.5 -14q-75 0 -114.5 47.5zM273.5 124.5q17.5 17.5 17.5 46.5v151q0 35 -16.5 53t-45.5 18q-28 0 -44.5 -19t-16.5 -54v-141
q0 -34 16.5 -53t45.5 -19q26 0 43.5 17.5zM118 603q12 27 33 46t45 19q12 0 28 -6t30 -12q24 -11 32 -11q14 0 35 31l35 -42q-13 -28 -33.5 -47.5t-44.5 -19.5q-19 0 -55 17q-26 12 -35 12q-18 0 -35 -29z" />
    <glyph glyph-name="ae" unicode="&#xe6;" horiz-adv-x="702" 
d="M70.5 27.5q-38.5 35.5 -38.5 114.5q0 78 41 118t122 40h93v46q0 46 -56 46q-29 0 -45 -10.5t-16 -35.5h-128q0 86 48 124t142 38q87 0 126 -35q47 35 119 35q82 0 134 -50t52 -134v-107h-250v-44q0 -61 64 -61q61 0 63 52h123q-2 -84 -52.5 -128t-135.5 -44q-54 0 -95 20
t-64 57q-25 -39 -56.5 -58t-77.5 -19q-74 0 -112.5 35.5zM536 303v22q0 31 -16.5 49.5t-44.5 18.5q-27 0 -44 -18t-17 -50v-22h122zM286 152v48h-68q-29 0 -43 -10.5t-14 -40.5q0 -29 16 -39.5t46 -10.5q63 0 63 53z" />
    <glyph glyph-name="b" unicode="b" horiz-adv-x="472" 
d="M213 6q-25 14 -38 34v-40h-121v680h127v-212q14 16 39.5 28t59.5 12q74 0 113.5 -47t39.5 -131v-158q0 -80 -43 -130t-117 -50q-35 0 -60 14zM287 125q17 18 17 49v141q0 78 -60 78q-31 0 -47 -20t-16 -58v-134q0 -35 15 -54.5t46 -19.5q28 0 45 18z" />
    <glyph glyph-name="c" unicode="c" horiz-adv-x="441" 
d="M91.5 40.5q-52.5 48.5 -52.5 128.5v155q0 84 52.5 134t136.5 50q85 0 134.5 -48t49.5 -134v-7h-128v11q0 28 -15.5 45.5t-41.5 17.5t-42.5 -18.5t-16.5 -45.5v-159q0 -27 16.5 -45t42.5 -18q25 0 40 15t15 45v18h130v-16q0 -80 -52 -128.5t-134 -48.5t-134.5 48.5z" />
    <glyph glyph-name="cacute" unicode="&#x107;" horiz-adv-x="441" 
d="M91.5 40.5q-52.5 48.5 -52.5 128.5v155q0 84 52.5 134t136.5 50q85 0 134.5 -48t49.5 -134v-7h-128v11q0 28 -15.5 45.5t-41.5 17.5t-42.5 -18.5t-16.5 -45.5v-159q0 -27 16.5 -45t42.5 -18q25 0 40 15t15 45v18h130v-16q0 -80 -52 -128.5t-134 -48.5t-134.5 48.5z
M209 680h136l-63 -128h-114z" />
    <glyph glyph-name="ccaron" unicode="&#x10d;" horiz-adv-x="441" 
d="M91.5 40.5q-52.5 48.5 -52.5 128.5v155q0 84 52.5 134t136.5 50q85 0 134.5 -48t49.5 -134v-7h-128v11q0 28 -15.5 45.5t-41.5 17.5t-42.5 -18.5t-16.5 -45.5v-159q0 -27 16.5 -45t42.5 -18q25 0 40 15t15 45v18h130v-16q0 -80 -52 -128.5t-134 -48.5t-134.5 48.5z
M108 680h75l44 -60l45 60h74l-55 -128h-128z" />
    <glyph glyph-name="ccedilla" unicode="&#xe7;" horiz-adv-x="441" 
d="M91.5 40.5q-52.5 48.5 -52.5 128.5v155q0 84 52.5 134t136.5 50q85 0 134.5 -48t49.5 -134v-7h-128v11q0 28 -15.5 45.5t-41.5 17.5t-42.5 -18.5t-16.5 -45.5v-159q0 -27 16.5 -45t42.5 -18q25 0 40 15t15 45v18h130v-16q0 -80 -52 -128.5t-134 -48.5t-134.5 48.5z
M156 -175v64q22 -2 27 -2q24 0 24 17q0 13 -13 32t-38 36h98q28 -22 44 -47t16 -48q0 -26 -22 -43.5t-73 -17.5q-31 0 -63 9z" />
    <glyph glyph-name="ccircumflex" unicode="&#x109;" horiz-adv-x="441" 
d="M91.5 40.5q-52.5 48.5 -52.5 128.5v155q0 84 52.5 134t136.5 50q85 0 134.5 -48t49.5 -134v-7h-128v11q0 28 -15.5 45.5t-41.5 17.5t-42.5 -18.5t-16.5 -45.5v-159q0 -27 16.5 -45t42.5 -18q25 0 40 15t15 45v18h130v-16q0 -80 -52 -128.5t-134 -48.5t-134.5 48.5z
M163 680h128l55 -128h-74l-45 60l-44 -60h-75z" />
    <glyph glyph-name="cdotaccent" unicode="&#x10b;" horiz-adv-x="441" 
d="M91.5 40.5q-52.5 48.5 -52.5 128.5v155q0 84 52.5 134t136.5 50q85 0 134.5 -48t49.5 -134v-7h-128v11q0 28 -15.5 45.5t-41.5 17.5t-42.5 -18.5t-16.5 -45.5v-159q0 -27 16.5 -45t42.5 -18q25 0 40 15t15 45v18h130v-16q0 -80 -52 -128.5t-134 -48.5t-134.5 48.5z
M179 569q-20 20 -20 48t20 48t48 20t48 -20t20 -48t-20 -48t-48 -20t-48 20z" />
    <glyph glyph-name="d" unicode="d" horiz-adv-x="475" 
d="M78.5 39.5q-39.5 47.5 -39.5 133.5v153q0 81 42 131.5t118 50.5q58 0 93 -39v211h129v-680h-122v41q-16 -21 -42.5 -35t-63.5 -14q-75 0 -114.5 47.5zM274 124.5q17 17.5 17 46.5v151q0 35 -16.5 53t-44.5 18q-29 0 -45.5 -19t-16.5 -54v-141q0 -34 16.5 -53t45.5 -19
q27 0 44 17.5z" />
    <glyph glyph-name="eth" unicode="&#xf0;" horiz-adv-x="458" 
d="M419 326v-151q0 -85 -52 -134t-138 -49q-85 0 -137.5 49.5t-52.5 133.5v149q0 87 54 135.5t142 48.5q-16 26 -32 48l-77 -32l-29 67l57 24q-33 37 -60 65h144q11 -9 21 -21l70 30l30 -68l-49 -20q109 -138 109 -275zM290 322q0 31 -16.5 51t-44.5 20t-44.5 -20t-16.5 -51
v-145q0 -31 16.5 -50.5t44.5 -19.5q26 0 43.5 18t17.5 45v152z" />
    <glyph glyph-name="dcaron" unicode="&#x10f;" horiz-adv-x="475" 
d="M78.5 39.5q-39.5 47.5 -39.5 133.5v153q0 81 42 131.5t118 50.5q58 0 93 -39v211h129v-680h-122v41q-16 -21 -42.5 -35t-63.5 -14q-75 0 -114.5 47.5zM274 124.5q17 17.5 17 46.5v151q0 35 -16.5 53t-44.5 18q-29 0 -45.5 -19t-16.5 -54v-141q0 -34 16.5 -53t45.5 -19
q27 0 44 17.5zM458 680h135l-33 -142h-102v142z" />
    <glyph glyph-name="dcroat" unicode="&#x111;" horiz-adv-x="475" 
d="M78.5 39.5q-39.5 47.5 -39.5 133.5v153q0 81 42 131.5t118 50.5q56 0 93 -39v78h-120v83h120v50h129v-50h37v-83h-37v-547h-122v41q-16 -21 -42.5 -35t-63.5 -14q-75 0 -114.5 47.5zM274 124.5q17 17.5 17 46.5v151q0 35 -16.5 53t-44.5 18q-29 0 -45.5 -19t-16.5 -54
v-141q0 -34 16.5 -53t45.5 -19q27 0 44 17.5z" />
    <glyph glyph-name="e" unicode="e" horiz-adv-x="456" 
d="M92 40.5q-53 48.5 -53 129.5v153q0 57 25 98.5t69 64t99 22.5q82 0 134 -50t52 -134v-107h-250v-44q0 -61 64 -61q61 0 63 52h123q-2 -84 -52.5 -128t-135.5 -44t-138 48.5zM290 303v22q0 31 -16.5 49.5t-44.5 18.5q-27 0 -44 -18t-17 -50v-22h122z" />
    <glyph glyph-name="eacute" unicode="&#xe9;" horiz-adv-x="456" 
d="M92 40.5q-53 48.5 -53 129.5v153q0 57 25 98.5t69 64t99 22.5q82 0 134 -50t52 -134v-107h-250v-44q0 -61 64 -61q61 0 63 52h123q-2 -84 -52.5 -128t-135.5 -44t-138 48.5zM290 303v22q0 31 -16.5 49.5t-44.5 18.5q-27 0 -44 -18t-17 -50v-22h122zM217 680h136l-63 -128
h-114z" />
    <glyph glyph-name="ebreve" unicode="&#x115;" horiz-adv-x="456" 
d="M92 40.5q-53 48.5 -53 129.5v153q0 57 25 98.5t69 64t99 22.5q82 0 134 -50t52 -134v-107h-250v-44q0 -61 64 -61q61 0 63 52h123q-2 -84 -52.5 -128t-135.5 -44t-138 48.5zM290 303v22q0 31 -16.5 49.5t-44.5 18.5q-27 0 -44 -18t-17 -50v-22h122zM146 584.5
q-30 33.5 -30 95.5h71q0 -55 48 -55q22 0 35.5 13.5t13.5 41.5h70q0 -63 -30 -96t-89 -33t-89 33.5z" />
    <glyph glyph-name="ecaron" unicode="&#x11b;" horiz-adv-x="456" 
d="M92 40.5q-53 48.5 -53 129.5v153q0 57 25 98.5t69 64t99 22.5q82 0 134 -50t52 -134v-107h-250v-44q0 -61 64 -61q61 0 63 52h123q-2 -84 -52.5 -128t-135.5 -44t-138 48.5zM290 303v22q0 31 -16.5 49.5t-44.5 18.5q-27 0 -44 -18t-17 -50v-22h122zM116 680h75l44 -60
l45 60h74l-55 -128h-128z" />
    <glyph glyph-name="ecircumflex" unicode="&#xea;" horiz-adv-x="456" 
d="M92 40.5q-53 48.5 -53 129.5v153q0 57 25 98.5t69 64t99 22.5q82 0 134 -50t52 -134v-107h-250v-44q0 -61 64 -61q61 0 63 52h123q-2 -84 -52.5 -128t-135.5 -44t-138 48.5zM290 303v22q0 31 -16.5 49.5t-44.5 18.5q-27 0 -44 -18t-17 -50v-22h122zM171 680h128l55 -128
h-74l-45 60l-44 -60h-75z" />
    <glyph glyph-name="edieresis" unicode="&#xeb;" horiz-adv-x="456" 
d="M92 40.5q-53 48.5 -53 129.5v153q0 57 25 98.5t69 64t99 22.5q82 0 134 -50t52 -134v-107h-250v-44q0 -61 64 -61q61 0 63 52h123q-2 -84 -52.5 -128t-135.5 -44t-138 48.5zM290 303v22q0 31 -16.5 49.5t-44.5 18.5q-27 0 -44 -18t-17 -50v-22h122zM122 574
q-18 18 -18 43t18 43t43 18t43 -18t18 -43t-18 -43t-43 -18t-43 18zM261 574q-18 18 -18 43t18 43t43 18t43.5 -18t18.5 -43t-18.5 -43t-43.5 -18t-43 18z" />
    <glyph glyph-name="edotaccent" unicode="&#x117;" horiz-adv-x="456" 
d="M92 40.5q-53 48.5 -53 129.5v153q0 57 25 98.5t69 64t99 22.5q82 0 134 -50t52 -134v-107h-250v-44q0 -61 64 -61q61 0 63 52h123q-2 -84 -52.5 -128t-135.5 -44t-138 48.5zM290 303v22q0 31 -16.5 49.5t-44.5 18.5q-27 0 -44 -18t-17 -50v-22h122zM187 569
q-20 20 -20 48t20 48t48 20t48 -20t20 -48t-20 -48t-48 -20t-48 20z" />
    <glyph glyph-name="egrave" unicode="&#xe8;" horiz-adv-x="456" 
d="M92 40.5q-53 48.5 -53 129.5v153q0 57 25 98.5t69 64t99 22.5q82 0 134 -50t52 -134v-107h-250v-44q0 -61 64 -61q61 0 63 52h123q-2 -84 -52.5 -128t-135.5 -44t-138 48.5zM290 303v22q0 31 -16.5 49.5t-44.5 18.5q-27 0 -44 -18t-17 -50v-22h122zM115 680h137l41 -128
h-115z" />
    <glyph glyph-name="emacron" unicode="&#x113;" horiz-adv-x="456" 
d="M92 40.5q-53 48.5 -53 129.5v153q0 57 25 98.5t69 64t99 22.5q82 0 134 -50t52 -134v-107h-250v-44q0 -61 64 -61q61 0 63 52h123q-2 -84 -52.5 -128t-135.5 -44t-138 48.5zM290 303v22q0 31 -16.5 49.5t-44.5 18.5q-27 0 -44 -18t-17 -50v-22h122zM116 657h238v-84h-238
v84z" />
    <glyph glyph-name="eogonek" unicode="&#x119;" horiz-adv-x="456" 
d="M92 40.5q-53 48.5 -53 129.5v153q0 57 25 98.5t69 64t99 22.5q82 0 134 -50t52 -134v-107h-250v-44q0 -61 64 -61q61 0 63 52h123q-2 -84 -52.5 -128t-135.5 -44t-138 48.5zM290 303v22q0 31 -16.5 49.5t-44.5 18.5q-27 0 -44 -18t-17 -50v-22h122zM161 -166.5
q-22 17.5 -22 43.5q0 23 16 48t44 47h98q-26 -17 -38.5 -36t-12.5 -32q0 -17 24 -17q3 0 27 2v-64q-36 -9 -63 -9q-51 0 -73 17.5z" />
    <glyph glyph-name="uni0259" unicode="&#x259;" horiz-adv-x="456" 
d="M364 459.5q53 -48.5 53 -129.5v-153q0 -57 -25 -98.5t-69 -64t-99 -22.5q-82 0 -134 50t-52 134v107h250v44q0 61 -64 61q-61 0 -63 -52h-123q2 84 52.5 128t135.5 44t138 -48.5zM166 197v-22q0 -31 16.5 -49.5t44.5 -18.5q27 0 44 18t17 50v22h-122z" />
    <glyph glyph-name="f" unicode="f" horiz-adv-x="321" 
d="M77 387h-69v113h69v31q0 83 42 116t134 33h60v-107h-53q-28 0 -41 -12.5t-13 -38.5v-22h102v-113h-102v-387h-129v387z" />
    <glyph glyph-name="g" unicode="g" horiz-adv-x="475" 
d="M173 -71h53q33 0 49.5 15.5t16.5 50.5v42q-39 -43 -99 -43q-75 0 -114.5 47.5t-39.5 133.5v151q0 81 42.5 131.5t118.5 50.5q36 0 60 -12t37 -30v34h124v-512q0 -86 -44.5 -129t-131.5 -43h-72v113zM273.5 128.5q17.5 17.5 17.5 46.5v153q0 30 -17.5 47t-44.5 17
t-44 -17.5t-17 -48.5v-150q0 -29 17.5 -47t44.5 -18q26 0 43.5 17.5z" />
    <glyph glyph-name="gbreve" unicode="&#x11f;" horiz-adv-x="475" 
d="M173 -71h53q33 0 49.5 15.5t16.5 50.5v42q-39 -43 -99 -43q-75 0 -114.5 47.5t-39.5 133.5v151q0 81 42.5 131.5t118.5 50.5q36 0 60 -12t37 -30v34h124v-512q0 -86 -44.5 -129t-131.5 -43h-72v113zM273.5 128.5q17.5 17.5 17.5 46.5v153q0 30 -17.5 47t-44.5 17
t-44 -17.5t-17 -48.5v-150q0 -29 17.5 -47t44.5 -18q26 0 43.5 17.5zM142 584.5q-30 33.5 -30 95.5h71q0 -55 48 -55q22 0 35.5 13.5t13.5 41.5h70q0 -63 -30 -96t-89 -33t-89 33.5z" />
    <glyph glyph-name="gcircumflex" unicode="&#x11d;" horiz-adv-x="475" 
d="M173 -71h53q33 0 49.5 15.5t16.5 50.5v42q-39 -43 -99 -43q-75 0 -114.5 47.5t-39.5 133.5v151q0 81 42.5 131.5t118.5 50.5q36 0 60 -12t37 -30v34h124v-512q0 -86 -44.5 -129t-131.5 -43h-72v113zM273.5 128.5q17.5 17.5 17.5 46.5v153q0 30 -17.5 47t-44.5 17
t-44 -17.5t-17 -48.5v-150q0 -29 17.5 -47t44.5 -18q26 0 43.5 17.5zM167 680h128l55 -128h-74l-45 60l-44 -60h-75z" />
    <glyph glyph-name="uni0123" unicode="&#x123;" horiz-adv-x="475" 
d="M173 -71h53q33 0 49.5 15.5t16.5 50.5v42q-39 -43 -99 -43q-75 0 -114.5 47.5t-39.5 133.5v151q0 81 42.5 131.5t118.5 50.5q36 0 60 -12t37 -30v34h124v-512q0 -86 -44.5 -129t-131.5 -43h-72v113zM273.5 128.5q17.5 17.5 17.5 46.5v153q0 30 -17.5 47t-44.5 17
t-44 -17.5t-17 -48.5v-150q0 -29 17.5 -47t44.5 -18q26 0 43.5 17.5zM188 680h114l-10 -128h-137z" />
    <glyph glyph-name="gdotaccent" unicode="&#x121;" horiz-adv-x="475" 
d="M173 -71h53q33 0 49.5 15.5t16.5 50.5v42q-39 -43 -99 -43q-75 0 -114.5 47.5t-39.5 133.5v151q0 81 42.5 131.5t118.5 50.5q36 0 60 -12t37 -30v34h124v-512q0 -86 -44.5 -129t-131.5 -43h-72v113zM273.5 128.5q17.5 17.5 17.5 46.5v153q0 30 -17.5 47t-44.5 17
t-44 -17.5t-17 -48.5v-150q0 -29 17.5 -47t44.5 -18q26 0 43.5 17.5zM183 569q-20 20 -20 48t20 48t48 20t48 -20t20 -48t-20 -48t-48 -20t-48 20z" />
    <glyph glyph-name="h" unicode="h" horiz-adv-x="480" 
d="M54 680h127v-214q37 42 99 42q71 0 109 -48.5t38 -127.5v-332h-130v326q0 67 -54 67q-28 0 -44 -17.5t-16 -44.5v-331h-129v680z" />
    <glyph glyph-name="hbar" unicode="&#x127;" horiz-adv-x="480" 
d="M54 547h-37v83h37v50h127v-50h122v-83h-122v-81q37 42 99 42q71 0 109 -48.5t38 -127.5v-332h-130v326q0 31 -13 49t-41 18t-44 -17.5t-16 -44.5v-331h-129v547z" />
    <glyph glyph-name="hcircumflex" unicode="&#x125;" horiz-adv-x="480" 
d="M54 680h127v-214q37 42 99 42q71 0 109 -48.5t38 -127.5v-332h-130v326q0 67 -54 67q-28 0 -44 -17.5t-16 -44.5v-331h-129v680zM53 838h128l55 -128h-74l-45 60l-44 -60h-75z" />
    <glyph glyph-name="i" unicode="i" horiz-adv-x="238" 
d="M54 500h130v-500h-130v500zM66 572q-22 22 -22 53q0 30 22 52t52 22q31 0 53 -22t22 -52q0 -31 -22 -53t-53 -22q-30 0 -52 22z" />
    <glyph glyph-name="dotlessi" unicode="&#x131;" horiz-adv-x="238" 
d="M54 500h130v-500h-130v500z" />
    <glyph glyph-name="iacute" unicode="&#xed;" horiz-adv-x="238" 
d="M54 500h130v-500h-130v500zM101 680h136l-63 -128h-114z" />
    <glyph glyph-name="ibreve" unicode="&#x12d;" horiz-adv-x="238" 
d="M54 500h130v-500h-130v500zM30 584.5q-30 33.5 -30 95.5h71q0 -55 48 -55q22 0 35.5 13.5t13.5 41.5h70q0 -63 -30 -96t-89 -33t-89 33.5z" />
    <glyph glyph-name="icircumflex" unicode="&#xee;" horiz-adv-x="238" 
d="M54 500h130v-500h-130v500zM55 680h128l55 -128h-74l-45 60l-44 -60h-75z" />
    <glyph glyph-name="idieresis" unicode="&#xef;" horiz-adv-x="238" 
d="M54 500h130v-500h-130v500zM6 574q-18 18 -18 43t18 43t43 18t43 -18t18 -43t-18 -43t-43 -18t-43 18zM145 574q-18 18 -18 43t18 43t43 18t43.5 -18t18.5 -43t-18.5 -43t-43.5 -18t-43 18z" />
    <glyph glyph-name="igrave" unicode="&#xec;" horiz-adv-x="238" 
d="M54 500h130v-500h-130v500zM-1 680h137l41 -128h-115z" />
    <glyph glyph-name="ij" unicode="&#x133;" horiz-adv-x="474" 
d="M54 500h130v-500h-130v500zM66 572q-22 22 -22 53q0 30 22 52t52 22q31 0 53 -22t22 -52q0 -31 -22 -53t-53 -22q-30 0 -52 22zM227 -66h21q25 0 34.5 10.5t9.5 33.5v522h130v-532q0 -77 -36.5 -114.5t-113.5 -37.5h-45v118zM303 572q-22 22 -22 53q0 30 22 52t52 22
q31 0 53 -22t22 -52q0 -31 -22 -53t-53 -22q-30 0 -52 22z" />
    <glyph glyph-name="imacron" unicode="&#x12b;" horiz-adv-x="238" 
d="M54 500h130v-500h-130v500zM0 657h238v-84h-238v84z" />
    <glyph glyph-name="iogonek" unicode="&#x12f;" horiz-adv-x="238" 
d="M54 500h130v-500h-130v500zM66 572q-22 22 -22 53q0 30 22 52t52 22q31 0 53 -22t22 -52q0 -31 -22 -53t-53 -22q-30 0 -52 22zM43 -166.5q-22 17.5 -22 43.5q0 23 16 48t44 47h98q-26 -17 -38.5 -36t-12.5 -32q0 -17 24 -17q3 0 27 2v-64q-36 -9 -63 -9q-51 0 -73 17.5z
" />
    <glyph glyph-name="itilde" unicode="&#x129;" horiz-adv-x="238" 
d="M54 500h130v-500h-130v500zM0 603q12 27 33 46t45 19q12 0 28 -6t30 -12q24 -11 32 -11q14 0 35 31l35 -42q-13 -28 -33.5 -47.5t-44.5 -19.5q-19 0 -55 17q-26 12 -35 12q-18 0 -35 -29z" />
    <glyph glyph-name="j" unicode="j" horiz-adv-x="236" 
d="M-11 -66h21q25 0 34.5 10.5t9.5 33.5v522h130v-532q0 -77 -36.5 -114.5t-113.5 -37.5h-45v118zM65 572q-22 22 -22 53q0 30 22 52t52 22q31 0 53 -22t22 -52q0 -31 -22 -53t-53 -22q-30 0 -52 22z" />
    <glyph glyph-name="uni0237" unicode="&#x237;" horiz-adv-x="236" 
d="M-11 -66h21q25 0 34.5 10.5t9.5 33.5v522h130v-532q0 -77 -36.5 -114.5t-113.5 -37.5h-45v118z" />
    <glyph glyph-name="jcircumflex" unicode="&#x135;" horiz-adv-x="236" 
d="M-11 -66h21q25 0 34.5 10.5t9.5 33.5v522h130v-532q0 -77 -36.5 -114.5t-113.5 -37.5h-45v118zM54 680h128l55 -128h-74l-45 60l-44 -60h-75z" />
    <glyph glyph-name="k" unicode="k" horiz-adv-x="451" 
d="M54 680h127v-383h3l122 203h137l-130 -190l150 -310h-145l-94 212l-43 -62v-150h-127v680z" />
    <glyph glyph-name="uni0137" unicode="&#x137;" horiz-adv-x="451" 
d="M54 680h127v-383h3l122 203h137l-130 -190l150 -310h-145l-94 212l-43 -62v-150h-127v680zM184 -28h136l-63 -130h-114z" />
    <glyph glyph-name="kgreenlandic" unicode="&#x138;" horiz-adv-x="451" 
d="M54 500h127v-203h3l122 203h137l-130 -190l150 -310h-145l-94 212l-43 -62v-150h-127v500z" />
    <glyph glyph-name="l" unicode="l" horiz-adv-x="237" 
d="M54 680h129v-680h-129v680z" />
    <glyph glyph-name="lacute" unicode="&#x13a;" horiz-adv-x="237" 
d="M54 680h129v-680h-129v680zM105 838h136l-63 -128h-114z" />
    <glyph glyph-name="lcaron" unicode="&#x13e;" horiz-adv-x="237" 
d="M54 680h129v-680h-129v680zM215 680h135l-33 -142h-102v142z" />
    <glyph glyph-name="uni013C" unicode="&#x13c;" horiz-adv-x="237" 
d="M54 680h129v-680h-129v680zM57 -28h136l-63 -130h-114z" />
    <glyph glyph-name="ldot" unicode="&#x140;" horiz-adv-x="334" 
d="M54 680h129v-680h-129v680zM224.5 294.5q-22.5 22.5 -22.5 54.5q0 33 22.5 56.5t54.5 23.5q33 0 56.5 -23.5t23.5 -56.5q0 -32 -23.5 -54.5t-56.5 -22.5q-32 0 -54.5 22.5z" />
    <glyph glyph-name="lslash" unicode="&#x142;" horiz-adv-x="239" 
d="M55 320l-46 -20v104l46 21v255h129v-197l47 21v-104l-47 -22v-378h-129v320z" />
    <glyph glyph-name="m" unicode="m" horiz-adv-x="716" 
d="M54 500h125v-37q16 20 41.5 32.5t58.5 12.5q80 0 119 -66q50 66 119 66q71 0 108.5 -48.5t37.5 -127.5v-332h-130v328q0 30 -13.5 46.5t-39.5 16.5q-25 0 -41 -16.5t-16 -44.5v-330h-130v328q0 30 -13.5 46.5t-39.5 16.5t-41.5 -16.5t-15.5 -43.5v-331h-129v500z" />
    <glyph glyph-name="n" unicode="n" horiz-adv-x="480" 
d="M54 500h125v-37q16 20 41.5 32.5t58.5 12.5q71 0 109.5 -48.5t38.5 -127.5v-332h-130v329q0 31 -14.5 47.5t-40.5 16.5t-42.5 -17t-16.5 -44v-332h-129v500z" />
    <glyph glyph-name="nacute" unicode="&#x144;" horiz-adv-x="480" 
d="M54 500h125v-37q16 20 41.5 32.5t58.5 12.5q71 0 109.5 -48.5t38.5 -127.5v-332h-130v329q0 31 -14.5 47.5t-40.5 16.5t-42.5 -17t-16.5 -44v-332h-129v500zM228 680h136l-63 -128h-114z" />
    <glyph glyph-name="napostrophe" unicode="&#x149;" horiz-adv-x="480" 
d="M54 500h125v-37q16 20 41.5 32.5t58.5 12.5q71 0 109.5 -48.5t38.5 -127.5v-332h-130v329q0 31 -14.5 47.5t-40.5 16.5t-42.5 -17t-16.5 -44v-332h-129v500zM101 680h136l-63 -128h-114z" />
    <glyph glyph-name="ncaron" unicode="&#x148;" horiz-adv-x="480" 
d="M54 500h125v-37q16 20 41.5 32.5t58.5 12.5q71 0 109.5 -48.5t38.5 -127.5v-332h-130v329q0 31 -14.5 47.5t-40.5 16.5t-42.5 -17t-16.5 -44v-332h-129v500zM127 680h75l44 -60l45 60h74l-55 -128h-128z" />
    <glyph glyph-name="uni0146" unicode="&#x146;" horiz-adv-x="480" 
d="M54 500h125v-37q16 20 41.5 32.5t58.5 12.5q71 0 109.5 -48.5t38.5 -127.5v-332h-130v329q0 31 -14.5 47.5t-40.5 16.5t-42.5 -17t-16.5 -44v-332h-129v500zM179 -28h136l-63 -130h-114z" />
    <glyph glyph-name="eng" unicode="&#x14b;" horiz-adv-x="480" 
d="M233 -66h20q25 0 34.5 10.5t9.5 33.5v351q0 31 -14.5 47.5t-40.5 16.5t-42.5 -17t-16.5 -44v-332h-129v500h125v-37q16 20 41.5 32.5t58.5 12.5q70 0 109 -49t39 -127v-364q0 -77 -36.5 -114.5t-113.5 -37.5h-44v118z" />
    <glyph glyph-name="ntilde" unicode="&#xf1;" horiz-adv-x="480" 
d="M54 500h125v-37q16 20 41.5 32.5t58.5 12.5q71 0 109.5 -48.5t38.5 -127.5v-332h-130v329q0 31 -14.5 47.5t-40.5 16.5t-42.5 -17t-16.5 -44v-332h-129v500zM127 603q12 27 33 46t45 19q12 0 28 -6t30 -12q24 -11 32 -11q14 0 35 31l35 -42q-13 -28 -33.5 -47.5
t-44.5 -19.5q-19 0 -55 17q-26 12 -35 12q-18 0 -35 -29z" />
    <glyph glyph-name="o" unicode="o" horiz-adv-x="458" 
d="M91.5 41.5q-52.5 49.5 -52.5 133.5v149q0 85 52.5 134.5t137.5 49.5q86 0 138 -49.5t52 -134.5v-149q0 -85 -52 -134t-138 -49q-85 0 -137.5 49.5zM272.5 125q17.5 18 17.5 45v160q0 27 -17.5 45t-43.5 18t-43.5 -18t-17.5 -45v-160q0 -27 17.5 -45t43.5 -18t43.5 18z
" />
    <glyph glyph-name="oacute" unicode="&#xf3;" horiz-adv-x="458" 
d="M91.5 41.5q-52.5 49.5 -52.5 133.5v149q0 85 52.5 134.5t137.5 49.5q86 0 138 -49.5t52 -134.5v-149q0 -85 -52 -134t-138 -49q-85 0 -137.5 49.5zM272.5 125q17.5 18 17.5 45v160q0 27 -17.5 45t-43.5 18t-43.5 -18t-17.5 -45v-160q0 -27 17.5 -45t43.5 -18t43.5 18z
M211 680h136l-63 -128h-114z" />
    <glyph glyph-name="obreve" unicode="&#x14f;" horiz-adv-x="458" 
d="M91.5 41.5q-52.5 49.5 -52.5 133.5v149q0 85 52.5 134.5t137.5 49.5q86 0 138 -49.5t52 -134.5v-149q0 -85 -52 -134t-138 -49q-85 0 -137.5 49.5zM272.5 125q17.5 18 17.5 45v160q0 27 -17.5 45t-43.5 18t-43.5 -18t-17.5 -45v-160q0 -27 17.5 -45t43.5 -18t43.5 18z
M140 584.5q-30 33.5 -30 95.5h71q0 -55 48 -55q22 0 35.5 13.5t13.5 41.5h70q0 -63 -30 -96t-89 -33t-89 33.5z" />
    <glyph glyph-name="ocircumflex" unicode="&#xf4;" horiz-adv-x="458" 
d="M91.5 41.5q-52.5 49.5 -52.5 133.5v149q0 85 52.5 134.5t137.5 49.5q86 0 138 -49.5t52 -134.5v-149q0 -85 -52 -134t-138 -49q-85 0 -137.5 49.5zM272.5 125q17.5 18 17.5 45v160q0 27 -17.5 45t-43.5 18t-43.5 -18t-17.5 -45v-160q0 -27 17.5 -45t43.5 -18t43.5 18z
M165 680h128l55 -128h-74l-45 60l-44 -60h-75z" />
    <glyph glyph-name="odieresis" unicode="&#xf6;" horiz-adv-x="458" 
d="M91.5 41.5q-52.5 49.5 -52.5 133.5v149q0 85 52.5 134.5t137.5 49.5q86 0 138 -49.5t52 -134.5v-149q0 -85 -52 -134t-138 -49q-85 0 -137.5 49.5zM272.5 125q17.5 18 17.5 45v160q0 27 -17.5 45t-43.5 18t-43.5 -18t-17.5 -45v-160q0 -27 17.5 -45t43.5 -18t43.5 18z
M116 574q-18 18 -18 43t18 43t43 18t43 -18t18 -43t-18 -43t-43 -18t-43 18zM255 574q-18 18 -18 43t18 43t43 18t43.5 -18t18.5 -43t-18.5 -43t-43.5 -18t-43 18z" />
    <glyph glyph-name="ograve" unicode="&#xf2;" horiz-adv-x="458" 
d="M91.5 41.5q-52.5 49.5 -52.5 133.5v149q0 85 52.5 134.5t137.5 49.5q86 0 138 -49.5t52 -134.5v-149q0 -85 -52 -134t-138 -49q-85 0 -137.5 49.5zM272.5 125q17.5 18 17.5 45v160q0 27 -17.5 45t-43.5 18t-43.5 -18t-17.5 -45v-160q0 -27 17.5 -45t43.5 -18t43.5 18z
M109 680h137l41 -128h-115z" />
    <glyph glyph-name="ohungarumlaut" unicode="&#x151;" horiz-adv-x="458" 
d="M91.5 41.5q-52.5 49.5 -52.5 133.5v149q0 85 52.5 134.5t137.5 49.5q86 0 138 -49.5t52 -134.5v-149q0 -85 -52 -134t-138 -49q-85 0 -137.5 49.5zM272.5 125q17.5 18 17.5 45v160q0 27 -17.5 45t-43.5 18t-43.5 -18t-17.5 -45v-160q0 -27 17.5 -45t43.5 -18t43.5 18z
M166 680h98l-59 -128h-80zM292 680h98l-59 -128h-80z" />
    <glyph glyph-name="omacron" unicode="&#x14d;" horiz-adv-x="458" 
d="M91.5 41.5q-52.5 49.5 -52.5 133.5v149q0 85 52.5 134.5t137.5 49.5q86 0 138 -49.5t52 -134.5v-149q0 -85 -52 -134t-138 -49q-85 0 -137.5 49.5zM272.5 125q17.5 18 17.5 45v160q0 27 -17.5 45t-43.5 18t-43.5 -18t-17.5 -45v-160q0 -27 17.5 -45t43.5 -18t43.5 18z
M110 657h238v-84h-238v84z" />
    <glyph glyph-name="oslash" unicode="&#xf8;" horiz-adv-x="458" 
d="M419 324v-149q0 -85 -52 -134t-138 -49q-49 0 -90 18l-20 -39h-76l41 78q-45 48 -45 126v149q0 85 52.5 134.5t137.5 49.5q49 0 89 -17l20 38h76l-41 -77q46 -51 46 -128zM166 204l96 182q-14 9 -33 9q-28 0 -45.5 -18t-17.5 -47v-126zM274.5 123q17.5 18 17.5 47v128
l-97 -184q14 -9 34 -9q28 0 45.5 18z" />
    <glyph glyph-name="otilde" unicode="&#xf5;" horiz-adv-x="458" 
d="M91.5 41.5q-52.5 49.5 -52.5 133.5v149q0 85 52.5 134.5t137.5 49.5q86 0 138 -49.5t52 -134.5v-149q0 -85 -52 -134t-138 -49q-85 0 -137.5 49.5zM272.5 125q17.5 18 17.5 45v160q0 27 -17.5 45t-43.5 18t-43.5 -18t-17.5 -45v-160q0 -27 17.5 -45t43.5 -18t43.5 18z
M110 603q12 27 33 46t45 19q12 0 28 -6t30 -12q24 -11 32 -11q14 0 35 31l35 -42q-13 -28 -33.5 -47.5t-44.5 -19.5q-19 0 -55 17q-26 12 -35 12q-18 0 -35 -29z" />
    <glyph glyph-name="oe" unicode="&#x153;" horiz-adv-x="703" 
d="M91.5 41.5q-52.5 49.5 -52.5 133.5v149q0 85 52.5 134.5t137.5 49.5q77 0 125 -43q49 43 126 43q82 0 133.5 -50t51.5 -134v-107h-250v-44q0 -61 67 -61q60 0 60 52h123q-2 -84 -51.5 -128t-134.5 -44q-76 0 -126 42q-47 -42 -124 -42q-85 0 -137.5 49.5zM272.5 125
q17.5 18 17.5 45v152q0 31 -16.5 51t-44.5 20t-44.5 -20t-16.5 -51v-145q0 -31 16.5 -50.5t44.5 -19.5q26 0 43.5 18zM537 303v22q0 32 -16.5 50t-44.5 18q-27 0 -44 -18t-17 -50v-22h122z" />
    <glyph glyph-name="p" unicode="p" horiz-adv-x="473" 
d="M54 500h122v-35q12 17 40 30t65 13q74 0 113.5 -48t39.5 -133v-155q0 -80 -43.5 -130t-116.5 -50q-31 0 -54.5 11t-37.5 29v-216h-128v684zM288 125q17 18 17 49v141q0 37 -15 57.5t-45 20.5t-46.5 -20.5t-16.5 -57.5v-134q0 -74 61 -74q28 0 45 18z" />
    <glyph glyph-name="thorn" unicode="&#xfe;" horiz-adv-x="473" 
d="M54 680h129v-207q39 35 98 35q74 0 113.5 -48t39.5 -133v-155q0 -80 -43.5 -130t-116.5 -50q-31 0 -54.5 11t-37.5 29v-216h-128v864zM288 125q17 18 17 49v141q0 37 -15 57.5t-45 20.5t-46.5 -20.5t-16.5 -57.5v-134q0 -74 61 -74q28 0 45 18z" />
    <glyph glyph-name="q" unicode="q" horiz-adv-x="475" 
d="M292 32q-38 -40 -99 -40q-75 0 -114.5 47.5t-39.5 133.5v153q0 81 42.5 131.5t118.5 50.5q36 0 60 -12t37 -30v34h124v-684h-129v216zM273.5 126.5q17.5 17.5 17.5 46.5v147q0 34 -16.5 52.5t-45.5 18.5q-28 0 -44.5 -18.5t-16.5 -54.5v-136q0 -35 17 -54t45 -19
q26 0 43.5 17.5z" />
    <glyph glyph-name="r" unicode="r" horiz-adv-x="305" 
d="M54 500h125v-44q16 25 40.5 38.5t54.5 13.5q13 0 26 -2v-123q-16 4 -39 4q-48 0 -63 -28.5t-15 -76.5v-282h-129v500z" />
    <glyph glyph-name="racute" unicode="&#x155;" horiz-adv-x="305" 
d="M54 500h125v-44q16 25 40.5 38.5t54.5 13.5q13 0 26 -2v-123q-16 4 -39 4q-48 0 -63 -28.5t-15 -76.5v-282h-129v500zM155 680h136l-63 -128h-114z" />
    <glyph glyph-name="rcaron" unicode="&#x159;" horiz-adv-x="305" 
d="M54 500h125v-44q16 25 40.5 38.5t54.5 13.5q13 0 26 -2v-123q-16 4 -39 4q-48 0 -63 -28.5t-15 -76.5v-282h-129v500zM54 680h75l44 -60l45 60h74l-55 -128h-128z" />
    <glyph glyph-name="uni0157" unicode="&#x157;" horiz-adv-x="305" 
d="M54 500h125v-44q16 25 40.5 38.5t54.5 13.5q13 0 26 -2v-123q-16 4 -39 4q-48 0 -63 -28.5t-15 -76.5v-282h-129v500zM52 -28h136l-63 -130h-114z" />
    <glyph glyph-name="s" unicode="s" horiz-adv-x="425" 
d="M77.5 31q-52.5 39 -55.5 126h128q3 -29 20 -43.5t46 -14.5q24 0 40.5 12.5t16.5 31.5q0 23 -21 34.5t-67 23.5q-48 13 -79.5 27t-54.5 43.5t-23 78.5q0 74 51 116t139 42q73 0 122 -36.5t52 -124.5h-123q-4 25 -19 39t-41 14q-24 0 -38 -11t-14 -29q0 -22 21 -33.5
t67 -23.5q49 -13 80.5 -27t54.5 -43.5t23 -79.5q0 -77 -55.5 -119t-137.5 -42q-80 0 -132.5 39z" />
    <glyph glyph-name="sacute" unicode="&#x15b;" horiz-adv-x="425" 
d="M77.5 31q-52.5 39 -55.5 126h128q3 -29 20 -43.5t46 -14.5q24 0 40.5 12.5t16.5 31.5q0 23 -21 34.5t-67 23.5q-48 13 -79.5 27t-54.5 43.5t-23 78.5q0 74 51 116t139 42q73 0 122 -36.5t52 -124.5h-123q-4 25 -19 39t-41 14q-24 0 -38 -11t-14 -29q0 -22 21 -33.5
t67 -23.5q49 -13 80.5 -27t54.5 -43.5t23 -79.5q0 -77 -55.5 -119t-137.5 -42q-80 0 -132.5 39zM199 680h136l-63 -128h-114z" />
    <glyph glyph-name="scaron" unicode="&#x161;" horiz-adv-x="425" 
d="M77.5 31q-52.5 39 -55.5 126h128q3 -29 20 -43.5t46 -14.5q24 0 40.5 12.5t16.5 31.5q0 23 -21 34.5t-67 23.5q-48 13 -79.5 27t-54.5 43.5t-23 78.5q0 74 51 116t139 42q73 0 122 -36.5t52 -124.5h-123q-4 25 -19 39t-41 14q-24 0 -38 -11t-14 -29q0 -22 21 -33.5
t67 -23.5q49 -13 80.5 -27t54.5 -43.5t23 -79.5q0 -77 -55.5 -119t-137.5 -42q-80 0 -132.5 39zM98 680h75l44 -60l45 60h74l-55 -128h-128z" />
    <glyph glyph-name="scedilla" unicode="&#x15f;" horiz-adv-x="425" 
d="M77.5 31q-52.5 39 -55.5 126h128q3 -29 20 -43.5t46 -14.5q24 0 40.5 12.5t16.5 31.5q0 23 -21 34.5t-67 23.5q-48 13 -79.5 27t-54.5 43.5t-23 78.5q0 74 51 116t139 42q73 0 122 -36.5t52 -124.5h-123q-4 25 -19 39t-41 14q-24 0 -38 -11t-14 -29q0 -22 21 -33.5
t67 -23.5q49 -13 80.5 -27t54.5 -43.5t23 -79.5q0 -77 -55.5 -119t-137.5 -42q-80 0 -132.5 39zM140 -175v64q22 -2 27 -2q24 0 24 17q0 13 -13 32t-38 36h98q28 -22 44 -47t16 -48q0 -26 -22 -43.5t-73 -17.5q-31 0 -63 9z" />
    <glyph glyph-name="scircumflex" unicode="&#x15d;" horiz-adv-x="425" 
d="M77.5 31q-52.5 39 -55.5 126h128q3 -29 20 -43.5t46 -14.5q24 0 40.5 12.5t16.5 31.5q0 23 -21 34.5t-67 23.5q-48 13 -79.5 27t-54.5 43.5t-23 78.5q0 74 51 116t139 42q73 0 122 -36.5t52 -124.5h-123q-4 25 -19 39t-41 14q-24 0 -38 -11t-14 -29q0 -22 21 -33.5
t67 -23.5q49 -13 80.5 -27t54.5 -43.5t23 -79.5q0 -77 -55.5 -119t-137.5 -42q-80 0 -132.5 39zM153 680h128l55 -128h-74l-45 60l-44 -60h-75z" />
    <glyph glyph-name="uni0219" unicode="&#x219;" horiz-adv-x="425" 
d="M77.5 31q-52.5 39 -55.5 126h128q3 -29 20 -43.5t46 -14.5q24 0 40.5 12.5t16.5 31.5q0 23 -21 34.5t-67 23.5q-48 13 -79.5 27t-54.5 43.5t-23 78.5q0 74 51 116t139 42q73 0 122 -36.5t52 -124.5h-123q-4 25 -19 39t-41 14q-24 0 -38 -11t-14 -29q0 -22 21 -33.5
t67 -23.5q49 -13 80.5 -27t54.5 -43.5t23 -79.5q0 -77 -55.5 -119t-137.5 -42q-80 0 -132.5 39zM147 -28h136l-63 -130h-114z" />
    <glyph glyph-name="germandbls" unicode="&#xdf;" horiz-adv-x="466" 
d="M53 483q0 102 52.5 153.5t137.5 51.5q91 0 138.5 -52.5t47.5 -131.5q0 -52 -20 -89.5t-50 -61.5q34 -23 56 -62.5t22 -90.5q0 -54 -26 -100t-73.5 -73t-108.5 -27h-11v119h9q35 0 59.5 25t24.5 59q0 35 -24 60.5t-60 25.5h-9v115h9q34 0 55 25.5t21 65.5q0 35 -15.5 55
t-42.5 20q-30 0 -46.5 -22t-16.5 -59v-489h-129v483z" />
    <glyph glyph-name="longs" unicode="&#x17f;" horiz-adv-x="293" 
d="M77 387h-69v113h69v31q0 83 43 116t137 33h56v-107h-53q-28 0 -41 -12.5t-13 -38.5v-522h-129v387z" />
    <glyph glyph-name="t" unicode="t" horiz-adv-x="293" 
d="M103 34.5q-33 34.5 -33 111.5v241h-62v113h62v119h129v-119h76v-113h-76v-222q0 -27 9.5 -39t35.5 -12h32v-114h-63q-77 0 -110 34.5z" />
    <glyph glyph-name="tbar" unicode="&#x167;" horiz-adv-x="289" 
d="M102.5 37.5q-32.5 37.5 -32.5 123.5v48h-62v104h62v80h-62v107h62v119h126v-119h75v-107h-75v-80h75v-104h-75v-44q0 -27 9.5 -39t35.5 -12h31v-114h-56q-81 0 -113.5 37.5z" />
    <glyph glyph-name="tcaron" unicode="&#x165;" horiz-adv-x="293" 
d="M103 34.5q-33 34.5 -33 111.5v241h-62v113h62v119h129v-119h76v-113h-76v-222q0 -27 9.5 -39t35.5 -12h32v-114h-63q-77 0 -110 34.5zM220 680h135l-33 -142h-102v142z" />
    <glyph glyph-name="uni0163" unicode="&#x163;" horiz-adv-x="293" 
d="M103 34.5q-33 34.5 -33 111.5v241h-62v113h62v119h129v-119h76v-113h-76v-222q0 -27 9.5 -39t35.5 -12h32v-114h-63q-77 0 -110 34.5zM125 -28h136l-63 -130h-114z" />
    <glyph glyph-name="uni021B" unicode="&#x21b;" horiz-adv-x="293" 
d="M103 34.5q-33 34.5 -33 111.5v241h-62v113h62v119h129v-119h76v-113h-76v-222q0 -27 9.5 -39t35.5 -12h32v-114h-63q-77 0 -110 34.5zM125 -28h136l-63 -130h-114z" />
    <glyph glyph-name="u" unicode="u" horiz-adv-x="479" 
d="M92.5 41q-39.5 49 -39.5 127v332h129v-329q0 -30 15 -47t41 -17q25 0 41.5 17.5t16.5 43.5v332h130v-500h-126v39q-15 -21 -40 -34t-57 -13q-71 0 -110.5 49z" />
    <glyph glyph-name="uacute" unicode="&#xfa;" horiz-adv-x="479" 
d="M92.5 41q-39.5 49 -39.5 127v332h129v-329q0 -30 15 -47t41 -17q25 0 41.5 17.5t16.5 43.5v332h130v-500h-126v39q-15 -21 -40 -34t-57 -13q-71 0 -110.5 49zM222 680h136l-63 -128h-114z" />
    <glyph glyph-name="ubreve" unicode="&#x16d;" horiz-adv-x="479" 
d="M92.5 41q-39.5 49 -39.5 127v332h129v-329q0 -30 15 -47t41 -17q25 0 41.5 17.5t16.5 43.5v332h130v-500h-126v39q-15 -21 -40 -34t-57 -13q-71 0 -110.5 49zM151 584.5q-30 33.5 -30 95.5h71q0 -55 48 -55q22 0 35.5 13.5t13.5 41.5h70q0 -63 -30 -96t-89 -33t-89 33.5z
" />
    <glyph glyph-name="ucircumflex" unicode="&#xfb;" horiz-adv-x="479" 
d="M92.5 41q-39.5 49 -39.5 127v332h129v-329q0 -30 15 -47t41 -17q25 0 41.5 17.5t16.5 43.5v332h130v-500h-126v39q-15 -21 -40 -34t-57 -13q-71 0 -110.5 49zM176 680h128l55 -128h-74l-45 60l-44 -60h-75z" />
    <glyph glyph-name="udieresis" unicode="&#xfc;" horiz-adv-x="479" 
d="M92.5 41q-39.5 49 -39.5 127v332h129v-329q0 -30 15 -47t41 -17q25 0 41.5 17.5t16.5 43.5v332h130v-500h-126v39q-15 -21 -40 -34t-57 -13q-71 0 -110.5 49zM127 574q-18 18 -18 43t18 43t43 18t43 -18t18 -43t-18 -43t-43 -18t-43 18zM266 574q-18 18 -18 43t18 43
t43 18t43.5 -18t18.5 -43t-18.5 -43t-43.5 -18t-43 18z" />
    <glyph glyph-name="ugrave" unicode="&#xf9;" horiz-adv-x="479" 
d="M92.5 41q-39.5 49 -39.5 127v332h129v-329q0 -30 15 -47t41 -17q25 0 41.5 17.5t16.5 43.5v332h130v-500h-126v39q-15 -21 -40 -34t-57 -13q-71 0 -110.5 49zM120 680h137l41 -128h-115z" />
    <glyph glyph-name="uhungarumlaut" unicode="&#x171;" horiz-adv-x="479" 
d="M92.5 41q-39.5 49 -39.5 127v332h129v-329q0 -30 15 -47t41 -17q25 0 41.5 17.5t16.5 43.5v332h130v-500h-126v39q-15 -21 -40 -34t-57 -13q-71 0 -110.5 49zM177 680h98l-59 -128h-80zM303 680h98l-59 -128h-80z" />
    <glyph glyph-name="umacron" unicode="&#x16b;" horiz-adv-x="479" 
d="M92.5 41q-39.5 49 -39.5 127v332h129v-329q0 -30 15 -47t41 -17q25 0 41.5 17.5t16.5 43.5v332h130v-500h-126v39q-15 -21 -40 -34t-57 -13q-71 0 -110.5 49zM121 657h238v-84h-238v84z" />
    <glyph glyph-name="uogonek" unicode="&#x173;" horiz-adv-x="479" 
d="M92.5 41q-39.5 49 -39.5 127v332h129v-329q0 -30 15 -47t41 -17q25 0 41.5 17.5t16.5 43.5v332h130v-500h-126v39q-15 -21 -40 -34t-57 -13q-71 0 -110.5 49zM290 -156.5q-22 17.5 -22 43.5q0 23 16 48t44 47h98q-26 -17 -38.5 -36t-12.5 -32q0 -17 24 -17q3 0 27 2v-64
q-36 -9 -63 -9q-51 0 -73 17.5z" />
    <glyph glyph-name="uring" unicode="&#x16f;" horiz-adv-x="479" 
d="M92.5 41q-39.5 49 -39.5 127v332h129v-329q0 -30 15 -47t41 -17q25 0 41.5 17.5t16.5 43.5v332h130v-500h-126v39q-15 -21 -40 -34t-57 -13q-71 0 -110.5 49zM178.5 573q-24.5 25 -24.5 60q0 36 24.5 61t60.5 25t61 -25t25 -61q0 -35 -25 -60t-61 -25t-60.5 25z
M262.5 609.5q9.5 9.5 9.5 23.5q0 13 -9.5 22.5t-23.5 9.5t-23 -9t-9 -23t9 -23.5t23 -9.5t23.5 9.5z" />
    <glyph glyph-name="utilde" unicode="&#x169;" horiz-adv-x="479" 
d="M92.5 41q-39.5 49 -39.5 127v332h129v-329q0 -30 15 -47t41 -17q25 0 41.5 17.5t16.5 43.5v332h130v-500h-126v39q-15 -21 -40 -34t-57 -13q-71 0 -110.5 49zM121 603q12 27 33 46t45 19q12 0 28 -6t30 -12q24 -11 32 -11q14 0 35 31l35 -42q-13 -28 -33.5 -47.5
t-44.5 -19.5q-19 0 -55 17q-26 12 -35 12q-18 0 -35 -29z" />
    <glyph glyph-name="v" unicode="v" horiz-adv-x="416" 
d="M9 500h134l63 -308h3l71 308h127l-142 -500h-125z" />
    <glyph glyph-name="w" unicode="w" horiz-adv-x="643" 
d="M13 500h134l57 -288h1l73 288h93l62 -285h1l65 285h128l-131 -500h-107l-70 294h-1l-76 -294h-107z" />
    <glyph glyph-name="wacute" unicode="&#x1e83;" horiz-adv-x="643" 
d="M13 500h134l57 -288h1l73 288h93l62 -285h1l65 285h128l-131 -500h-107l-70 294h-1l-76 -294h-107zM304 680h136l-63 -128h-114z" />
    <glyph glyph-name="wcircumflex" unicode="&#x175;" horiz-adv-x="643" 
d="M13 500h134l57 -288h1l73 288h93l62 -285h1l65 285h128l-131 -500h-107l-70 294h-1l-76 -294h-107zM258 680h128l55 -128h-74l-45 60l-44 -60h-75z" />
    <glyph glyph-name="wdieresis" unicode="&#x1e85;" horiz-adv-x="643" 
d="M13 500h134l57 -288h1l73 288h93l62 -285h1l65 285h128l-131 -500h-107l-70 294h-1l-76 -294h-107zM209 574q-18 18 -18 43t18 43t43 18t43 -18t18 -43t-18 -43t-43 -18t-43 18zM348 574q-18 18 -18 43t18 43t43 18t43.5 -18t18.5 -43t-18.5 -43t-43.5 -18t-43 18z" />
    <glyph glyph-name="wgrave" unicode="&#x1e81;" horiz-adv-x="643" 
d="M13 500h134l57 -288h1l73 288h93l62 -285h1l65 285h128l-131 -500h-107l-70 294h-1l-76 -294h-107zM202 680h137l41 -128h-115z" />
    <glyph glyph-name="x" unicode="x" horiz-adv-x="422" 
d="M140 253l-140 247h140l73 -146l70 146h132l-138 -248l147 -252h-141l-79 146l-72 -146h-134z" />
    <glyph glyph-name="y" unicode="y" horiz-adv-x="433" 
d="M32 -66h39q29 0 43 12.5t23 39.5l9 30l-137 484h133l72 -310h2l79 310h129l-145 -483q-23 -76 -44 -117t-59 -62.5t-104 -21.5h-40v118z" />
    <glyph glyph-name="yacute" unicode="&#xfd;" horiz-adv-x="433" 
d="M32 -66h39q29 0 43 12.5t23 39.5l9 30l-137 484h133l72 -310h2l79 310h129l-145 -483q-23 -76 -44 -117t-59 -62.5t-104 -21.5h-40v118zM199 680h136l-63 -128h-114z" />
    <glyph glyph-name="ycircumflex" unicode="&#x177;" horiz-adv-x="433" 
d="M32 -66h39q29 0 43 12.5t23 39.5l9 30l-137 484h133l72 -310h2l79 310h129l-145 -483q-23 -76 -44 -117t-59 -62.5t-104 -21.5h-40v118zM153 680h128l55 -128h-74l-45 60l-44 -60h-75z" />
    <glyph glyph-name="ydieresis" unicode="&#xff;" horiz-adv-x="433" 
d="M32 -66h39q29 0 43 12.5t23 39.5l9 30l-137 484h133l72 -310h2l79 310h129l-145 -483q-23 -76 -44 -117t-59 -62.5t-104 -21.5h-40v118zM104 574q-18 18 -18 43t18 43t43 18t43 -18t18 -43t-18 -43t-43 -18t-43 18zM243 574q-18 18 -18 43t18 43t43 18t43.5 -18t18.5 -43
t-18.5 -43t-43.5 -18t-43 18z" />
    <glyph glyph-name="ygrave" unicode="&#x1ef3;" horiz-adv-x="433" 
d="M32 -66h39q29 0 43 12.5t23 39.5l9 30l-137 484h133l72 -310h2l79 310h129l-145 -483q-23 -76 -44 -117t-59 -62.5t-104 -21.5h-40v118zM97 680h137l41 -128h-115z" />
    <glyph glyph-name="z" unicode="z" horiz-adv-x="404" 
d="M23 105l195 282h-189v113h347v-101l-196 -285h200v-114h-357v105z" />
    <glyph glyph-name="zacute" unicode="&#x17a;" horiz-adv-x="404" 
d="M23 105l195 282h-189v113h347v-101l-196 -285h200v-114h-357v105zM184 680h136l-63 -128h-114z" />
    <glyph glyph-name="zcaron" unicode="&#x17e;" horiz-adv-x="404" 
d="M23 105l195 282h-189v113h347v-101l-196 -285h200v-114h-357v105zM83 680h75l44 -60l45 60h74l-55 -128h-128z" />
    <glyph glyph-name="zdotaccent" unicode="&#x17c;" horiz-adv-x="404" 
d="M23 105l195 282h-189v113h347v-101l-196 -285h200v-114h-357v105zM154 569q-20 20 -20 48t20 48t48 20t48 -20t20 -48t-20 -48t-48 -20t-48 20z" />
    <glyph glyph-name="kgreenlandic.case" horiz-adv-x="569" 
d="M59 680h134v-274h4l138 274h139l-173 -321l192 -359h-153l-143 287h-4v-287h-134v680zM485 680h114l-10 -128h-137z" />
    <glyph glyph-name="napostrophe.case" horiz-adv-x="518" 
d="M59 680h126l152 -409h2l-3 409h123v-680h-128l-150 411h-3l3 -411h-122v680zM94 834h136l-63 -128h-114z" />
    <glyph glyph-name="i.dot" horiz-adv-x="238" 
d="M54 500h130v-500h-130v500zM66 572q-22 22 -22 53q0 30 22 52t52 22q31 0 53 -22t22 -52q0 -31 -22 -53t-53 -22q-30 0 -52 22z" />
    <glyph glyph-name="a.ss01" horiz-adv-x="468" 
d="M70.5 27.5q-38.5 35.5 -38.5 114.5q0 78 41 118t122 40h96v46q0 23 -15.5 34.5t-42.5 11.5q-29 0 -45 -10.5t-16 -35.5h-128q0 86 48 124t142 38q88 0 134.5 -35.5t46.5 -118.5v-354h-123v41q-36 -49 -109 -49q-74 0 -112.5 35.5zM285 152v48h-66q-29 0 -43 -10.5
t-14 -40.5q0 -29 16 -39.5t46 -10.5q61 0 61 53z" />
    <glyph glyph-name="aacute.ss01" horiz-adv-x="468" 
d="M70.5 27.5q-38.5 35.5 -38.5 114.5q0 78 41 118t122 40h96v46q0 23 -15.5 34.5t-42.5 11.5q-29 0 -45 -10.5t-16 -35.5h-128q0 86 48 124t142 38q88 0 134.5 -35.5t46.5 -118.5v-354h-123v41q-36 -49 -109 -49q-74 0 -112.5 35.5zM285 152v48h-66q-29 0 -43 -10.5
t-14 -40.5q0 -29 16 -39.5t46 -10.5q61 0 61 53zM216 680h136l-63 -128h-114z" />
    <glyph glyph-name="abreve.ss01" horiz-adv-x="468" 
d="M70.5 27.5q-38.5 35.5 -38.5 114.5q0 78 41 118t122 40h96v46q0 23 -15.5 34.5t-42.5 11.5q-29 0 -45 -10.5t-16 -35.5h-128q0 86 48 124t142 38q88 0 134.5 -35.5t46.5 -118.5v-354h-123v41q-36 -49 -109 -49q-74 0 -112.5 35.5zM285 152v48h-66q-29 0 -43 -10.5
t-14 -40.5q0 -29 16 -39.5t46 -10.5q61 0 61 53zM145 584.5q-30 33.5 -30 95.5h71q0 -55 48 -55q22 0 35.5 13.5t13.5 41.5h70q0 -63 -30 -96t-89 -33t-89 33.5z" />
    <glyph glyph-name="acircumflex.ss01" horiz-adv-x="468" 
d="M70.5 27.5q-38.5 35.5 -38.5 114.5q0 78 41 118t122 40h96v46q0 23 -15.5 34.5t-42.5 11.5q-29 0 -45 -10.5t-16 -35.5h-128q0 86 48 124t142 38q88 0 134.5 -35.5t46.5 -118.5v-354h-123v41q-36 -49 -109 -49q-74 0 -112.5 35.5zM285 152v48h-66q-29 0 -43 -10.5
t-14 -40.5q0 -29 16 -39.5t46 -10.5q61 0 61 53zM170 680h128l55 -128h-74l-45 60l-44 -60h-75z" />
    <glyph glyph-name="adieresis.ss01" horiz-adv-x="468" 
d="M70.5 27.5q-38.5 35.5 -38.5 114.5q0 78 41 118t122 40h96v46q0 23 -15.5 34.5t-42.5 11.5q-29 0 -45 -10.5t-16 -35.5h-128q0 86 48 124t142 38q88 0 134.5 -35.5t46.5 -118.5v-354h-123v41q-36 -49 -109 -49q-74 0 -112.5 35.5zM285 152v48h-66q-29 0 -43 -10.5
t-14 -40.5q0 -29 16 -39.5t46 -10.5q61 0 61 53zM121 574q-18 18 -18 43t18 43t43 18t43 -18t18 -43t-18 -43t-43 -18t-43 18zM260 574q-18 18 -18 43t18 43t43 18t43.5 -18t18.5 -43t-18.5 -43t-43.5 -18t-43 18z" />
    <glyph glyph-name="agrave.ss01" horiz-adv-x="468" 
d="M70.5 27.5q-38.5 35.5 -38.5 114.5q0 78 41 118t122 40h96v46q0 23 -15.5 34.5t-42.5 11.5q-29 0 -45 -10.5t-16 -35.5h-128q0 86 48 124t142 38q88 0 134.5 -35.5t46.5 -118.5v-354h-123v41q-36 -49 -109 -49q-74 0 -112.5 35.5zM285 152v48h-66q-29 0 -43 -10.5
t-14 -40.5q0 -29 16 -39.5t46 -10.5q61 0 61 53zM114 680h137l41 -128h-115z" />
    <glyph glyph-name="amacron.ss01" horiz-adv-x="468" 
d="M70.5 27.5q-38.5 35.5 -38.5 114.5q0 78 41 118t122 40h96v46q0 23 -15.5 34.5t-42.5 11.5q-29 0 -45 -10.5t-16 -35.5h-128q0 86 48 124t142 38q88 0 134.5 -35.5t46.5 -118.5v-354h-123v41q-36 -49 -109 -49q-74 0 -112.5 35.5zM285 152v48h-66q-29 0 -43 -10.5
t-14 -40.5q0 -29 16 -39.5t46 -10.5q61 0 61 53zM115 657h238v-84h-238v84z" />
    <glyph glyph-name="aogonek.ss01" horiz-adv-x="468" 
d="M70.5 27.5q-38.5 35.5 -38.5 114.5q0 78 41 118t122 40h96v46q0 23 -15.5 34.5t-42.5 11.5q-29 0 -45 -10.5t-16 -35.5h-128q0 86 48 124t142 38q88 0 134.5 -35.5t46.5 -118.5v-354h-123v41q-36 -49 -109 -49q-74 0 -112.5 35.5zM285 152v48h-66q-29 0 -43 -10.5
t-14 -40.5q0 -29 16 -39.5t46 -10.5q61 0 61 53zM274 -166.5q-22 17.5 -22 43.5q0 23 16 48t44 47h98q-26 -17 -38.5 -36t-12.5 -32q0 -17 24 -17q3 0 27 2v-64q-36 -9 -63 -9q-51 0 -73 17.5z" />
    <glyph glyph-name="aring.ss01" horiz-adv-x="468" 
d="M70.5 27.5q-38.5 35.5 -38.5 114.5q0 78 41 118t122 40h96v46q0 23 -15.5 34.5t-42.5 11.5q-29 0 -45 -10.5t-16 -35.5h-128q0 86 48 124t142 38q88 0 134.5 -35.5t46.5 -118.5v-354h-123v41q-36 -49 -109 -49q-74 0 -112.5 35.5zM285 152v48h-66q-29 0 -43 -10.5
t-14 -40.5q0 -29 16 -39.5t46 -10.5q61 0 61 53zM172.5 573q-24.5 25 -24.5 60q0 36 24.5 61t60.5 25t61 -25t25 -61q0 -35 -25 -60t-61 -25t-60.5 25zM256.5 609.5q9.5 9.5 9.5 23.5q0 13 -9.5 22.5t-23.5 9.5t-23 -9t-9 -23t9 -23.5t23 -9.5t23.5 9.5z" />
    <glyph glyph-name="atilde.ss01" horiz-adv-x="468" 
d="M70.5 27.5q-38.5 35.5 -38.5 114.5q0 78 41 118t122 40h96v46q0 23 -15.5 34.5t-42.5 11.5q-29 0 -45 -10.5t-16 -35.5h-128q0 86 48 124t142 38q88 0 134.5 -35.5t46.5 -118.5v-354h-123v41q-36 -49 -109 -49q-74 0 -112.5 35.5zM285 152v48h-66q-29 0 -43 -10.5
t-14 -40.5q0 -29 16 -39.5t46 -10.5q61 0 61 53zM115 603q12 27 33 46t45 19q12 0 28 -6t30 -12q24 -11 32 -11q14 0 35 31l35 -42q-13 -28 -33.5 -47.5t-44.5 -19.5q-19 0 -55 17q-26 12 -35 12q-18 0 -35 -29z" />
    <glyph glyph-name="t.ss01" horiz-adv-x="326" 
d="M114 35q-37 35 -37 111v241h-69v113h69v119h129v-119h102v-113h-102v-222q0 -26 12 -38.5t38 -12.5h53v-114h-80q-78 0 -115 35z" />
    <glyph glyph-name="tbar.ss01" horiz-adv-x="326" 
d="M114 35q-37 35 -37 111v63h-69v104h69v80h-69v107h69v119h129v-119h102v-107h-102v-80h102v-104h-102v-44q0 -26 12 -38.5t38 -12.5h53v-114h-80q-78 0 -115 35z" />
    <glyph glyph-name="tcaron.ss01" horiz-adv-x="326" 
d="M114 35q-37 35 -37 111v241h-69v113h69v119h129v-119h102v-113h-102v-222q0 -26 12 -38.5t38 -12.5h53v-114h-80q-78 0 -115 35zM236 680h135l-33 -142h-102v142z" />
    <glyph glyph-name="uni0163.ss01" horiz-adv-x="326" 
d="M114 35q-37 35 -37 111v241h-69v113h69v119h129v-119h102v-113h-102v-222q0 -26 12 -38.5t38 -12.5h53v-114h-80q-78 0 -115 35zM161 -28h136l-63 -130h-114z" />
    <glyph glyph-name="uni021B.ss01" horiz-adv-x="326" 
d="M114 35q-37 35 -37 111v241h-69v113h69v119h129v-119h102v-113h-102v-222q0 -26 12 -38.5t38 -12.5h53v-114h-80q-78 0 -115 35zM161 -28h136l-63 -130h-114z" />
    <glyph glyph-name="ordfeminine" unicode="&#xaa;" horiz-adv-x="340" 
d="M66.5 371.5q-30.5 33.5 -30.5 94.5v91q0 54 31.5 91t83.5 37q24 0 39 -6.5t27 -16.5v18h88v-335h-86v24q-31 -31 -69 -31q-53 0 -83.5 33.5zM200 434q12 12 12 32v92q0 21 -12 33t-30 12t-30 -12t-12 -34v-90q0 -20 12.5 -32.5t30.5 -12.5q17 0 29 12zM36 299h268v-75
h-268v75z" />
    <glyph glyph-name="ordmasculine" unicode="&#xba;" horiz-adv-x="340" 
d="M73.5 374q-37.5 36 -37.5 94v87q0 59 37.5 94.5t96.5 35.5q60 0 97 -35.5t37 -94.5v-87q0 -58 -37 -94t-97 -36q-59 0 -96.5 36zM199.5 432.5q12.5 12.5 12.5 29.5v98q0 19 -12.5 31.5t-29.5 12.5q-18 0 -30 -12.5t-12 -31.5v-98q0 -17 12 -29.5t30 -12.5q17 0 29.5 12.5
zM36 299h268v-75h-268v75z" />
    <glyph glyph-name="uni0394" unicode="&#x394;" horiz-adv-x="436" 
d="M154 680h135l143 -680h-428zM272 121l-52 334h-2l-59 -334h113z" />
    <glyph glyph-name="uni0394" unicode="&#x3b4;" horiz-adv-x="436" 
d="M154 680h135l143 -680h-428zM272 121l-52 334h-2l-59 -334h113z" />
    <glyph glyph-name="uni03A9" unicode="&#x3a9;" horiz-adv-x="498" 
d="M43 103h68v4q0 14 -17 51q-22 50 -34.5 94t-12.5 102v143q0 56 27.5 99.5t73.5 67.5t101 24t101 -24t73 -67.5t27 -99.5v-143q0 -58 -12.5 -102t-34.5 -94q-17 -37 -17 -51v-4h69v-103h-180v52q0 48 5.5 81.5t15.5 77.5q10 38 14.5 67.5t4.5 67.5v146q0 32 -18 54t-48 22
q-31 0 -49 -21.5t-18 -54.5v-146q0 -38 4.5 -67.5t14.5 -67.5q10 -44 15.5 -77.5t5.5 -81.5v-52h-179v103z" />
    <glyph glyph-name="uni03A9" unicode="&#x3c9;" horiz-adv-x="498" 
d="M43 103h68v4q0 14 -17 51q-22 50 -34.5 94t-12.5 102v143q0 56 27.5 99.5t73.5 67.5t101 24t101 -24t73 -67.5t27 -99.5v-143q0 -58 -12.5 -102t-34.5 -94q-17 -37 -17 -51v-4h69v-103h-180v52q0 48 5.5 81.5t15.5 77.5q10 38 14.5 67.5t4.5 67.5v146q0 32 -18 54t-48 22
q-31 0 -49 -21.5t-18 -54.5v-146q0 -38 4.5 -67.5t14.5 -67.5q10 -44 15.5 -77.5t5.5 -81.5v-52h-179v103z" />
    <glyph glyph-name="pi" unicode="&#x3c0;" horiz-adv-x="508" 
d="M58 387h-50v113h486v-113h-65v-222q0 -26 12 -38.5t39 -12.5h16v-114h-44q-78 0 -115 35t-37 111v241h-113v-387h-129v387z" />
    <glyph glyph-name="zero" unicode="0" horiz-adv-x="464" 
d="M134.5 15.5q-43.5 23.5 -68 66t-24.5 97.5v322q0 55 24.5 97.5t68 66t97.5 23.5t97 -23.5t68 -66t25 -97.5v-322q0 -54 -25 -97t-68 -66.5t-97 -23.5t-97.5 23.5zM276 127q18 18 18 45v336q0 27 -18 45t-44 18t-44 -17.5t-18 -45.5v-336q0 -27 18 -45t44 -18t44 18z" />
    <glyph glyph-name="one" unicode="1" horiz-adv-x="300" 
d="M116 470h-93v89l129 121h93v-680h-129v470z" />
    <glyph glyph-name="two" unicode="2" horiz-adv-x="417" 
d="M21 88l210 328q38 59 38 88q0 28 -17 46t-46 18q-30 0 -46 -19t-16 -51v-33h-127v30q0 54 24.5 98t69 69.5t102.5 25.5q52 0 94.5 -22.5t66.5 -62.5t24 -90q0 -39 -15.5 -77.5t-43.5 -79.5l-155 -236h212v-120h-375v88z" />
    <glyph glyph-name="three" unicode="3" horiz-adv-x="433" 
d="M401 581l-117 -132q51 -16 82.5 -60.5t31.5 -103.5v-80q0 -100 -49.5 -156.5t-142.5 -56.5q-84 0 -135 51t-51 136v36h127v-42q0 -28 17.5 -45.5t43.5 -17.5t44.5 18t18.5 45v112q0 25 -18 42.5t-43 17.5q-21 0 -51 -20l-64 76l144 161h-214v118h376v-99z" />
    <glyph glyph-name="four" unicode="4" horiz-adv-x="430" 
d="M234 112h-216v81l168 487h130l-160 -458h78l7 111h118v-111h54v-110h-54v-112h-125v112z" />
    <glyph glyph-name="five" unicode="5" horiz-adv-x="444" 
d="M85.5 43q-50.5 51 -50.5 136v36h127v-43q0 -27 17.5 -45t42.5 -18q26 0 44.5 18t18.5 45v73q0 27 -18 45t-44 18h-179v372h357v-120h-231v-132h72q79 0 125 -49t46 -131v-67q0 -57 -25 -100t-69 -66t-99 -23q-84 0 -134.5 51z" />
    <glyph glyph-name="six" unicode="6" horiz-adv-x="453" 
d="M133 17q-43 24 -67.5 66t-24.5 95v321q0 53 24.5 96t67.5 67.5t96 24.5q55 0 97.5 -25t66 -69t23.5 -99v-21h-124v28q0 28 -17.5 47.5t-44.5 19.5q-26 0 -44 -18t-18 -46v-87q15 9 37.5 14.5t44.5 5.5q77 0 123 -52t46 -134v-73q0 -53 -25 -95t-68.5 -66t-96.5 -24
t-96 24zM273.5 129q17.5 18 17.5 44v80q0 28 -17 47.5t-44 19.5q-28 0 -45 -19.5t-17 -47.5v-74q0 -29 17.5 -48.5t44.5 -19.5q26 0 43.5 18z" />
    <glyph glyph-name="seven" unicode="7" horiz-adv-x="407" 
d="M250 557h-235v123h370v-100l-181 -580h-149z" />
    <glyph glyph-name="eight" unicode="8" horiz-adv-x="465" 
d="M135.5 15q-43.5 23 -68.5 65.5t-25 96.5v70q0 37 16 71t42 59q-25 24 -40.5 58t-15.5 70q0 53 24.5 94.5t67.5 65t96 23.5t96 -23.5t67.5 -65t24.5 -94.5q0 -36 -15.5 -70t-40.5 -58q26 -25 41.5 -59t15.5 -71v-70q0 -54 -24.5 -96.5t-68 -65.5t-96.5 -23t-96.5 23z
M276 455.5q18 19.5 18 46.5t-17.5 46.5t-44.5 19.5t-44.5 -19.5t-17.5 -46.5t18 -46.5t44 -19.5t44 19.5zM276.5 129q18.5 18 18.5 44v78q0 29 -17.5 48.5t-45.5 19.5q-29 0 -46 -19.5t-17 -48.5v-72q0 -28 17.5 -48t45.5 -20q26 0 44.5 18z" />
    <glyph glyph-name="nine" unicode="9" horiz-adv-x="453" 
d="M125.5 17.5q-42.5 25.5 -65.5 70t-23 99.5v25h124v-35q0 -27 17.5 -46.5t44.5 -19.5q26 0 44 18t18 45v95q-39 -16 -77 -16q-53 0 -92.5 24t-60.5 66t-21 94v65q0 53 25 95.5t68.5 66.5t96.5 24t96 -24t67.5 -66.5t24.5 -95.5v-323q0 -53 -24.5 -95.5t-67.5 -67
t-97 -24.5q-55 0 -97.5 25.5zM267 386q18 18 18 44v70q0 30 -17 49.5t-45 19.5q-26 0 -43.5 -18t-17.5 -44v-71q0 -29 16.5 -48.5t44.5 -19.5q26 0 44 18z" />
    <glyph glyph-name="zero.osf" horiz-adv-x="458" 
d="M98.5 41.5q-52.5 49.5 -52.5 133.5v149q0 85 52.5 134.5t137.5 49.5q86 0 138 -49.5t52 -134.5v-149q0 -85 -52 -134t-138 -49q-85 0 -137.5 49.5zM279.5 125q17.5 18 17.5 45v160q0 27 -17.5 45t-43.5 18t-43.5 -18t-17.5 -45v-160q0 -27 17.5 -45t43.5 -18t43.5 18z
" />
    <glyph glyph-name="one.osf" horiz-adv-x="294" 
d="M111 340h-93v76l132 86h90v-502h-129v340z" />
    <glyph glyph-name="two.osf" horiz-adv-x="445" 
d="M33 96l78 62q65 52 95 78.5t47.5 51t17.5 47.5q0 25 -15 38t-40 13q-26 0 -41.5 -16t-15.5 -38v-13h-128v11q0 51 25 91.5t69 63.5t99 23q76 0 127.5 -42t51.5 -115q0 -94 -87 -162l-92 -71h183v-118h-374v96z" />
    <glyph glyph-name="three.osf" horiz-adv-x="447" 
d="M75.5 -134.5q-53.5 49.5 -53.5 131.5v10h128v-16q0 -29 19 -44.5t48 -15.5q32 0 52 25.5t20 64.5v22q0 33 -22.5 54t-55.5 21h-61v114h61q31 0 51 22t20 59q0 38 -17 59.5t-47 21.5q-29 0 -46.5 -20.5t-17.5 -51.5v-2h-126v2q0 51 23 93.5t66 67t99 24.5q88 0 140 -51.5
t52 -133.5q0 -93 -77 -142q84 -46 84 -153v-8q0 -55 -25 -101.5t-70.5 -74t-106.5 -27.5q-84 0 -137.5 49.5z" />
    <glyph glyph-name="four.osf" 
d="M244 0h-214v81l135 427h132l-131 -397h78v129h126v-129h55v-111h-55v-184h-126v184z" />
    <glyph glyph-name="five.osf" horiz-adv-x="452" 
d="M90.5 -138.5q-50.5 51.5 -50.5 136.5v26h126v-33q0 -28 17.5 -45.5t42.5 -17.5q27 0 45.5 18t18.5 45v74q0 27 -18.5 45t-43.5 18h-179v372h357v-120h-232v-131h72q80 0 125.5 -49t45.5 -132v-69q0 -57 -25 -100t-69 -66t-99 -23q-83 0 -133.5 51.5z" />
    <glyph glyph-name="six.osf" 
d="M134 17q-43 24 -67.5 66t-24.5 95v321q0 53 24.5 96t67.5 67.5t96 24.5q55 0 97.5 -25t66 -69t23.5 -99v-21h-124v28q0 28 -17.5 47.5t-44.5 19.5q-26 0 -44 -18t-18 -46v-87q15 9 37.5 14.5t44.5 5.5q77 0 123 -52t46 -134v-73q0 -53 -25 -95t-68.5 -66t-96.5 -24
t-96 24zM274.5 129q17.5 18 17.5 44v80q0 28 -17 47.5t-44 19.5q-28 0 -45 -19.5t-17 -47.5v-74q0 -29 17.5 -48.5t44.5 -19.5q26 0 43.5 18z" />
    <glyph glyph-name="seven.osf" horiz-adv-x="437" 
d="M264 377h-235v123h370v-99l-184 -585h-149z" />
    <glyph glyph-name="eight.osf" 
d="M133.5 15q-43.5 23 -68.5 65.5t-25 96.5v70q0 37 16 71t42 59q-25 24 -40.5 58t-15.5 70q0 53 24.5 94.5t67.5 65t96 23.5t96 -23.5t67.5 -65t24.5 -94.5q0 -36 -15.5 -70t-40.5 -58q26 -25 41.5 -59t15.5 -71v-70q0 -54 -24.5 -96.5t-68 -65.5t-96.5 -23t-96.5 23z
M274 455.5q18 19.5 18 46.5t-17.5 46.5t-44.5 19.5t-44.5 -19.5t-17.5 -46.5t18 -46.5t44 -19.5t44 19.5zM274.5 129q18.5 18 18.5 44v78q0 29 -17.5 48.5t-45.5 19.5q-29 0 -46 -19.5t-17 -48.5v-72q0 -28 17.5 -48t45.5 -20q26 0 44.5 18z" />
    <glyph glyph-name="nine.osf" 
d="M129.5 -163.5q-42.5 25.5 -66 70t-23.5 99.5v16h124v-26q0 -27 18 -47t44 -20t44 18.5t18 45.5v96q-36 -16 -77 -16q-53 0 -92 24.5t-60 66.5t-21 94v64q0 53 25 95.5t68 66.5t96 24t96.5 -24t68 -66.5t24.5 -95.5v-324q0 -53 -24.5 -95.5t-67.5 -67t-97 -24.5
q-55 0 -97.5 25.5zM270.5 206q17.5 18 17.5 44v70q0 30 -17 49.5t-44 19.5q-26 0 -44 -18t-18 -44v-71q0 -29 17 -48.5t45 -19.5q26 0 43.5 18z" />
    <glyph glyph-name="zero.tf" 
d="M132.5 15.5q-43.5 23.5 -68 66t-24.5 97.5v322q0 55 24.5 97.5t68 66t97.5 23.5t97 -23.5t68 -66t25 -97.5v-322q0 -54 -25 -97t-68 -66.5t-97 -23.5t-97.5 23.5zM274 127q18 18 18 45v336q0 27 -18 45t-44 18t-44 -17.5t-18 -45.5v-336q0 -27 18 -45t44 -18t44 18z" />
    <glyph glyph-name="one.tf" 
d="M190 470h-93v89l129 121h93v-680h-129v470z" />
    <glyph glyph-name="two.tf" 
d="M45 88l210 328q38 59 38 88q0 28 -17 46t-46 18q-30 0 -46 -19t-16 -51v-33h-127v30q0 54 24.5 98t69 69.5t102.5 25.5q52 0 94.5 -22.5t66.5 -62.5t24 -90q0 -39 -15.5 -77.5t-43.5 -79.5l-155 -236h212v-120h-375v88z" />
    <glyph glyph-name="three.tf" 
d="M415 581l-117 -132q51 -16 82.5 -60.5t31.5 -103.5v-80q0 -100 -49.5 -156.5t-142.5 -56.5q-84 0 -135 51t-51 136v36h127v-42q0 -28 17.5 -45.5t43.5 -17.5t44.5 18t18.5 45v112q0 25 -18 42.5t-43 17.5q-21 0 -51 -20l-64 76l144 161h-214v118h376v-99z" />
    <glyph glyph-name="four.tf" 
d="M246 112h-216v81l168 487h130l-160 -458h78l7 111h118v-111h54v-110h-54v-112h-125v112z" />
    <glyph glyph-name="five.tf" 
d="M88.5 43q-50.5 51 -50.5 136v36h127v-43q0 -27 17.5 -45t42.5 -18q26 0 44.5 18t18.5 45v73q0 27 -18 45t-44 18h-179v372h357v-120h-231v-132h72q79 0 125 -49t46 -131v-67q0 -57 -25 -100t-69 -66t-99 -23q-84 0 -134.5 51z" />
    <glyph glyph-name="six.tf" 
d="M131 17q-43 24 -67.5 66t-24.5 95v321q0 53 24.5 96t67.5 67.5t96 24.5q55 0 97.5 -25t66 -69t23.5 -99v-21h-124v28q0 28 -17.5 47.5t-44.5 19.5q-26 0 -44 -18t-18 -46v-87q15 9 37.5 14.5t44.5 5.5q77 0 123 -52t46 -134v-73q0 -53 -25 -95t-68.5 -66t-96.5 -24
t-96 24zM271.5 129q17.5 18 17.5 44v80q0 28 -17 47.5t-44 19.5q-28 0 -45 -19.5t-17 -47.5v-74q0 -29 17.5 -48.5t44.5 -19.5q26 0 43.5 18z" />
    <glyph glyph-name="seven.tf" 
d="M274 557h-235v123h370v-100l-181 -580h-149z" />
    <glyph glyph-name="eight.tf" 
d="M133.5 15q-43.5 23 -68.5 65.5t-25 96.5v70q0 37 16 71t42 59q-25 24 -40.5 58t-15.5 70q0 53 24.5 94.5t67.5 65t96 23.5t96 -23.5t67.5 -65t24.5 -94.5q0 -36 -15.5 -70t-40.5 -58q26 -25 41.5 -59t15.5 -71v-70q0 -54 -24.5 -96.5t-68 -65.5t-96.5 -23t-96.5 23z
M274 455.5q18 19.5 18 46.5t-17.5 46.5t-44.5 19.5t-44.5 -19.5t-17.5 -46.5t18 -46.5t44 -19.5t44 19.5zM274.5 129q18.5 18 18.5 44v78q0 29 -17.5 48.5t-45.5 19.5q-29 0 -46 -19.5t-17 -48.5v-72q0 -28 17.5 -48t45.5 -20q26 0 44.5 18z" />
    <glyph glyph-name="nine.tf" 
d="M129.5 17.5q-42.5 25.5 -65.5 70t-23 99.5v25h124v-35q0 -27 17.5 -46.5t44.5 -19.5q26 0 44 18t18 45v95q-39 -16 -77 -16q-53 0 -92.5 24t-60.5 66t-21 94v65q0 53 25 95.5t68.5 66.5t96.5 24t96 -24t67.5 -66.5t24.5 -95.5v-323q0 -53 -24.5 -95.5t-67.5 -67
t-97 -24.5q-55 0 -97.5 25.5zM271 386q18 18 18 44v70q0 30 -17 49.5t-45 19.5q-26 0 -43.5 -18t-17.5 -44v-71q0 -29 16.5 -48.5t44.5 -19.5q26 0 44 18z" />
    <glyph glyph-name="zero.tosf" 
d="M92.5 41.5q-52.5 49.5 -52.5 133.5v149q0 85 52.5 134.5t137.5 49.5q86 0 138 -49.5t52 -134.5v-149q0 -85 -52 -134t-138 -49q-85 0 -137.5 49.5zM273.5 125q17.5 18 17.5 45v160q0 27 -17.5 45t-43.5 18t-43.5 -18t-17.5 -45v-160q0 -27 17.5 -45t43.5 -18t43.5 18z
" />
    <glyph glyph-name="one.tosf" 
d="M190 340h-93v76l132 86h90v-502h-129v340z" />
    <glyph glyph-name="two.tosf" 
d="M40 96l78 62q65 52 95 78.5t47.5 51t17.5 47.5q0 25 -15 38t-40 13q-26 0 -41.5 -16t-15.5 -38v-13h-128v11q0 51 25 91.5t69 63.5t99 23q76 0 127.5 -42t51.5 -115q0 -94 -87 -162l-92 -71h183v-118h-374v96z" />
    <glyph glyph-name="three.tosf" 
d="M89.5 -134.5q-53.5 49.5 -53.5 131.5v10h128v-16q0 -29 19 -44.5t48 -15.5q32 0 52 25.5t20 64.5v22q0 33 -22.5 54t-55.5 21h-61v114h61q31 0 51 22t20 59q0 38 -17 59.5t-47 21.5q-29 0 -46.5 -20.5t-17.5 -51.5v-2h-126v2q0 51 23 93.5t66 67t99 24.5q88 0 140 -51.5
t52 -133.5q0 -93 -77 -142q84 -46 84 -153v-8q0 -55 -25 -101.5t-70.5 -74t-106.5 -27.5q-84 0 -137.5 49.5z" />
    <glyph glyph-name="four.tosf" 
d="M244 0h-214v81l135 427h132l-131 -397h78v129h126v-129h55v-111h-55v-184h-126v184z" />
    <glyph glyph-name="five.tosf" 
d="M90.5 -138.5q-50.5 51.5 -50.5 136.5v26h126v-33q0 -28 17.5 -45.5t42.5 -17.5q27 0 45.5 18t18.5 45v74q0 27 -18.5 45t-43.5 18h-179v372h357v-120h-232v-131h72q80 0 125.5 -49t45.5 -132v-69q0 -57 -25 -100t-69 -66t-99 -23q-83 0 -133.5 51.5z" />
    <glyph glyph-name="six.tosf" 
d="M131 17q-43 24 -67.5 66t-24.5 95v321q0 53 24.5 96t67.5 67.5t96 24.5q55 0 97.5 -25t66 -69t23.5 -99v-21h-124v28q0 28 -17.5 47.5t-44.5 19.5q-26 0 -44 -18t-18 -46v-87q15 9 37.5 14.5t44.5 5.5q77 0 123 -52t46 -134v-73q0 -53 -25 -95t-68.5 -66t-96.5 -24
t-96 24zM271.5 129q17.5 18 17.5 44v80q0 28 -17 47.5t-44 19.5q-28 0 -45 -19.5t-17 -47.5v-74q0 -29 17.5 -48.5t44.5 -19.5q26 0 43.5 18z" />
    <glyph glyph-name="seven.tosf" 
d="M274 377h-235v123h370v-99l-184 -585h-149z" />
    <glyph glyph-name="eight.tosf" 
d="M133.5 15q-43.5 23 -68.5 65.5t-25 96.5v70q0 37 16 71t42 59q-25 24 -40.5 58t-15.5 70q0 53 24.5 94.5t67.5 65t96 23.5t96 -23.5t67.5 -65t24.5 -94.5q0 -36 -15.5 -70t-40.5 -58q26 -25 41.5 -59t15.5 -71v-70q0 -54 -24.5 -96.5t-68 -65.5t-96.5 -23t-96.5 23z
M274 455.5q18 19.5 18 46.5t-17.5 46.5t-44.5 19.5t-44.5 -19.5t-17.5 -46.5t18 -46.5t44 -19.5t44 19.5zM274.5 129q18.5 18 18.5 44v78q0 29 -17.5 48.5t-45.5 19.5q-29 0 -46 -19.5t-17 -48.5v-72q0 -28 17.5 -48t45.5 -20q26 0 44.5 18z" />
    <glyph glyph-name="nine.tosf" 
d="M130.5 -163.5q-42.5 25.5 -66 70t-23.5 99.5v16h124v-26q0 -27 18 -47t44 -20t44 18.5t18 45.5v96q-36 -16 -77 -16q-53 0 -92 24.5t-60 66.5t-21 94v64q0 53 25 95.5t68 66.5t96 24t96.5 -24t68 -66.5t24.5 -95.5v-324q0 -53 -24.5 -95.5t-67.5 -67t-97 -24.5
q-55 0 -97.5 25.5zM271.5 206q17.5 18 17.5 44v70q0 30 -17 49.5t-44 19.5q-26 0 -44 -18t-18 -44v-71q0 -29 17 -48.5t45 -19.5q26 0 43.5 18z" />
    <glyph glyph-name="zero.up" horiz-adv-x="384" 
d="M94.5 204q-42.5 40 -42.5 103v236q0 64 42 103.5t109 39.5t109 -39.5t42 -103.5v-236q0 -64 -42 -103.5t-109 -39.5q-66 0 -108.5 40zM238 270.5q14 11.5 14 27.5v248q0 19 -13 32t-36 13q-20 0 -34.5 -11.5t-14.5 -28.5v-247q0 -19 13.5 -32t35.5 -13q21 0 35 11.5z
M57 100h292v-100h-292v100z" />
    <glyph glyph-name="one.up" horiz-adv-x="253" 
d="M107 526h-71v73l99 81h76v-510h-104v356zM50 100h218v-100h-218v100z" />
    <glyph glyph-name="two.up" horiz-adv-x="365" 
d="M49 245l165 232q32 44 32 67q0 21 -14 34t-37 13t-37 -13.5t-14 -35.5v-35h-101v35q0 64 43.5 104t110.5 40q64 0 107.5 -37.5t43.5 -96.5q0 -32 -13.5 -65t-35.5 -61l-124 -156h172v-100h-298v75zM48 100h298v-100h-298v100z" />
    <glyph glyph-name="three.up" horiz-adv-x="376" 
d="M327 458q24 -35 24 -86v-62q0 -65 -43 -105.5t-110 -40.5t-109 40.5t-42 105.5v32h102v-41q0 -18 15 -30t34 -12q21 0 35.5 11.5t14.5 30.5v88q0 14 -12.5 25t-30.5 11q-17 0 -42 -18l-54 68l109 105h-163v100h291v-83l-90 -92q47 -12 71 -47zM52 100h294v-100h-294v100z
" />
    <glyph glyph-name="four.up" horiz-adv-x="368" 
d="M208 249h-168v85l125 346h104l-124 -339h63v88h100v-88h42v-92h-42v-79h-100v79zM43 100h304v-100h-304v100z" />
    <glyph glyph-name="five.up" horiz-adv-x="377" 
d="M93 204q-41 40 -41 107v33h102v-44q0 -19 14 -30t34 -11q21 0 35.5 11t14.5 30v57q0 19 -15 31t-36 12h-143v280h285v-101h-186v-82h59q62 0 100.5 -36.5t38.5 -94.5v-55q0 -66 -43 -106.5t-111 -40.5q-67 0 -108 40zM57 100h293v-100h-293v100z" />
    <glyph glyph-name="six.up" horiz-adv-x="380" 
d="M94.5 204q-42.5 40 -42.5 103v233q0 65 42.5 105.5t109.5 40.5q68 0 108 -38.5t40 -104.5v-10h-97v11q0 20 -15 33t-35 13q-21 0 -35.5 -12.5t-14.5 -33.5v-70q12 10 30 16t37 6q64 0 99 -39.5t35 -104.5v-45q0 -63 -43 -103t-110 -40q-66 0 -108.5 40zM239 272
q14 12 14 31v59q0 19 -14 31t-35 12t-35 -12t-14 -31v-59q0 -19 14 -31t35 -12t35 12zM57 100h294v-100h-294v100z" />
    <glyph glyph-name="seven.up" horiz-adv-x="350" 
d="M330 680v-80l-157 -430h-118l162 409h-177v101h290zM43 100h284v-100h-284v100z" />
    <glyph glyph-name="eight.up" horiz-adv-x="386" 
d="M94 204.5q-42 40.5 -42 106.5v29q0 28 12.5 57.5t37.5 50.5q-22 18 -34.5 43t-12.5 53q0 65 40.5 103.5t108.5 38.5q67 0 109 -38t42 -101q0 -29 -12.5 -55t-35.5 -45q24 -19 37 -48t13 -59v-33q0 -64 -42.5 -103.5t-109.5 -39.5q-69 0 -111 40.5zM240 506q14 14 14 33
q0 23 -13 37.5t-37 14.5q-21 0 -35 -14t-14 -35t13 -35.5t36 -14.5q22 0 36 14zM240.5 272.5q14.5 13.5 14.5 32.5v51q0 19 -14.5 32.5t-35.5 13.5q-22 0 -36.5 -13t-14.5 -33v-51q0 -19 14.5 -32.5t35.5 -13.5q22 0 36.5 13.5zM57 100h295v-100h-295v100z" />
    <glyph glyph-name="nine.up" horiz-adv-x="384" 
d="M97 205q-41 41 -41 107v9h98v-15q0 -20 14.5 -33t34.5 -13q21 0 35.5 12.5t14.5 33.5v75q-27 -22 -66 -22q-64 0 -99.5 39t-35.5 105v40q0 63 43 103t110 40q66 0 108.5 -40t42.5 -103v-232q0 -65 -42 -106t-109 -41t-108 41zM238.5 461.5q14.5 12.5 14.5 30.5v55
q0 19 -14 31t-35 12t-35 -12t-14 -31v-55q0 -18 14.5 -30.5t34.5 -12.5t34.5 12.5zM61 100h290v-100h-290v100z" />
    <glyph glyph-name="zero.up2" horiz-adv-x="362" 
d="M73.5 204q-42.5 40 -42.5 103v236q0 64 42 103.5t109 39.5q66 0 108 -39.5t42 -103.5v-236q0 -64 -42 -103.5t-108 -39.5t-108.5 40zM216.5 270.5q14.5 11.5 14.5 27.5v248q0 19 -13 32t-36 13q-20 0 -34.5 -11.5t-14.5 -28.5v-247q0 -19 13.5 -32t35.5 -13
q20 0 34.5 11.5zM-89 100h416v-100h-416v100z" />
    <glyph glyph-name="one.up2" horiz-adv-x="232" 
d="M86 526h-71v73l99 81h77v-510h-105v356zM-71 100h318v-100h-318v100z" />
    <glyph glyph-name="two.up2" horiz-adv-x="333" 
d="M17 245l166 232q31 46 31 67t-14 34t-37 13t-37 -13.5t-14 -35.5v-35h-101v35q0 64 44 104t111 40q64 0 107 -37.5t43 -96.5q0 -32 -13.5 -65t-35.5 -61l-123 -156h171v-100h-298v75zM-103 100h417v-100h-417v100z" />
    <glyph glyph-name="three.up2" horiz-adv-x="342" 
d="M293 458q24 -35 24 -86v-62q0 -65 -43 -105.5t-110 -40.5t-109 40.5t-42 105.5v32h101v-41q0 -18 15 -30t35 -12t35 11.5t15 30.5v88q0 14 -13 25t-31 11q-17 0 -41 -18l-55 68l110 105h-163v100h291v-83l-90 -92q47 -12 71 -47zM-102 100h414v-100h-414v100z" />
    <glyph glyph-name="four.up2" horiz-adv-x="342" 
d="M182 249h-168v85l125 346h104l-124 -339h63v88h100v-88h42v-92h-42v-79h-100v79zM-103 100h424v-100h-424v100z" />
    <glyph glyph-name="five.up2" horiz-adv-x="349" 
d="M66 204.5q-41 40.5 -41 106.5v33h101v-44q0 -19 14.5 -30t34.5 -11q21 0 35.5 11t14.5 30v57q0 19 -15 31t-36 12h-144v280h286v-101h-187v-82h60q62 0 100 -36.5t38 -94.5v-55q0 -66 -43 -106.5t-111 -40.5q-66 0 -107 40.5zM-90 100h412v-100h-412v100z" />
    <glyph glyph-name="six.up2" horiz-adv-x="356" 
d="M70.5 203.5q-42.5 39.5 -42.5 103.5v233q0 65 42.5 105.5t109.5 40.5q68 0 108 -38.5t40 -104.5v-10h-97v11q0 20 -15 33t-35 13q-21 0 -35.5 -12.5t-14.5 -33.5v-70q12 10 30 16t37 6q64 0 99 -39t35 -105v-45q0 -63 -43 -103t-109 -40q-67 0 -109.5 39.5zM215 272
q14 12 14 31v59q0 19 -14 31t-35 12t-35 -12t-14 -31v-59q0 -19 14 -31t35 -12t35 12zM-87 100h414v-100h-414v100z" />
    <glyph glyph-name="seven.up2" horiz-adv-x="320" 
d="M300 680v-80l-157 -430h-118l162 409h-177v101h290zM-107 100h404v-100h-404v100z" />
    <glyph glyph-name="eight.up2" horiz-adv-x="363" 
d="M71 204.5q-42 40.5 -42 106.5v29q0 28 12.5 57.5t37.5 50.5q-22 18 -34.5 43t-12.5 53q0 65 41 103.5t109 38.5q66 0 108 -38t42 -101q0 -29 -12.5 -55t-35.5 -45q24 -19 37 -48t13 -59v-33q0 -64 -42.5 -103.5t-109.5 -39.5q-69 0 -111 40.5zM217 506q14 14 14 33
q0 23 -13 37.5t-36 14.5q-22 0 -36 -14t-14 -35t13 -35.5t37 -14.5q21 0 35 14zM217.5 272.5q14.5 13.5 14.5 32.5v51q0 19 -14.5 32.5t-35.5 13.5q-22 0 -36.5 -13t-14.5 -33v-51q0 -19 14.5 -32.5t36.5 -13.5q21 0 35.5 13.5zM-91 100h420v-100h-420v100z" />
    <glyph glyph-name="nine.up2" horiz-adv-x="355" 
d="M68 205q-41 41 -41 107v9h98v-15q0 -20 14.5 -33t35.5 -13q20 0 34.5 12.5t14.5 33.5v75q-12 -10 -29 -16t-37 -6q-64 0 -99.5 39t-35.5 105v40q0 63 43 103t110 40q66 0 108.5 -40t42.5 -103v-232q0 -65 -42 -106t-109 -41t-108 41zM209.5 461.5q14.5 12.5 14.5 30.5v55
q0 19 -14 31t-35 12t-35 -12t-14 -31v-55q0 -18 14.5 -30.5t34.5 -12.5t34.5 12.5zM-93 100h415v-100h-415v100z" />
    <glyph glyph-name="uni2080" unicode="&#x2080;" horiz-adv-x="292" 
d="M58 -89.5q-35 29.5 -35 76.5v170q0 47 35 77t88 30q54 0 88.5 -29.5t34.5 -77.5v-170q0 -48 -34.5 -77t-88.5 -29q-53 0 -88 29.5zM166.5 -34.5q8.5 7.5 8.5 18.5v177q0 11 -8.5 18t-20.5 7t-20 -7t-8 -18v-177q0 -11 8 -18.5t20 -7.5t20.5 7.5z" />
    <glyph glyph-name="uni2081" unicode="&#x2081;" horiz-adv-x="292" 
d="M112 138h-55v60l84 61h66v-374h-95v253z" />
    <glyph glyph-name="uni2082" unicode="&#x2082;" horiz-adv-x="292" 
d="M23 -59l128 176q21 27 21 43q0 10 -7.5 17.5t-20.5 7.5t-21 -8.5t-8 -20.5v-19h-94v18q0 47 33.5 77.5t91.5 30.5q56 0 88.5 -27t32.5 -70q0 -24 -10 -44.5t-28 -45.5l-82 -112h119v-79h-243v56z" />
    <glyph glyph-name="uni2083" unicode="&#x2083;" horiz-adv-x="292" 
d="M51 -91.5q-32 27.5 -32 78.5v18h94v-21q0 -11 8 -18.5t19 -7.5q13 0 21 7.5t8 18.5v57q0 11 -8 18.5t-20 7.5q-19 0 -36 -10l-30 59l64 65h-118v78h243v-62l-63 -64q30 -13 46 -35t16 -59v-51q0 -50 -35.5 -78.5t-90.5 -28.5q-54 0 -86 27.5z" />
    <glyph glyph-name="uni2084" unicode="&#x2084;" horiz-adv-x="292" 
d="M272 18v-74h-33v-59h-92v59h-130v59l103 256h99l-106 -241h36v58h90v-58h33z" />
    <glyph glyph-name="uni2085" unicode="&#x2085;" horiz-adv-x="292" 
d="M55 -90.5q-32 28.5 -32 77.5v18h94v-21q0 -12 7.5 -19t18.5 -7q12 0 21 7.5t9 18.5v38q0 11 -8.5 18.5t-20.5 7.5h-115v211h231v-78h-138v-55h34q54 0 82 -21t28 -63v-63q0 -45 -35 -71.5t-88 -26.5q-56 0 -88 28.5z" />
    <glyph glyph-name="uni2086" unicode="&#x2086;" horiz-adv-x="292" 
d="M59 -89q-35 30 -35 75v171q0 46 35 76.5t87 30.5q54 0 88 -31t34 -80v-11h-93v16q0 11 -8 19.5t-20 8.5q-11 0 -19.5 -7.5t-8.5 -18.5v-39q8 4 20 6.5t21 2.5q54 0 81.5 -30t27.5 -76v-38q0 -45 -35.5 -75t-87.5 -30t-87 30zM166 -34q8 7 8 18v41q0 12 -7 20t-20 8
q-12 0 -20 -8.5t-8 -19.5v-38q0 -12 7.5 -20t19.5 -8t20 7z" />
    <glyph glyph-name="uni2087" unicode="&#x2087;" horiz-adv-x="292" 
d="M160 178h-138v81h240v-62l-111 -312h-107z" />
    <glyph glyph-name="uni2088" unicode="&#x2088;" horiz-adv-x="292" 
d="M59 -90q-35 29 -35 76v38q0 18 8 36t22 32q-29 33 -29 67q0 46 34.5 75.5t86.5 29.5q53 0 87.5 -29.5t34.5 -75.5q0 -35 -30 -67q14 -13 22.5 -31.5t8.5 -36.5v-38q0 -47 -35 -76t-88 -29q-52 0 -87 29zM167 137q8 8 8 21t-8 20.5t-21 7.5q-12 0 -20 -7.5t-8 -20.5t8 -21
t20 -8q13 0 21 8zM166.5 -33.5q8.5 7.5 8.5 17.5v42q0 12 -7.5 19.5t-21.5 7.5q-13 0 -20.5 -7.5t-7.5 -19.5v-39q0 -12 7.5 -20t20.5 -8q12 0 20.5 7.5z" />
    <glyph glyph-name="uni2089" unicode="&#x2089;" horiz-adv-x="292" 
d="M56.5 -88.5q-33.5 30.5 -33.5 79.5v13h93v-17q0 -11 8 -19.5t19 -8.5q12 0 20.5 7.5t8.5 18.5v43q-18 -10 -40 -10q-54 0 -82 30t-28 75v35q0 45 35 75.5t86 30.5q53 0 88 -30.5t35 -75.5v-171q0 -46 -35 -76t-88 -30t-86.5 30.5zM163.5 102q8.5 7 8.5 17v39q0 11 -8 19
t-21 8q-12 0 -19.5 -8t-7.5 -19v-36q0 -10 7.5 -18.5t19.5 -8.5t20.5 7z" />
    <glyph glyph-name="zero.dnom" horiz-adv-x="292" 
d="M58 25.5q-35 29.5 -35 76.5v170q0 47 35 77t88 30q54 0 88.5 -29.5t34.5 -77.5v-170q0 -48 -34.5 -77t-88.5 -29q-53 0 -88 29.5zM166.5 80.5q8.5 7.5 8.5 18.5v177q0 11 -8.5 18t-20.5 7t-20 -7t-8 -18v-177q0 -11 8 -18.5t20 -7.5t20.5 7.5z" />
    <glyph glyph-name="one.dnom" horiz-adv-x="292" 
d="M112 253h-55v60l84 61h66v-374h-95v253z" />
    <glyph glyph-name="two.dnom" horiz-adv-x="292" 
d="M23 56l128 176q21 27 21 43q0 10 -7.5 17.5t-20.5 7.5t-21 -8.5t-8 -20.5v-19h-94v18q0 47 33.5 77.5t91.5 30.5q56 0 88.5 -27t32.5 -70q0 -24 -10 -44.5t-28 -45.5l-82 -112h119v-79h-243v56z" />
    <glyph glyph-name="three.dnom" horiz-adv-x="292" 
d="M51 23.5q-32 27.5 -32 78.5v18h94v-21q0 -11 8 -18.5t19 -7.5q13 0 21 7.5t8 18.5v57q0 11 -8 18.5t-20 7.5q-19 0 -36 -10l-30 59l64 65h-118v78h243v-62l-63 -64q30 -13 46 -35t16 -59v-51q0 -50 -35.5 -78.5t-90.5 -28.5q-54 0 -86 27.5z" />
    <glyph glyph-name="four.dnom" horiz-adv-x="292" 
d="M272 133v-74h-33v-59h-92v59h-130v59l103 256h99l-106 -241h36v58h90v-58h33z" />
    <glyph glyph-name="five.dnom" horiz-adv-x="292" 
d="M55 24.5q-32 28.5 -32 77.5v18h94v-21q0 -12 7.5 -19t18.5 -7q12 0 21 7.5t9 18.5v38q0 11 -8.5 18.5t-20.5 7.5h-115v211h231v-78h-138v-55h34q54 0 82 -21t28 -63v-63q0 -45 -35 -71.5t-88 -26.5q-56 0 -88 28.5z" />
    <glyph glyph-name="six.dnom" horiz-adv-x="292" 
d="M59 26q-35 30 -35 75v171q0 46 35 76.5t87 30.5q54 0 88 -31t34 -80v-11h-93v16q0 11 -8 19.5t-20 8.5q-11 0 -19.5 -7.5t-8.5 -18.5v-39q8 4 20 6.5t21 2.5q54 0 81.5 -30t27.5 -76v-38q0 -45 -35.5 -75t-87.5 -30t-87 30zM166 81q8 7 8 18v41q0 12 -7 20t-20 8
q-12 0 -20 -8.5t-8 -19.5v-38q0 -12 7.5 -20t19.5 -8t20 7z" />
    <glyph glyph-name="seven.dnom" horiz-adv-x="292" 
d="M160 293h-138v81h240v-62l-111 -312h-107z" />
    <glyph glyph-name="eight.dnom" horiz-adv-x="292" 
d="M59 25q-35 29 -35 76v38q0 18 8 36t22 32q-29 33 -29 67q0 46 34.5 75.5t86.5 29.5q53 0 87.5 -29.5t34.5 -75.5q0 -35 -30 -67q14 -13 22.5 -31.5t8.5 -36.5v-38q0 -47 -35 -76t-88 -29q-52 0 -87 29zM167 252q8 8 8 21t-8 20.5t-21 7.5q-12 0 -20 -7.5t-8 -20.5t8 -21
t20 -8q13 0 21 8zM166.5 81.5q8.5 7.5 8.5 17.5v42q0 12 -7.5 19.5t-21.5 7.5q-13 0 -20.5 -7.5t-7.5 -19.5v-39q0 -12 7.5 -20t20.5 -8q12 0 20.5 7.5z" />
    <glyph glyph-name="nine.dnom" horiz-adv-x="292" 
d="M56.5 26.5q-33.5 30.5 -33.5 79.5v13h93v-17q0 -11 8 -19.5t19 -8.5q12 0 20.5 7.5t8.5 18.5v43q-18 -10 -40 -10q-54 0 -82 30t-28 75v35q0 45 35 75.5t86 30.5q53 0 88 -30.5t35 -75.5v-171q0 -46 -35 -76t-88 -30t-86.5 30.5zM163.5 217q8.5 7 8.5 17v39q0 11 -8 19
t-21 8q-12 0 -19.5 -8t-7.5 -19v-36q0 -10 7.5 -18.5t19.5 -8.5t20.5 7z" />
    <glyph glyph-name="zero.numr" horiz-adv-x="292" 
d="M58 331.5q-35 29.5 -35 76.5v170q0 47 35 77t88 30q54 0 88.5 -29.5t34.5 -77.5v-170q0 -48 -34.5 -77t-88.5 -29q-53 0 -88 29.5zM166.5 386.5q8.5 7.5 8.5 18.5v177q0 11 -8.5 18t-20.5 7t-20 -7t-8 -18v-177q0 -11 8 -18.5t20 -7.5t20.5 7.5z" />
    <glyph glyph-name="one.numr" horiz-adv-x="292" 
d="M112 559h-55v60l84 61h66v-374h-95v253z" />
    <glyph glyph-name="two.numr" horiz-adv-x="292" 
d="M23 362l128 176q21 27 21 43q0 10 -7.5 17.5t-20.5 7.5t-21 -8.5t-8 -20.5v-19h-94v18q0 47 33.5 77.5t91.5 30.5q56 0 88.5 -27t32.5 -70q0 -24 -10 -44.5t-28 -45.5l-82 -112h119v-79h-243v56z" />
    <glyph glyph-name="three.numr" horiz-adv-x="292" 
d="M51 329.5q-32 27.5 -32 78.5v18h94v-21q0 -11 8 -18.5t19 -7.5q13 0 21 7.5t8 18.5v57q0 11 -8 18.5t-20 7.5q-19 0 -36 -10l-30 59l64 65h-118v78h243v-62l-63 -64q30 -13 46 -35t16 -59v-51q0 -50 -35.5 -78.5t-90.5 -28.5q-54 0 -86 27.5z" />
    <glyph glyph-name="four.numr" horiz-adv-x="292" 
d="M272 439v-74h-33v-59h-92v59h-130v59l103 256h99l-106 -241h36v58h90v-58h33z" />
    <glyph glyph-name="five.numr" horiz-adv-x="292" 
d="M55 330.5q-32 28.5 -32 77.5v18h94v-21q0 -12 7.5 -19t18.5 -7q12 0 21 7.5t9 18.5v38q0 11 -8.5 18.5t-20.5 7.5h-115v211h231v-78h-138v-55h34q54 0 82 -21t28 -63v-63q0 -45 -35 -71.5t-88 -26.5q-56 0 -88 28.5z" />
    <glyph glyph-name="six.numr" horiz-adv-x="292" 
d="M59 332q-35 30 -35 75v171q0 46 35 76.5t87 30.5q54 0 88 -31t34 -80v-11h-93v16q0 11 -8 19.5t-20 8.5q-11 0 -19.5 -7.5t-8.5 -18.5v-39q8 4 20 6.5t21 2.5q54 0 81.5 -30t27.5 -76v-38q0 -45 -35.5 -75t-87.5 -30t-87 30zM166 387q8 7 8 18v41q0 12 -7 20t-20 8
q-12 0 -20 -8.5t-8 -19.5v-38q0 -12 7.5 -20t19.5 -8t20 7z" />
    <glyph glyph-name="seven.numr" horiz-adv-x="292" 
d="M160 599h-138v81h240v-62l-111 -312h-107z" />
    <glyph glyph-name="eight.numr" horiz-adv-x="292" 
d="M59 331q-35 29 -35 76v38q0 18 8 36t22 32q-29 33 -29 67q0 46 34.5 75.5t86.5 29.5q53 0 87.5 -29.5t34.5 -75.5q0 -35 -30 -67q14 -13 22.5 -31.5t8.5 -36.5v-38q0 -47 -35 -76t-88 -29q-52 0 -87 29zM167 558q8 8 8 21t-8 20.5t-21 7.5q-12 0 -20 -7.5t-8 -20.5t8 -21
t20 -8q13 0 21 8zM166.5 387.5q8.5 7.5 8.5 17.5v42q0 12 -7.5 19.5t-21.5 7.5q-13 0 -20.5 -7.5t-7.5 -19.5v-39q0 -12 7.5 -20t20.5 -8q12 0 20.5 7.5z" />
    <glyph glyph-name="nine.numr" horiz-adv-x="292" 
d="M56.5 332.5q-33.5 30.5 -33.5 79.5v13h93v-17q0 -11 8 -19.5t19 -8.5q12 0 20.5 7.5t8.5 18.5v43q-18 -10 -40 -10q-54 0 -82 30t-28 75v35q0 45 35 75.5t86 30.5q53 0 88 -30.5t35 -75.5v-171q0 -46 -35 -76t-88 -30t-86.5 30.5zM163.5 523q8.5 7 8.5 17v39q0 11 -8 19
t-21 8q-12 0 -19.5 -8t-7.5 -19v-36q0 -10 7.5 -18.5t19.5 -8.5t20.5 7z" />
    <glyph glyph-name="uni2070" unicode="&#x2070;" horiz-adv-x="292" 
d="M58 446.5q-35 29.5 -35 76.5v170q0 47 35 77t88 30q54 0 88.5 -29.5t34.5 -77.5v-170q0 -48 -34.5 -77t-88.5 -29q-53 0 -88 29.5zM166.5 501.5q8.5 7.5 8.5 18.5v177q0 11 -8.5 18t-20.5 7t-20 -7t-8 -18v-177q0 -11 8 -18.5t20 -7.5t20.5 7.5z" />
    <glyph glyph-name="uni00B9" unicode="&#xb9;" horiz-adv-x="292" 
d="M112 674h-55v60l84 61h66v-374h-95v253z" />
    <glyph glyph-name="uni00B2" unicode="&#xb2;" horiz-adv-x="292" 
d="M23 477l128 176q21 27 21 43q0 10 -7.5 17.5t-20.5 7.5t-21 -8.5t-8 -20.5v-19h-94v18q0 47 33.5 77.5t91.5 30.5q56 0 88.5 -27t32.5 -70q0 -24 -10 -44.5t-28 -45.5l-82 -112h119v-79h-243v56z" />
    <glyph glyph-name="uni00B3" unicode="&#xb3;" horiz-adv-x="292" 
d="M51 444.5q-32 27.5 -32 78.5v18h94v-21q0 -11 8 -18.5t19 -7.5q13 0 21 7.5t8 18.5v57q0 11 -8 18.5t-20 7.5q-19 0 -36 -10l-30 59l64 65h-118v78h243v-62l-63 -64q30 -13 46 -35t16 -59v-51q0 -50 -35.5 -78.5t-90.5 -28.5q-54 0 -86 27.5z" />
    <glyph glyph-name="uni2074" unicode="&#x2074;" horiz-adv-x="292" 
d="M272 554v-74h-33v-59h-92v59h-130v59l103 256h99l-106 -241h36v58h90v-58h33z" />
    <glyph glyph-name="uni2075" unicode="&#x2075;" horiz-adv-x="292" 
d="M55 445.5q-32 28.5 -32 77.5v18h94v-21q0 -12 7.5 -19t18.5 -7q12 0 21 7.5t9 18.5v38q0 11 -8.5 18.5t-20.5 7.5h-115v211h231v-78h-138v-55h34q54 0 82 -21t28 -63v-63q0 -45 -35 -71.5t-88 -26.5q-56 0 -88 28.5z" />
    <glyph glyph-name="uni2076" unicode="&#x2076;" horiz-adv-x="292" 
d="M59 447q-35 30 -35 75v171q0 46 35 76.5t87 30.5q54 0 88 -31t34 -80v-11h-93v16q0 11 -8 19.5t-20 8.5q-11 0 -19.5 -7.5t-8.5 -18.5v-39q8 4 20 6.5t21 2.5q54 0 81.5 -30t27.5 -76v-38q0 -45 -35.5 -75t-87.5 -30t-87 30zM166 502q8 7 8 18v41q0 12 -7 20t-20 8
q-12 0 -20 -8.5t-8 -19.5v-38q0 -12 7.5 -20t19.5 -8t20 7z" />
    <glyph glyph-name="uni2077" unicode="&#x2077;" horiz-adv-x="292" 
d="M160 714h-138v81h240v-62l-111 -312h-107z" />
    <glyph glyph-name="uni2078" unicode="&#x2078;" horiz-adv-x="292" 
d="M59 446q-35 29 -35 76v38q0 18 8 36t22 32q-29 33 -29 67q0 46 34.5 75.5t86.5 29.5q53 0 87.5 -29.5t34.5 -75.5q0 -35 -30 -67q14 -13 22.5 -31.5t8.5 -36.5v-38q0 -47 -35 -76t-88 -29q-52 0 -87 29zM167 673q8 8 8 21t-8 20.5t-21 7.5q-12 0 -20 -7.5t-8 -20.5t8 -21
t20 -8q13 0 21 8zM166.5 502.5q8.5 7.5 8.5 17.5v42q0 12 -7.5 19.5t-21.5 7.5q-13 0 -20.5 -7.5t-7.5 -19.5v-39q0 -12 7.5 -20t20.5 -8q12 0 20.5 7.5z" />
    <glyph glyph-name="uni2079" unicode="&#x2079;" horiz-adv-x="292" 
d="M56.5 447.5q-33.5 30.5 -33.5 79.5v13h93v-17q0 -11 8 -19.5t19 -8.5q12 0 20.5 7.5t8.5 18.5v43q-18 -10 -40 -10q-54 0 -82 30t-28 75v35q0 45 35 75.5t86 30.5q53 0 88 -30.5t35 -75.5v-171q0 -46 -35 -76t-88 -30t-86.5 30.5zM163.5 638q8.5 7 8.5 17v39q0 11 -8 19
t-21 8q-12 0 -19.5 -8t-7.5 -19v-36q0 -10 7.5 -18.5t19.5 -8.5t20.5 7z" />
    <glyph glyph-name="fraction" unicode="&#x2044;" horiz-adv-x="100" 
d="M180 684h95l-354 -690h-96z" />
    <glyph glyph-name="onehalf" unicode="&#xbd;" horiz-adv-x="684" 
d="M112 559h-55v60l84 61h66v-374h-95v253zM472 684h95l-354 -690h-96zM415 56l128 176q21 27 21 43q0 10 -7.5 17.5t-20.5 7.5t-21 -8.5t-8 -20.5v-19h-94v18q0 47 33.5 77.5t91.5 30.5q56 0 88.5 -27t32.5 -70q0 -24 -10 -44.5t-28 -45.5l-82 -112h119v-79h-243v56z" />
    <glyph glyph-name="uni2153" unicode="&#x2153;" horiz-adv-x="684" 
d="M112 559h-55v60l84 61h66v-374h-95v253zM472 684h95l-354 -690h-96zM443 23.5q-32 27.5 -32 78.5v18h94v-21q0 -11 8 -18.5t19 -7.5q13 0 21 7.5t8 18.5v57q0 11 -8 18.5t-20 7.5q-19 0 -36 -10l-30 59l64 65h-118v78h243v-62l-63 -64q30 -13 46 -35t16 -59v-51
q0 -50 -35.5 -78.5t-90.5 -28.5q-54 0 -86 27.5z" />
    <glyph glyph-name="uni2154" unicode="&#x2154;" horiz-adv-x="684" 
d="M23 362l128 176q21 27 21 43q0 10 -7.5 17.5t-20.5 7.5t-21 -8.5t-8 -20.5v-19h-94v18q0 47 33.5 77.5t91.5 30.5q56 0 88.5 -27t32.5 -70q0 -24 -10 -44.5t-28 -45.5l-82 -112h119v-79h-243v56zM472 684h95l-354 -690h-96zM443 23.5q-32 27.5 -32 78.5v18h94v-21
q0 -11 8 -18.5t19 -7.5q13 0 21 7.5t8 18.5v57q0 11 -8 18.5t-20 7.5q-19 0 -36 -10l-30 59l64 65h-118v78h243v-62l-63 -64q30 -13 46 -35t16 -59v-51q0 -50 -35.5 -78.5t-90.5 -28.5q-54 0 -86 27.5z" />
    <glyph glyph-name="onequarter" unicode="&#xbc;" horiz-adv-x="684" 
d="M112 559h-55v60l84 61h66v-374h-95v253zM472 684h95l-354 -690h-96zM664 133v-74h-33v-59h-92v59h-130v59l103 256h99l-106 -241h36v58h90v-58h33z" />
    <glyph glyph-name="threequarters" unicode="&#xbe;" horiz-adv-x="684" 
d="M51 329.5q-32 27.5 -32 78.5v18h94v-21q0 -11 8 -18.5t19 -7.5q13 0 21 7.5t8 18.5v57q0 11 -8 18.5t-20 7.5q-19 0 -36 -10l-30 59l64 65h-118v78h243v-62l-63 -64q30 -13 46 -35t16 -59v-51q0 -50 -35.5 -78.5t-90.5 -28.5q-54 0 -86 27.5zM472 684h95l-354 -690h-96z
M664 133v-74h-33v-59h-92v59h-130v59l103 256h99l-106 -241h36v58h90v-58h33z" />
    <glyph glyph-name="uni2155" unicode="&#x2155;" horiz-adv-x="684" 
d="M112 559h-55v60l84 61h66v-374h-95v253zM472 684h95l-354 -690h-96zM447 24.5q-32 28.5 -32 77.5v18h94v-21q0 -12 7.5 -19t18.5 -7q12 0 21 7.5t9 18.5v38q0 11 -8.5 18.5t-20.5 7.5h-115v211h231v-78h-138v-55h34q54 0 82 -21t28 -63v-63q0 -45 -35 -71.5t-88 -26.5
q-56 0 -88 28.5z" />
    <glyph glyph-name="uni2156" unicode="&#x2156;" horiz-adv-x="684" 
d="M23 362l128 176q21 27 21 43q0 10 -7.5 17.5t-20.5 7.5t-21 -8.5t-8 -20.5v-19h-94v18q0 47 33.5 77.5t91.5 30.5q56 0 88.5 -27t32.5 -70q0 -24 -10 -44.5t-28 -45.5l-82 -112h119v-79h-243v56zM472 684h95l-354 -690h-96zM447 24.5q-32 28.5 -32 77.5v18h94v-21
q0 -12 7.5 -19t18.5 -7q12 0 21 7.5t9 18.5v38q0 11 -8.5 18.5t-20.5 7.5h-115v211h231v-78h-138v-55h34q54 0 82 -21t28 -63v-63q0 -45 -35 -71.5t-88 -26.5q-56 0 -88 28.5z" />
    <glyph glyph-name="uni2157" unicode="&#x2157;" horiz-adv-x="684" 
d="M51 329.5q-32 27.5 -32 78.5v18h94v-21q0 -11 8 -18.5t19 -7.5q13 0 21 7.5t8 18.5v57q0 11 -8 18.5t-20 7.5q-19 0 -36 -10l-30 59l64 65h-118v78h243v-62l-63 -64q30 -13 46 -35t16 -59v-51q0 -50 -35.5 -78.5t-90.5 -28.5q-54 0 -86 27.5zM472 684h95l-354 -690h-96z
M447 24.5q-32 28.5 -32 77.5v18h94v-21q0 -12 7.5 -19t18.5 -7q12 0 21 7.5t9 18.5v38q0 11 -8.5 18.5t-20.5 7.5h-115v211h231v-78h-138v-55h34q54 0 82 -21t28 -63v-63q0 -45 -35 -71.5t-88 -26.5q-56 0 -88 28.5z" />
    <glyph glyph-name="uni2158" unicode="&#x2158;" horiz-adv-x="684" 
d="M272 439v-74h-33v-59h-92v59h-130v59l103 256h99l-106 -241h36v58h90v-58h33zM472 684h95l-354 -690h-96zM447 24.5q-32 28.5 -32 77.5v18h94v-21q0 -12 7.5 -19t18.5 -7q12 0 21 7.5t9 18.5v38q0 11 -8.5 18.5t-20.5 7.5h-115v211h231v-78h-138v-55h34q54 0 82 -21
t28 -63v-63q0 -45 -35 -71.5t-88 -26.5q-56 0 -88 28.5z" />
    <glyph glyph-name="uni2159" unicode="&#x2159;" horiz-adv-x="684" 
d="M112 559h-55v60l84 61h66v-374h-95v253zM472 684h95l-354 -690h-96zM451 26q-35 30 -35 75v171q0 46 35 76.5t87 30.5q54 0 88 -31t34 -80v-11h-93v16q0 11 -8 19.5t-20 8.5q-11 0 -19.5 -7.5t-8.5 -18.5v-39q8 4 20 6.5t21 2.5q54 0 81.5 -30t27.5 -76v-38
q0 -45 -35.5 -75t-87.5 -30t-87 30zM558 81q8 7 8 18v41q0 12 -7 20t-20 8q-12 0 -20 -8.5t-8 -19.5v-38q0 -12 7.5 -20t19.5 -8t20 7z" />
    <glyph glyph-name="uni215A" unicode="&#x215a;" horiz-adv-x="684" 
d="M55 330.5q-32 28.5 -32 77.5v18h94v-21q0 -12 7.5 -19t18.5 -7q12 0 21 7.5t9 18.5v38q0 11 -8.5 18.5t-20.5 7.5h-115v211h231v-78h-138v-55h34q54 0 82 -21t28 -63v-63q0 -45 -35 -71.5t-88 -26.5q-56 0 -88 28.5zM472 684h95l-354 -690h-96zM451 26q-35 30 -35 75v171
q0 46 35 76.5t87 30.5q54 0 88 -31t34 -80v-11h-93v16q0 11 -8 19.5t-20 8.5q-11 0 -19.5 -7.5t-8.5 -18.5v-39q8 4 20 6.5t21 2.5q54 0 81.5 -30t27.5 -76v-38q0 -45 -35.5 -75t-87.5 -30t-87 30zM558 81q8 7 8 18v41q0 12 -7 20t-20 8q-12 0 -20 -8.5t-8 -19.5v-38
q0 -12 7.5 -20t19.5 -8t20 7z" />
    <glyph glyph-name="uni2150" unicode="&#x2150;" horiz-adv-x="684" 
d="M112 559h-55v60l84 61h66v-374h-95v253zM472 684h95l-354 -690h-96zM552 293h-138v81h240v-62l-111 -312h-107z" />
    <glyph glyph-name="two_fraction_seven" horiz-adv-x="684" 
d="M23 362l128 176q21 27 21 43q0 10 -7.5 17.5t-20.5 7.5t-21 -8.5t-8 -20.5v-19h-94v18q0 47 33.5 77.5t91.5 30.5q56 0 88.5 -27t32.5 -70q0 -24 -10 -44.5t-28 -45.5l-82 -112h119v-79h-243v56zM472 684h95l-354 -690h-96zM552 293h-138v81h240v-62l-111 -312h-107z" />
    <glyph glyph-name="three_fraction_seven" horiz-adv-x="684" 
d="M51 329.5q-32 27.5 -32 78.5v18h94v-21q0 -11 8 -18.5t19 -7.5q13 0 21 7.5t8 18.5v57q0 11 -8 18.5t-20 7.5q-19 0 -36 -10l-30 59l64 65h-118v78h243v-62l-63 -64q30 -13 46 -35t16 -59v-51q0 -50 -35.5 -78.5t-90.5 -28.5q-54 0 -86 27.5zM472 684h95l-354 -690h-96z
M552 293h-138v81h240v-62l-111 -312h-107z" />
    <glyph glyph-name="four_fraction_seven" horiz-adv-x="684" 
d="M272 439v-74h-33v-59h-92v59h-130v59l103 256h99l-106 -241h36v58h90v-58h33zM472 684h95l-354 -690h-96zM552 293h-138v81h240v-62l-111 -312h-107z" />
    <glyph glyph-name="five_fraction_seven" horiz-adv-x="684" 
d="M55 330.5q-32 28.5 -32 77.5v18h94v-21q0 -12 7.5 -19t18.5 -7q12 0 21 7.5t9 18.5v38q0 11 -8.5 18.5t-20.5 7.5h-115v211h231v-78h-138v-55h34q54 0 82 -21t28 -63v-63q0 -45 -35 -71.5t-88 -26.5q-56 0 -88 28.5zM472 684h95l-354 -690h-96zM552 293h-138v81h240v-62
l-111 -312h-107z" />
    <glyph glyph-name="six_fraction_seven" horiz-adv-x="684" 
d="M59 332q-35 30 -35 75v171q0 46 35 76.5t87 30.5q54 0 88 -31t34 -80v-11h-93v16q0 11 -8 19.5t-20 8.5q-11 0 -19.5 -7.5t-8.5 -18.5v-39q8 4 20 6.5t21 2.5q54 0 81.5 -30t27.5 -76v-38q0 -45 -35.5 -75t-87.5 -30t-87 30zM166 387q8 7 8 18v41q0 12 -7 20t-20 8
q-12 0 -20 -8.5t-8 -19.5v-38q0 -12 7.5 -20t19.5 -8t20 7zM472 684h95l-354 -690h-96zM552 293h-138v81h240v-62l-111 -312h-107z" />
    <glyph glyph-name="oneeighth" unicode="&#x215b;" horiz-adv-x="684" 
d="M112 559h-55v60l84 61h66v-374h-95v253zM472 684h95l-354 -690h-96zM451 25q-35 29 -35 76v38q0 18 8 36t22 32q-29 33 -29 67q0 46 34.5 75.5t86.5 29.5q53 0 87.5 -29.5t34.5 -75.5q0 -35 -30 -67q14 -13 22.5 -31.5t8.5 -36.5v-38q0 -47 -35 -76t-88 -29q-52 0 -87 29
zM559 252q8 8 8 21t-8 20.5t-21 7.5q-12 0 -20 -7.5t-8 -20.5t8 -21t20 -8q13 0 21 8zM558.5 81.5q8.5 7.5 8.5 17.5v42q0 12 -7.5 19.5t-21.5 7.5q-13 0 -20.5 -7.5t-7.5 -19.5v-39q0 -12 7.5 -20t20.5 -8q12 0 20.5 7.5z" />
    <glyph glyph-name="threeeighths" unicode="&#x215c;" horiz-adv-x="684" 
d="M51 329.5q-32 27.5 -32 78.5v18h94v-21q0 -11 8 -18.5t19 -7.5q13 0 21 7.5t8 18.5v57q0 11 -8 18.5t-20 7.5q-19 0 -36 -10l-30 59l64 65h-118v78h243v-62l-63 -64q30 -13 46 -35t16 -59v-51q0 -50 -35.5 -78.5t-90.5 -28.5q-54 0 -86 27.5zM472 684h95l-354 -690h-96z
M451 25q-35 29 -35 76v38q0 18 8 36t22 32q-29 33 -29 67q0 46 34.5 75.5t86.5 29.5q53 0 87.5 -29.5t34.5 -75.5q0 -35 -30 -67q14 -13 22.5 -31.5t8.5 -36.5v-38q0 -47 -35 -76t-88 -29q-52 0 -87 29zM559 252q8 8 8 21t-8 20.5t-21 7.5q-12 0 -20 -7.5t-8 -20.5t8 -21
t20 -8q13 0 21 8zM558.5 81.5q8.5 7.5 8.5 17.5v42q0 12 -7.5 19.5t-21.5 7.5q-13 0 -20.5 -7.5t-7.5 -19.5v-39q0 -12 7.5 -20t20.5 -8q12 0 20.5 7.5z" />
    <glyph glyph-name="fiveeighths" unicode="&#x215d;" horiz-adv-x="684" 
d="M55 330.5q-32 28.5 -32 77.5v18h94v-21q0 -12 7.5 -19t18.5 -7q12 0 21 7.5t9 18.5v38q0 11 -8.5 18.5t-20.5 7.5h-115v211h231v-78h-138v-55h34q54 0 82 -21t28 -63v-63q0 -45 -35 -71.5t-88 -26.5q-56 0 -88 28.5zM472 684h95l-354 -690h-96zM451 25q-35 29 -35 76v38
q0 18 8 36t22 32q-29 33 -29 67q0 46 34.5 75.5t86.5 29.5q53 0 87.5 -29.5t34.5 -75.5q0 -35 -30 -67q14 -13 22.5 -31.5t8.5 -36.5v-38q0 -47 -35 -76t-88 -29q-52 0 -87 29zM559 252q8 8 8 21t-8 20.5t-21 7.5q-12 0 -20 -7.5t-8 -20.5t8 -21t20 -8q13 0 21 8z
M558.5 81.5q8.5 7.5 8.5 17.5v42q0 12 -7.5 19.5t-21.5 7.5q-13 0 -20.5 -7.5t-7.5 -19.5v-39q0 -12 7.5 -20t20.5 -8q12 0 20.5 7.5z" />
    <glyph glyph-name="seveneighths" unicode="&#x215e;" horiz-adv-x="684" 
d="M160 599h-138v81h240v-62l-111 -312h-107zM472 684h95l-354 -690h-96zM451 25q-35 29 -35 76v38q0 18 8 36t22 32q-29 33 -29 67q0 46 34.5 75.5t86.5 29.5q53 0 87.5 -29.5t34.5 -75.5q0 -35 -30 -67q14 -13 22.5 -31.5t8.5 -36.5v-38q0 -47 -35 -76t-88 -29
q-52 0 -87 29zM559 252q8 8 8 21t-8 20.5t-21 7.5q-12 0 -20 -7.5t-8 -20.5t8 -21t20 -8q13 0 21 8zM558.5 81.5q8.5 7.5 8.5 17.5v42q0 12 -7.5 19.5t-21.5 7.5q-13 0 -20.5 -7.5t-7.5 -19.5v-39q0 -12 7.5 -20t20.5 -8q12 0 20.5 7.5z" />
    <glyph glyph-name="uni2151" unicode="&#x2151;" horiz-adv-x="684" 
d="M112 559h-55v60l84 61h66v-374h-95v253zM472 684h95l-354 -690h-96zM448.5 26.5q-33.5 30.5 -33.5 79.5v13h93v-17q0 -11 8 -19.5t19 -8.5q12 0 20.5 7.5t8.5 18.5v43q-18 -10 -40 -10q-54 0 -82 30t-28 75v35q0 45 35 75.5t86 30.5q53 0 88 -30.5t35 -75.5v-171
q0 -46 -35 -76t-88 -30t-86.5 30.5zM555.5 217q8.5 7 8.5 17v39q0 11 -8 19t-21 8q-12 0 -19.5 -8t-7.5 -19v-36q0 -10 7.5 -18.5t19.5 -8.5t20.5 7z" />
    <glyph glyph-name="two_fraction_nine" horiz-adv-x="684" 
d="M23 362l128 176q21 27 21 43q0 10 -7.5 17.5t-20.5 7.5t-21 -8.5t-8 -20.5v-19h-94v18q0 47 33.5 77.5t91.5 30.5q56 0 88.5 -27t32.5 -70q0 -24 -10 -44.5t-28 -45.5l-82 -112h119v-79h-243v56zM472 684h95l-354 -690h-96zM448.5 26.5q-33.5 30.5 -33.5 79.5v13h93v-17
q0 -11 8 -19.5t19 -8.5q12 0 20.5 7.5t8.5 18.5v43q-18 -10 -40 -10q-54 0 -82 30t-28 75v35q0 45 35 75.5t86 30.5q53 0 88 -30.5t35 -75.5v-171q0 -46 -35 -76t-88 -30t-86.5 30.5zM555.5 217q8.5 7 8.5 17v39q0 11 -8 19t-21 8q-12 0 -19.5 -8t-7.5 -19v-36
q0 -10 7.5 -18.5t19.5 -8.5t20.5 7z" />
    <glyph glyph-name="four_fraction_nine" horiz-adv-x="684" 
d="M272 439v-74h-33v-59h-92v59h-130v59l103 256h99l-106 -241h36v58h90v-58h33zM472 684h95l-354 -690h-96zM448.5 26.5q-33.5 30.5 -33.5 79.5v13h93v-17q0 -11 8 -19.5t19 -8.5q12 0 20.5 7.5t8.5 18.5v43q-18 -10 -40 -10q-54 0 -82 30t-28 75v35q0 45 35 75.5t86 30.5
q53 0 88 -30.5t35 -75.5v-171q0 -46 -35 -76t-88 -30t-86.5 30.5zM555.5 217q8.5 7 8.5 17v39q0 11 -8 19t-21 8q-12 0 -19.5 -8t-7.5 -19v-36q0 -10 7.5 -18.5t19.5 -8.5t20.5 7z" />
    <glyph glyph-name="five_fraction_nine" horiz-adv-x="684" 
d="M55 330.5q-32 28.5 -32 77.5v18h94v-21q0 -12 7.5 -19t18.5 -7q12 0 21 7.5t9 18.5v38q0 11 -8.5 18.5t-20.5 7.5h-115v211h231v-78h-138v-55h34q54 0 82 -21t28 -63v-63q0 -45 -35 -71.5t-88 -26.5q-56 0 -88 28.5zM472 684h95l-354 -690h-96zM448.5 26.5
q-33.5 30.5 -33.5 79.5v13h93v-17q0 -11 8 -19.5t19 -8.5q12 0 20.5 7.5t8.5 18.5v43q-18 -10 -40 -10q-54 0 -82 30t-28 75v35q0 45 35 75.5t86 30.5q53 0 88 -30.5t35 -75.5v-171q0 -46 -35 -76t-88 -30t-86.5 30.5zM555.5 217q8.5 7 8.5 17v39q0 11 -8 19t-21 8
q-12 0 -19.5 -8t-7.5 -19v-36q0 -10 7.5 -18.5t19.5 -8.5t20.5 7z" />
    <glyph glyph-name="seven_fraction_nine" horiz-adv-x="684" 
d="M160 599h-138v81h240v-62l-111 -312h-107zM472 684h95l-354 -690h-96zM448.5 26.5q-33.5 30.5 -33.5 79.5v13h93v-17q0 -11 8 -19.5t19 -8.5q12 0 20.5 7.5t8.5 18.5v43q-18 -10 -40 -10q-54 0 -82 30t-28 75v35q0 45 35 75.5t86 30.5q53 0 88 -30.5t35 -75.5v-171
q0 -46 -35 -76t-88 -30t-86.5 30.5zM555.5 217q8.5 7 8.5 17v39q0 11 -8 19t-21 8q-12 0 -19.5 -8t-7.5 -19v-36q0 -10 7.5 -18.5t19.5 -8.5t20.5 7z" />
    <glyph glyph-name="eight_fraction_nine" horiz-adv-x="684" 
d="M59 331q-35 29 -35 76v38q0 18 8 36t22 32q-29 33 -29 67q0 46 34.5 75.5t86.5 29.5q53 0 87.5 -29.5t34.5 -75.5q0 -35 -30 -67q14 -13 22.5 -31.5t8.5 -36.5v-38q0 -47 -35 -76t-88 -29q-52 0 -87 29zM167 558q8 8 8 21t-8 20.5t-21 7.5q-12 0 -20 -7.5t-8 -20.5t8 -21
t20 -8q13 0 21 8zM166.5 387.5q8.5 7.5 8.5 17.5v42q0 12 -7.5 19.5t-21.5 7.5q-13 0 -20.5 -7.5t-7.5 -19.5v-39q0 -12 7.5 -20t20.5 -8q12 0 20.5 7.5zM472 684h95l-354 -690h-96zM448.5 26.5q-33.5 30.5 -33.5 79.5v13h93v-17q0 -11 8 -19.5t19 -8.5q12 0 20.5 7.5
t8.5 18.5v43q-18 -10 -40 -10q-54 0 -82 30t-28 75v35q0 45 35 75.5t86 30.5q53 0 88 -30.5t35 -75.5v-171q0 -46 -35 -76t-88 -30t-86.5 30.5zM555.5 217q8.5 7 8.5 17v39q0 11 -8 19t-21 8q-12 0 -19.5 -8t-7.5 -19v-36q0 -10 7.5 -18.5t19.5 -8.5t20.5 7z" />
    <glyph glyph-name="period" unicode="." horiz-adv-x="193" 
d="M40.5 15.5q-22.5 22.5 -22.5 54.5q0 33 22.5 56.5t54.5 23.5q33 0 56.5 -23.5t23.5 -56.5q0 -32 -23.5 -54.5t-56.5 -22.5q-32 0 -54.5 22.5z" />
    <glyph glyph-name="comma" unicode="," horiz-adv-x="193" 
d="M41 145h136l-66 -262h-103z" />
    <glyph glyph-name="colon" unicode=":" horiz-adv-x="193" 
d="M40.5 15.5q-22.5 22.5 -22.5 54.5q0 33 22.5 56.5t54.5 23.5q33 0 56.5 -23.5t23.5 -56.5q0 -32 -23.5 -54.5t-56.5 -22.5q-32 0 -54.5 22.5zM40.5 355.5q-22.5 22.5 -22.5 54.5q0 33 22.5 56.5t54.5 23.5q33 0 56.5 -23.5t23.5 -56.5q0 -32 -23.5 -54.5t-56.5 -22.5
q-32 0 -54.5 22.5z" />
    <glyph glyph-name="semicolon" unicode=";" horiz-adv-x="193" 
d="M40.5 355.5q-22.5 22.5 -22.5 54.5q0 33 22.5 56.5t54.5 23.5q33 0 56.5 -23.5t23.5 -56.5q0 -32 -23.5 -54.5t-56.5 -22.5q-32 0 -54.5 22.5zM41 145h136l-66 -262h-103z" />
    <glyph glyph-name="ellipsis" unicode="&#x2026;" horiz-adv-x="580" 
d="M40.5 15.5q-22.5 22.5 -22.5 54.5q0 33 22.5 56.5t54.5 23.5q33 0 56.5 -23.5t23.5 -56.5q0 -32 -23.5 -54.5t-56.5 -22.5q-32 0 -54.5 22.5zM233.5 15.5q-22.5 22.5 -22.5 54.5q0 33 22.5 56.5t54.5 23.5q33 0 56.5 -23.5t23.5 -56.5q0 -32 -23.5 -54.5t-56.5 -22.5
q-32 0 -54.5 22.5zM427.5 15.5q-22.5 22.5 -22.5 54.5q0 33 22.5 56.5t54.5 23.5q33 0 56.5 -23.5t23.5 -56.5q0 -32 -23.5 -54.5t-56.5 -22.5q-32 0 -54.5 22.5z" />
    <glyph glyph-name="exclam" unicode="!" horiz-adv-x="261" 
d="M58 680h145l-21 -475h-104zM74.5 15.5q-22.5 22.5 -22.5 54.5q0 33 22.5 56.5t54.5 23.5q34 0 57 -23.5t23 -56.5q0 -32 -23 -54.5t-57 -22.5q-32 0 -54.5 22.5z" />
    <glyph glyph-name="exclamdown" unicode="&#xa1;" horiz-adv-x="261" 
d="M186.5 486.5q22.5 -22.5 22.5 -54.5q0 -33 -22.5 -56.5t-54.5 -23.5q-34 0 -57 23.5t-23 56.5q0 32 23 54.5t57 22.5q32 0 54.5 -22.5zM203 -178h-145l21 475h104z" />
    <glyph glyph-name="question" unicode="?" horiz-adv-x="435" 
d="M154 223q0 53 19 92t55 86q27 35 40 58.5t13 50.5q0 26 -17 42.5t-45 16.5q-32 0 -48 -21.5t-16 -47.5v-29h-127v22q0 55 24 99.5t68.5 70t102.5 25.5q52 0 94 -22t66.5 -62t24.5 -93q0 -48 -20.5 -88t-57.5 -89q-29 -38 -43 -63.5t-14 -51.5v-14h-119v18zM157.5 15.5
q-22.5 22.5 -22.5 54.5q0 33 22.5 56.5t54.5 23.5q33 0 56.5 -23.5t23.5 -56.5q0 -32 -23.5 -54.5t-56.5 -22.5q-32 0 -54.5 22.5z" />
    <glyph glyph-name="questiondown" unicode="&#xbf;" horiz-adv-x="435" 
d="M277.5 488.5q22.5 -22.5 22.5 -54.5q0 -33 -22.5 -56.5t-54.5 -23.5q-33 0 -56.5 23.5t-23.5 56.5q0 32 23.5 54.5t56.5 22.5q32 0 54.5 -22.5zM281 281q0 -53 -19 -92t-55 -86q-27 -35 -40 -58.5t-13 -50.5q0 -26 17 -42.5t45 -16.5q32 0 48 21.5t16 47.5v29h127v-22
q0 -55 -24 -99.5t-68.5 -70t-102.5 -25.5q-52 0 -94 22t-66.5 62t-24.5 93q0 48 20.5 88t57.5 89q29 38 43 63.5t14 51.5v14h119v-18z" />
    <glyph glyph-name="periodcentered" unicode="&#xb7;" horiz-adv-x="193" 
d="M40.5 294.5q-22.5 22.5 -22.5 54.5q0 33 22.5 56.5t54.5 23.5q33 0 56.5 -23.5t23.5 -56.5q0 -32 -23.5 -54.5t-56.5 -22.5q-32 0 -54.5 22.5z" />
    <glyph glyph-name="bullet" unicode="&#x2022;" horiz-adv-x="354" 
d="M106.5 228q-32.5 19 -51.5 51.5t-19 70.5t19 70.5t51.5 51.5t70.5 19t70.5 -19t51.5 -51.5t19 -70.5t-19 -70.5t-51.5 -51.5t-70.5 -19t-70.5 19z" />
    <glyph glyph-name="asterisk" unicode="*" 
d="M93 334l69 121h-139v79h139l-69 120l68 40l70 -120l70 120l68 -40l-70 -120h140v-79h-140l70 -121l-68 -40l-70 121l-70 -121z" />
    <glyph glyph-name="numbersign" unicode="#" 
d="M110 193h-78v81h78v130h-78v81h78v195h81v-195h77v195h81v-195h77v-81h-77v-130h77v-81h-77v-193h-81v193h-77v-193h-81v193zM268 274v130h-77v-130h77z" />
    <glyph glyph-name="slash" unicode="/" horiz-adv-x="430" 
d="M332 684h98l-331 -690h-99z" />
    <glyph glyph-name="backslash" unicode="\" horiz-adv-x="430" 
d="M0 684h98l332 -690h-99z" />
    <glyph glyph-name="exclamdown.case" horiz-adv-x="261" 
d="M186.5 666.5q22.5 -22.5 22.5 -54.5q0 -33 -22.5 -56.5t-54.5 -23.5q-34 0 -57 23.5t-23 56.5q0 32 23 54.5t57 22.5q32 0 54.5 -22.5zM203 2h-145l21 475h104z" />
    <glyph glyph-name="questiondown.case" horiz-adv-x="435" 
d="M277.5 665.5q22.5 -22.5 22.5 -54.5q0 -33 -22.5 -56.5t-54.5 -23.5q-33 0 -56.5 23.5t-23.5 56.5q0 32 23.5 54.5t56.5 22.5q32 0 54.5 -22.5zM281 458q0 -53 -19 -92t-55 -86q-27 -35 -40 -58.5t-13 -50.5q0 -26 17 -42.5t45 -16.5q32 0 48 21.5t16 47.5v29h127v-22
q0 -55 -24 -99.5t-68.5 -70t-102.5 -25.5q-52 0 -94 22t-66.5 62t-24.5 93q0 48 20.5 88t57.5 89q29 38 43 63.5t14 51.5v14h119v-18z" />
    <glyph glyph-name="parenleft" unicode="(" horiz-adv-x="356" 
d="M128 -134q-51 50 -51 167v488q0 117 51 167t156 50h35v-97h-29q-53 0 -73 -24.5t-20 -86.5v-506q0 -62 20 -86.5t73 -24.5h29v-97h-35q-105 0 -156 50z" />
    <glyph glyph-name="parenright" unicode=")" horiz-adv-x="356" 
d="M37 -87h29q53 0 73 24.5t20 86.5v506q0 62 -20 86.5t-73 24.5h-29v97h35q105 0 156 -50t51 -167v-488q0 -117 -51 -167t-156 -50h-35v97z" />
    <glyph glyph-name="braceleft" unicode="{" horiz-adv-x="356" 
d="M157 -148q-38 35 -38 113v171q0 39 -5.5 59t-18 27.5t-34.5 7.5h-14v108h14q22 0 34.5 7.5t18 27.5t5.5 59v158q0 78 38 113t119 35h43v-97h-35q-23 0 -34 -12t-11 -43v-159q0 -55 -16 -87t-50 -56q34 -24 50 -56t16 -87v-166q0 -33 10 -47t34 -14h36v-97h-43
q-81 0 -119 35z" />
    <glyph glyph-name="braceright" unicode="}" horiz-adv-x="356" 
d="M37 -86h36q25 0 34.5 14t9.5 47v166q0 55 16 87t50 56q-34 24 -50 56t-16 87v159q0 31 -11 43t-34 12h-35v97h43q81 0 119 -35t38 -113v-158q0 -39 5.5 -59t18 -27.5t34.5 -7.5h14v-108h-14q-22 0 -34.5 -7.5t-18 -27.5t-5.5 -59v-171q0 -78 -38 -113t-119 -35h-43v97z
" />
    <glyph glyph-name="bracketleft" unicode="[" horiz-adv-x="356" 
d="M77 738h242v-97h-122v-728h122v-97h-242v922z" />
    <glyph glyph-name="bracketright" unicode="]" horiz-adv-x="356" 
d="M37 -87h122v728h-122v97h242v-922h-242v97z" />
    <glyph glyph-name="parenleft.case" horiz-adv-x="356" 
d="M128 -74q-51 50 -51 167v488q0 117 51 167t156 50h35v-97h-29q-53 0 -73 -24.5t-20 -86.5v-506q0 -62 20 -86.5t73 -24.5h29v-97h-35q-105 0 -156 50z" />
    <glyph glyph-name="parenright.case" horiz-adv-x="356" 
d="M37 -27h29q53 0 73 24.5t20 86.5v506q0 62 -20 86.5t-73 24.5h-29v97h35q105 0 156 -50t51 -167v-488q0 -117 -51 -167t-156 -50h-35v97z" />
    <glyph glyph-name="braceleft.case" horiz-adv-x="356" 
d="M157 -88q-38 35 -38 113v171q0 39 -5.5 59t-18 27.5t-34.5 7.5h-14v108h14q22 0 34.5 7.5t18 27.5t5.5 59v158q0 78 38 113t119 35h43v-97h-35q-23 0 -34 -12t-11 -43v-159q0 -55 -16 -87t-50 -56q34 -24 50 -56t16 -87v-166q0 -33 10 -47t34 -14h36v-97h-43
q-81 0 -119 35z" />
    <glyph glyph-name="braceright.case" horiz-adv-x="356" 
d="M37 -26h36q25 0 34.5 14t9.5 47v166q0 55 16 87t50 56q-34 24 -50 56t-16 87v159q0 31 -11 43t-34 12h-35v97h43q81 0 119 -35t38 -113v-158q0 -39 5.5 -59t18 -27.5t34.5 -7.5h14v-108h-14q-22 0 -34.5 -7.5t-18 -27.5t-5.5 -59v-171q0 -78 -38 -113t-119 -35h-43v97z
" />
    <glyph glyph-name="bracketleft.case" horiz-adv-x="356" 
d="M77 798h242v-97h-122v-728h122v-97h-242v922z" />
    <glyph glyph-name="bracketright.case" horiz-adv-x="356" 
d="M37 -27h122v728h-122v97h242v-922h-242v97z" />
    <glyph glyph-name="hyphen" unicode="-" horiz-adv-x="336" 
d="M39 317h258v-104h-258v104z" />
    <glyph glyph-name="uni00AD" unicode="&#xad;" horiz-adv-x="336" 
d="M39 317h258v-104h-258v104z" />
    <glyph glyph-name="endash" unicode="&#x2013;" horiz-adv-x="500" 
d="M42 317h416v-104h-416v104z" />
    <glyph glyph-name="emdash" unicode="&#x2014;" horiz-adv-x="1000" 
d="M42 317h916v-104h-916v104z" />
    <glyph glyph-name="underscore" unicode="_" horiz-adv-x="416" 
d="M0 -58h416v-104h-416v104z" />
    <glyph glyph-name="hyphen.case" horiz-adv-x="336" 
d="M39 387h258v-104h-258v104z" />
    <glyph glyph-name="endash.case" horiz-adv-x="500" 
d="M42 387h416v-104h-416v104z" />
    <glyph glyph-name="emdash.case" horiz-adv-x="1000" 
d="M42 387h916v-104h-916v104z" />
    <glyph glyph-name="quotesinglbase" unicode="&#x201a;" horiz-adv-x="188" 
d="M45 123h133l-75 -233h-101z" />
    <glyph glyph-name="quotedblbase" unicode="&#x201e;" horiz-adv-x="369" 
d="M45 123h133l-75 -233h-101zM226 123h133l-75 -233h-101z" />
    <glyph glyph-name="quotedblleft" unicode="&#x201c;" horiz-adv-x="369" 
d="M137 447h-133l75 233h101zM318 447h-133l75 233h101z" />
    <glyph glyph-name="quotedblright" unicode="&#x201d;" horiz-adv-x="369" 
d="M51 680h133l-75 -233h-101zM232 680h133l-75 -233h-101z" />
    <glyph glyph-name="quoteleft" unicode="&#x2018;" horiz-adv-x="188" 
d="M137 447h-133l75 233h101z" />
    <glyph glyph-name="quoteright" unicode="&#x2019;" horiz-adv-x="188" 
d="M51 680h133l-75 -233h-101z" />
    <glyph glyph-name="guillemotleft" unicode="&#xab;" horiz-adv-x="417" 
d="M16 269l79 179h116l-77 -177l75 -183h-115zM203 269l79 179h116l-77 -177l75 -183h-115z" />
    <glyph glyph-name="guillemotright" unicode="&#xbb;" horiz-adv-x="417" 
d="M214 267l-79 -179h-116l77 177l-75 183h115zM401 267l-79 -179h-116l77 177l-75 183h115z" />
    <glyph glyph-name="guilsinglleft" unicode="&#x2039;" horiz-adv-x="230" 
d="M16 269l79 179h116l-77 -177l75 -183h-115z" />
    <glyph glyph-name="guilsinglright" unicode="&#x203a;" horiz-adv-x="230" 
d="M214 267l-79 -179h-116l77 177l-75 183h115z" />
    <glyph glyph-name="quotedbl" unicode="&#x22;" horiz-adv-x="370" 
d="M27 680h135l-19 -234h-98zM208 680h135l-19 -234h-98z" />
    <glyph glyph-name="quotesingle" unicode="'" horiz-adv-x="189" 
d="M27 680h135l-19 -234h-98z" />
    <glyph glyph-name="guillemotleft.case" horiz-adv-x="423" 
d="M16 339l79 179h116l-77 -177l75 -183h-115zM203 339l79 179h116l-77 -177l75 -183h-115z" />
    <glyph glyph-name="guillemotright.case" horiz-adv-x="423" 
d="M214 337l-79 -179h-116l77 177l-75 183h115zM401 337l-79 -179h-116l77 177l-75 183h115z" />
    <glyph glyph-name="guilsinglleft.case" horiz-adv-x="230" 
d="M16 339l79 179h116l-77 -177l75 -183h-115z" />
    <glyph glyph-name="guilsinglright.case" horiz-adv-x="230" 
d="M214 337l-79 -179h-116l77 177l-75 183h115z" />
    <glyph glyph-name="quoteright.n" horiz-adv-x="299" 
d="M102 680h136l-63 -128h-114z" />
    <glyph glyph-name="uni00A0" unicode="&#xa0;" horiz-adv-x="180" 
 />
    <glyph glyph-name="uni200B" unicode="&#x200b;" horiz-adv-x="0" 
 />
    <glyph glyph-name="cent" unicode="&#xa2;" 
d="M291 411v11q0 28 -15.5 45.5t-41.5 17.5t-42.5 -18.5t-16.5 -45.5v-159q0 -27 16.5 -45t42.5 -18q25 0 40 15t15 45v18h130v-16q0 -64 -34.5 -109t-92.5 -60v-92h-114v90q-60 15 -96 60t-36 111v155q0 69 35.5 115.5t96.5 61.5v87h114v-86q60 -15 93.5 -60.5t33.5 -115.5
v-7h-128z" />
    <glyph glyph-name="currency" unicode="&#xa4;" 
d="M33 220l41 41q-20 38 -20 83q0 50 24 89l-45 45l68 68l46 -46q37 20 82 20q43 0 83 -21l47 47l68 -68l-46 -46q24 -42 24 -88q0 -45 -20 -82l42 -42l-68 -68l-41 41q-39 -24 -89 -24q-48 0 -88 23l-40 -40zM288.5 284.5q24.5 24.5 24.5 58.5t-24.5 58.5t-58.5 24.5
t-58.5 -24.5t-24.5 -58.5t24.5 -58.5t58.5 -24.5t58.5 24.5z" />
    <glyph glyph-name="dollar" unicode="$" horiz-adv-x="434" 
d="M373.5 65q-38.5 -49 -100.5 -65v-79h-114v78q-61 16 -99 63.5t-38 113.5v36h127v-27q0 -31 18.5 -51.5t48.5 -20.5q24 0 41 19t17 47q0 32 -24 56t-75 58q-47 31 -77.5 56.5t-52 64t-21.5 89.5q0 70 38.5 116t99.5 62v79h114v-79q62 -16 95 -65.5t33 -122.5v-24h-127v28
q0 30 -17 50.5t-45 20.5q-25 0 -40.5 -16t-15.5 -42q0 -31 25 -56.5t78 -63.5q49 -35 78.5 -60.5t50.5 -62t21 -81.5q0 -72 -38.5 -121z" />
    <glyph glyph-name="Euro" unicode="&#x20ac;" 
d="M147.5 16.5q-43.5 24.5 -67.5 67.5t-24 97v49h-40v88h40v53h-40v88h40v40q0 54 25 97t69.5 67.5t101.5 24.5q87 0 137 -53.5t50 -145.5v-14h-128v27q0 30 -17.5 48t-44.5 18t-45 -19t-18 -47v-43h146v-88h-146v-53h146v-88h-146v-53q0 -27 18 -46t45 -19t44.5 20t17.5 50
v24h128v-17q0 -90 -53 -143.5t-139 -53.5q-56 0 -99.5 24.5z" />
    <glyph glyph-name="florin" unicode="&#x192;" horiz-adv-x="396" 
d="M16 -74h56q27 0 40 12.5t13 38.5v313h-80v113h80v128q0 83 42.5 116t134.5 33h62v-110h-56q-28 0 -41 -12.5t-13 -38.5v-116h95v-113h-95v-325q0 -81 -40 -115t-125 -34h-73v110z" />
    <glyph glyph-name="sterling" unicode="&#xa3;" 
d="M24 114q31 1 47 12t23 35t7 68v59h-77v112h77v105q0 85 51.5 134t135.5 49q87 0 154 -62l-71 -96q-46 36 -80 36q-28 0 -45 -19.5t-17 -48.5v-98h159v-112h-159v-52q0 -39 -9 -67.5t-31 -49.5h237v-119h-402v114z" />
    <glyph glyph-name="yen" unicode="&#xa5;" 
d="M329 373h87v-94h-120l-1 -2v-59h121v-94h-121v-124h-136v124h-121v94h121v59l-1 2h-120v94h87l-107 307h137l74 -265l74 265h133z" />
    <glyph glyph-name="cent.up" horiz-adv-x="379" 
d="M234 472v12q0 19 -10.5 28.5t-29.5 9.5q-20 0 -30.5 -10t-10.5 -29v-109q0 -19 11 -29.5t30 -10.5q18 0 29 10t11 28v16h111v-19q0 -52 -29.5 -87t-79.5 -46v-66h-86v66q-52 11 -81.5 48t-29.5 92v105q0 56 30.5 92.5t83.5 47.5v59h86v-60q50 -11 78 -46t28 -87v-15h-111
z" />
    <glyph glyph-name="dollar.up" horiz-adv-x="375" 
d="M315 217.5q-33 -37.5 -87 -49.5v-57h-86v58q-52 12 -83.5 49.5t-31.5 90.5v25h110v-19q0 -20 13 -31t34 -11q20 0 32.5 10t12.5 26q0 18 -17.5 32.5t-53.5 35.5q-40 23 -66 43t-45 50.5t-19 70.5q0 54 34 92t88 49v58h86v-60q49 -13 78 -50t29 -90v-21h-109v17
q0 19 -12.5 30t-31.5 11q-20 0 -31.5 -9t-11.5 -25q0 -20 18.5 -36t56.5 -38q40 -24 65 -43.5t43 -48.5t18 -67q0 -55 -33 -92.5z" />
    <glyph glyph-name="Euro.up" horiz-adv-x="376" 
d="M92 205q-43 41 -43 108v29h-34v73h34v27h-34v72h34v23q0 67 43.5 108t112.5 41q70 0 112 -40t42 -105v-9h-110v14q0 18 -13 28t-31 10q-19 0 -31.5 -10.5t-12.5 -27.5v-32h138v-72h-138v-27h138v-73h-138v-39q0 -17 12.5 -27t31.5 -10q18 0 31 10.5t13 27.5v16h110v-10
q0 -66 -42.5 -106t-111.5 -40q-70 0 -113 41z" />
    <glyph glyph-name="sterling.up" horiz-adv-x="369" 
d="M179.5 310.5q-11.5 -22.5 -29.5 -32.5h193v-108h-322v101q35 6 45.5 27t10.5 66v11h-57v104h57v67q0 67 40.5 103.5t109.5 36.5q73 0 125 -45l-54 -96q-30 28 -63 28q-21 0 -32.5 -13t-11.5 -38v-43h113v-104h-113v-10q0 -32 -11.5 -54.5z" />
    <glyph glyph-name="yen.up" horiz-adv-x="369" 
d="M281 463h55v-84h-81l-11 -34v-7h92v-85h-92v-83h-119v83h-91v85h91v6l-11 35h-80v84h54l-67 217h116l49 -195l50 195h112z" />
    <glyph glyph-name="uni2215" unicode="&#x2215;" horiz-adv-x="100" 
d="M180 684h95l-354 -690h-96z" />
    <glyph glyph-name="plus" unicode="+" 
d="M176 213h-128v104h128v150h108v-150h128v-104h-128v-150h-108v150z" />
    <glyph glyph-name="minus" unicode="&#x2212;" 
d="M48 317h364v-104h-364v104z" />
    <glyph glyph-name="multiply" unicode="&#xd7;" 
d="M39 148l118 117l-118 117l74 74l117 -118l117 118l74 -74l-118 -117l118 -117l-74 -74l-117 118l-117 -118z" />
    <glyph glyph-name="divide" unicode="&#xf7;" 
d="M173.5 388q-22.5 23 -22.5 55q0 33 22.5 56.5t54.5 23.5q34 0 57 -23.5t23 -56.5q0 -32 -23 -55t-57 -23q-32 0 -54.5 23zM48 317h364v-104h-364v104zM173.5 28.5q-22.5 22.5 -22.5 54.5q0 33 22.5 56.5t54.5 23.5q34 0 57 -23.5t23 -56.5q0 -32 -23 -54.5t-57 -22.5
q-32 0 -54.5 22.5z" />
    <glyph glyph-name="equal" unicode="=" 
d="M48 407h364v-104h-364v104zM48 227h364v-104h-364v104z" />
    <glyph glyph-name="notequal" unicode="&#x2260;" 
d="M116 123h-68v104h118l37 76h-155v104h205l62 126h95l-61 -126h63v-104h-113l-37 -76h150v-104h-200l-66 -136h-96z" />
    <glyph glyph-name="greater" unicode="&#x3e;" 
d="M48 134l251 133l-251 127v125l364 -200v-108l-364 -203v126z" />
    <glyph glyph-name="less" unicode="&#x3c;" 
d="M48 211v108l364 200v-125l-251 -127l251 -133v-126z" />
    <glyph glyph-name="greaterequal" unicode="&#x2265;" 
d="M48 231l251 133l-251 127v125l364 -200v-108l-364 -203v126zM48 104h364v-104h-364v104z" />
    <glyph glyph-name="lessequal" unicode="&#x2264;" 
d="M48 308v108l364 200v-125l-251 -127l251 -133v-126zM48 104h364v-104h-364v104z" />
    <glyph glyph-name="plusminus" unicode="&#xb1;" 
d="M176 277h-128v104h128v150h108v-150h128v-104h-128v-140h-108v140zM48 104h364v-104h-364v104z" />
    <glyph glyph-name="approxequal" unicode="&#x2248;" 
d="M50 340q11 30 37 51.5t59 21.5q21 0 61 -7.5t48 -8.5q55 -11 67 -11q14 0 27 7t20 21l41 -47q-12 -31 -38 -53.5t-59 -22.5q-19 0 -56 7t-44 8q-64 12 -75 12q-15 0 -28 -6.5t-19 -18.5zM50 160q11 30 37 51.5t59 21.5q21 0 61 -7.5t48 -8.5q55 -11 67 -11q14 0 27 7
t20 21l41 -47q-12 -31 -38 -53.5t-59 -22.5q-19 0 -56 7t-44 8q-64 12 -75 12q-15 0 -28 -6.5t-19 -18.5z" />
    <glyph glyph-name="logicalnot" unicode="&#xac;" 
d="M303 213h-255v104h364v-254h-109v150z" />
    <glyph glyph-name="asciitilde" unicode="~" 
d="M50 250q11 30 37 51.5t59 21.5q21 0 61 -7.5t48 -8.5q55 -11 67 -11q14 0 27 7t20 21l41 -47q-12 -31 -38 -53.5t-59 -22.5q-19 0 -56 7t-44 8q-64 12 -75 12q-15 0 -28 -6.5t-19 -18.5z" />
    <glyph glyph-name="asciicircum" unicode="^" horiz-adv-x="238" 
d="M55 680h128l55 -228h-74l-45 160l-44 -160h-75z" />
    <glyph glyph-name="infinity" unicode="&#x221e;" horiz-adv-x="557" 
d="M103.5 141.5q-32.5 18.5 -51 51t-18.5 71.5t19 72t51 52t71 19q30 0 56.5 -11.5t46.5 -32.5q19 21 45.5 32.5t56.5 11.5q39 0 72 -19t52 -52t19 -72t-19 -71.5t-52 -51t-72 -18.5q-30 0 -56.5 11t-45.5 31q-20 -20 -46.5 -31t-56.5 -11q-39 0 -71.5 18.5zM220 223.5
q17 16.5 17 40.5q0 25 -17 42t-42 17t-41 -17t-16 -42q0 -24 16 -40.5t41 -16.5t42 16.5zM419 223.5q17 16.5 17 40.5q0 25 -17 42t-42 17t-41 -17t-16 -42q0 -24 16 -40.5t41 -16.5t42 16.5z" />
    <glyph glyph-name="integral" unicode="&#x222b;" horiz-adv-x="396" 
d="M16 -74h56q27 0 40 12.5t13 38.5v554q0 84 43.5 116.5t138.5 32.5h57v-110h-56q-28 0 -41 -12.5t-13 -38.5v-554q0 -81 -40 -115t-125 -34h-73v110z" />
    <glyph glyph-name="uni2126" unicode="&#x2126;" horiz-adv-x="498" 
d="M43 103h68v4q0 14 -17 51q-22 50 -34.5 94t-12.5 102v143q0 56 27.5 99.5t73.5 67.5t101 24t101 -24t73 -67.5t27 -99.5v-143q0 -58 -12.5 -102t-34.5 -94q-17 -37 -17 -51v-4h69v-103h-180v52q0 48 5.5 81.5t15.5 77.5q10 38 14.5 67.5t4.5 67.5v146q0 32 -18 54t-48 22
q-31 0 -49 -21.5t-18 -54.5v-146q0 -38 4.5 -67.5t14.5 -67.5q10 -44 15.5 -77.5t5.5 -81.5v-52h-179v103z" />
    <glyph glyph-name="uni2206" unicode="&#x2206;" horiz-adv-x="436" 
d="M154 680h135l143 -680h-428zM272 121l-52 334h-2l-59 -334h113z" />
    <glyph glyph-name="product" unicode="&#x220f;" horiz-adv-x="515" 
d="M59 680h397v-680h-136v559h-126v-559h-135v680z" />
    <glyph glyph-name="summation" unicode="&#x2211;" horiz-adv-x="441" 
d="M32 118l147 217l-147 225v120h377v-121h-224l112 -164v-103l-119 -171h231v-121h-377v118z" />
    <glyph glyph-name="radical" unicode="&#x221a;" horiz-adv-x="462" 
d="M9 500h134l63 -308h3l116 489h127l-187 -681h-125z" />
    <glyph glyph-name="partialdiff" unicode="&#x2202;" horiz-adv-x="458" 
d="M365.5 519.5q53.5 -89.5 53.5 -193.5v-151q0 -85 -52 -134t-138 -49q-85 0 -137.5 49.5t-52.5 133.5v149q0 87 54 135.5t142 48.5q-27 44 -55 77.5t-86 94.5h144q74 -71 127.5 -160.5zM290 322q0 31 -16.5 51t-44.5 20t-44.5 -20t-16.5 -51v-145q0 -31 16.5 -50.5
t44.5 -19.5q26 0 43.5 18t17.5 45v152z" />
    <glyph glyph-name="uni00B5" unicode="&#xb5;" horiz-adv-x="479" 
d="M426 500v-500h-126v39q-31 -44 -98 -44q-13 0 -20 1v-180h-129v684h129v-329q0 -30 15 -47t41 -17q25 0 41.5 17.5t16.5 43.5v332h130z" />
    <glyph glyph-name="percent" unicode="%" horiz-adv-x="763" 
d="M107 376q-38 22 -60 60.5t-22 84.5q0 45 22 83.5t60 61t84 22.5t84.5 -22.5t61 -61t22.5 -83.5q0 -46 -22.5 -84.5t-61 -60.5t-84.5 -22t-84 22zM505 684h102l-353 -690h-103zM242 471q21 21 21 50t-21 50.5t-51 21.5q-29 0 -49.5 -21.5t-20.5 -50.5t20.5 -50t49.5 -21
q30 0 51 21zM487 14q-38 22 -60 60t-22 84t22 84.5t60 61t84 22.5t84.5 -22.5t61 -61t22.5 -84.5t-22.5 -84t-61 -60t-84.5 -22t-84 22zM622 108.5q21 20.5 21 49.5q0 30 -21 51.5t-51 21.5q-29 0 -49.5 -21.5t-20.5 -51.5q0 -29 20.5 -49.5t49.5 -20.5q30 0 51 20.5z" />
    <glyph glyph-name="perthousand" unicode="&#x2030;" horiz-adv-x="1077" 
d="M99.5 376q-35.5 22 -55 60t-19.5 85q0 46 19.5 84t55 60.5t81.5 22.5q45 0 81 -22.5t56 -60.5t20 -84q0 -47 -20 -85t-55.5 -60t-81.5 -22t-81.5 22zM487 684h102l-353 -690h-103zM226.5 470q16.5 20 16.5 51t-16.5 51.5t-45.5 20.5t-44.5 -20.5t-15.5 -51.5t15.5 -51
t44.5 -20t45.5 20zM468.5 15q-35.5 22 -55 60t-19.5 84t19.5 84.5t55.5 60.5t81 22q46 0 82 -22t56 -60.5t20 -84.5t-20 -84t-56 -60t-82 -22t-81.5 22zM813.5 15q-35.5 22 -55 60t-19.5 84t19.5 84.5t55.5 60.5t81 22q46 0 82 -22t56 -60.5t20 -84.5t-20 -84t-56 -60
t-82 -22t-81.5 22zM596 108.5q17 20.5 17 50.5q0 31 -17 52t-46 21q-28 0 -44 -21t-16 -52t16 -51t44 -20q29 0 46 20.5zM940.5 108q16.5 20 16.5 51t-16.5 52t-45.5 21t-44.5 -20.5t-15.5 -52.5q0 -31 15.5 -51t44.5 -20t45.5 20z" />
    <glyph glyph-name="plus.case" 
d="M176 283h-128v104h128v150h108v-150h128v-104h-128v-150h-108v150z" />
    <glyph glyph-name="minus.case" 
d="M48 387h364v-104h-364v104z" />
    <glyph glyph-name="multiply.case" 
d="M39 218l118 117l-118 117l74 74l117 -118l117 118l74 -74l-118 -117l118 -117l-74 -74l-117 118l-117 -118z" />
    <glyph glyph-name="divide.case" 
d="M173.5 458q-22.5 23 -22.5 55q0 33 22.5 56.5t54.5 23.5q34 0 57 -23.5t23 -56.5q0 -32 -23 -55t-57 -23q-32 0 -54.5 23zM48 387h364v-104h-364v104zM173.5 98.5q-22.5 22.5 -22.5 54.5q0 33 22.5 56.5t54.5 23.5q34 0 57 -23.5t23 -56.5q0 -32 -23 -54.5t-57 -22.5
q-32 0 -54.5 22.5z" />
    <glyph glyph-name="equal.case" 
d="M48 477h364v-104h-364v104zM48 297h364v-104h-364v104z" />
    <glyph glyph-name="notequal.case" 
d="M116 193h-68v104h118l37 76h-155v104h205l62 126h95l-61 -126h63v-104h-113l-37 -76h150v-104h-200l-66 -136h-96z" />
    <glyph glyph-name="greater.case" 
d="M48 204l251 133l-251 127v125l364 -200v-108l-364 -203v126z" />
    <glyph glyph-name="less.case" 
d="M48 281v108l364 200v-125l-251 -127l251 -133v-126z" />
    <glyph glyph-name="approxequal.case" 
d="M50 410q11 30 37 51.5t59 21.5q21 0 61 -7.5t48 -8.5q55 -11 67 -11q14 0 27 7t20 21l41 -47q-12 -31 -38 -53.5t-59 -22.5q-19 0 -56 7t-44 8q-64 12 -75 12q-15 0 -28 -6.5t-19 -18.5zM50 230q11 30 37 51.5t59 21.5q21 0 61 -7.5t48 -8.5q55 -11 67 -11q14 0 27 7
t20 21l41 -47q-12 -31 -38 -53.5t-59 -22.5q-19 0 -56 7t-44 8q-64 12 -75 12q-15 0 -28 -6.5t-19 -18.5z" />
    <glyph glyph-name="logicalnot.case" 
d="M303 283h-255v104h364v-254h-109v150z" />
    <glyph glyph-name="asciitilde.case" 
d="M50 320q11 30 37 51.5t59 21.5q21 0 61 -7.5t48 -8.5q55 -11 67 -11q14 0 27 7t20 21l41 -47q-12 -31 -38 -53.5t-59 -22.5q-19 0 -56 7t-44 8q-64 12 -75 12q-15 0 -28 -6.5t-19 -18.5z" />
    <glyph glyph-name="infinity.case" horiz-adv-x="557" 
d="M103.5 211.5q-32.5 18.5 -51 51t-18.5 71.5t19 72t51 52t71 19q30 0 56.5 -11.5t46.5 -32.5q19 21 45.5 32.5t56.5 11.5q39 0 72 -19t52 -52t19 -72t-19 -71.5t-52 -51t-72 -18.5q-30 0 -56.5 11t-45.5 31q-20 -20 -46.5 -31t-56.5 -11q-39 0 -71.5 18.5zM220 293.5
q17 16.5 17 40.5q0 25 -17 42t-42 17t-41 -17t-16 -42q0 -24 16 -40.5t41 -16.5t42 16.5zM419 293.5q17 16.5 17 40.5q0 25 -17 42t-42 17t-41 -17t-16 -42q0 -24 16 -40.5t41 -16.5t42 16.5z" />
    <glyph glyph-name="lozenge" unicode="&#x25ca;" horiz-adv-x="400" 
d="M4 340l143 340h100l149 -340l-149 -340h-100zM203 174l69 166l-69 166h-3l-65 -166l65 -166h3z" />
    <glyph glyph-name="at" unicode="@" horiz-adv-x="755" 
d="M200.5 -55q-78.5 43 -122.5 121t-44 177q0 103 46 184t125 126t175 45q98 0 175.5 -44.5t121 -121t43.5 -169.5q0 -98 -45 -161t-124 -63q-34 0 -60 13t-37 34q-37 -54 -106 -54q-64 0 -101.5 43t-37.5 118v109q0 70 37 116.5t102 46.5q53 0 87 -36v29h104v-278
q0 -64 39 -64q31 0 46.5 39.5t15.5 101.5q0 79 -32 141t-89.5 96.5t-131.5 34.5q-77 0 -136.5 -36.5t-92 -100.5t-32.5 -142t32 -141.5t90 -100.5t133 -37q78 0 144 39l36 -57q-84 -51 -180 -51q-102 0 -180.5 43zM415.5 144q15.5 18 15.5 49v111q0 31 -15.5 48.5
t-41.5 17.5q-27 0 -42.5 -18t-15.5 -51v-107q0 -32 15.5 -50t42.5 -18q26 0 41.5 18z" />
    <glyph glyph-name="ampersand" unicode="&#x26;" horiz-adv-x="551" 
d="M404 0l-38 55q-36 -31 -74.5 -47t-76.5 -16q-87 0 -138 47.5t-51 128.5q0 74 32.5 119.5t89.5 81.5q-34 49 -47.5 82t-13.5 65q0 76 48 124t126 48q77 0 121.5 -43t44.5 -119q0 -59 -31 -98.5t-87 -77.5l63 -91l49 96h128l-104 -197l-1 -2l108 -156h-148zM222.5 481.5
q8.5 -18.5 29.5 -50.5q51 37 51 85q0 23 -11.5 39.5t-32.5 16.5t-33 -16t-12 -38q0 -18 8.5 -36.5zM301 148l-93 134q-25 -21 -38.5 -44t-13.5 -52q0 -36 19 -56t50 -20q39 0 76 38z" />
    <glyph glyph-name="paragraph" unicode="&#xb6;" horiz-adv-x="537" 
d="M201 377h-25q-40 0 -74 21t-54 56t-20 75t20 75t54 55.5t74 20.5h294v-864h-79v790h-112v-790h-78v561z" />
    <glyph glyph-name="section" unicode="&#xa7;" 
d="M94 31q-53 39 -55 126h127q6 -58 67 -58q24 0 40 12.5t16 31.5q0 23 -22.5 32.5t-72.5 19.5q-53 10 -87 22t-58.5 40t-24.5 77q0 59 57 105q-37 32 -37 90q0 74 51.5 116.5t138.5 42.5q73 0 122 -36.5t53 -124.5h-124q-3 25 -18 39t-41 14q-24 0 -38 -11.5t-14 -29.5
q0 -22 22.5 -31.5t71.5 -18.5q53 -10 87.5 -21.5t59.5 -40t25 -78.5q0 -61 -57 -106q37 -32 37 -90q0 -77 -55.5 -119t-137.5 -42q-80 0 -133 39zM301 308.5q8 13.5 8 27.5q0 23 -23.5 33t-73.5 20l-23 5q-16 -5 -25.5 -18.5t-9.5 -28.5q0 -23 23.5 -33.5t73.5 -19.5l29 -6
q13 7 21 20.5z" />
    <glyph glyph-name="copyright" unicode="&#xa9;" horiz-adv-x="736" 
d="M194 39q-80 47 -127 127t-47 174t47 174t127 127t174 47t174 -47t127 -127t47 -174t-47 -174t-127 -127t-174 -47t-174 47zM507 99.5q63 37.5 100 101t37 139.5t-37 139.5t-100 101t-139 37.5t-139 -37.5t-100 -101t-37 -139.5t37 -139.5t100 -101t139 -37.5t139 37.5z
M278 162.5q-35 34.5 -35 83.5v188q0 50 36.5 84t88.5 34t85.5 -32t33.5 -85v-26h-88v26q0 16 -9 25.5t-24 9.5q-14 0 -23 -10t-9 -25v-191q0 -14 9.5 -24t22.5 -10q14 0 23 11t9 27v22h89v-18q0 -56 -35 -90t-88 -34q-51 0 -86 34.5z" />
    <glyph glyph-name="registered" unicode="&#xae;" horiz-adv-x="736" 
d="M194 39q-80 47 -127 127t-47 174t47 174t127 127t174 47t174 -47t127 -127t47 -174t-47 -174t-127 -127t-174 -47t-174 47zM507 99.5q63 37.5 100 101t37 139.5t-37 139.5t-100 101t-139 37.5t-139 -37.5t-100 -101t-37 -139.5t37 -139.5t100 -101t139 -37.5t139 37.5z
M241 544h149q53 0 86.5 -35t33.5 -87q0 -34 -16 -61.5t-46 -43.5l73 -181h-98l-62 162h-30v-162h-90v408zM377 375q18 0 29.5 13t11.5 32q0 18 -11.5 30t-29.5 12h-46v-87h46z" />
    <glyph glyph-name="trademark" unicode="&#x2122;" horiz-adv-x="475" 
d="M80 627h-57v53h173v-53h-58v-173h-58v173zM221 680h56l51 -91l49 91h54v-226h-57v127l-48 -81l-48 81v-127h-57v226z" />
    <glyph glyph-name="degree" unicode="&#xb0;" horiz-adv-x="352" 
d="M103 419q-33 19 -52 52t-19 72t19 72.5t52 53t72 19.5q40 0 73 -19.5t52.5 -53t19.5 -72.5t-19.5 -72t-52.5 -52t-73 -19q-39 0 -72 19zM217.5 502q17.5 17 17.5 41q0 25 -17.5 42.5t-42.5 17.5t-41.5 -17.5t-16.5 -42.5q0 -24 16.5 -41t41.5 -17t42.5 17z" />
    <glyph glyph-name="bar" unicode="|" horiz-adv-x="245" 
d="M71 680h103v-864h-103v864z" />
    <glyph glyph-name="brokenbar" unicode="&#xa6;" horiz-adv-x="245" 
d="M71 680h103v-383h-103v383zM71 209h103v-393h-103v393z" />
    <glyph glyph-name="dagger" unicode="&#x2020;" 
d="M165 387h-130v113h130v180h129v-180h131v-113h-131v-571h-129v571z" />
    <glyph glyph-name="uni2113" unicode="&#x2113;" horiz-adv-x="446" 
d="M427 81q-35 -45 -79 -67t-92 -22q-61 0 -105.5 36.5t-57.5 110.5l-57 -33l-28 92l80 47v236q0 110 49 158.5t122 48.5q64 0 103 -39.5t39 -128.5q0 -91 -42.5 -164.5t-149.5 -145.5q1 -54 17 -78.5t47 -24.5q26 0 49.5 13t52.5 44zM221 560.5q-12 -16.5 -12 -50.5v-187
q51 43 68.5 87.5t17.5 95.5q0 37 -10 54t-31 17t-33 -16.5z" />
    <glyph glyph-name="daggerdbl" unicode="&#x2021;" 
d="M165 0h-130v113h130v274h-130v113h130v180h129v-180h131v-113h-131v-274h131v-113h-131v-184h-129v184z" />
    <glyph glyph-name="estimated" unicode="&#x212e;" horiz-adv-x="842" 
d="M233.5 39q-89.5 47 -142 127.5t-52.5 175.5q0 93 52.5 172.5t142 126.5t193.5 47q108 0 197 -47.5t140.5 -129t51.5 -178.5h-624q-9 0 -9 -11v-172q0 -39 42 -70.5t100 -49.5t102 -18q73 0 137 31t113 85h55q-53 -65 -131.5 -100.5t-173.5 -35.5q-104 0 -193.5 47z
M662 351q10 0 10 8v174q0 11 -4.5 23.5t-12.5 22.5q-97 91 -228 91q-128 0 -225 -91q-19 -25 -19 -46v-174q0 -8 9 -8h470z" />
    <glyph glyph-name="at.case" horiz-adv-x="755" 
d="M200.5 35q-78.5 43 -122.5 121t-44 177q0 103 46 184t125 126t175 45q98 0 175.5 -44.5t121 -121t43.5 -169.5q0 -98 -45 -161t-124 -63q-34 0 -60 13t-37 34q-37 -54 -106 -54q-64 0 -101.5 43t-37.5 118v109q0 70 37 116.5t102 46.5q53 0 87 -36v29h104v-278
q0 -64 39 -64q31 0 46.5 39.5t15.5 101.5q0 79 -32 141t-89.5 96.5t-131.5 34.5q-77 0 -136.5 -36.5t-92 -100.5t-32.5 -142t32 -141.5t90 -100.5t133 -37q78 0 144 39l36 -57q-84 -51 -180 -51q-102 0 -180.5 43zM415.5 234q15.5 18 15.5 49v111q0 31 -15.5 48.5
t-41.5 17.5q-27 0 -42.5 -18t-15.5 -51v-107q0 -32 15.5 -50t42.5 -18q26 0 41.5 18z" />
    <glyph glyph-name="bar.case" horiz-adv-x="245" 
d="M71 750h103v-864h-103v864z" />
    <glyph glyph-name="uni0308" unicode="&#x308;" horiz-adv-x="0" 
d="M-294 574q-18 18 -18 43t18 43t43 18t43 -18t18 -43t-18 -43t-43 -18t-43 18zM-155 574q-18 18 -18 43t18 43t43 18t43.5 -18t18.5 -43t-18.5 -43t-43.5 -18t-43 18z" />
    <glyph glyph-name="uni0307" unicode="&#x307;" horiz-adv-x="0" 
d="M-166 569q-20 20 -20 48t20 48t48 20t48 -20t20 -48t-20 -48t-48 -20t-48 20z" />
    <glyph glyph-name="gravecomb" unicode="&#x300;" horiz-adv-x="0" 
d="M-228 680h137l41 -128h-115z" />
    <glyph glyph-name="acutecomb" unicode="&#x301;" horiz-adv-x="0" 
d="M-186 680h136l-63 -128h-114z" />
    <glyph glyph-name="uni030B" unicode="&#x30b;" horiz-adv-x="0" 
d="M-274 680h98l-59 -128h-80zM-148 680h98l-59 -128h-80z" />
    <glyph glyph-name="uni0302" unicode="&#x302;" horiz-adv-x="0" 
d="M-233 680h128l55 -128h-74l-45 60l-44 -60h-75z" />
    <glyph glyph-name="uni030C" unicode="&#x30c;" horiz-adv-x="0" 
d="M-288 680h75l44 -60l45 60h74l-55 -128h-128z" />
    <glyph glyph-name="uni0306" unicode="&#x306;" horiz-adv-x="0" 
d="M-258 584.5q-30 33.5 -30 95.5h71q0 -55 48 -55q22 0 35.5 13.5t13.5 41.5h70q0 -63 -30 -96t-89 -33t-89 33.5z" />
    <glyph glyph-name="uni030A" unicode="&#x30a;" horiz-adv-x="0" 
d="M-196.5 573q-24.5 25 -24.5 60q0 36 24.5 61t60.5 25t61 -25t25 -61q0 -35 -25 -60t-61 -25t-60.5 25zM-112.5 609.5q9.5 9.5 9.5 23.5q0 13 -9.5 22.5t-23.5 9.5t-23 -9t-9 -23t9 -23.5t23 -9.5t23.5 9.5z" />
    <glyph glyph-name="tildecomb" unicode="&#x303;" horiz-adv-x="0" 
d="M-288 603q12 27 33 46t45 19q12 0 28 -6t30 -12q24 -11 32 -11q14 0 35 31l35 -42q-13 -28 -33.5 -47.5t-44.5 -19.5q-19 0 -55 17q-26 12 -35 12q-18 0 -35 -29z" />
    <glyph glyph-name="uni0304" unicode="&#x304;" horiz-adv-x="0" 
d="M-288 657h238v-84h-238v84z" />
    <glyph glyph-name="uni0312" unicode="&#x312;" horiz-adv-x="0" 
d="M-164 680h114l-10 -128h-137z" />
    <glyph glyph-name="uni0315" unicode="&#x315;" horiz-adv-x="0" 
d="M-185 680h135l-33 -142h-102v142z" />
    <glyph glyph-name="uni0326" unicode="&#x326;" horiz-adv-x="0" 
d="M-186 -28h136l-63 -130h-114z" />
    <glyph glyph-name="uni0327" unicode="&#x327;" horiz-adv-x="0" 
d="M-208 -175v64q22 -2 27 -2q24 0 24 17q0 13 -13 32t-38 36h98q28 -22 44 -47t16 -48q0 -26 -22 -43.5t-73 -17.5q-31 0 -63 9z" />
    <glyph glyph-name="uni0328" unicode="&#x328;" horiz-adv-x="0" 
d="M-186 -166.5q-22 17.5 -22 43.5q0 23 16 48t44 47h98q-26 -17 -38.5 -36t-12.5 -32q0 -17 24 -17q3 0 27 2v-64q-36 -9 -63 -9q-51 0 -73 17.5z" />
    <glyph glyph-name="acute" unicode="&#xb4;" horiz-adv-x="277" 
d="M91 680h136l-63 -128h-114z" />
    <glyph glyph-name="breve" unicode="&#x2d8;" horiz-adv-x="338" 
d="M80 584.5q-30 33.5 -30 95.5h71q0 -55 48 -55q22 0 35.5 13.5t13.5 41.5h70q0 -63 -30 -96t-89 -33t-89 33.5z" />
    <glyph glyph-name="caron" unicode="&#x2c7;" horiz-adv-x="338" 
d="M50 680h75l44 -60l45 60h74l-55 -128h-128z" />
    <glyph glyph-name="cedilla" unicode="&#xb8;" horiz-adv-x="258" 
d="M50 -175v64q22 -2 27 -2q24 0 24 17q0 13 -13 32t-38 36h98q28 -22 44 -47t16 -48q0 -26 -22 -43.5t-73 -17.5q-31 0 -63 9z" />
    <glyph glyph-name="circumflex" unicode="&#x2c6;" horiz-adv-x="338" 
d="M105 680h128l55 -128h-74l-45 60l-44 -60h-75z" />
    <glyph glyph-name="dieresis" unicode="&#xa8;" horiz-adv-x="362" 
d="M68 574q-18 18 -18 43t18 43t43 18t43 -18t18 -43t-18 -43t-43 -18t-43 18zM207 574q-18 18 -18 43t18 43t43 18t43.5 -18t18.5 -43t-18.5 -43t-43.5 -18t-43 18z" />
    <glyph glyph-name="dotaccent" unicode="&#x2d9;" horiz-adv-x="236" 
d="M70 569q-20 20 -20 48t20 48t48 20t48 -20t20 -48t-20 -48t-48 -20t-48 20z" />
    <glyph glyph-name="grave" unicode="`" horiz-adv-x="278" 
d="M50 680h137l41 -128h-115z" />
    <glyph glyph-name="hungarumlaut" unicode="&#x2dd;" horiz-adv-x="365" 
d="M91 680h98l-59 -128h-80zM217 680h98l-59 -128h-80z" />
    <glyph glyph-name="macron" unicode="&#xaf;" horiz-adv-x="338" 
d="M50 657h238v-84h-238v84z" />
    <glyph glyph-name="ogonek" unicode="&#x2db;" horiz-adv-x="258" 
d="M72 -166.5q-22 17.5 -22 43.5q0 23 16 48t44 47h98q-26 -17 -38.5 -36t-12.5 -32q0 -17 24 -17q3 0 27 2v-64q-36 -9 -63 -9q-51 0 -73 17.5z" />
    <glyph glyph-name="ring" unicode="&#x2da;" horiz-adv-x="271" 
d="M74.5 573q-24.5 25 -24.5 60q0 36 24.5 61t60.5 25t61 -25t25 -61q0 -35 -25 -60t-61 -25t-60.5 25zM158.5 609.5q9.5 9.5 9.5 23.5q0 13 -9.5 22.5t-23.5 9.5t-23 -9t-9 -23t9 -23.5t23 -9.5t23.5 9.5z" />
    <glyph glyph-name="tilde" unicode="&#x2dc;" horiz-adv-x="338" 
d="M50 603q12 27 33 46t45 19q12 0 28 -6t30 -12q24 -11 32 -11q14 0 35 31l35 -42q-13 -28 -33.5 -47.5t-44.5 -19.5q-19 0 -55 17q-26 12 -35 12q-18 0 -35 -29z" />
    <glyph glyph-name="uni0307.i" horiz-adv-x="0" 
d="M-177 572q-22 22 -22 53q0 30 22 52t52 22q31 0 53 -22t22 -52q0 -31 -22 -53t-53 -22q-30 0 -52 22z" />
    </font>
</defs>
</svg>
