<?xml version="1.0" encoding="UTF-8"?>
<svg xmlns="http://www.w3.org/2000/svg" xmlns:xlink="http://www.w3.org/1999/xlink" width="15pt" height="15pt" viewBox="0 0 15 15" version="1.1">
<g id="surface1">
<path style=" stroke:none;fill-rule:nonzero;fill:rgb(0%,43.529412%,81.176471%);fill-opacity:1;" d="M 14.992188 8.121094 L 14.992188 0.0078125 L 0 0.0078125 L 0 15 L 14.992188 15 L 14.992188 10.625 C 14.960938 10.625 14.992188 8.121094 14.992188 8.121094 Z M 14.992188 8.121094 "/>
<path style=" stroke:none;fill-rule:nonzero;fill:rgb(100%,100%,100%);fill-opacity:1;" d="M 13.15625 7.285156 L 14.292969 7.285156 L 14.292969 4.648438 L 13.054688 4.648438 L 13.054688 5.015625 L 12.824219 4.648438 L 11.753906 4.648438 L 11.753906 5.117188 L 11.554688 4.648438 L 9.816406 4.648438 C 9.75 4.648438 9.652344 4.648438 9.582031 4.648438 C 9.515625 4.648438 9.449219 4.683594 9.382812 4.683594 C 9.316406 4.683594 9.28125 4.714844 9.214844 4.75 C 9.148438 4.78125 9.117188 4.78125 9.050781 4.816406 L 9.050781 4.648438 L 3.40625 4.648438 L 3.238281 5.082031 L 3.074219 4.648438 L 1.738281 4.648438 L 1.738281 5.117188 L 1.535156 4.648438 L 0.46875 4.648438 L 0 5.785156 L 0 7.285156 L 0.769531 7.285156 L 0.902344 6.917969 L 1.167969 6.917969 L 1.300781 7.285156 L 7.179688 7.285156 L 7.179688 6.953125 L 7.414062 7.285156 L 9.050781 7.285156 L 9.050781 7.085938 C 9.082031 7.121094 9.152344 7.121094 9.183594 7.152344 C 9.214844 7.1875 9.285156 7.1875 9.316406 7.21875 C 9.382812 7.253906 9.449219 7.253906 9.515625 7.253906 C 9.585938 7.253906 9.683594 7.253906 9.75 7.253906 L 10.71875 7.253906 L 10.851562 6.886719 L 11.121094 6.886719 L 11.253906 7.253906 L 12.890625 7.253906 L 12.890625 6.917969 Z M 14.992188 10.625 L 14.992188 8.15625 L 5.8125 8.15625 L 5.578125 8.488281 L 5.34375 8.15625 L 2.671875 8.15625 L 2.671875 10.792969 L 5.34375 10.792969 L 5.578125 10.457031 L 5.8125 10.792969 L 7.480469 10.792969 L 7.480469 10.226562 L 7.414062 10.226562 C 7.648438 10.226562 7.847656 10.191406 8.015625 10.125 L 8.015625 10.828125 L 9.214844 10.828125 L 9.214844 10.492188 L 9.449219 10.828125 L 14.425781 10.828125 C 14.625 10.757812 14.828125 10.726562 14.992188 10.625 Z M 14.992188 10.625 "/>
<path style=" stroke:none;fill-rule:nonzero;fill:rgb(0%,43.529412%,81.176471%);fill-opacity:1;" d="M 14.425781 9.992188 L 13.523438 9.992188 L 13.523438 10.359375 L 14.390625 10.359375 C 14.757812 10.359375 14.992188 10.125 14.992188 9.789062 C 14.992188 9.457031 14.792969 9.289062 14.457031 9.289062 L 14.058594 9.289062 C 13.957031 9.289062 13.890625 9.222656 13.890625 9.125 C 13.890625 9.023438 13.957031 8.957031 14.058594 8.957031 L 14.828125 8.957031 L 14.992188 8.589844 L 14.09375 8.589844 C 13.722656 8.589844 13.492188 8.824219 13.492188 9.125 C 13.492188 9.457031 13.691406 9.625 14.027344 9.625 L 14.425781 9.625 C 14.527344 9.625 14.59375 9.691406 14.59375 9.789062 C 14.625 9.925781 14.558594 9.992188 14.425781 9.992188 Z M 12.789062 9.992188 L 11.886719 9.992188 L 11.886719 10.359375 L 12.757812 10.359375 C 13.125 10.359375 13.355469 10.125 13.355469 9.789062 C 13.355469 9.457031 13.15625 9.289062 12.824219 9.289062 L 12.421875 9.289062 C 12.320312 9.289062 12.253906 9.222656 12.253906 9.125 C 12.253906 9.023438 12.324219 8.957031 12.421875 8.957031 L 13.191406 8.957031 L 13.355469 8.589844 L 12.457031 8.589844 C 12.089844 8.589844 11.855469 8.824219 11.855469 9.125 C 11.855469 9.457031 12.054688 9.625 12.386719 9.625 L 12.789062 9.625 C 12.890625 9.625 12.957031 9.691406 12.957031 9.789062 C 12.988281 9.925781 12.890625 9.992188 12.789062 9.992188 Z M 11.621094 8.921875 L 11.621094 8.554688 L 10.21875 8.554688 L 10.21875 10.324219 L 11.621094 10.324219 L 11.621094 9.957031 L 10.617188 9.957031 L 10.617188 9.589844 L 11.585938 9.589844 L 11.585938 9.222656 L 10.617188 9.222656 L 10.617188 8.890625 L 11.621094 8.890625 Z M 9.351562 8.921875 C 9.515625 8.921875 9.582031 9.023438 9.582031 9.125 C 9.582031 9.222656 9.515625 9.324219 9.351562 9.324219 L 8.847656 9.324219 L 8.847656 8.890625 Z M 8.847656 9.691406 L 9.050781 9.691406 L 9.585938 10.324219 L 10.085938 10.324219 L 9.484375 9.65625 C 9.785156 9.589844 9.949219 9.390625 9.949219 9.125 C 9.949219 8.789062 9.71875 8.554688 9.351562 8.554688 L 8.414062 8.554688 L 8.414062 10.324219 L 8.816406 10.324219 Z M 7.78125 9.15625 C 7.78125 9.289062 7.714844 9.390625 7.546875 9.390625 L 7.011719 9.390625 L 7.011719 8.921875 L 7.511719 8.921875 C 7.679688 8.921875 7.78125 9.023438 7.78125 9.15625 Z M 6.613281 8.554688 L 6.613281 10.324219 L 7.011719 10.324219 L 7.011719 9.722656 L 7.546875 9.722656 C 7.914062 9.722656 8.179688 9.492188 8.179688 9.125 C 8.179688 8.789062 7.949219 8.523438 7.582031 8.523438 Z M 6.011719 10.324219 L 6.511719 10.324219 L 5.8125 9.421875 L 6.511719 8.554688 L 6.011719 8.554688 L 5.578125 9.121094 L 5.144531 8.554688 L 4.640625 8.554688 L 5.34375 9.421875 L 4.640625 10.292969 L 5.144531 10.292969 L 5.578125 9.722656 Z M 4.507812 8.921875 L 4.507812 8.554688 L 3.105469 8.554688 L 3.105469 10.324219 L 4.507812 10.324219 L 4.507812 9.957031 L 3.507812 9.957031 L 3.507812 9.589844 L 4.476562 9.589844 L 4.476562 9.222656 L 3.507812 9.222656 L 3.507812 8.890625 L 4.507812 8.890625 Z M 12.621094 5.785156 L 13.324219 6.851562 L 13.824219 6.851562 L 13.824219 5.082031 L 13.425781 5.082031 L 13.425781 6.25 L 13.324219 6.082031 L 12.6875 5.082031 L 12.15625 5.082031 L 12.15625 6.851562 L 12.554688 6.851562 L 12.554688 5.648438 Z M 10.886719 5.75 L 11.019531 5.382812 L 11.152344 5.75 L 11.320312 6.152344 L 10.71875 6.152344 Z M 11.585938 6.851562 L 12.023438 6.851562 L 11.253906 5.082031 L 10.71875 5.082031 L 9.949219 6.851562 L 10.386719 6.851562 L 10.550781 6.484375 L 11.421875 6.484375 Z M 9.71875 6.851562 L 9.882812 6.484375 L 9.785156 6.484375 C 9.484375 6.484375 9.316406 6.285156 9.316406 5.984375 L 9.316406 5.949219 C 9.316406 5.648438 9.484375 5.449219 9.785156 5.449219 L 10.21875 5.449219 L 10.21875 5.082031 L 9.75 5.082031 C 9.214844 5.082031 8.917969 5.449219 8.917969 5.949219 L 8.917969 5.984375 C 8.917969 6.519531 9.214844 6.851562 9.71875 6.851562 Z M 8.214844 6.851562 L 8.613281 6.851562 L 8.613281 5.117188 L 8.214844 5.117188 Z M 7.347656 5.449219 C 7.511719 5.449219 7.582031 5.550781 7.582031 5.648438 C 7.582031 5.75 7.511719 5.851562 7.347656 5.851562 L 6.84375 5.851562 L 6.84375 5.417969 Z M 6.84375 6.21875 L 7.046875 6.21875 L 7.582031 6.851562 L 8.082031 6.851562 L 7.480469 6.183594 C 7.78125 6.117188 7.949219 5.917969 7.949219 5.648438 C 7.949219 5.316406 7.714844 5.082031 7.347656 5.082031 L 6.410156 5.082031 L 6.410156 6.851562 L 6.8125 6.851562 Z M 6.109375 5.449219 L 6.109375 5.082031 L 4.707031 5.082031 L 4.707031 6.851562 L 6.109375 6.851562 L 6.109375 6.484375 L 5.109375 6.484375 L 5.109375 6.117188 L 6.078125 6.117188 L 6.078125 5.75 L 5.109375 5.75 L 5.109375 5.414062 L 6.109375 5.414062 Z M 3.070312 6.851562 L 3.4375 6.851562 L 3.941406 5.417969 L 3.941406 6.851562 L 4.339844 6.851562 L 4.339844 5.082031 L 3.671875 5.082031 L 3.273438 6.285156 L 2.871094 5.082031 L 2.203125 5.082031 L 2.203125 6.851562 L 2.605469 6.851562 L 2.605469 5.417969 Z M 0.902344 5.75 L 1.035156 5.382812 L 1.167969 5.75 L 1.335938 6.152344 L 0.734375 6.152344 Z M 1.601562 6.851562 L 2.035156 6.851562 L 1.269531 5.082031 L 0.769531 5.082031 L 0 6.851562 L 0.433594 6.851562 L 0.601562 6.484375 L 1.46875 6.484375 Z M 1.601562 6.851562 "/>
</g>
</svg>
